<?xml version="1.0" standalone="no"?>
<!DOCTYPE svg PUBLIC "-//W3C//DTD SVG 1.1//EN" "http://www.w3.org/Graphics/SVG/1.1/DTD/svg11.dtd" >
<svg xmlns="http://www.w3.org/2000/svg">
<metadata></metadata>
<defs>
<font id="ggalexandraregularregular" horiz-adv-x="1069" >
<font-face units-per-em="2048" ascent="1591" descent="-457" />
<missing-glyph horiz-adv-x="534" />
<glyph unicode="fi" horiz-adv-x="1062" d="M53 821v158h135v168q0 49 16.5 109.5t58.5 113.5t111.5 89t174.5 36v-160q-98 0 -138 -52t-40 -130v-174h536v-979h-188v821h-348v-821h-183v821h-135zM715 1169v197h196v-197h-196z" />
<glyph unicode="fl" horiz-adv-x="1038" d="M53 821v158h135v147q0 49 16.5 109.5t57.5 114t109.5 89.5t173.5 36h342v-1475h-180v1315h-162q-98 0 -136 -52.5t-38 -129.5v-154h178v-158h-178v-821h-183v821h-135z" />
<glyph unicode="Les&#x20;Accessimes" horiz-adv-x="13056" d="M131 100v1205q0 43 27 69q29 27 69 27q49 0 76 -27q27 -31 27 -69v-1108h565q41 0 72 -27q29 -29 28 -70q0 -45 -28 -69q-29 -29 -72 -29h-668q-37 0 -67 25q-29 23 -29 73zM1145 350v246q0 76 31 143q31 66 84 117q55 51 124 78q35 16 73 22.5t79 6.5q84 0 154 -29 q72 -29 125 -78q51 -47 83 -117q33 -66 33 -143v-86q0 -49 -33 -74q-31 -25 -67 -24h-488v-62q0 -18 5.5 -34.5t13.5 -32.5q20 -33 47 -58q14 -10 30.5 -19t35.5 -20q37 -14 79 -14q45 0 95 18q25 8 43 20.5t30 29.5q29 31 72 34q39 6 72 -16q31 -25 37 -59q8 -37 -23 -74 q-35 -43 -80 -72q-23 -14 -47 -25.5t-55 -21.5q-29 -12 -66 -17t-78 -5q-78 0 -151 28q-74 31 -133 78q-29 27 -51.5 54.5t-38.5 62.5q-35 66 -35 143zM1343 598h386q0 41 -17 68q-14 31 -41 57q-23 27 -59 41q-31 14 -76 14q-39 0 -74 -14q-16 -8 -31.5 -17.5t-27.5 -23.5 q-16 -12 -25.5 -26.5t-19.5 -30.5q-6 -16 -10.5 -33t-4.5 -35zM2109 186q6 41 31 66q12 14 29.5 19t36.5 8q43 4 73 -35q31 -33 72 -51q37 -23 88 -23q31 0 62 6q16 2 30.5 7t26.5 12q25 8 43 30q16 23 16 54q0 25 -14 47q-10 10 -18.5 17t-22.5 13q-25 14 -51 25 q-16 4 -32.5 9t-33.5 9q-31 10 -61.5 19.5t-59.5 17.5q-61 23 -104 51q-47 29 -76 78q-29 51 -28 119q0 66 30 119q27 51 76 88q43 35 105 53q61 18 124 19q88 0 172 -33q80 -33 134 -107q29 -45 20 -82q-6 -18 -14 -32.5t-25 -24.5q-31 -20 -69 -18q-41 2 -68 43 q-16 16 -31.5 28.5t-34.5 22.5q-37 18 -84 18q-27 0 -48 -5t-44 -15q-41 -23 -41 -68t45 -65q23 -10 54.5 -21.5t72.5 -25.5q31 -8 59.5 -16.5t57.5 -18.5q57 -18 105 -49q49 -31 75 -82q29 -51 29 -127q0 -78 -33 -131q-31 -53 -84 -95q-29 -18 -58.5 -32.5t-64.5 -24.5 q-68 -18 -137 -18q-18 0 -38.5 2t-43.5 6q-45 10 -82 24q-18 8 -37.5 17.5t-35.5 23.5q-33 19 -64 54q-29 35 -29 75zM3496 113l434 1220q20 68 90 68q39 0 60 -21q20 -16 32 -53l435 -1214q16 -47 -5 -78q-18 -35 -55 -47q-35 -8 -72 4q-39 16 -53 59l-94 252h-498 l-90 -252q-14 -45 -51 -59q-39 -12 -72 -4q-39 12 -57 47q-20 31 -4 78zM3842 498h356l-178 501zM4694 350v246q0 76 31 143q16 35 35.5 63.5t48.5 53.5q49 49 123 78q35 16 72.5 22.5t78.5 6.5q82 0 143 -23q59 -20 103 -47q49 -37 80 -70q33 -35 22 -75q-6 -33 -37 -58 q-27 -23 -71 -18q-45 4 -72 37q-25 31 -74 49q-47 18 -94 18q-43 0 -74 -14q-16 -8 -31.5 -17.5t-27.5 -23.5q-29 -23 -43 -55q-16 -37 -16 -70v-246q0 -33 16 -69q14 -29 43 -58q23 -20 59 -37q31 -14 74 -14q47 0 94 18q25 8 43.5 20.5t30.5 29.5q29 31 72 34q39 6 71 -16 q31 -25 37 -59q10 -39 -22 -74q-35 -43 -80 -72q-41 -29 -103 -47q-29 -12 -65.5 -17t-77.5 -5q-78 0 -151 28q-74 33 -123 78q-29 27 -48.5 54.5t-35.5 62.5q-31 63 -31 143zM5628 350v246q0 72 33 143q31 70 82 117q53 51 122 78q66 29 154 29q80 0 141 -23 q33 -10 56.5 -22.5t46.5 -24.5q49 -33 82 -70q31 -37 22 -75q-8 -37 -39 -58q-27 -23 -71 -18q-41 4 -72 37q-25 31 -72 49q-49 18 -94 18q-43 0 -74 -14q-37 -16 -61 -41q-14 -10 -23.5 -24.5t-19.5 -30.5q-14 -31 -14 -70v-246q0 -39 14 -69q10 -16 19.5 -29.5t23.5 -28.5 q27 -23 61 -37q31 -14 74 -14q45 0 94 18q45 14 72 50q31 31 72 34q39 6 71 -16q29 -20 39 -59q8 -37 -22 -74q-37 -43 -82 -72q-23 -14 -46.5 -25.5t-56.5 -21.5q-29 -12 -64.5 -17t-76.5 -5q-80 0 -154 28q-68 31 -122 78q-53 53 -82 117q-16 33 -24.5 67.5t-8.5 75.5z M6562 350v246q0 72 33 143q33 70 84 117q55 51 124 78q35 16 73 22.5t79 6.5t79 -6.5t73 -22.5q37 -14 67.5 -33.5t59.5 -44.5q53 -51 84 -117q33 -66 32 -143v-86q0 -49 -32 -74q-31 -25 -68 -24h-488v-62q0 -37 19 -67q18 -31 45 -58q16 -10 32.5 -19t35.5 -20 q37 -14 79 -14q41 0 95 18q25 8 43 20.5t30 29.5q29 31 70 34q43 6 72 -16q29 -20 39 -59q8 -37 -25 -74q-31 -41 -78 -72q-45 -29 -102 -47q-58 -22 -144 -22q-78 0 -153 28q-76 31 -131 78q-29 27 -51.5 54.5t-38.5 62.5q-37 63 -37 143zM6762 598h386q0 35 -17 68 q-14 31 -41 57q-12 14 -27.5 23.5t-31.5 17.5q-35 14 -76 14q-43 0 -74 -14q-37 -16 -61 -41q-29 -25 -43 -57q-6 -16 -10.5 -33t-4.5 -35zM7528 186q6 41 31 66q12 14 28.5 19t37.5 8q39 2 73 -35q29 -33 70 -51q23 -12 44.5 -17.5t43.5 -5.5q33 0 64 6q16 2 30.5 7 t26.5 12q14 4 23.5 12t19.5 18q14 20 14 54q0 29 -12 47q-20 20 -41 30q-18 10 -53 25q-16 4 -32.5 9t-33.5 9q-29 10 -59.5 19.5t-61.5 17.5q-29 10 -54 22.5t-48 28.5q-47 29 -76 78q-29 51 -28 119q0 66 30 119q27 51 76 88q43 35 105 53q61 18 122 19q92 0 172 -33 t136 -107q29 -45 20 -82q-14 -41 -39 -57q-31 -20 -69 -18q-41 2 -68 43q-16 16 -31.5 28.5t-34.5 22.5q-37 18 -86 18q-27 0 -48 -5t-42 -15q-41 -23 -41 -68t45 -65q23 -10 54.5 -21.5t72.5 -25.5q31 -8 59.5 -16.5t57.5 -18.5t54.5 -21.5t50.5 -27.5q45 -31 75 -82 q27 -47 27 -127t-31 -131q-31 -55 -86 -95q-55 -39 -121 -57q-68 -18 -139 -18q-16 0 -36.5 2t-43.5 6q-41 8 -82 24q-20 8 -38.5 17.5t-34.5 23.5q-39 23 -64 54q-31 39 -29 75zM8403 186q6 41 31 66q12 14 28.5 19t36.5 8q41 2 76 -35q27 -33 70 -51q39 -23 88 -23 q31 0 61 6q16 2 30.5 7t26.5 12q27 8 41 30q18 20 19 54q0 27 -17 47q-10 16 -36 30q-25 12 -56 25q-16 4 -31.5 9t-31.5 9q-31 10 -61.5 19.5t-59.5 17.5q-29 10 -55.5 22.5t-48.5 28.5q-47 29 -76 78q-29 51 -29 119q0 66 31 119q27 51 76 88q43 35 104 53q57 18 125 19 q88 0 172 -33q80 -33 133 -107q31 -41 21 -82t-39 -57q-31 -23 -70 -18q-39 4 -70 43q-27 33 -63 51q-37 18 -84 18q-27 0 -48.5 -5t-43.5 -15q-43 -27 -43 -68q0 -43 47 -65q23 -10 54.5 -21.5t72.5 -25.5q29 -8 58.5 -16.5t58.5 -18.5q57 -18 104 -49q45 -31 76 -82 q29 -45 29 -127q0 -78 -33 -131q-33 -59 -86 -95q-27 -18 -56.5 -32.5t-64.5 -24.5q-72 -18 -137 -18q-20 0 -39 2t-41 6q-45 10 -84 24q-43 16 -76 41q-18 10 -32.5 24t-28.5 30q-31 39 -29 75zM9341 1262v28q0 29 10 48.5t29 35.5q35 27 78 27q45 0 77 -27q37 -31 37 -84 v-28q0 -55 -37 -82q-35 -29 -77 -29q-39 0 -78 29t-39 82zM9355 82v784q0 51 33 72q31 25 70 25q37 0 67 -25q29 -21 29 -72v-784q0 -53 -29 -74q-31 -25 -67 -24q-39 0 -70 24q-33 20 -33 74zM9853 82v784q0 43 29 70q27 27 71 27q35 0 60 -19q27 -18 37 -49q49 39 88 53 q37 15 82 15q63 0 129 -25q31 -10 60.5 -31.5t59.5 -50.5q53 49 115 76q33 16 66.5 23.5t70.5 7.5q78 0 140 -27q31 -12 59.5 -29.5t52.5 -40.5q49 -45 76 -106q29 -63 29 -131v-547q0 -43 -29 -72q-27 -27 -72 -26q-51 0 -78 26q-25 27 -24 72v547q0 57 -45 100 q-41 41 -109 41q-72 0 -110 -41q-45 -43 -45 -100v-547q0 -43 -29 -72q-27 -27 -74 -26q-45 0 -71 26q-27 31 -27 72v547q0 57 -45 100q-47 41 -111 41q-70 0 -114 -43q-45 -45 -45 -102v-543q0 -43 -29 -72q-29 -27 -70 -26q-45 0 -71 26q-27 25 -27 72zM11311 350v246 q0 39 7 74t24 69q33 70 84 117q53 49 125 78q35 16 72.5 22.5t78.5 6.5q84 0 154 -29q70 -27 125 -78q55 -49 86 -117t31 -143v-86q0 -49 -31 -74t-70 -24h-487v-62q0 -37 18 -67q14 -27 47 -58q25 -18 68 -39q35 -14 78 -14q45 0 92 18q25 8 43 20.5t33 29.5q29 31 69 34 q41 6 72 -16q31 -23 39 -59q6 -39 -23 -74q-31 -39 -82 -72q-43 -31 -102 -47q-53 -22 -141 -22q-78 0 -154 28q-70 29 -131 78q-29 27 -52.5 54.5t-39.5 62.5q-33 63 -33 143zM11510 598h385q0 35 -17 68q-14 31 -41 57q-23 25 -61 41q-31 14 -74 14t-73 -14 q-35 -14 -62 -41q-31 -27 -41 -57q-16 -27 -16 -68zM12278 186q4 43 28 66q14 14 29.5 19t38.5 8q39 2 74 -35q31 -35 69 -51q37 -23 88 -23q27 0 62 6q16 2 30.5 7t26.5 12q12 4 22.5 12t20.5 18q14 20 15 54q0 31 -15 47q-16 18 -37 30q-14 6 -26.5 12.5t-28.5 12.5 q-16 4 -31.5 9t-31.5 9q-33 10 -63 19.5t-58 17.5q-31 10 -56.5 22.5t-50.5 28.5q-45 33 -76 78q-25 49 -24 119q0 68 27 119q31 51 75 88q25 16 50.5 29.5t56.5 23.5q61 18 123 19q92 0 172 -33q82 -33 133 -107q16 -23 21 -42t1 -40q-10 -39 -41 -57q-29 -23 -67 -18 q-39 2 -70 43q-12 16 -27.5 28.5t-35.5 22.5q-37 18 -86 18q-45 0 -92 -20q-39 -25 -39 -68q0 -45 45 -65q23 -10 55.5 -21.5t73.5 -25.5q29 -8 57.5 -16.5t56.5 -18.5q29 -10 54.5 -21.5t48.5 -27.5q47 -29 78 -82q29 -51 28 -127q0 -72 -32 -131q-37 -59 -87 -95 q-29 -18 -57.5 -32.5t-62.5 -24.5q-68 -18 -138 -18q-20 0 -39.5 2t-41.5 6q-45 10 -82 24q-43 16 -76 41q-35 23 -60 54q-35 37 -28 75z" />
<glyph unicode="les&#x20;accessimes" horiz-adv-x="13056" d="M131 100v1205q0 43 27 69q29 27 69 27q49 0 76 -27q27 -31 27 -69v-1108h565q41 0 72 -27q29 -29 28 -70q0 -45 -28 -69q-29 -29 -72 -29h-668q-37 0 -67 25q-29 23 -29 73zM1145 350v246q0 76 31 143q31 66 84 117q55 51 124 78q35 16 73 22.5t79 6.5q84 0 154 -29 q72 -29 125 -78q51 -47 83 -117q33 -66 33 -143v-86q0 -49 -33 -74q-31 -25 -67 -24h-488v-62q0 -18 5.5 -34.5t13.5 -32.5q20 -33 47 -58q14 -10 30.5 -19t35.5 -20q37 -14 79 -14q45 0 95 18q25 8 43 20.5t30 29.5q29 31 72 34q39 6 72 -16q31 -25 37 -59q8 -37 -23 -74 q-35 -43 -80 -72q-23 -14 -47 -25.5t-55 -21.5q-29 -12 -66 -17t-78 -5q-78 0 -151 28q-74 31 -133 78q-29 27 -51.5 54.5t-38.5 62.5q-35 66 -35 143zM1343 598h386q0 41 -17 68q-14 31 -41 57q-23 27 -59 41q-31 14 -76 14q-39 0 -74 -14q-16 -8 -31.5 -17.5t-27.5 -23.5 q-16 -12 -25.5 -26.5t-19.5 -30.5q-6 -16 -10.5 -33t-4.5 -35zM2109 186q6 41 31 66q12 14 29.5 19t36.5 8q43 4 73 -35q31 -33 72 -51q37 -23 88 -23q31 0 62 6q16 2 30.5 7t26.5 12q25 8 43 30q16 23 16 54q0 25 -14 47q-10 10 -18.5 17t-22.5 13q-25 14 -51 25 q-16 4 -32.5 9t-33.5 9q-31 10 -61.5 19.5t-59.5 17.5q-61 23 -104 51q-47 29 -76 78q-29 51 -28 119q0 66 30 119q27 51 76 88q43 35 105 53q61 18 124 19q88 0 172 -33q80 -33 134 -107q29 -45 20 -82q-6 -18 -14 -32.5t-25 -24.5q-31 -20 -69 -18q-41 2 -68 43 q-16 16 -31.5 28.5t-34.5 22.5q-37 18 -84 18q-27 0 -48 -5t-44 -15q-41 -23 -41 -68t45 -65q23 -10 54.5 -21.5t72.5 -25.5q31 -8 59.5 -16.5t57.5 -18.5q57 -18 105 -49q49 -31 75 -82q29 -51 29 -127q0 -78 -33 -131q-31 -53 -84 -95q-29 -18 -58.5 -32.5t-64.5 -24.5 q-68 -18 -137 -18q-18 0 -38.5 2t-43.5 6q-45 10 -82 24q-18 8 -37.5 17.5t-35.5 23.5q-33 19 -64 54q-29 35 -29 75zM3496 113l434 1220q20 68 90 68q39 0 60 -21q20 -16 32 -53l435 -1214q16 -47 -5 -78q-18 -35 -55 -47q-35 -8 -72 4q-39 16 -53 59l-94 252h-498 l-90 -252q-14 -45 -51 -59q-39 -12 -72 -4q-39 12 -57 47q-20 31 -4 78zM3842 498h356l-178 501zM4694 350v246q0 76 31 143q16 35 35.5 63.5t48.5 53.5q49 49 123 78q35 16 72.5 22.5t78.5 6.5q82 0 143 -23q59 -20 103 -47q49 -37 80 -70q33 -35 22 -75q-6 -33 -37 -58 q-27 -23 -71 -18q-45 4 -72 37q-25 31 -74 49q-47 18 -94 18q-43 0 -74 -14q-16 -8 -31.5 -17.5t-27.5 -23.5q-29 -23 -43 -55q-16 -37 -16 -70v-246q0 -33 16 -69q14 -29 43 -58q23 -20 59 -37q31 -14 74 -14q47 0 94 18q25 8 43.5 20.5t30.5 29.5q29 31 72 34q39 6 71 -16 q31 -25 37 -59q10 -39 -22 -74q-35 -43 -80 -72q-41 -29 -103 -47q-29 -12 -65.5 -17t-77.5 -5q-78 0 -151 28q-74 33 -123 78q-29 27 -48.5 54.5t-35.5 62.5q-31 63 -31 143zM5628 350v246q0 72 33 143q31 70 82 117q53 51 122 78q66 29 154 29q80 0 141 -23 q33 -10 56.5 -22.5t46.5 -24.5q49 -33 82 -70q31 -37 22 -75q-8 -37 -39 -58q-27 -23 -71 -18q-41 4 -72 37q-25 31 -72 49q-49 18 -94 18q-43 0 -74 -14q-37 -16 -61 -41q-14 -10 -23.5 -24.5t-19.5 -30.5q-14 -31 -14 -70v-246q0 -39 14 -69q10 -16 19.5 -29.5t23.5 -28.5 q27 -23 61 -37q31 -14 74 -14q45 0 94 18q45 14 72 50q31 31 72 34q39 6 71 -16q29 -20 39 -59q8 -37 -22 -74q-37 -43 -82 -72q-23 -14 -46.5 -25.5t-56.5 -21.5q-29 -12 -64.5 -17t-76.5 -5q-80 0 -154 28q-68 31 -122 78q-53 53 -82 117q-16 33 -24.5 67.5t-8.5 75.5z M6562 350v246q0 72 33 143q33 70 84 117q55 51 124 78q35 16 73 22.5t79 6.5t79 -6.5t73 -22.5q37 -14 67.5 -33.5t59.5 -44.5q53 -51 84 -117q33 -66 32 -143v-86q0 -49 -32 -74q-31 -25 -68 -24h-488v-62q0 -37 19 -67q18 -31 45 -58q16 -10 32.5 -19t35.5 -20 q37 -14 79 -14q41 0 95 18q25 8 43 20.5t30 29.5q29 31 70 34q43 6 72 -16q29 -20 39 -59q8 -37 -25 -74q-31 -41 -78 -72q-45 -29 -102 -47q-58 -22 -144 -22q-78 0 -153 28q-76 31 -131 78q-29 27 -51.5 54.5t-38.5 62.5q-37 63 -37 143zM6762 598h386q0 35 -17 68 q-14 31 -41 57q-12 14 -27.5 23.5t-31.5 17.5q-35 14 -76 14q-43 0 -74 -14q-37 -16 -61 -41q-29 -25 -43 -57q-6 -16 -10.5 -33t-4.5 -35zM7528 186q6 41 31 66q12 14 28.5 19t37.5 8q39 2 73 -35q29 -33 70 -51q23 -12 44.5 -17.5t43.5 -5.5q33 0 64 6q16 2 30.5 7 t26.5 12q14 4 23.5 12t19.5 18q14 20 14 54q0 29 -12 47q-20 20 -41 30q-18 10 -53 25q-16 4 -32.5 9t-33.5 9q-29 10 -59.5 19.5t-61.5 17.5q-29 10 -54 22.5t-48 28.5q-47 29 -76 78q-29 51 -28 119q0 66 30 119q27 51 76 88q43 35 105 53q61 18 122 19q92 0 172 -33 t136 -107q29 -45 20 -82q-14 -41 -39 -57q-31 -20 -69 -18q-41 2 -68 43q-16 16 -31.5 28.5t-34.5 22.5q-37 18 -86 18q-27 0 -48 -5t-42 -15q-41 -23 -41 -68t45 -65q23 -10 54.5 -21.5t72.5 -25.5q31 -8 59.5 -16.5t57.5 -18.5t54.5 -21.5t50.5 -27.5q45 -31 75 -82 q27 -47 27 -127t-31 -131q-31 -55 -86 -95q-55 -39 -121 -57q-68 -18 -139 -18q-16 0 -36.5 2t-43.5 6q-41 8 -82 24q-20 8 -38.5 17.5t-34.5 23.5q-39 23 -64 54q-31 39 -29 75zM8403 186q6 41 31 66q12 14 28.5 19t36.5 8q41 2 76 -35q27 -33 70 -51q39 -23 88 -23 q31 0 61 6q16 2 30.5 7t26.5 12q27 8 41 30q18 20 19 54q0 27 -17 47q-10 16 -36 30q-25 12 -56 25q-16 4 -31.5 9t-31.5 9q-31 10 -61.5 19.5t-59.5 17.5q-29 10 -55.5 22.5t-48.5 28.5q-47 29 -76 78q-29 51 -29 119q0 66 31 119q27 51 76 88q43 35 104 53q57 18 125 19 q88 0 172 -33q80 -33 133 -107q31 -41 21 -82t-39 -57q-31 -23 -70 -18q-39 4 -70 43q-27 33 -63 51q-37 18 -84 18q-27 0 -48.5 -5t-43.5 -15q-43 -27 -43 -68q0 -43 47 -65q23 -10 54.5 -21.5t72.5 -25.5q29 -8 58.5 -16.5t58.5 -18.5q57 -18 104 -49q45 -31 76 -82 q29 -45 29 -127q0 -78 -33 -131q-33 -59 -86 -95q-27 -18 -56.5 -32.5t-64.5 -24.5q-72 -18 -137 -18q-20 0 -39 2t-41 6q-45 10 -84 24q-43 16 -76 41q-18 10 -32.5 24t-28.5 30q-31 39 -29 75zM9341 1262v28q0 29 10 48.5t29 35.5q35 27 78 27q45 0 77 -27q37 -31 37 -84 v-28q0 -55 -37 -82q-35 -29 -77 -29q-39 0 -78 29t-39 82zM9355 82v784q0 51 33 72q31 25 70 25q37 0 67 -25q29 -21 29 -72v-784q0 -53 -29 -74q-31 -25 -67 -24q-39 0 -70 24q-33 20 -33 74zM9853 82v784q0 43 29 70q27 27 71 27q35 0 60 -19q27 -18 37 -49q49 39 88 53 q37 15 82 15q63 0 129 -25q31 -10 60.5 -31.5t59.5 -50.5q53 49 115 76q33 16 66.5 23.5t70.5 7.5q78 0 140 -27q31 -12 59.5 -29.5t52.5 -40.5q49 -45 76 -106q29 -63 29 -131v-547q0 -43 -29 -72q-27 -27 -72 -26q-51 0 -78 26q-25 27 -24 72v547q0 57 -45 100 q-41 41 -109 41q-72 0 -110 -41q-45 -43 -45 -100v-547q0 -43 -29 -72q-27 -27 -74 -26q-45 0 -71 26q-27 31 -27 72v547q0 57 -45 100q-47 41 -111 41q-70 0 -114 -43q-45 -45 -45 -102v-543q0 -43 -29 -72q-29 -27 -70 -26q-45 0 -71 26q-27 25 -27 72zM11311 350v246 q0 39 7 74t24 69q33 70 84 117q53 49 125 78q35 16 72.5 22.5t78.5 6.5q84 0 154 -29q70 -27 125 -78q55 -49 86 -117t31 -143v-86q0 -49 -31 -74t-70 -24h-487v-62q0 -37 18 -67q14 -27 47 -58q25 -18 68 -39q35 -14 78 -14q45 0 92 18q25 8 43 20.5t33 29.5q29 31 69 34 q41 6 72 -16q31 -23 39 -59q6 -39 -23 -74q-31 -39 -82 -72q-43 -31 -102 -47q-53 -22 -141 -22q-78 0 -154 28q-70 29 -131 78q-29 27 -52.5 54.5t-39.5 62.5q-33 63 -33 143zM11510 598h385q0 35 -17 68q-14 31 -41 57q-23 25 -61 41q-31 14 -74 14t-73 -14 q-35 -14 -62 -41q-31 -27 -41 -57q-16 -27 -16 -68zM12278 186q4 43 28 66q14 14 29.5 19t38.5 8q39 2 74 -35q31 -35 69 -51q37 -23 88 -23q27 0 62 6q16 2 30.5 7t26.5 12q12 4 22.5 12t20.5 18q14 20 15 54q0 31 -15 47q-16 18 -37 30q-14 6 -26.5 12.5t-28.5 12.5 q-16 4 -31.5 9t-31.5 9q-33 10 -63 19.5t-58 17.5q-31 10 -56.5 22.5t-50.5 28.5q-45 33 -76 78q-25 49 -24 119q0 68 27 119q31 51 75 88q25 16 50.5 29.5t56.5 23.5q61 18 123 19q92 0 172 -33q82 -33 133 -107q16 -23 21 -42t1 -40q-10 -39 -41 -57q-29 -23 -67 -18 q-39 2 -70 43q-12 16 -27.5 28.5t-35.5 22.5q-37 18 -86 18q-45 0 -92 -20q-39 -25 -39 -68q0 -45 45 -65q23 -10 55.5 -21.5t73.5 -25.5q29 -8 57.5 -16.5t56.5 -18.5q29 -10 54.5 -21.5t48.5 -27.5q47 -29 78 -82q29 -51 28 -127q0 -72 -32 -131q-37 -59 -87 -95 q-29 -18 -57.5 -32.5t-62.5 -24.5q-68 -18 -138 -18q-20 0 -39.5 2t-41.5 6q-45 10 -82 24q-43 16 -76 41q-35 23 -60 54q-35 37 -28 75z" />
<glyph unicode="Les&#x20;accessimes" horiz-adv-x="13056" d="M131 100v1205q0 43 27 69q29 27 69 27q49 0 76 -27q27 -31 27 -69v-1108h565q41 0 72 -27q29 -29 28 -70q0 -45 -28 -69q-29 -29 -72 -29h-668q-37 0 -67 25q-29 23 -29 73zM1145 350v246q0 76 31 143q31 66 84 117q55 51 124 78q35 16 73 22.5t79 6.5q84 0 154 -29 q72 -29 125 -78q51 -47 83 -117q33 -66 33 -143v-86q0 -49 -33 -74q-31 -25 -67 -24h-488v-62q0 -18 5.5 -34.5t13.5 -32.5q20 -33 47 -58q14 -10 30.5 -19t35.5 -20q37 -14 79 -14q45 0 95 18q25 8 43 20.5t30 29.5q29 31 72 34q39 6 72 -16q31 -25 37 -59q8 -37 -23 -74 q-35 -43 -80 -72q-23 -14 -47 -25.5t-55 -21.5q-29 -12 -66 -17t-78 -5q-78 0 -151 28q-74 31 -133 78q-29 27 -51.5 54.5t-38.5 62.5q-35 66 -35 143zM1343 598h386q0 41 -17 68q-14 31 -41 57q-23 27 -59 41q-31 14 -76 14q-39 0 -74 -14q-16 -8 -31.5 -17.5t-27.5 -23.5 q-16 -12 -25.5 -26.5t-19.5 -30.5q-6 -16 -10.5 -33t-4.5 -35zM2109 186q6 41 31 66q12 14 29.5 19t36.5 8q43 4 73 -35q31 -33 72 -51q37 -23 88 -23q31 0 62 6q16 2 30.5 7t26.5 12q25 8 43 30q16 23 16 54q0 25 -14 47q-10 10 -18.5 17t-22.5 13q-25 14 -51 25 q-16 4 -32.5 9t-33.5 9q-31 10 -61.5 19.5t-59.5 17.5q-61 23 -104 51q-47 29 -76 78q-29 51 -28 119q0 66 30 119q27 51 76 88q43 35 105 53q61 18 124 19q88 0 172 -33q80 -33 134 -107q29 -45 20 -82q-6 -18 -14 -32.5t-25 -24.5q-31 -20 -69 -18q-41 2 -68 43 q-16 16 -31.5 28.5t-34.5 22.5q-37 18 -84 18q-27 0 -48 -5t-44 -15q-41 -23 -41 -68t45 -65q23 -10 54.5 -21.5t72.5 -25.5q31 -8 59.5 -16.5t57.5 -18.5q57 -18 105 -49q49 -31 75 -82q29 -51 29 -127q0 -78 -33 -131q-31 -53 -84 -95q-29 -18 -58.5 -32.5t-64.5 -24.5 q-68 -18 -137 -18q-18 0 -38.5 2t-43.5 6q-45 10 -82 24q-18 8 -37.5 17.5t-35.5 23.5q-33 19 -64 54q-29 35 -29 75zM3496 113l434 1220q20 68 90 68q39 0 60 -21q20 -16 32 -53l435 -1214q16 -47 -5 -78q-18 -35 -55 -47q-35 -8 -72 4q-39 16 -53 59l-94 252h-498 l-90 -252q-14 -45 -51 -59q-39 -12 -72 -4q-39 12 -57 47q-20 31 -4 78zM3842 498h356l-178 501zM4694 350v246q0 76 31 143q16 35 35.5 63.5t48.5 53.5q49 49 123 78q35 16 72.5 22.5t78.5 6.5q82 0 143 -23q59 -20 103 -47q49 -37 80 -70q33 -35 22 -75q-6 -33 -37 -58 q-27 -23 -71 -18q-45 4 -72 37q-25 31 -74 49q-47 18 -94 18q-43 0 -74 -14q-16 -8 -31.5 -17.5t-27.5 -23.5q-29 -23 -43 -55q-16 -37 -16 -70v-246q0 -33 16 -69q14 -29 43 -58q23 -20 59 -37q31 -14 74 -14q47 0 94 18q25 8 43.5 20.5t30.5 29.5q29 31 72 34q39 6 71 -16 q31 -25 37 -59q10 -39 -22 -74q-35 -43 -80 -72q-41 -29 -103 -47q-29 -12 -65.5 -17t-77.5 -5q-78 0 -151 28q-74 33 -123 78q-29 27 -48.5 54.5t-35.5 62.5q-31 63 -31 143zM5628 350v246q0 72 33 143q31 70 82 117q53 51 122 78q66 29 154 29q80 0 141 -23 q33 -10 56.5 -22.5t46.5 -24.5q49 -33 82 -70q31 -37 22 -75q-8 -37 -39 -58q-27 -23 -71 -18q-41 4 -72 37q-25 31 -72 49q-49 18 -94 18q-43 0 -74 -14q-37 -16 -61 -41q-14 -10 -23.5 -24.5t-19.5 -30.5q-14 -31 -14 -70v-246q0 -39 14 -69q10 -16 19.5 -29.5t23.5 -28.5 q27 -23 61 -37q31 -14 74 -14q45 0 94 18q45 14 72 50q31 31 72 34q39 6 71 -16q29 -20 39 -59q8 -37 -22 -74q-37 -43 -82 -72q-23 -14 -46.5 -25.5t-56.5 -21.5q-29 -12 -64.5 -17t-76.5 -5q-80 0 -154 28q-68 31 -122 78q-53 53 -82 117q-16 33 -24.5 67.5t-8.5 75.5z M6562 350v246q0 72 33 143q33 70 84 117q55 51 124 78q35 16 73 22.5t79 6.5t79 -6.5t73 -22.5q37 -14 67.5 -33.5t59.5 -44.5q53 -51 84 -117q33 -66 32 -143v-86q0 -49 -32 -74q-31 -25 -68 -24h-488v-62q0 -37 19 -67q18 -31 45 -58q16 -10 32.5 -19t35.5 -20 q37 -14 79 -14q41 0 95 18q25 8 43 20.5t30 29.5q29 31 70 34q43 6 72 -16q29 -20 39 -59q8 -37 -25 -74q-31 -41 -78 -72q-45 -29 -102 -47q-58 -22 -144 -22q-78 0 -153 28q-76 31 -131 78q-29 27 -51.5 54.5t-38.5 62.5q-37 63 -37 143zM6762 598h386q0 35 -17 68 q-14 31 -41 57q-12 14 -27.5 23.5t-31.5 17.5q-35 14 -76 14q-43 0 -74 -14q-37 -16 -61 -41q-29 -25 -43 -57q-6 -16 -10.5 -33t-4.5 -35zM7528 186q6 41 31 66q12 14 28.5 19t37.5 8q39 2 73 -35q29 -33 70 -51q23 -12 44.5 -17.5t43.5 -5.5q33 0 64 6q16 2 30.5 7 t26.5 12q14 4 23.5 12t19.5 18q14 20 14 54q0 29 -12 47q-20 20 -41 30q-18 10 -53 25q-16 4 -32.5 9t-33.5 9q-29 10 -59.5 19.5t-61.5 17.5q-29 10 -54 22.5t-48 28.5q-47 29 -76 78q-29 51 -28 119q0 66 30 119q27 51 76 88q43 35 105 53q61 18 122 19q92 0 172 -33 t136 -107q29 -45 20 -82q-14 -41 -39 -57q-31 -20 -69 -18q-41 2 -68 43q-16 16 -31.5 28.5t-34.5 22.5q-37 18 -86 18q-27 0 -48 -5t-42 -15q-41 -23 -41 -68t45 -65q23 -10 54.5 -21.5t72.5 -25.5q31 -8 59.5 -16.5t57.5 -18.5t54.5 -21.5t50.5 -27.5q45 -31 75 -82 q27 -47 27 -127t-31 -131q-31 -55 -86 -95q-55 -39 -121 -57q-68 -18 -139 -18q-16 0 -36.5 2t-43.5 6q-41 8 -82 24q-20 8 -38.5 17.5t-34.5 23.5q-39 23 -64 54q-31 39 -29 75zM8403 186q6 41 31 66q12 14 28.5 19t36.5 8q41 2 76 -35q27 -33 70 -51q39 -23 88 -23 q31 0 61 6q16 2 30.5 7t26.5 12q27 8 41 30q18 20 19 54q0 27 -17 47q-10 16 -36 30q-25 12 -56 25q-16 4 -31.5 9t-31.5 9q-31 10 -61.5 19.5t-59.5 17.5q-29 10 -55.5 22.5t-48.5 28.5q-47 29 -76 78q-29 51 -29 119q0 66 31 119q27 51 76 88q43 35 104 53q57 18 125 19 q88 0 172 -33q80 -33 133 -107q31 -41 21 -82t-39 -57q-31 -23 -70 -18q-39 4 -70 43q-27 33 -63 51q-37 18 -84 18q-27 0 -48.5 -5t-43.5 -15q-43 -27 -43 -68q0 -43 47 -65q23 -10 54.5 -21.5t72.5 -25.5q29 -8 58.5 -16.5t58.5 -18.5q57 -18 104 -49q45 -31 76 -82 q29 -45 29 -127q0 -78 -33 -131q-33 -59 -86 -95q-27 -18 -56.5 -32.5t-64.5 -24.5q-72 -18 -137 -18q-20 0 -39 2t-41 6q-45 10 -84 24q-43 16 -76 41q-18 10 -32.5 24t-28.5 30q-31 39 -29 75zM9341 1262v28q0 29 10 48.5t29 35.5q35 27 78 27q45 0 77 -27q37 -31 37 -84 v-28q0 -55 -37 -82q-35 -29 -77 -29q-39 0 -78 29t-39 82zM9355 82v784q0 51 33 72q31 25 70 25q37 0 67 -25q29 -21 29 -72v-784q0 -53 -29 -74q-31 -25 -67 -24q-39 0 -70 24q-33 20 -33 74zM9853 82v784q0 43 29 70q27 27 71 27q35 0 60 -19q27 -18 37 -49q49 39 88 53 q37 15 82 15q63 0 129 -25q31 -10 60.5 -31.5t59.5 -50.5q53 49 115 76q33 16 66.5 23.5t70.5 7.5q78 0 140 -27q31 -12 59.5 -29.5t52.5 -40.5q49 -45 76 -106q29 -63 29 -131v-547q0 -43 -29 -72q-27 -27 -72 -26q-51 0 -78 26q-25 27 -24 72v547q0 57 -45 100 q-41 41 -109 41q-72 0 -110 -41q-45 -43 -45 -100v-547q0 -43 -29 -72q-27 -27 -74 -26q-45 0 -71 26q-27 31 -27 72v547q0 57 -45 100q-47 41 -111 41q-70 0 -114 -43q-45 -45 -45 -102v-543q0 -43 -29 -72q-29 -27 -70 -26q-45 0 -71 26q-27 25 -27 72zM11311 350v246 q0 39 7 74t24 69q33 70 84 117q53 49 125 78q35 16 72.5 22.5t78.5 6.5q84 0 154 -29q70 -27 125 -78q55 -49 86 -117t31 -143v-86q0 -49 -31 -74t-70 -24h-487v-62q0 -37 18 -67q14 -27 47 -58q25 -18 68 -39q35 -14 78 -14q45 0 92 18q25 8 43 20.5t33 29.5q29 31 69 34 q41 6 72 -16q31 -23 39 -59q6 -39 -23 -74q-31 -39 -82 -72q-43 -31 -102 -47q-53 -22 -141 -22q-78 0 -154 28q-70 29 -131 78q-29 27 -52.5 54.5t-39.5 62.5q-33 63 -33 143zM11510 598h385q0 35 -17 68q-14 31 -41 57q-23 25 -61 41q-31 14 -74 14t-73 -14 q-35 -14 -62 -41q-31 -27 -41 -57q-16 -27 -16 -68zM12278 186q4 43 28 66q14 14 29.5 19t38.5 8q39 2 74 -35q31 -35 69 -51q37 -23 88 -23q27 0 62 6q16 2 30.5 7t26.5 12q12 4 22.5 12t20.5 18q14 20 15 54q0 31 -15 47q-16 18 -37 30q-14 6 -26.5 12.5t-28.5 12.5 q-16 4 -31.5 9t-31.5 9q-33 10 -63 19.5t-58 17.5q-31 10 -56.5 22.5t-50.5 28.5q-45 33 -76 78q-25 49 -24 119q0 68 27 119q31 51 75 88q25 16 50.5 29.5t56.5 23.5q61 18 123 19q92 0 172 -33q82 -33 133 -107q16 -23 21 -42t1 -40q-10 -39 -41 -57q-29 -23 -67 -18 q-39 2 -70 43q-12 16 -27.5 28.5t-35.5 22.5q-37 18 -86 18q-45 0 -92 -20q-39 -25 -39 -68q0 -45 45 -65q23 -10 55.5 -21.5t73.5 -25.5q29 -8 57.5 -16.5t56.5 -18.5q29 -10 54.5 -21.5t48.5 -27.5q47 -29 78 -82q29 -51 28 -127q0 -72 -32 -131q-37 -59 -87 -95 q-29 -18 -57.5 -32.5t-62.5 -24.5q-68 -18 -138 -18q-20 0 -39.5 2t-41.5 6q-45 10 -82 24q-43 16 -76 41q-35 23 -60 54q-35 37 -28 75z" />
<glyph unicode="Les&#x20;Belles&#x20;R&#xe9;sidences" horiz-adv-x="20289" d="M84 903q-4 53 1 104.5t19 100.5q14 51 37 95t52 83q57 76 147 123q90 45 207 45h311q29 0 47 -18q20 -18 21 -50v-1337q0 -43 -5.5 -80t-15.5 -65q-23 -59 -61 -105q117 0 226.5 -18.5t217.5 -59.5q213 -76 385 -229q123 -106 264 -170q143 -63 299 -86q160 -23 318 2 q164 25 311 100q24 13 51 5q27 -10 39 -35q12 -27 6 -53q-8 -23 -36 -39q-170 -82 -347 -109q-178 -27 -352 -6q-176 25 -336 94q-80 37 -153.5 83t-139.5 106q-78 68 -164.5 121t-185.5 89q-197 76 -403 76h-285q-29 0 -47 19q-20 18 -20 49t20 49q18 18 47 18q53 0 92 9 q43 10 72 32q31 25 49 74q18 45 19 129v1276h-244q-82 0 -148 -35q-63 -35 -106 -92q-41 -61 -60 -131q-20 -72 -14 -154q6 -80 39 -145q35 -70 88 -117q23 -16 25 -45q2 -27 -17 -49q-18 -23 -45 -22q-25 -2 -49 14q-74 63 -123 158q-47 94 -53 196zM1180 475 q0 106 32.5 195.5t92 154t140.5 101.5t177 37q98 0 179 -35t139.5 -97.5t91 -149.5t32.5 -192q0 -25 -17 -46t-50 -21h-680q20 -139 111.5 -222t222.5 -83q70 0 135 24.5t119 71.5q10 8 21 14t26 6q29 0 47 -20t18 -49q0 -41 -43 -75t-101 -57.5t-120.5 -36.5t-101.5 -13 q-100 0 -186.5 36.5t-150 103t-99 157t-35.5 196.5zM1321 559h602q-14 121 -97 196.5t-204 75.5q-117 0 -198 -73.5t-103 -198.5zM2191 197q0 29 19.5 48t48.5 19q31 0 55 -28q98 -121 252 -121q88 0 138.5 37.5t50.5 105.5q0 35 -18.5 60.5t-50.5 45t-73 35t-84 31.5l-6 2 q-55 20 -104 44t-88 56.5t-61.5 77.5t-22.5 109q0 53 22.5 97t62.5 76t95 49t123 17q86 0 163.5 -37.5t129.5 -103.5q16 -23 16 -43q0 -29 -22.5 -47t-45.5 -18q-16 0 -29.5 9t-23.5 19q-90 88 -188 88q-31 0 -61.5 -6t-54.5 -19.5t-39 -34t-15 -46.5q0 -63 56 -97t144 -67 q55 -20 109.5 -43t99.5 -56.5t73 -81.5t28 -116q0 -129 -87 -202.5t-237 -73.5q-115 0 -209 45t-153 131q-10 12 -11.5 22t-1.5 17zM3674 903q-4 53 1 104.5t20 100.5q29 102 88 178q57 76 147 123q88 45 207 45h823q90 0 164 -33q76 -31 133 -88q55 -57 90 -133 q33 -78 33 -164q0 -104 -47 -188q-51 -86 -127 -133q45 -10 84 -28.5t76 -41.5t67.5 -51.5t59.5 -63.5q51 -61 82 -147q29 -78 28 -174q0 -115 -41 -209q-45 -104 -114 -172q-76 -76 -172 -115q-98 -43 -209 -43h-891q-29 0 -47 19q-18 18 -19 49q0 31 19 49q18 18 47 18 q53 0 92 9q43 10 72 32q31 25 49 74q18 45 18 129v1081q0 31 19 50q18 18 49 18q29 0 47 -18q20 -18 20 -50v-385h402q61 0 117 25q51 23 94 66q23 20 38 43.5t27 50.5q25 55 25 117q0 125 -88 200q-90 78 -213 78h-807q-84 0 -147 -35t-107 -92q-41 -61 -59 -131 q-20 -72 -15 -154q6 -80 39 -145q35 -70 88 -117q23 -16 25 -45q2 -27 -17 -49q-18 -23 -45 -22q-25 -2 -49 14q-74 63 -123 158q-47 94 -53 196zM4461 -201h591q80 0 158 33q76 33 131 88q53 53 88 131q33 78 33 158t-33 158q-35 76 -88 129q-29 29 -60.5 50t-70.5 38 q-72 33 -158 32h-510v-567q0 -43 -5 -80t-15 -65q-23 -59 -61 -105zM5710 475q0 106 32.5 195.5t92 154t140.5 101.5t177 37q98 0 179 -35t139.5 -97.5t91.5 -149.5t33 -192q0 -25 -17.5 -46t-50.5 -21h-678q18 -139 109.5 -222t222.5 -83q70 0 136.5 24.5t117.5 71.5 q10 8 21.5 14t25.5 6q29 0 47 -20t18 -49q0 -41 -42 -75t-101 -57.5t-121.5 -36.5t-101.5 -13q-100 0 -186.5 36.5t-149.5 103t-99 157t-36 196.5zM5851 559h602q-14 121 -97 196.5t-204 75.5q-117 0 -197.5 -73.5t-103.5 -198.5zM6793 57v1321q0 31 17.5 49.5t48.5 18.5 t49 -19.5t18 -48.5v-1321q0 -31 -18.5 -49t-48.5 -18q-31 0 -48.5 18.5t-17.5 48.5zM7186 57v1321q0 31 17.5 49.5t50.5 18.5q29 0 47.5 -19.5t18.5 -48.5v-1321q0 -31 -18.5 -49t-47.5 -18q-33 0 -50.5 18.5t-17.5 48.5zM7528 475q0 106 33 195.5t92.5 154t140.5 101.5 t177 37q98 0 179 -35t139.5 -97.5t91 -149.5t32.5 -192q0 -25 -17.5 -46t-49.5 -21h-678q18 -139 109 -222t222 -83q70 0 136.5 24.5t117.5 71.5q10 8 21.5 14t26.5 6q29 0 47 -20t18 -49q0 -41 -42 -75t-101.5 -57.5t-122 -36.5t-101.5 -13q-100 0 -186 36.5t-149.5 103 t-99.5 157t-36 196.5zM7670 559h602q-14 121 -97 196.5t-204 75.5q-117 0 -198 -73.5t-103 -198.5zM8540 197q0 29 19.5 48t48.5 19q31 0 55 -28q47 -59 112.5 -90t139.5 -31q90 0 139 37.5t49 105.5q0 35 -18.5 60.5t-50 45t-72.5 35t-84 31.5l-6 2q-55 20 -104.5 44 t-87 56.5t-60 77.5t-22.5 109q0 106 82.5 172.5t218.5 66.5q88 0 164.5 -37.5t129.5 -103.5q14 -23 15 -43q0 -29 -21.5 -47t-46.5 -18q-16 0 -29.5 9t-23.5 19q-90 88 -188 88q-61 0 -114.5 -25.5t-53.5 -80.5q0 -63 55 -97t143 -67q55 -20 109.5 -43t99.5 -56.5t73 -81.5 t28 -116q0 -129 -87.5 -202.5t-236.5 -73.5q-115 0 -209 45t-154 131q-8 12 -10 22t-2 17zM10023 903q-6 109 20 205q14 51 37 95t51 83q57 76 150 123q88 45 205 45h794q109 0 209 -41q100 -43 172 -115q76 -76 115 -172q43 -98 43 -208q0 -96 -31 -179 q-14 -41 -34.5 -78.5t-47.5 -72.5t-58.5 -63.5t-66.5 -53.5q-74 -49 -157 -74l872 -983q55 -63 107.5 -114.5t101.5 -92.5q51 -41 99.5 -72.5t95.5 -54.5q96 -49 186 -67q88 -19 182 -19q29 0 47 -18q20 -18 21 -49q0 -31 -21 -49q-18 -18 -47 -19q-156 0 -280 37 q-121 35 -232 98q-104 61 -194 146q-90 86 -172 178l-936 1061h-363v-356q0 -66 -9 -115t-26 -88q-37 -74 -90 -113q-51 -39 -116 -51q-66 -12 -123 -12q-31 0 -49 18t-19 49q0 27 19 49q18 18 49 19q51 0 90 8q39 6 74 33q31 25 47 71q18 49 18 132v1107q0 31 19 50 q18 18 49 18t49 -18t18 -50v-622h375q43 0 82 8t78 25q76 35 129 88t88 129q33 74 33 160t-33 157q-35 76 -88 129q-29 29 -60.5 50.5t-68.5 37.5q-74 33 -160 33h-780q-82 0 -148 -35q-66 -37 -104 -92q-43 -59 -62 -131q-18 -70 -14 -154q6 -80 39 -145q33 -63 88 -117 q23 -16 25 -45q2 -27 -17 -49q-18 -23 -45 -22q-25 -2 -49 14q-37 33 -66.5 71.5t-54.5 86.5q-49 92 -55 196zM11997 475q0 106 33 195.5t92.5 154t140 101.5t177.5 37q98 0 179 -35t139 -97.5t91 -149.5t33 -192q0 -25 -17.5 -46t-50.5 -21h-678q18 -139 109.5 -222 t222.5 -83q70 0 136.5 24.5t117.5 71.5q10 8 21.5 14t25.5 6q29 0 47.5 -20t18.5 -49q0 -41 -43 -75t-101.5 -57.5t-121 -36.5t-101.5 -13q-100 0 -186 36.5t-149.5 103t-99.5 157t-36 196.5zM12138 559h603q-14 121 -97 196.5t-204 75.5q-117 0 -198 -73.5t-104 -198.5z M12157 1206q-10 31 3 53.5t42 30.5l436 127q31 10 53.5 -3t30.5 -42q10 -29 -4 -52.5t-43 -31.5l-434 -127q-33 -10 -55.5 6.5t-28.5 38.5zM13009 197q0 29 19.5 48t47.5 19q31 0 56 -28q47 -59 112.5 -90t139.5 -31q90 0 139 37.5t49 105.5q0 35 -18.5 60.5t-50 45 t-72.5 35t-84 31.5l-6 2q-55 20 -104.5 44t-87.5 56.5t-60.5 77.5t-22.5 109q0 106 83 172.5t218 66.5q88 0 165 -37.5t130 -103.5q14 -23 15 -43q0 -29 -21.5 -47t-46.5 -18q-16 0 -29.5 9t-23.5 19q-90 88 -189 88q-61 0 -114.5 -25.5t-53.5 -80.5q0 -63 55.5 -97 t143.5 -67q55 -20 109.5 -43t99.5 -56.5t72.5 -81.5t27.5 -116q0 -129 -87 -202.5t-236 -73.5q-115 0 -209 45t-154 131q-8 12 -10 22t-2 17zM13914 1294q0 41 31 72t72 31t71.5 -31t30.5 -72t-31 -70.5t-71 -29.5q-41 0 -72 29.5t-31 70.5zM13949 57v832q0 33 18.5 51 t49.5 18q29 0 48 -19t19 -50v-832q0 -35 -21.5 -51t-45.5 -16q-31 0 -49.5 18.5t-18.5 48.5zM14326 475q0 100 38 189.5t102.5 156t150.5 105.5t182 39q92 0 171 -30t138 -85v528q0 29 19.5 48.5t48.5 19.5q33 0 50 -18.5t17 -49.5v-1321q0 -31 -17.5 -49t-49.5 -18 q-29 0 -48.5 18.5t-19.5 48.5v47q-59 -55 -138 -84.5t-171 -29.5q-96 0 -182 39t-150.5 104.5t-102.5 154.5t-38 187zM14459 475q0 -74 27.5 -137.5t74.5 -110.5t111.5 -74.5t136.5 -27.5q94 0 173 44t126 122v368q-47 82 -126 128.5t-173 46.5q-72 0 -136.5 -29t-111.5 -77 t-74.5 -113.5t-27.5 -139.5zM15452 475q0 106 33 195.5t92 154t140.5 101.5t177.5 37q98 0 179 -35t139 -97.5t91 -149.5t33 -192q0 -25 -17.5 -46t-50.5 -21h-680q20 -139 111.5 -222t222.5 -83q70 0 136.5 24.5t117.5 71.5q10 8 21.5 14t25.5 6q29 0 47.5 -20t18.5 -49 q0 -41 -43 -75t-101.5 -57.5t-121 -36.5t-101.5 -13q-100 0 -186 36.5t-149.5 103t-99.5 157t-36 196.5zM15593 559h603q-14 121 -97 196.5t-204 75.5q-117 0 -198 -73.5t-104 -198.5zM16534 57v836q0 31 18 48t49 17t49.5 -18t18.5 -47v-57q53 47 128.5 86t161.5 39 q193 0 294.5 -114t101.5 -331v-459q0 -31 -18.5 -49t-49.5 -18q-66 0 -65 67v459q0 311 -267 311q-49 0 -92 -17t-80 -42t-65.5 -54.5t-48.5 -54.5v-602q0 -31 -18.5 -49t-49.5 -18t-49 18.5t-18 48.5zM17551 473q0 102 37 191.5t100.5 155t149.5 103.5t184 38 q176 0 334 -134q23 -18 23 -53q0 -29 -18.5 -48t-47.5 -19t-47 20q-53 49 -115.5 75.5t-128.5 26.5q-72 0 -132 -27.5t-106 -75.5t-71.5 -113.5t-25.5 -139.5q0 -76 25.5 -140.5t71.5 -112.5t106.5 -75.5t131.5 -27.5q66 0 128.5 25.5t115.5 76.5q25 18 47 19 q29 0 47.5 -20.5t18.5 -49.5t-23 -51q-158 -135 -334 -135q-98 0 -184 37.5t-149.5 104t-100.5 156t-37 193.5zM18506 475q0 106 32.5 195.5t92 154t140.5 101.5t177 37q98 0 179 -35t139.5 -97.5t91 -149.5t32.5 -192q0 -25 -17 -46t-50 -21h-680q20 -139 111.5 -222 t222.5 -83q70 0 135 24.5t119 71.5q10 8 21 14t26 6q29 0 47 -20t18 -49q0 -41 -43 -75t-101 -57.5t-120.5 -36.5t-101.5 -13q-100 0 -186.5 36.5t-150 103t-99 157t-35.5 196.5zM18647 559h602q-14 121 -97 196.5t-204 75.5q-117 0 -197.5 -73.5t-103.5 -198.5zM19517 197 q0 29 19.5 48t48.5 19q31 0 55 -28q98 -121 252 -121q88 0 138.5 37.5t50.5 105.5q0 35 -18.5 60.5t-50.5 45t-73 35t-84 31.5l-6 2q-55 20 -104 44t-88 56.5t-61.5 77.5t-22.5 109q0 53 22.5 97t62.5 76t95 49t123 17q86 0 164 -37.5t131 -103.5q14 -23 14 -43 q0 -29 -22.5 -47t-44.5 -18q-16 0 -30 9t-24 19q-90 88 -188 88q-31 0 -61.5 -6t-54 -19.5t-39 -34t-15.5 -46.5q0 -63 56.5 -97t144.5 -67q55 -20 109 -43t99.5 -56.5t73 -81.5t27.5 -116q0 -129 -87 -202.5t-237 -73.5q-115 0 -209 45t-153 131q-8 12 -10.5 22t-2.5 17z " />
<glyph unicode="les&#x20;belles&#x20;r&#xe9;sidences" horiz-adv-x="20289" d="M84 903q-4 53 1 104.5t19 100.5q14 51 37 95t52 83q57 76 147 123q90 45 207 45h311q29 0 47 -18q20 -18 21 -50v-1337q0 -43 -5.5 -80t-15.5 -65q-23 -59 -61 -105q117 0 226.5 -18.5t217.5 -59.5q213 -76 385 -229q123 -106 264 -170q143 -63 299 -86q160 -23 318 2 q164 25 311 100q24 13 51 5q27 -10 39 -35q12 -27 6 -53q-8 -23 -36 -39q-170 -82 -347 -109q-178 -27 -352 -6q-176 25 -336 94q-80 37 -153.5 83t-139.5 106q-78 68 -164.5 121t-185.5 89q-197 76 -403 76h-285q-29 0 -47 19q-20 18 -20 49t20 49q18 18 47 18q53 0 92 9 q43 10 72 32q31 25 49 74q18 45 19 129v1276h-244q-82 0 -148 -35q-63 -35 -106 -92q-41 -61 -60 -131q-20 -72 -14 -154q6 -80 39 -145q35 -70 88 -117q23 -16 25 -45q2 -27 -17 -49q-18 -23 -45 -22q-25 -2 -49 14q-74 63 -123 158q-47 94 -53 196zM1180 475 q0 106 32.5 195.5t92 154t140.5 101.5t177 37q98 0 179 -35t139.5 -97.5t91 -149.5t32.5 -192q0 -25 -17 -46t-50 -21h-680q20 -139 111.5 -222t222.5 -83q70 0 135 24.5t119 71.5q10 8 21 14t26 6q29 0 47 -20t18 -49q0 -41 -43 -75t-101 -57.5t-120.5 -36.5t-101.5 -13 q-100 0 -186.5 36.5t-150 103t-99 157t-35.5 196.5zM1321 559h602q-14 121 -97 196.5t-204 75.5q-117 0 -198 -73.5t-103 -198.5zM2191 197q0 29 19.5 48t48.5 19q31 0 55 -28q98 -121 252 -121q88 0 138.5 37.5t50.5 105.5q0 35 -18.5 60.5t-50.5 45t-73 35t-84 31.5l-6 2 q-55 20 -104 44t-88 56.5t-61.5 77.5t-22.5 109q0 53 22.5 97t62.5 76t95 49t123 17q86 0 163.5 -37.5t129.5 -103.5q16 -23 16 -43q0 -29 -22.5 -47t-45.5 -18q-16 0 -29.5 9t-23.5 19q-90 88 -188 88q-31 0 -61.5 -6t-54.5 -19.5t-39 -34t-15 -46.5q0 -63 56 -97t144 -67 q55 -20 109.5 -43t99.5 -56.5t73 -81.5t28 -116q0 -129 -87 -202.5t-237 -73.5q-115 0 -209 45t-153 131q-10 12 -11.5 22t-1.5 17zM3674 903q-4 53 1 104.5t20 100.5q29 102 88 178q57 76 147 123q88 45 207 45h823q90 0 164 -33q76 -31 133 -88q55 -57 90 -133 q33 -78 33 -164q0 -104 -47 -188q-51 -86 -127 -133q45 -10 84 -28.5t76 -41.5t67.5 -51.5t59.5 -63.5q51 -61 82 -147q29 -78 28 -174q0 -115 -41 -209q-45 -104 -114 -172q-76 -76 -172 -115q-98 -43 -209 -43h-891q-29 0 -47 19q-18 18 -19 49q0 31 19 49q18 18 47 18 q53 0 92 9q43 10 72 32q31 25 49 74q18 45 18 129v1081q0 31 19 50q18 18 49 18q29 0 47 -18q20 -18 20 -50v-385h402q61 0 117 25q51 23 94 66q23 20 38 43.5t27 50.5q25 55 25 117q0 125 -88 200q-90 78 -213 78h-807q-84 0 -147 -35t-107 -92q-41 -61 -59 -131 q-20 -72 -15 -154q6 -80 39 -145q35 -70 88 -117q23 -16 25 -45q2 -27 -17 -49q-18 -23 -45 -22q-25 -2 -49 14q-74 63 -123 158q-47 94 -53 196zM4461 -201h591q80 0 158 33q76 33 131 88q53 53 88 131q33 78 33 158t-33 158q-35 76 -88 129q-29 29 -60.5 50t-70.5 38 q-72 33 -158 32h-510v-567q0 -43 -5 -80t-15 -65q-23 -59 -61 -105zM5710 475q0 106 32.5 195.5t92 154t140.5 101.5t177 37q98 0 179 -35t139.5 -97.5t91.5 -149.5t33 -192q0 -25 -17.5 -46t-50.5 -21h-678q18 -139 109.5 -222t222.5 -83q70 0 136.5 24.5t117.5 71.5 q10 8 21.5 14t25.5 6q29 0 47 -20t18 -49q0 -41 -42 -75t-101 -57.5t-121.5 -36.5t-101.5 -13q-100 0 -186.5 36.5t-149.5 103t-99 157t-36 196.5zM5851 559h602q-14 121 -97 196.5t-204 75.5q-117 0 -197.5 -73.5t-103.5 -198.5zM6793 57v1321q0 31 17.5 49.5t48.5 18.5 t49 -19.5t18 -48.5v-1321q0 -31 -18.5 -49t-48.5 -18q-31 0 -48.5 18.5t-17.5 48.5zM7186 57v1321q0 31 17.5 49.5t50.5 18.5q29 0 47.5 -19.5t18.5 -48.5v-1321q0 -31 -18.5 -49t-47.5 -18q-33 0 -50.5 18.5t-17.5 48.5zM7528 475q0 106 33 195.5t92.5 154t140.5 101.5 t177 37q98 0 179 -35t139.5 -97.5t91 -149.5t32.5 -192q0 -25 -17.5 -46t-49.5 -21h-678q18 -139 109 -222t222 -83q70 0 136.5 24.5t117.5 71.5q10 8 21.5 14t26.5 6q29 0 47 -20t18 -49q0 -41 -42 -75t-101.5 -57.5t-122 -36.5t-101.5 -13q-100 0 -186 36.5t-149.5 103 t-99.5 157t-36 196.5zM7670 559h602q-14 121 -97 196.5t-204 75.5q-117 0 -198 -73.5t-103 -198.5zM8540 197q0 29 19.5 48t48.5 19q31 0 55 -28q47 -59 112.5 -90t139.5 -31q90 0 139 37.5t49 105.5q0 35 -18.5 60.5t-50 45t-72.5 35t-84 31.5l-6 2q-55 20 -104.5 44 t-87 56.5t-60 77.5t-22.5 109q0 106 82.5 172.5t218.5 66.5q88 0 164.5 -37.5t129.5 -103.5q14 -23 15 -43q0 -29 -21.5 -47t-46.5 -18q-16 0 -29.5 9t-23.5 19q-90 88 -188 88q-61 0 -114.5 -25.5t-53.5 -80.5q0 -63 55 -97t143 -67q55 -20 109.5 -43t99.5 -56.5t73 -81.5 t28 -116q0 -129 -87.5 -202.5t-236.5 -73.5q-115 0 -209 45t-154 131q-8 12 -10 22t-2 17zM10023 903q-6 109 20 205q14 51 37 95t51 83q57 76 150 123q88 45 205 45h794q109 0 209 -41q100 -43 172 -115q76 -76 115 -172q43 -98 43 -208q0 -96 -31 -179 q-14 -41 -34.5 -78.5t-47.5 -72.5t-58.5 -63.5t-66.5 -53.5q-74 -49 -157 -74l872 -983q55 -63 107.5 -114.5t101.5 -92.5q51 -41 99.5 -72.5t95.5 -54.5q96 -49 186 -67q88 -19 182 -19q29 0 47 -18q20 -18 21 -49q0 -31 -21 -49q-18 -18 -47 -19q-156 0 -280 37 q-121 35 -232 98q-104 61 -194 146q-90 86 -172 178l-936 1061h-363v-356q0 -66 -9 -115t-26 -88q-37 -74 -90 -113q-51 -39 -116 -51q-66 -12 -123 -12q-31 0 -49 18t-19 49q0 27 19 49q18 18 49 19q51 0 90 8q39 6 74 33q31 25 47 71q18 49 18 132v1107q0 31 19 50 q18 18 49 18t49 -18t18 -50v-622h375q43 0 82 8t78 25q76 35 129 88t88 129q33 74 33 160t-33 157q-35 76 -88 129q-29 29 -60.5 50.5t-68.5 37.5q-74 33 -160 33h-780q-82 0 -148 -35q-66 -37 -104 -92q-43 -59 -62 -131q-18 -70 -14 -154q6 -80 39 -145q33 -63 88 -117 q23 -16 25 -45q2 -27 -17 -49q-18 -23 -45 -22q-25 -2 -49 14q-37 33 -66.5 71.5t-54.5 86.5q-49 92 -55 196zM11997 475q0 106 33 195.5t92.5 154t140 101.5t177.5 37q98 0 179 -35t139 -97.5t91 -149.5t33 -192q0 -25 -17.5 -46t-50.5 -21h-678q18 -139 109.5 -222 t222.5 -83q70 0 136.5 24.5t117.5 71.5q10 8 21.5 14t25.5 6q29 0 47.5 -20t18.5 -49q0 -41 -43 -75t-101.5 -57.5t-121 -36.5t-101.5 -13q-100 0 -186 36.5t-149.5 103t-99.5 157t-36 196.5zM12138 559h603q-14 121 -97 196.5t-204 75.5q-117 0 -198 -73.5t-104 -198.5z M12157 1206q-10 31 3 53.5t42 30.5l436 127q31 10 53.5 -3t30.5 -42q10 -29 -4 -52.5t-43 -31.5l-434 -127q-33 -10 -55.5 6.5t-28.5 38.5zM13009 197q0 29 19.5 48t47.5 19q31 0 56 -28q47 -59 112.5 -90t139.5 -31q90 0 139 37.5t49 105.5q0 35 -18.5 60.5t-50 45 t-72.5 35t-84 31.5l-6 2q-55 20 -104.5 44t-87.5 56.5t-60.5 77.5t-22.5 109q0 106 83 172.5t218 66.5q88 0 165 -37.5t130 -103.5q14 -23 15 -43q0 -29 -21.5 -47t-46.5 -18q-16 0 -29.5 9t-23.5 19q-90 88 -189 88q-61 0 -114.5 -25.5t-53.5 -80.5q0 -63 55.5 -97 t143.5 -67q55 -20 109.5 -43t99.5 -56.5t72.5 -81.5t27.5 -116q0 -129 -87 -202.5t-236 -73.5q-115 0 -209 45t-154 131q-8 12 -10 22t-2 17zM13914 1294q0 41 31 72t72 31t71.5 -31t30.5 -72t-31 -70.5t-71 -29.5q-41 0 -72 29.5t-31 70.5zM13949 57v832q0 33 18.5 51 t49.5 18q29 0 48 -19t19 -50v-832q0 -35 -21.5 -51t-45.5 -16q-31 0 -49.5 18.5t-18.5 48.5zM14326 475q0 100 38 189.5t102.5 156t150.5 105.5t182 39q92 0 171 -30t138 -85v528q0 29 19.5 48.5t48.5 19.5q33 0 50 -18.5t17 -49.5v-1321q0 -31 -17.5 -49t-49.5 -18 q-29 0 -48.5 18.5t-19.5 48.5v47q-59 -55 -138 -84.5t-171 -29.5q-96 0 -182 39t-150.5 104.5t-102.5 154.5t-38 187zM14459 475q0 -74 27.5 -137.5t74.5 -110.5t111.5 -74.5t136.5 -27.5q94 0 173 44t126 122v368q-47 82 -126 128.5t-173 46.5q-72 0 -136.5 -29t-111.5 -77 t-74.5 -113.5t-27.5 -139.5zM15452 475q0 106 33 195.5t92 154t140.5 101.5t177.5 37q98 0 179 -35t139 -97.5t91 -149.5t33 -192q0 -25 -17.5 -46t-50.5 -21h-680q20 -139 111.5 -222t222.5 -83q70 0 136.5 24.5t117.5 71.5q10 8 21.5 14t25.5 6q29 0 47.5 -20t18.5 -49 q0 -41 -43 -75t-101.5 -57.5t-121 -36.5t-101.5 -13q-100 0 -186 36.5t-149.5 103t-99.5 157t-36 196.5zM15593 559h603q-14 121 -97 196.5t-204 75.5q-117 0 -198 -73.5t-104 -198.5zM16534 57v836q0 31 18 48t49 17t49.5 -18t18.5 -47v-57q53 47 128.5 86t161.5 39 q193 0 294.5 -114t101.5 -331v-459q0 -31 -18.5 -49t-49.5 -18q-66 0 -65 67v459q0 311 -267 311q-49 0 -92 -17t-80 -42t-65.5 -54.5t-48.5 -54.5v-602q0 -31 -18.5 -49t-49.5 -18t-49 18.5t-18 48.5zM17551 473q0 102 37 191.5t100.5 155t149.5 103.5t184 38 q176 0 334 -134q23 -18 23 -53q0 -29 -18.5 -48t-47.5 -19t-47 20q-53 49 -115.5 75.5t-128.5 26.5q-72 0 -132 -27.5t-106 -75.5t-71.5 -113.5t-25.5 -139.5q0 -76 25.5 -140.5t71.5 -112.5t106.5 -75.5t131.5 -27.5q66 0 128.5 25.5t115.5 76.5q25 18 47 19 q29 0 47.5 -20.5t18.5 -49.5t-23 -51q-158 -135 -334 -135q-98 0 -184 37.5t-149.5 104t-100.5 156t-37 193.5zM18506 475q0 106 32.5 195.5t92 154t140.5 101.5t177 37q98 0 179 -35t139.5 -97.5t91 -149.5t32.5 -192q0 -25 -17 -46t-50 -21h-680q20 -139 111.5 -222 t222.5 -83q70 0 135 24.5t119 71.5q10 8 21 14t26 6q29 0 47 -20t18 -49q0 -41 -43 -75t-101 -57.5t-120.5 -36.5t-101.5 -13q-100 0 -186.5 36.5t-150 103t-99 157t-35.5 196.5zM18647 559h602q-14 121 -97 196.5t-204 75.5q-117 0 -197.5 -73.5t-103.5 -198.5zM19517 197 q0 29 19.5 48t48.5 19q31 0 55 -28q98 -121 252 -121q88 0 138.5 37.5t50.5 105.5q0 35 -18.5 60.5t-50.5 45t-73 35t-84 31.5l-6 2q-55 20 -104 44t-88 56.5t-61.5 77.5t-22.5 109q0 53 22.5 97t62.5 76t95 49t123 17q86 0 164 -37.5t131 -103.5q14 -23 14 -43 q0 -29 -22.5 -47t-44.5 -18q-16 0 -30 9t-24 19q-90 88 -188 88q-31 0 -61.5 -6t-54 -19.5t-39 -34t-15.5 -46.5q0 -63 56.5 -97t144.5 -67q55 -20 109 -43t99.5 -56.5t73 -81.5t27.5 -116q0 -129 -87 -202.5t-237 -73.5q-115 0 -209 45t-153 131q-8 12 -10.5 22t-2.5 17z " />
<glyph unicode="Les&#x20;belles&#x20;r&#xe9;sidences" horiz-adv-x="20289" d="M84 903q-4 53 1 104.5t19 100.5q14 51 37 95t52 83q57 76 147 123q90 45 207 45h311q29 0 47 -18q20 -18 21 -50v-1337q0 -43 -5.5 -80t-15.5 -65q-23 -59 -61 -105q117 0 226.5 -18.5t217.5 -59.5q213 -76 385 -229q123 -106 264 -170q143 -63 299 -86q160 -23 318 2 q164 25 311 100q24 13 51 5q27 -10 39 -35q12 -27 6 -53q-8 -23 -36 -39q-170 -82 -347 -109q-178 -27 -352 -6q-176 25 -336 94q-80 37 -153.5 83t-139.5 106q-78 68 -164.5 121t-185.5 89q-197 76 -403 76h-285q-29 0 -47 19q-20 18 -20 49t20 49q18 18 47 18q53 0 92 9 q43 10 72 32q31 25 49 74q18 45 19 129v1276h-244q-82 0 -148 -35q-63 -35 -106 -92q-41 -61 -60 -131q-20 -72 -14 -154q6 -80 39 -145q35 -70 88 -117q23 -16 25 -45q2 -27 -17 -49q-18 -23 -45 -22q-25 -2 -49 14q-74 63 -123 158q-47 94 -53 196zM1180 475 q0 106 32.5 195.5t92 154t140.5 101.5t177 37q98 0 179 -35t139.5 -97.5t91 -149.5t32.5 -192q0 -25 -17 -46t-50 -21h-680q20 -139 111.5 -222t222.5 -83q70 0 135 24.5t119 71.5q10 8 21 14t26 6q29 0 47 -20t18 -49q0 -41 -43 -75t-101 -57.5t-120.5 -36.5t-101.5 -13 q-100 0 -186.5 36.5t-150 103t-99 157t-35.5 196.5zM1321 559h602q-14 121 -97 196.5t-204 75.5q-117 0 -198 -73.5t-103 -198.5zM2191 197q0 29 19.5 48t48.5 19q31 0 55 -28q98 -121 252 -121q88 0 138.5 37.5t50.5 105.5q0 35 -18.5 60.5t-50.5 45t-73 35t-84 31.5l-6 2 q-55 20 -104 44t-88 56.5t-61.5 77.5t-22.5 109q0 53 22.5 97t62.5 76t95 49t123 17q86 0 163.5 -37.5t129.5 -103.5q16 -23 16 -43q0 -29 -22.5 -47t-45.5 -18q-16 0 -29.5 9t-23.5 19q-90 88 -188 88q-31 0 -61.5 -6t-54.5 -19.5t-39 -34t-15 -46.5q0 -63 56 -97t144 -67 q55 -20 109.5 -43t99.5 -56.5t73 -81.5t28 -116q0 -129 -87 -202.5t-237 -73.5q-115 0 -209 45t-153 131q-10 12 -11.5 22t-1.5 17zM3674 903q-4 53 1 104.5t20 100.5q29 102 88 178q57 76 147 123q88 45 207 45h823q90 0 164 -33q76 -31 133 -88q55 -57 90 -133 q33 -78 33 -164q0 -104 -47 -188q-51 -86 -127 -133q45 -10 84 -28.5t76 -41.5t67.5 -51.5t59.5 -63.5q51 -61 82 -147q29 -78 28 -174q0 -115 -41 -209q-45 -104 -114 -172q-76 -76 -172 -115q-98 -43 -209 -43h-891q-29 0 -47 19q-18 18 -19 49q0 31 19 49q18 18 47 18 q53 0 92 9q43 10 72 32q31 25 49 74q18 45 18 129v1081q0 31 19 50q18 18 49 18q29 0 47 -18q20 -18 20 -50v-385h402q61 0 117 25q51 23 94 66q23 20 38 43.5t27 50.5q25 55 25 117q0 125 -88 200q-90 78 -213 78h-807q-84 0 -147 -35t-107 -92q-41 -61 -59 -131 q-20 -72 -15 -154q6 -80 39 -145q35 -70 88 -117q23 -16 25 -45q2 -27 -17 -49q-18 -23 -45 -22q-25 -2 -49 14q-74 63 -123 158q-47 94 -53 196zM4461 -201h591q80 0 158 33q76 33 131 88q53 53 88 131q33 78 33 158t-33 158q-35 76 -88 129q-29 29 -60.5 50t-70.5 38 q-72 33 -158 32h-510v-567q0 -43 -5 -80t-15 -65q-23 -59 -61 -105zM5710 475q0 106 32.5 195.5t92 154t140.5 101.5t177 37q98 0 179 -35t139.5 -97.5t91.5 -149.5t33 -192q0 -25 -17.5 -46t-50.5 -21h-678q18 -139 109.5 -222t222.5 -83q70 0 136.5 24.5t117.5 71.5 q10 8 21.5 14t25.5 6q29 0 47 -20t18 -49q0 -41 -42 -75t-101 -57.5t-121.5 -36.5t-101.5 -13q-100 0 -186.5 36.5t-149.5 103t-99 157t-36 196.5zM5851 559h602q-14 121 -97 196.5t-204 75.5q-117 0 -197.5 -73.5t-103.5 -198.5zM6793 57v1321q0 31 17.5 49.5t48.5 18.5 t49 -19.5t18 -48.5v-1321q0 -31 -18.5 -49t-48.5 -18q-31 0 -48.5 18.5t-17.5 48.5zM7186 57v1321q0 31 17.5 49.5t50.5 18.5q29 0 47.5 -19.5t18.5 -48.5v-1321q0 -31 -18.5 -49t-47.5 -18q-33 0 -50.5 18.5t-17.5 48.5zM7528 475q0 106 33 195.5t92.5 154t140.5 101.5 t177 37q98 0 179 -35t139.5 -97.5t91 -149.5t32.5 -192q0 -25 -17.5 -46t-49.5 -21h-678q18 -139 109 -222t222 -83q70 0 136.5 24.5t117.5 71.5q10 8 21.5 14t26.5 6q29 0 47 -20t18 -49q0 -41 -42 -75t-101.5 -57.5t-122 -36.5t-101.5 -13q-100 0 -186 36.5t-149.5 103 t-99.5 157t-36 196.5zM7670 559h602q-14 121 -97 196.5t-204 75.5q-117 0 -198 -73.5t-103 -198.5zM8540 197q0 29 19.5 48t48.5 19q31 0 55 -28q47 -59 112.5 -90t139.5 -31q90 0 139 37.5t49 105.5q0 35 -18.5 60.5t-50 45t-72.5 35t-84 31.5l-6 2q-55 20 -104.5 44 t-87 56.5t-60 77.5t-22.5 109q0 106 82.5 172.5t218.5 66.5q88 0 164.5 -37.5t129.5 -103.5q14 -23 15 -43q0 -29 -21.5 -47t-46.5 -18q-16 0 -29.5 9t-23.5 19q-90 88 -188 88q-61 0 -114.5 -25.5t-53.5 -80.5q0 -63 55 -97t143 -67q55 -20 109.5 -43t99.5 -56.5t73 -81.5 t28 -116q0 -129 -87.5 -202.5t-236.5 -73.5q-115 0 -209 45t-154 131q-8 12 -10 22t-2 17zM10023 903q-6 109 20 205q14 51 37 95t51 83q57 76 150 123q88 45 205 45h794q109 0 209 -41q100 -43 172 -115q76 -76 115 -172q43 -98 43 -208q0 -96 -31 -179 q-14 -41 -34.5 -78.5t-47.5 -72.5t-58.5 -63.5t-66.5 -53.5q-74 -49 -157 -74l872 -983q55 -63 107.5 -114.5t101.5 -92.5q51 -41 99.5 -72.5t95.5 -54.5q96 -49 186 -67q88 -19 182 -19q29 0 47 -18q20 -18 21 -49q0 -31 -21 -49q-18 -18 -47 -19q-156 0 -280 37 q-121 35 -232 98q-104 61 -194 146q-90 86 -172 178l-936 1061h-363v-356q0 -66 -9 -115t-26 -88q-37 -74 -90 -113q-51 -39 -116 -51q-66 -12 -123 -12q-31 0 -49 18t-19 49q0 27 19 49q18 18 49 19q51 0 90 8q39 6 74 33q31 25 47 71q18 49 18 132v1107q0 31 19 50 q18 18 49 18t49 -18t18 -50v-622h375q43 0 82 8t78 25q76 35 129 88t88 129q33 74 33 160t-33 157q-35 76 -88 129q-29 29 -60.5 50.5t-68.5 37.5q-74 33 -160 33h-780q-82 0 -148 -35q-66 -37 -104 -92q-43 -59 -62 -131q-18 -70 -14 -154q6 -80 39 -145q33 -63 88 -117 q23 -16 25 -45q2 -27 -17 -49q-18 -23 -45 -22q-25 -2 -49 14q-37 33 -66.5 71.5t-54.5 86.5q-49 92 -55 196zM11997 475q0 106 33 195.5t92.5 154t140 101.5t177.5 37q98 0 179 -35t139 -97.5t91 -149.5t33 -192q0 -25 -17.5 -46t-50.5 -21h-678q18 -139 109.5 -222 t222.5 -83q70 0 136.5 24.5t117.5 71.5q10 8 21.5 14t25.5 6q29 0 47.5 -20t18.5 -49q0 -41 -43 -75t-101.5 -57.5t-121 -36.5t-101.5 -13q-100 0 -186 36.5t-149.5 103t-99.5 157t-36 196.5zM12138 559h603q-14 121 -97 196.5t-204 75.5q-117 0 -198 -73.5t-104 -198.5z M12157 1206q-10 31 3 53.5t42 30.5l436 127q31 10 53.5 -3t30.5 -42q10 -29 -4 -52.5t-43 -31.5l-434 -127q-33 -10 -55.5 6.5t-28.5 38.5zM13009 197q0 29 19.5 48t47.5 19q31 0 56 -28q47 -59 112.5 -90t139.5 -31q90 0 139 37.5t49 105.5q0 35 -18.5 60.5t-50 45 t-72.5 35t-84 31.5l-6 2q-55 20 -104.5 44t-87.5 56.5t-60.5 77.5t-22.5 109q0 106 83 172.5t218 66.5q88 0 165 -37.5t130 -103.5q14 -23 15 -43q0 -29 -21.5 -47t-46.5 -18q-16 0 -29.5 9t-23.5 19q-90 88 -189 88q-61 0 -114.5 -25.5t-53.5 -80.5q0 -63 55.5 -97 t143.5 -67q55 -20 109.5 -43t99.5 -56.5t72.5 -81.5t27.5 -116q0 -129 -87 -202.5t-236 -73.5q-115 0 -209 45t-154 131q-8 12 -10 22t-2 17zM13914 1294q0 41 31 72t72 31t71.5 -31t30.5 -72t-31 -70.5t-71 -29.5q-41 0 -72 29.5t-31 70.5zM13949 57v832q0 33 18.5 51 t49.5 18q29 0 48 -19t19 -50v-832q0 -35 -21.5 -51t-45.5 -16q-31 0 -49.5 18.5t-18.5 48.5zM14326 475q0 100 38 189.5t102.5 156t150.5 105.5t182 39q92 0 171 -30t138 -85v528q0 29 19.5 48.5t48.5 19.5q33 0 50 -18.5t17 -49.5v-1321q0 -31 -17.5 -49t-49.5 -18 q-29 0 -48.5 18.5t-19.5 48.5v47q-59 -55 -138 -84.5t-171 -29.5q-96 0 -182 39t-150.5 104.5t-102.5 154.5t-38 187zM14459 475q0 -74 27.5 -137.5t74.5 -110.5t111.5 -74.5t136.5 -27.5q94 0 173 44t126 122v368q-47 82 -126 128.5t-173 46.5q-72 0 -136.5 -29t-111.5 -77 t-74.5 -113.5t-27.5 -139.5zM15452 475q0 106 33 195.5t92 154t140.5 101.5t177.5 37q98 0 179 -35t139 -97.5t91 -149.5t33 -192q0 -25 -17.5 -46t-50.5 -21h-680q20 -139 111.5 -222t222.5 -83q70 0 136.5 24.5t117.5 71.5q10 8 21.5 14t25.5 6q29 0 47.5 -20t18.5 -49 q0 -41 -43 -75t-101.5 -57.5t-121 -36.5t-101.5 -13q-100 0 -186 36.5t-149.5 103t-99.5 157t-36 196.5zM15593 559h603q-14 121 -97 196.5t-204 75.5q-117 0 -198 -73.5t-104 -198.5zM16534 57v836q0 31 18 48t49 17t49.5 -18t18.5 -47v-57q53 47 128.5 86t161.5 39 q193 0 294.5 -114t101.5 -331v-459q0 -31 -18.5 -49t-49.5 -18q-66 0 -65 67v459q0 311 -267 311q-49 0 -92 -17t-80 -42t-65.5 -54.5t-48.5 -54.5v-602q0 -31 -18.5 -49t-49.5 -18t-49 18.5t-18 48.5zM17551 473q0 102 37 191.5t100.5 155t149.5 103.5t184 38 q176 0 334 -134q23 -18 23 -53q0 -29 -18.5 -48t-47.5 -19t-47 20q-53 49 -115.5 75.5t-128.5 26.5q-72 0 -132 -27.5t-106 -75.5t-71.5 -113.5t-25.5 -139.5q0 -76 25.5 -140.5t71.5 -112.5t106.5 -75.5t131.5 -27.5q66 0 128.5 25.5t115.5 76.5q25 18 47 19 q29 0 47.5 -20.5t18.5 -49.5t-23 -51q-158 -135 -334 -135q-98 0 -184 37.5t-149.5 104t-100.5 156t-37 193.5zM18506 475q0 106 32.5 195.5t92 154t140.5 101.5t177 37q98 0 179 -35t139.5 -97.5t91 -149.5t32.5 -192q0 -25 -17 -46t-50 -21h-680q20 -139 111.5 -222 t222.5 -83q70 0 135 24.5t119 71.5q10 8 21 14t26 6q29 0 47 -20t18 -49q0 -41 -43 -75t-101 -57.5t-120.5 -36.5t-101.5 -13q-100 0 -186.5 36.5t-150 103t-99 157t-35.5 196.5zM18647 559h602q-14 121 -97 196.5t-204 75.5q-117 0 -197.5 -73.5t-103.5 -198.5zM19517 197 q0 29 19.5 48t48.5 19q31 0 55 -28q98 -121 252 -121q88 0 138.5 37.5t50.5 105.5q0 35 -18.5 60.5t-50.5 45t-73 35t-84 31.5l-6 2q-55 20 -104 44t-88 56.5t-61.5 77.5t-22.5 109q0 53 22.5 97t62.5 76t95 49t123 17q86 0 164 -37.5t131 -103.5q14 -23 14 -43 q0 -29 -22.5 -47t-44.5 -18q-16 0 -30 9t-24 19q-90 88 -188 88q-31 0 -61.5 -6t-54 -19.5t-39 -34t-15.5 -46.5q0 -63 56.5 -97t144.5 -67q55 -20 109 -43t99.5 -56.5t73 -81.5t27.5 -116q0 -129 -87 -202.5t-237 -73.5q-115 0 -209 45t-153 131q-8 12 -10.5 22t-2.5 17z " />
<glyph unicode="La&#x20;Collection" horiz-adv-x="13012" d="M145 2v41h203v1493h-203v45h734v-45h-215v-1534h-519zM901 2h428v496h-41q-4 -61 -22.5 -140t-62.5 -154t-116.5 -131.5t-185.5 -70.5zM1464 217q0 88 46 144.5t115 92t148.5 53t145.5 25.5q-98 -27 -147.5 -86t-49.5 -161q0 -53 12.5 -100.5t40 -76t72.5 -33.5t109 29 q-53 -61 -112.5 -94t-131.5 -33q-109 0 -178.5 68t-69.5 172zM1524 715q0 92 83 155.5t224 79.5q-41 -16 -76 -51t-35 -68q0 -10 8.5 -19t17.5 -21.5t17.5 -28.5t8.5 -41q0 -53 -36 -88t-89 -35t-88 32t-35 85zM1925 950q172 0 264 -58t92 -157v-598q0 -39 14.5 -51t34 -10 t39 15t29.5 26l23 -25q-29 -53 -85.5 -82.5t-121.5 -29.5q-57 0 -96 23.5t-62.5 60t-34 83t-10.5 93.5v518q0 63 -21.5 116.5t-64.5 75.5zM3222 791q0 190 55 332.5t142 240.5t195 153.5t210 73.5q-51 -23 -95.5 -74t-76 -145t-50 -236.5t-18.5 -344.5q0 -201 18.5 -343.5 t50 -236.5t75.5 -146.5t96 -72.5q-102 18 -210 72.5t-195 151.5t-142 239.5t-55 335.5zM3967 -8q92 14 168 80.5t134 155.5t98 186.5t61 173.5h45v-596h-45l-78 123q-57 -37 -105.5 -60.5t-93.5 -38t-90 -19.5t-94 -5zM3967 1591q47 0 89 -5t85 -17.5t89 -35t99 -54.5 l76 112h45v-540h-41q-16 76 -54 165t-94 168.5t-131 137t-163 69.5zM4653 475q0 98 30.5 182t86 148.5t130.5 107t163 54.5q-49 -23 -75 -76t-38 -121t-14 -145.5t-2 -149.5t2 -148.5t14 -145t38 -121t75 -76.5q-88 12 -163 54t-130.5 106.5t-86 148.5t-30.5 182zM5212 -16 q47 25 74 77t39 120.5t14 145t2 148.5t-2 149.5t-14 145.5t-39 121t-74 76q88 -12 163 -54.5t130 -107t86 -148.5t31 -182t-31 -182t-86 -148.5t-130 -106.5t-163 -54zM5755 2v45h147v1489h-147v45h418v-1534h157v-45h-575zM6433 2v45h145v1489h-145v45h418v-1534h157v-45 h-575zM7131 465q0 111 32 199t87 150.5t130 100t161 48.5q-59 -25 -93 -97.5t-34 -193.5v-197q0 -106 9 -191t34.5 -143.5t69.5 -89.5t114 -31q119 0 208 72t120 193l43 -13q-35 -135 -135.5 -216t-235.5 -81q-92 0 -184 32t-164 94.5t-117 153.5t-45 210zM7483 543l441 75 l-23 -75h-418zM7670 965q82 -10 150.5 -43t118.5 -88.5t78 -129t28 -161.5h-281v143q0 233 -94 279zM8210 475q0 98 31 182t86 148.5t130 106.5t163 55q-47 -23 -72.5 -76t-38 -121t-14.5 -145.5t-2 -149.5q0 -106 9 -191t35 -143.5t70 -89.5t113 -31q119 0 208 72t118 193 l43 -13q-35 -135 -134 -216t-235 -81q-94 0 -185 33t-164 96.5t-117 156.5t-44 214zM8696 973q68 0 132 -16.5t114.5 -49.5t81 -82.5t30.5 -117.5q0 -57 -37 -94.5t-96 -37.5q-61 0 -102 38t-41 94q0 25 10 58.5t68 80.5q0 23 -15.5 45t-39 40.5t-52.5 30t-53 11.5z M9212 893v45l158 80l202 315h45v-395h203v-45h-203v-688q0 -59 28 -97t75 -38q41 0 72.5 38.5t66.5 112.5l43 -16q-23 -63 -51.5 -106.5t-66.5 -70t-87 -37.5t-112 -11q-119 0 -178.5 66.5t-59.5 170.5v676h-135zM9935 2v45h145v846h-145v45h416v-891h157v-45h-573z M10037 1354q0 -70 48.5 -119t119.5 -49q72 0 121 49t49 119q0 72 -49 121t-121 49t-120 -49t-48 -121zM10633 475q0 98 31 182t86 148.5t130 107t163 54.5q-47 -23 -72.5 -76t-38 -121t-14.5 -145.5t-2 -149.5t2 -148.5t14.5 -145t38 -121t72.5 -76.5q-88 12 -163 54 t-130 106.5t-86 148.5t-31 182zM11192 -16q47 25 74 77t39 120.5t14 145t2 148.5t-2 149.5t-14 145.5t-39 121t-74 76q88 -12 163 -54.5t130 -107t86 -148.5t31 -182t-31 -182t-86 -148.5t-130 -106.5t-163 -54zM11737 2v45h145v846h-145v45h416v-891h135v-45h-551z M12278 864q47 53 103 75t122 22q129 0 206 -73t77 -196v-645h145v-45h-563v45h147v643q0 84 -30.5 143.5t-106.5 59.5q-20 0 -46 -6t-54 -23z" />
<glyph unicode="la&#x20;collection" horiz-adv-x="13012" d="M145 2v41h203v1493h-203v45h734v-45h-215v-1534h-519zM901 2h428v496h-41q-4 -61 -22.5 -140t-62.5 -154t-116.5 -131.5t-185.5 -70.5zM1464 217q0 88 46 144.5t115 92t148.5 53t145.5 25.5q-98 -27 -147.5 -86t-49.5 -161q0 -53 12.5 -100.5t40 -76t72.5 -33.5t109 29 q-53 -61 -112.5 -94t-131.5 -33q-109 0 -178.5 68t-69.5 172zM1524 715q0 92 83 155.5t224 79.5q-41 -16 -76 -51t-35 -68q0 -10 8.5 -19t17.5 -21.5t17.5 -28.5t8.5 -41q0 -53 -36 -88t-89 -35t-88 32t-35 85zM1925 950q172 0 264 -58t92 -157v-598q0 -39 14.5 -51t34 -10 t39 15t29.5 26l23 -25q-29 -53 -85.5 -82.5t-121.5 -29.5q-57 0 -96 23.5t-62.5 60t-34 83t-10.5 93.5v518q0 63 -21.5 116.5t-64.5 75.5zM3222 791q0 190 55 332.5t142 240.5t195 153.5t210 73.5q-51 -23 -95.5 -74t-76 -145t-50 -236.5t-18.5 -344.5q0 -201 18.5 -343.5 t50 -236.5t75.5 -146.5t96 -72.5q-102 18 -210 72.5t-195 151.5t-142 239.5t-55 335.5zM3967 -8q92 14 168 80.5t134 155.5t98 186.5t61 173.5h45v-596h-45l-78 123q-57 -37 -105.5 -60.5t-93.5 -38t-90 -19.5t-94 -5zM3967 1591q47 0 89 -5t85 -17.5t89 -35t99 -54.5 l76 112h45v-540h-41q-16 76 -54 165t-94 168.5t-131 137t-163 69.5zM4653 475q0 98 30.5 182t86 148.5t130.5 107t163 54.5q-49 -23 -75 -76t-38 -121t-14 -145.5t-2 -149.5t2 -148.5t14 -145t38 -121t75 -76.5q-88 12 -163 54t-130.5 106.5t-86 148.5t-30.5 182zM5212 -16 q47 25 74 77t39 120.5t14 145t2 148.5t-2 149.5t-14 145.5t-39 121t-74 76q88 -12 163 -54.5t130 -107t86 -148.5t31 -182t-31 -182t-86 -148.5t-130 -106.5t-163 -54zM5755 2v45h147v1489h-147v45h418v-1534h157v-45h-575zM6433 2v45h145v1489h-145v45h418v-1534h157v-45 h-575zM7131 465q0 111 32 199t87 150.5t130 100t161 48.5q-59 -25 -93 -97.5t-34 -193.5v-197q0 -106 9 -191t34.5 -143.5t69.5 -89.5t114 -31q119 0 208 72t120 193l43 -13q-35 -135 -135.5 -216t-235.5 -81q-92 0 -184 32t-164 94.5t-117 153.5t-45 210zM7483 543l441 75 l-23 -75h-418zM7670 965q82 -10 150.5 -43t118.5 -88.5t78 -129t28 -161.5h-281v143q0 233 -94 279zM8210 475q0 98 31 182t86 148.5t130 106.5t163 55q-47 -23 -72.5 -76t-38 -121t-14.5 -145.5t-2 -149.5q0 -106 9 -191t35 -143.5t70 -89.5t113 -31q119 0 208 72t118 193 l43 -13q-35 -135 -134 -216t-235 -81q-94 0 -185 33t-164 96.5t-117 156.5t-44 214zM8696 973q68 0 132 -16.5t114.5 -49.5t81 -82.5t30.5 -117.5q0 -57 -37 -94.5t-96 -37.5q-61 0 -102 38t-41 94q0 25 10 58.5t68 80.5q0 23 -15.5 45t-39 40.5t-52.5 30t-53 11.5z M9212 893v45l158 80l202 315h45v-395h203v-45h-203v-688q0 -59 28 -97t75 -38q41 0 72.5 38.5t66.5 112.5l43 -16q-23 -63 -51.5 -106.5t-66.5 -70t-87 -37.5t-112 -11q-119 0 -178.5 66.5t-59.5 170.5v676h-135zM9935 2v45h145v846h-145v45h416v-891h157v-45h-573z M10037 1354q0 -70 48.5 -119t119.5 -49q72 0 121 49t49 119q0 72 -49 121t-121 49t-120 -49t-48 -121zM10633 475q0 98 31 182t86 148.5t130 107t163 54.5q-47 -23 -72.5 -76t-38 -121t-14.5 -145.5t-2 -149.5t2 -148.5t14.5 -145t38 -121t72.5 -76.5q-88 12 -163 54 t-130 106.5t-86 148.5t-31 182zM11192 -16q47 25 74 77t39 120.5t14 145t2 148.5t-2 149.5t-14 145.5t-39 121t-74 76q88 -12 163 -54.5t130 -107t86 -148.5t31 -182t-31 -182t-86 -148.5t-130 -106.5t-163 -54zM11737 2v45h145v846h-145v45h416v-891h135v-45h-551z M12278 864q47 53 103 75t122 22q129 0 206 -73t77 -196v-645h145v-45h-563v45h147v643q0 84 -30.5 143.5t-106.5 59.5q-20 0 -46 -6t-54 -23z" />
<glyph unicode="La&#x20;collection" horiz-adv-x="13012" d="M145 2v41h203v1493h-203v45h734v-45h-215v-1534h-519zM901 2h428v496h-41q-4 -61 -22.5 -140t-62.5 -154t-116.5 -131.5t-185.5 -70.5zM1464 217q0 88 46 144.5t115 92t148.5 53t145.5 25.5q-98 -27 -147.5 -86t-49.5 -161q0 -53 12.5 -100.5t40 -76t72.5 -33.5t109 29 q-53 -61 -112.5 -94t-131.5 -33q-109 0 -178.5 68t-69.5 172zM1524 715q0 92 83 155.5t224 79.5q-41 -16 -76 -51t-35 -68q0 -10 8.5 -19t17.5 -21.5t17.5 -28.5t8.5 -41q0 -53 -36 -88t-89 -35t-88 32t-35 85zM1925 950q172 0 264 -58t92 -157v-598q0 -39 14.5 -51t34 -10 t39 15t29.5 26l23 -25q-29 -53 -85.5 -82.5t-121.5 -29.5q-57 0 -96 23.5t-62.5 60t-34 83t-10.5 93.5v518q0 63 -21.5 116.5t-64.5 75.5zM3222 791q0 190 55 332.5t142 240.5t195 153.5t210 73.5q-51 -23 -95.5 -74t-76 -145t-50 -236.5t-18.5 -344.5q0 -201 18.5 -343.5 t50 -236.5t75.5 -146.5t96 -72.5q-102 18 -210 72.5t-195 151.5t-142 239.5t-55 335.5zM3967 -8q92 14 168 80.5t134 155.5t98 186.5t61 173.5h45v-596h-45l-78 123q-57 -37 -105.5 -60.5t-93.5 -38t-90 -19.5t-94 -5zM3967 1591q47 0 89 -5t85 -17.5t89 -35t99 -54.5 l76 112h45v-540h-41q-16 76 -54 165t-94 168.5t-131 137t-163 69.5zM4653 475q0 98 30.5 182t86 148.5t130.5 107t163 54.5q-49 -23 -75 -76t-38 -121t-14 -145.5t-2 -149.5t2 -148.5t14 -145t38 -121t75 -76.5q-88 12 -163 54t-130.5 106.5t-86 148.5t-30.5 182zM5212 -16 q47 25 74 77t39 120.5t14 145t2 148.5t-2 149.5t-14 145.5t-39 121t-74 76q88 -12 163 -54.5t130 -107t86 -148.5t31 -182t-31 -182t-86 -148.5t-130 -106.5t-163 -54zM5755 2v45h147v1489h-147v45h418v-1534h157v-45h-575zM6433 2v45h145v1489h-145v45h418v-1534h157v-45 h-575zM7131 465q0 111 32 199t87 150.5t130 100t161 48.5q-59 -25 -93 -97.5t-34 -193.5v-197q0 -106 9 -191t34.5 -143.5t69.5 -89.5t114 -31q119 0 208 72t120 193l43 -13q-35 -135 -135.5 -216t-235.5 -81q-92 0 -184 32t-164 94.5t-117 153.5t-45 210zM7483 543l441 75 l-23 -75h-418zM7670 965q82 -10 150.5 -43t118.5 -88.5t78 -129t28 -161.5h-281v143q0 233 -94 279zM8210 475q0 98 31 182t86 148.5t130 106.5t163 55q-47 -23 -72.5 -76t-38 -121t-14.5 -145.5t-2 -149.5q0 -106 9 -191t35 -143.5t70 -89.5t113 -31q119 0 208 72t118 193 l43 -13q-35 -135 -134 -216t-235 -81q-94 0 -185 33t-164 96.5t-117 156.5t-44 214zM8696 973q68 0 132 -16.5t114.5 -49.5t81 -82.5t30.5 -117.5q0 -57 -37 -94.5t-96 -37.5q-61 0 -102 38t-41 94q0 25 10 58.5t68 80.5q0 23 -15.5 45t-39 40.5t-52.5 30t-53 11.5z M9212 893v45l158 80l202 315h45v-395h203v-45h-203v-688q0 -59 28 -97t75 -38q41 0 72.5 38.5t66.5 112.5l43 -16q-23 -63 -51.5 -106.5t-66.5 -70t-87 -37.5t-112 -11q-119 0 -178.5 66.5t-59.5 170.5v676h-135zM9935 2v45h145v846h-145v45h416v-891h157v-45h-573z M10037 1354q0 -70 48.5 -119t119.5 -49q72 0 121 49t49 119q0 72 -49 121t-121 49t-120 -49t-48 -121zM10633 475q0 98 31 182t86 148.5t130 107t163 54.5q-47 -23 -72.5 -76t-38 -121t-14.5 -145.5t-2 -149.5t2 -148.5t14.5 -145t38 -121t72.5 -76.5q-88 12 -163 54 t-130 106.5t-86 148.5t-31 182zM11192 -16q47 25 74 77t39 120.5t14 145t2 148.5t-2 149.5t-14 145.5t-39 121t-74 76q88 -12 163 -54.5t130 -107t86 -148.5t31 -182t-31 -182t-86 -148.5t-130 -106.5t-163 -54zM11737 2v45h145v846h-145v45h416v-891h135v-45h-551z M12278 864q47 53 103 75t122 22q129 0 206 -73t77 -196v-645h145v-45h-563v45h147v643q0 84 -30.5 143.5t-106.5 59.5q-20 0 -46 -6t-54 -23z" />
<glyph horiz-adv-x="0" />
<glyph horiz-adv-x="0" />
<glyph unicode=" "  horiz-adv-x="534" />
<glyph unicode="&#x09;" horiz-adv-x="534" />
<glyph unicode="&#xa0;" horiz-adv-x="534" />
<glyph unicode="!" horiz-adv-x="548" d="M139 86q0 55 40 94t93 39q55 0 95.5 -39t40.5 -94q0 -25 -8.5 -47.5t-20.5 -38.5h-211q-12 16 -20.5 38.5t-8.5 47.5zM176 635v840h195v-840l-21 -238h-153z" />
<glyph unicode="&#x22;" horiz-adv-x="749" d="M113 827v557q16 16 41.5 24.5t48.5 8.5q53 0 91 -32t38 -91q0 -27 -10.5 -59.5t-20.5 -58.5l-141 -349h-47zM446 827v557q39 33 91 33q53 0 91 -32t38 -91q0 -27 -9.5 -59.5t-19.5 -58.5l-143 -349h-48z" />
<glyph unicode="#" d="M66 377v180h227l33 242h-205v180h231l56 418h137l-56 -418h166l58 418h135l-55 -418h208v-180h-235l-33 -242h215v-180h-237l-52 -377h-137l51 377h-165l-52 -377h-137l51 377h-204zM430 557h168l33 242h-168z" />
<glyph unicode="$" d="M96 104v185h6l11 -8q16 -12 50 -30t109 -48q43 -16 90.5 -25.5t88.5 -11.5v496h2q-76 27 -130.5 52t-109.5 68q-113 90 -113 246q0 76 27 137.5t74 107.5t111.5 75.5t142.5 40.5h-4v194h133v-188q109 -6 175 -26.5t93 -31.5q2 0 3 -1t3 -1l10 -4v-172q-121 59 -284 70 v-426h-2q82 -29 143 -56.5t117 -66.5q63 -45 97 -112.5t34 -157.5q0 -145 -105 -265q-106 -115 -288 -139h4v-223h-133v217q-47 2 -90.5 9t-86.5 20q-84 27 -133 49zM281 1040q0 -127 170 -190v375q-78 -12 -124 -59.5t-46 -125.5zM584 174q86 16 147.5 72.5t61.5 152.5 q0 82 -55.5 131.5t-153.5 83.5v-440z" />
<glyph unicode="%" horiz-adv-x="1470" d="M92 1094q0 131 92 229q92 94 219 94q61 0 116.5 -24.5t101.5 -69.5q43 -47 68.5 -106.5t25.5 -122.5q0 -129 -92 -228q-88 -94 -220 -94q-129 0 -221 94q-90 101 -90 228zM231 0l848 1397h160l-848 -1397h-160zM244 1094q0 -37 13 -69t34.5 -55.5t50.5 -36.5t61 -13 q66 0 113 51t47 123q0 74 -46 125t-114 51t-113.5 -51.5t-45.5 -124.5zM756 301q0 131 92 229q92 94 219 95q129 0 217 -95q94 -100 94 -229t-92 -227q-88 -94 -219 -94q-129 0 -221 94q-90 100 -90 227zM907 301q0 -37 13.5 -68.5t35 -55t50 -37t61.5 -13.5q66 0 113 51 t47 123q0 74 -46 125t-114 51t-114 -51t-46 -125z" />
<glyph unicode="&#x26;" horiz-adv-x="1161" d="M92 426q0 78 19.5 142.5t49 113.5t62.5 84t58 53q-6 6 -22.5 29.5t-35 59.5t-32 82t-13.5 97q0 72 27.5 132.5t77 104.5t118 68.5t148.5 24.5q61 0 130 -15.5t112 -37.5v-172q-47 23 -104.5 39t-123.5 16q-86 0 -145.5 -43t-59.5 -125q0 -45 16.5 -88t41 -83t52.5 -73.5 t50 -58.5h-2l31 -35l311 -383q18 41 30.5 84t16.5 82h170q-2 -70 -28.5 -147.5t-73.5 -153.5l139 -162l-68 -67h-96l-86 102q-135 -117 -323 -116q-98 0 -181.5 36.5t-141.5 99t-91 143.5t-33 167zM266 446q0 -59 19.5 -113t55.5 -96t87 -67t117 -25q129 0 215 74h-2 l-387 469q-8 -6 -25.5 -24.5t-35 -48t-31 -71.5t-13.5 -98z" />
<glyph unicode="'" horiz-adv-x="434" d="M123 827v557q16 16 40.5 24.5t49.5 8.5q53 0 90 -32t37 -91q0 -27 -9 -59.5t-20 -58.5l-141 -349h-47z" />
<glyph unicode="(" horiz-adv-x="587" d="M113 496q0 125 18.5 245.5t58 239.5t103 238.5t153.5 246.5l125 -77q-268 -446 -268 -893q0 -109 13.5 -213.5t45 -212t83 -223t126.5 -246.5l-125 -80q-334 471 -333 975z" />
<glyph unicode=")" horiz-adv-x="587" d="M14 -399q76 131 128.5 246.5t84 223t45 212t13.5 213.5q0 446 -271 893l125 77q90 -127 154.5 -246.5t104.5 -238.5t58.5 -239.5t18.5 -245.5q0 -504 -336 -975z" />
<glyph unicode="*" horiz-adv-x="985" d="M74 1153q0 39 25.5 64.5t62.5 25.5q20 0 35 -8q63 -35 123.5 -68.5t123.5 -68.5q-10 70 -20 140.5t-21 139.5v37q-2 37 26 56.5t63 19.5t64.5 -19.5t25.5 -58.5v-19.5t-2 -15.5q-10 -70 -20.5 -140.5t-20.5 -139.5l249 137q17 8 37 8q39 0 62.5 -26.5t23.5 -65.5 q0 -33 -21.5 -57.5t-49.5 -30.5l-277 -55l199 -205q25 -29 24 -62q0 -35 -27.5 -61.5t-66.5 -26.5q-53 0 -74 43l-126 250l-127 -254q-20 -39 -76 -39q-35 0 -62.5 28t-27.5 62q0 35 22 62l201 203l-279 55q-31 6 -50 31.5t-19 58.5z" />
<glyph unicode="+" d="M113 586v162h340v358h161v-358h342v-162h-342v-359h-161v359h-340z" />
<glyph unicode="," horiz-adv-x="499" d="M156 186q16 16 40.5 24.5t49.5 8.5q53 0 90 -32t37 -91q0 -27 -9.5 -59.5t-19.5 -59.5l-141 -327h-47v536z" />
<glyph unicode="-" horiz-adv-x="704" d="M113 473v160h479v-160h-479z" />
<glyph unicode="." horiz-adv-x="471" d="M106 90q0 59 41 99t99 40q59 0 99 -39.5t40 -99.5q0 -27 -8 -49.5t-21 -40.5h-221q-12 18 -20.5 40.5t-8.5 49.5z" />
<glyph unicode="/" horiz-adv-x="589" d="M14 -20l406 1437h153l-403 -1437h-156z" />
<glyph unicode="0" horiz-adv-x="1126" d="M84 700q0 158 33 290t94 227.5t150.5 148.5t201.5 53q113 0 202 -52t150.5 -147.5t94 -227.5t32.5 -292t-32.5 -293t-94 -228t-150.5 -147t-202 -52t-202 52t-150 147t-94 228.5t-33 292.5zM262 700q0 -129 21.5 -230t60.5 -173t95.5 -109.5t123.5 -37.5q68 0 123 38.5 t95 110.5t61.5 173t21.5 228t-21.5 228.5t-61.5 173.5t-95 109.5t-123 37.5t-124 -37.5t-95 -109.5t-60.5 -173.5t-21.5 -228.5z" />
<glyph unicode="1" horiz-adv-x="919" d="M190 997v203l363 197h100v-1397h-180v1153q-70 -37 -141.5 -78t-141.5 -78z" />
<glyph unicode="2" d="M131 0v76l397 495q78 94 136.5 201t58.5 242q0 104 -64.5 169.5t-169.5 65.5q-70 0 -163 -31.5t-168 -78.5v184q70 47 164 71.5t182 24.5q90 0 164.5 -28.5t127 -81t81 -126t28.5 -165.5q0 -117 -48 -235.5t-122 -213.5q-76 -98 -157.5 -199.5t-157.5 -199.5h538v-170 h-827z" />
<glyph unicode="3" d="M147 68v190l28 -18q28 -17 72 -37.5t103.5 -36.5t124.5 -16q55 0 102.5 17t82 49t55 76t20.5 99q0 113 -74.5 182.5t-220.5 69.5v164q135 0 202 63.5t67 173.5q0 43 -16.5 80t-44 65t-65.5 44t-81 16q-76 0 -157 -25.5t-152 -60.5v172q143 84 325 84q80 0 147.5 -26.5 t116.5 -73.5t77 -112.5t28 -143.5q0 -76 -20.5 -131t-50.5 -94t-63.5 -62.5t-60.5 -38.5q2 0 38 -16t78 -56t77 -106.5t35 -167.5q0 -90 -33 -164.5t-91.5 -130t-139.5 -86t-175 -30.5q-92 0 -178 25.5t-156 62.5z" />
<glyph unicode="4" d="M94 328v90l463 979h197l-422 -905h348v258h180v-258h146v-164h-146v-328h-180v328h-586z" />
<glyph unicode="5" d="M143 72v186l27 -18q27 -17 71 -37.5t100 -36.5t116 -16q66 0 119 20t91 57t58 87.5t20 107.5q0 61 -22.5 113.5t-65.5 90.5t-104 60.5t-139 22.5q-47 0 -99.5 -4.5t-83.5 -8.5l-30 29l73 670h584v-168h-426l-39 -359q31 2 48.5 2h25.5q104 0 189 -34.5t144.5 -94 t92.5 -140.5t33 -175q0 -96 -36 -178t-97.5 -141.5t-144.5 -93t-177 -33.5q-90 0 -176 25.5t-152 66.5z" />
<glyph unicode="6" d="M123 477q0 131 36 261t103.5 251t166.5 230.5t228 201.5l105 -135q-72 -45 -137.5 -106.5t-120.5 -134t-97 -150.5t-65 -158q100 66 231 66q80 0 149 -31t119 -85t78.5 -129t28.5 -161q0 -84 -30.5 -159.5t-86 -133t-131 -91t-163.5 -33.5q-92 0 -169 34.5t-131.5 99 t-84 156.5t-29.5 207zM299 459q0 -147 70.5 -230.5t173.5 -83.5q100 0 162.5 71t62.5 183q0 49 -17.5 93.5t-49 77t-74.5 51t-92 18.5q-61 0 -120 -22.5t-83 -43.5l-25 -22h2q-10 -51 -10 -92z" />
<glyph unicode="7" d="M129 1231v166h858l-596 -1397h-198l530 1231h-594z" />
<glyph unicode="8" d="M100 373q0 70 21.5 127t51.5 98t61.5 67.5t54.5 39.5l22 12q-4 0 -6 2q-16 10 -55 43q-37 33 -55 61q-23 33 -42.5 87.5t-19.5 113.5q0 170 117 281q113 113 285 112q80 0 153.5 -30.5t128.5 -81.5q55 -55 86 -127t31 -154q0 -59 -17.5 -108.5t-43 -87t-52 -62.5 t-45.5 -37l-16 -12q4 -4 8 -4q18 -10 63 -47q16 -16 35 -33t29 -33q27 -35 49.5 -98t22.5 -131q0 -168 -125 -281q-121 -111 -305 -110q-186 0 -312 112q-125 113 -125 281zM281 387q0 -106 69.5 -175t184.5 -69t183 69t68 175q0 104 -69.5 172t-179.5 68 q-115 0 -185.5 -67.5t-70.5 -172.5zM311 1022q0 -47 17.5 -88t47.5 -72t70.5 -48t88.5 -17q49 0 89 18.5t69.5 49t46 71.5t16.5 88q0 98 -61.5 163.5t-159.5 65.5t-161 -65.5t-63 -165.5z" />
<glyph unicode="9" d="M123 1001q0 172 117 295t292 123q92 0 170 -35.5t134 -99.5q113 -137 112 -362q0 -129 -37 -259.5t-102 -252.5q-133 -246 -397 -433l-105 136q72 47 137.5 106.5t122.5 134.5q113 147 160 308q-96 -66 -231 -66q-162 0 -267 115q-106 119 -106 290zM301 999 q0 -49 18.5 -93t49 -76.5t73.5 -51t93 -18.5q63 0 120.5 21.5t81.5 43.5l25 23h-2q10 51 10 92q0 147 -69.5 230t-174.5 83q-98 0 -161.5 -70.5t-63.5 -183.5z" />
<glyph unicode=":" horiz-adv-x="471" d="M156 10v211q37 31 88 31q53 0 92 -37t39 -98q0 -59 -39 -98t-92 -39q-25 0 -48.5 9t-39.5 21zM156 737v211q37 31 88 31q53 0 92 -37t39 -98q0 -59 -39 -98t-92 -39q-25 0 -48.5 9t-39.5 21z" />
<glyph unicode=";" horiz-adv-x="471" d="M156 186q16 16 40.5 24.5t49.5 8.5q53 0 90 -32t37 -91q0 -27 -9.5 -59.5t-19.5 -59.5l-141 -327h-47v536zM156 737v211q37 31 88 31q53 0 92 -37t39 -98q0 -59 -39 -98t-92 -39q-25 0 -48.5 9t-39.5 21z" />
<glyph unicode="&#x3c;" d="M113 594v143l843 406v-178l-641 -299l641 -299v-179z" />
<glyph unicode="=" d="M113 385v164h843v-164h-843zM113 795v163h843v-163h-843z" />
<glyph unicode="&#x3e;" d="M113 188v179l643 299l-643 299v178l843 -406v-143z" />
<glyph unicode="?" horiz-adv-x="774" d="M53 1239v178q141 74 281 74q186 0 286.5 -97.5t100.5 -256.5q0 -68 -18.5 -124.5t-46 -104.5t-62.5 -90t-68 -79q-39 -43 -70.5 -86t-43.5 -86q-4 -25 -7.5 -62.5t-3.5 -72.5l-2 -35h-178q-2 35 -3 58.5t-1 40.5v34q0 98 52.5 174t113.5 144q55 63 100 125.5t45 144.5 q0 201 -204 201q-55 0 -128 -22.5t-143 -57.5zM178 86q0 55 40 94t93 39q55 0 95 -39t40 -94q0 -25 -8 -47.5t-20 -38.5h-211q-12 16 -20.5 38.5t-8.5 47.5z" />
<glyph unicode="@" horiz-adv-x="1925" d="M6 494q0 197 75 373.5t205 311t304 212t375 77.5q178 0 332.5 -57t270 -162.5t182.5 -256t67 -337.5q0 -135 -48.5 -246.5t-130.5 -192.5t-191.5 -125t-234.5 -44h-67l-64 78q-63 -47 -127.5 -68.5t-128.5 -21.5q-72 0 -136 28.5t-111.5 82t-75 130t-27.5 173.5 q0 121 39 222t106.5 174t162 113.5t204.5 40.5q72 0 142.5 -27.5t113.5 -74.5l96 70h56l-158 -768q96 2 173 36.5t130 95t81 139.5t28 171q0 150 -52.5 273.5t-144.5 211.5t-215 136.5t-264 48.5q-152 0 -295 -61.5t-255 -170t-179.5 -258t-67.5 -327.5q0 -166 49 -303.5 t139.5 -236.5t220.5 -154.5t289 -55.5q115 0 214.5 34t175.5 75v-187q-72 -33 -170.5 -60.5t-225.5 -27.5q-203 0 -362.5 68.5t-271 190.5t-170 290t-58.5 367zM633 463q0 -70 18.5 -122t50 -86t72.5 -51.5t86 -17.5q59 0 121.5 29t114.5 86h-2l88 418q-29 61 -86 95 t-125 34q-70 0 -131.5 -31t-107.5 -83t-72.5 -121.5t-26.5 -149.5z" />
<glyph unicode="A" horiz-adv-x="1196" d="M25 0l542 1397h64l540 -1397h-194l-100 283h-555l-105 -283h-192zM379 444h440q-53 147 -109.5 296t-109.5 296z" />
<glyph unicode="B" horiz-adv-x="1189" d="M162 0v1397h459q215 0 328.5 -98.5t113.5 -260.5q0 -61 -19.5 -110t-49 -88t-62.5 -65.5t-58 -43.5q100 -47 167 -138t67 -214q0 -172 -117 -277q-115 -102 -297 -102h-532zM342 164h303q281 0 281 227q0 111 -71 173.5t-214 62.5h-299v-463zM342 788h276q117 0 190 56.5 t73 173.5q0 219 -252 219h-287v-449z" />
<glyph unicode="C" horiz-adv-x="1181" d="M84 700q0 156 55.5 287t149.5 226.5t218 149.5t263 54q88 0 178 -15.5t152 -39.5v-188q-137 79 -317 79h-5q-102 0 -195.5 -39.5t-165 -112.5t-113.5 -174.5t-42 -224.5q0 -129 42 -232t112.5 -176t163 -111t192.5 -38q84 0 178 30t166 79v-195q-70 -41 -160 -60 t-192 -19q-141 0 -265 53t-216.5 148t-145.5 227.5t-53 291.5z" />
<glyph unicode="D" horiz-adv-x="1288" d="M162 0v1397h338q164 0 294 -50.5t221 -142.5t140 -221t49 -285q0 -154 -49 -282.5t-140 -221t-221 -143.5t-294 -51h-338zM342 166h166q123 0 219 39t161.5 109.5t100.5 169t35 214.5q0 121 -35 219.5t-101.5 168t-161.5 107.5t-218 38h-166v-1065z" />
<glyph unicode="E" horiz-adv-x="1077" d="M162 0v1397h835v-164h-657v-442h625v-166h-625v-461h674v-164h-852z" />
<glyph unicode="F" horiz-adv-x="997" d="M162 0v1397h792v-164h-614v-442h582v-166h-580v-625h-180z" />
<glyph unicode="G" horiz-adv-x="1366" d="M84 700q0 150 54.5 281t149.5 228.5t226 152.5t283 55q100 0 204.5 -23.5t176.5 -62.5v-176h-2q-4 2 -32 17.5t-77 34t-117.5 32.5t-152.5 14q-113 0 -210.5 -42t-169 -115.5t-112.5 -175t-41 -220.5q0 -125 42 -227t111.5 -174t161 -112t189.5 -40t172 30t139 79h-2v311 h-411v166h587v-549q-51 -57 -123 -102q-61 -39 -153 -69.5t-219 -30.5q-133 0 -255 53t-215 148.5t-148.5 227.5t-55.5 289z" />
<glyph unicode="H" horiz-adv-x="1361" d="M162 0v1397h176v-606h686v606h176v-1397h-176v625h-686v-625h-176z" />
<glyph unicode="I" horiz-adv-x="503" d="M162 0v1397h180v-1397h-180z" />
<glyph unicode="J" horiz-adv-x="548" d="M53 0v160h29q61 0 99 45t38 131v1061h178v-1078q0 -141 -76.5 -230t-211.5 -89h-56z" />
<glyph unicode="K" horiz-adv-x="1150" d="M162 0v1397h178v-602l516 602h221l-499 -580l569 -817h-232l-452 682q-31 -35 -62.5 -67.5t-60.5 -67.5v-547h-178z" />
<glyph unicode="L" horiz-adv-x="1007" d="M162 0v1397h178v-1231h633v-166h-811z" />
<glyph unicode="M" horiz-adv-x="1601" d="M162 0v1397h61l576 -723l577 723h64v-1397h-178v977l-431 -541h-63l-430 541v-977h-176z" />
<glyph unicode="N" horiz-adv-x="1380" d="M162 0v1397h61l819 -985v985h179v-1397h-64l-819 985v-985h-176z" />
<glyph unicode="O" horiz-adv-x="1558" d="M84 700q0 147 55.5 278.5t149.5 229t221 154.5t268 57q143 0 269.5 -56t221.5 -154.5t150.5 -229.5t55.5 -279q0 -147 -54.5 -278t-148.5 -228.5t-221 -154.5t-273 -57q-141 0 -268 57t-221 154.5t-149.5 228.5t-55.5 278zM258 702q0 -115 41 -216t111.5 -177t166 -120 t201.5 -44t201.5 44t166.5 120t111.5 177.5t40.5 215.5q0 113 -40.5 214.5t-111.5 178t-166 121t-202 44.5q-106 0 -201.5 -44.5t-166 -120t-111.5 -177t-41 -216.5z" />
<glyph unicode="P" horiz-adv-x="1114" d="M162 0v1397h459q98 0 179 -33t139 -89t90 -134t32 -168t-32 -168t-90 -135.5t-139 -90t-179 -32.5h-283v-547h-176zM338 709h280q121 0 196 71.5t75 190.5t-75 191.5t-196 72.5h-280v-526z" />
<glyph unicode="Q" horiz-adv-x="1558" d="M84 700q0 147 55.5 278.5t149.5 229t221 154.5t268 57q143 0 269.5 -56t221.5 -154.5t150.5 -229.5t55.5 -279q0 -106 -31 -206.5t-86 -186.5t-131 -154.5t-166 -109.5q88 -61 180 -129t180 -129v-219l-553 422q-27 -4 -50 -5t-40 -1q-141 0 -268 57t-221 154.5 t-149.5 228.5t-55.5 278zM258 702q0 -115 41 -216t111.5 -177t166 -120t201.5 -44t201.5 44t166.5 120t111.5 177.5t40.5 215.5q0 113 -40.5 214.5t-111.5 178t-166 121t-202 44.5q-106 0 -201.5 -44.5t-166 -120t-111.5 -177t-41 -216.5z" />
<glyph unicode="R" horiz-adv-x="1183" d="M162 0v1397h452q98 0 180.5 -29t141.5 -82t92 -127t33 -164q0 -152 -89 -255t-237 -136h4l428 -604h-229l-408 592h-192v-592h-176zM338 754h274q121 0 199 60t78 179t-78 180.5t-199 61.5h-274v-481z" />
<glyph unicode="S" horiz-adv-x="1030" d="M109 86v186q27 -20 69.5 -41.5t94 -40t108.5 -29.5t115 -11q147 0 232 68.5t85 170.5q0 51 -20.5 89t-54 66.5t-79 51t-94.5 41.5l-155 55q-59 20 -113.5 50t-96.5 73t-66.5 101.5t-24.5 138.5q0 74 31.5 140.5t90 116.5t139.5 78.5t179 28.5q49 0 98 -8t94 -20.5 t84 -27.5t66 -30v-192q-53 39 -141 74.5t-187 35.5q-61 0 -111.5 -15t-86 -43t-55 -64.5t-19.5 -79.5q0 -84 58.5 -125t148.5 -72l184 -64q53 -18 108.5 -50.5t99.5 -82t72.5 -113t28.5 -143.5q0 -96 -36.5 -172.5t-102.5 -132t-156 -85t-198 -29.5q-119 0 -224.5 31.5 t-164.5 74.5z" />
<glyph unicode="T" horiz-adv-x="987" d="M35 1231v166h917v-166h-370v-1231h-179v1231h-368z" />
<glyph unicode="U" horiz-adv-x="1314" d="M141 500v897h178v-893q0 -82 27 -148.5t73 -113.5t107.5 -73t130.5 -26q72 0 133.5 27t107.5 75t71.5 113.5t25.5 145.5v893h179v-897q0 -113 -41 -208t-112 -164t-165 -107.5t-199 -38.5q-104 0 -198 37.5t-165 106.5t-112 164t-41 210z" />
<glyph unicode="V" horiz-adv-x="1220" d="M35 1397h192l383 -1045l381 1045h195l-543 -1397h-63z" />
<glyph unicode="W" horiz-adv-x="1861" d="M53 1397h191l297 -1000q92 238 179 472.5t179 471.5h62l360 -944q76 252 148.5 500t148.5 500h190l-438 -1397h-63l-375 973l-377 -973h-63z" />
<glyph unicode="X" horiz-adv-x="1171" d="M35 0l444 727q-100 162 -207.5 335t-205.5 335h206l314 -529l311 529h207l-416 -670l449 -727h-205l-346 582l-348 -582h-203z" />
<glyph unicode="Y" horiz-adv-x="1122" d="M14 1397h191l358 -676l355 676h190l-459 -836v-561h-176v561q-111 205 -229.5 418t-229.5 418z" />
<glyph unicode="Z" horiz-adv-x="1013" d="M53 0v66l662 1167h-631v164h885v-66l-662 -1167h658v-164h-912z" />
<glyph unicode="[" horiz-adv-x="559" d="M162 -410v1807h362v-148h-180v-1515h180v-144h-362z" />
<glyph unicode="\" horiz-adv-x="589" d="M14 1417h156l403 -1437h-153z" />
<glyph unicode="]" horiz-adv-x="559" d="M35 -266h178v1515h-178v148h362v-1807h-362v144z" />
<glyph unicode="^" horiz-adv-x="919" d="M53 631l330 766h154l329 -766h-184l-223 565q-53 -141 -110.5 -282.5t-110.5 -282.5h-185z" />
<glyph unicode="_" horiz-adv-x="952" d="M-14 -154h979v-102h-979v102z" />
<glyph unicode="`" horiz-adv-x="407" d="M-4 1274l80 156l336 -213l-41 -101z" />
<glyph unicode="&#x2cb;" horiz-adv-x="407" d="M-4 1274l80 156l336 -213l-41 -101z" />
<glyph unicode="a" horiz-adv-x="966" d="M84 272q0 76 33 133.5t86 97.5t123.5 60.5t146.5 20.5q59 0 117.5 -12.5t89.5 -24.5v69q0 98 -61.5 141.5t-161.5 43.5q-88 0 -163 -28t-114 -60v176q35 23 118 47.5t179 24.5q82 0 151.5 -20.5t121 -60.5t79 -101.5t27.5 -141.5v-637h-61l-95 72q-70 -47 -142.5 -69.5 t-164.5 -22.5q-66 0 -122 19t-98 57t-65.5 92.5t-23.5 123.5zM260 272q0 -78 54.5 -113.5t138.5 -35.5q55 0 117.5 25.5t109.5 68.5v176q-18 10 -59 26.5t-109 16.5q-51 0 -96 -10t-80 -30.5t-55.5 -51.5t-20.5 -72z" />
<glyph unicode="b" horiz-adv-x="1085" d="M131 0v1397h180v-533q51 41 116 66.5t136 25.5q96 0 179 -34.5t144.5 -99t96.5 -153.5t35 -200q0 -109 -35 -199t-95.5 -154.5t-143 -100t-181.5 -35.5q-76 0 -152.5 26.5t-131.5 67.5l-82 -74h-66zM311 244q41 -53 102.5 -84t129.5 -31q66 0 122 25.5t97 70.5 t64.5 107.5t23.5 136.5q0 76 -23.5 138.5t-65.5 106.5t-98.5 68.5t-119.5 24.5q-66 0 -127.5 -33t-104.5 -88v-442z" />
<glyph unicode="c" horiz-adv-x="894" d="M68 471q0 102 34.5 191.5t98 155t154.5 103t204 37.5q61 0 130 -13t126 -36v-172q-45 27 -112.5 49.5t-141.5 22.5q-61 0 -118.5 -23.5t-103.5 -67.5t-73.5 -106.5t-27.5 -140.5q0 -76 26.5 -138.5t70.5 -107.5t102.5 -69.5t123.5 -24.5q61 0 133 20.5t133 57.5v-166 q-53 -35 -122.5 -49t-155.5 -14q-117 0 -207 38.5t-150.5 105t-92 156t-31.5 191.5z" />
<glyph unicode="d" horiz-adv-x="1083" d="M66 469q0 102 34.5 191.5t96 156t144.5 104t179 37.5q74 0 136.5 -25.5t115.5 -70.5v533h180v-1395h-65l-84 78q-53 -43 -130 -70.5t-153 -27.5q-98 0 -181 38.5t-143.5 105t-95 156t-34.5 189.5zM233 469q0 -68 24 -129t64.5 -108.5t97 -75t122.5 -27.5q68 0 129 37 t102 90v418q-43 55 -104 95t-127 40t-121 -27.5t-97 -73.5t-66 -108.5t-24 -130.5z" />
<glyph unicode="e" horiz-adv-x="985" d="M68 471q0 104 34.5 193.5t96 155t145.5 102t182 36.5q102 0 179 -39.5t128.5 -103t77 -143.5t25.5 -160q0 -74 -10 -115h-680q4 -53 28.5 -101t64.5 -85t91 -58.5t109 -21.5q70 0 157.5 24.5t159.5 65.5v-162q-59 -41 -143 -59t-183 -18q-102 0 -187 37.5t-146.5 103 t-95 156t-33.5 192.5zM246 545h524q-2 49 -19.5 97t-48 86t-76 61.5t-102.5 23.5q-61 0 -108 -22.5t-81 -60.5t-56.5 -86t-32.5 -99z" />
<glyph unicode="f" horiz-adv-x="540" d="M39 786v148h121v190q0 59 9 112.5t35.5 93.5t73 62.5t119.5 22.5q33 0 65 -3t70 -9v-150q-14 4 -36.5 7.5t-36.5 3.5q-57 0 -87 -25t-30 -90v-215h190v-148h-190v-786h-182v786h-121z" />
<glyph unicode="g" horiz-adv-x="1085" d="M68 500q0 100 34.5 184t95 145.5t143.5 95t181 33.5q76 0 153 -26.5t130 -69.5l84 78h65v-883q0 -98 -27.5 -186t-85 -155.5t-143.5 -106.5t-202 -39q-104 0 -192.5 18.5t-153.5 46.5v181q84 -45 171 -66.5t168 -21.5q76 0 130.5 23.5t88 63.5t50 89t16.5 102v113 q-51 -41 -115.5 -68.5t-136.5 -27.5q-96 0 -179 35.5t-144.5 100t-96 151.5t-34.5 190zM236 500q0 -68 23.5 -127.5t65.5 -104.5t97.5 -70.5t118.5 -25.5q68 0 129 39t104 94v379q-41 53 -102.5 90t-130.5 37q-66 0 -121 -23.5t-96 -65.5t-64.5 -98.5t-23.5 -123.5z" />
<glyph unicode="h" horiz-adv-x="1054" d="M131 0v1395h180v-537q45 35 116 67.5t177 32.5q80 0 143.5 -28.5t108.5 -78.5t69.5 -117.5t24.5 -145.5v-588h-180v565q0 117 -53 180.5t-142 63.5q-74 0 -143.5 -38t-120.5 -97v-674h-180z" />
<glyph unicode="i" horiz-adv-x="491" d="M115 1231q0 55 37.5 93t91.5 38q57 0 95 -38t38 -93q0 -43 -31 -80h-203q-16 18 -22 39.5t-6 40.5zM156 0v934h176v-934h-176z" />
<glyph unicode="j" horiz-adv-x="483" d="M-29 -276q96 0 136 50t40 126v1036h177v-1030q0 -47 -16.5 -105.5t-56.5 -109.5t-107.5 -86t-172.5 -35v154zM106 1231q0 55 39 93t93 38q55 0 94 -38t39 -93q0 -18 -8.5 -40t-26.5 -40h-205q-25 35 -25 80z" />
<glyph unicode="k" horiz-adv-x="940" d="M131 0v1395h180v-830l353 371h219l-359 -373l404 -563h-226l-305 432l-86 -94v-338h-180z" />
<glyph unicode="l" horiz-adv-x="442" d="M131 0v1395h180v-1395h-180z" />
<glyph unicode="m" horiz-adv-x="1589" d="M131 0v940h66l92 -82q47 37 119 68.5t176 31.5q88 0 152.5 -35.5t101.5 -99.5q37 33 71.5 58.5t73.5 42t84 25.5t100 9q76 0 134.5 -28.5t97.5 -78.5t58.5 -117.5t19.5 -145.5v-588h-179v565q0 117 -42 180.5t-117 63.5q-66 0 -130.5 -42t-115.5 -99v-668h-178v565 q0 117 -42 180.5t-116 63.5q-72 0 -133.5 -34t-114.5 -93h2v-682h-180z" />
<glyph unicode="n" horiz-adv-x="1054" d="M131 0v940h66l88 -80q47 35 125.5 66.5t183.5 31.5q80 0 144.5 -28.5t108.5 -78.5t68.5 -117.5t24.5 -145.5v-588h-180v565q0 117 -52.5 180.5t-142.5 63.5q-72 0 -137.5 -33t-118.5 -92h2v-684h-180z" />
<glyph unicode="o" horiz-adv-x="1081" d="M68 469q0 104 37.5 193.5t102 156t150.5 103t183 36.5q98 0 184 -37.5t150.5 -104t101.5 -156t37 -191.5q0 -100 -37 -189.5t-101.5 -156t-150.5 -105t-184 -38.5t-185.5 38.5t-151 104t-100 155t-36.5 191.5zM236 469q0 -68 23.5 -130.5t64.5 -108.5t96 -73.5t121 -27.5 q63 0 119.5 27.5t97.5 75t64.5 108.5t23.5 129t-23.5 130.5t-65.5 108.5t-97.5 73.5t-118.5 27.5t-118.5 -27.5t-97.5 -73.5t-65.5 -107.5t-23.5 -131.5z" />
<glyph unicode="p" horiz-adv-x="1085" d="M131 -412v1352h66l82 -78q55 41 131.5 68.5t152.5 27.5q98 0 181 -38.5t143.5 -104t95.5 -156t35 -190.5q0 -102 -35 -190.5t-96.5 -155t-144.5 -104t-179 -37.5q-74 0 -136 25.5t-116 70.5v-490h-180zM311 266q43 -55 104.5 -95t127.5 -40q63 0 119.5 27.5t98.5 74 t65.5 107.5t23.5 129t-23.5 129t-64.5 109.5t-97.5 76t-121.5 27.5q-68 0 -129.5 -37t-102.5 -90v-418z" />
<glyph unicode="q" horiz-adv-x="1085" d="M68 469q0 100 34.5 190.5t95 156t143.5 104t181 38.5q76 0 153 -26.5t130 -69.5l84 78h65v-1352h-180v492q-51 -41 -115.5 -69.5t-136.5 -28.5q-96 0 -179 37.5t-144.5 104t-96 155t-34.5 190.5zM236 469q0 -68 23.5 -129t65.5 -107.5t97.5 -74t118.5 -27.5q68 0 129 40 t104 95v418q-41 53 -102.5 90t-130.5 37q-66 0 -121 -27.5t-96 -76t-64.5 -109.5t-23.5 -129z" />
<glyph unicode="r" horiz-adv-x="686" d="M131 0v940h66l102 -100q25 39 57.5 62.5t68.5 36.5t69.5 17.5t62.5 4.5q18 0 46 -2.5t54 -6.5v-184q-20 4 -39.5 5t-44.5 1q-121 0 -191.5 -65.5t-70.5 -190.5v-518h-180z" />
<glyph unicode="s" horiz-adv-x="833" d="M117 700q0 115 85 185.5t218 70.5q92 0 164.5 -20.5t105.5 -42.5v-164q-39 31 -108.5 53.5t-132.5 22.5q-70 0 -115 -26.5t-45 -69.5q0 -47 32.5 -72t73.5 -41l172 -76q33 -14 67 -36.5t61.5 -55.5t46 -75t18.5 -97q0 -127 -95.5 -201.5t-254.5 -74.5q-86 0 -167 22.5 t-122 48.5v172q16 -12 50 -27.5t74 -28.5t81 -22.5t73 -9.5q82 0 134.5 31t52.5 86q0 47 -36 76.5t-77 48.5l-145 63q-31 12 -67 34t-68.5 53.5t-54 74.5t-21.5 98z" />
<glyph unicode="t" horiz-adv-x="653" d="M39 791v149h127v207l178 100v-307h240v-149h-240v-478q0 -92 41 -134t119 -42q29 0 47 2t35 6v-145q-35 -6 -111 -6q-66 0 -123 19.5t-98 57.5t-64.5 95t-23.5 135v490h-127z" />
<glyph unicode="u" horiz-adv-x="1054" d="M115 352v588h176v-565q0 -117 54 -180.5t142 -63.5q72 0 138.5 33t119.5 92h-2v684h179v-940h-64l-92 80q-43 -35 -122 -67.5t-183 -32.5q-80 0 -144.5 28.5t-109.5 78.5t-68.5 118.5t-23.5 146.5z" />
<glyph unicode="v" horiz-adv-x="894" d="M10 940h183l253 -608l166 393q23 53 45.5 107.5t44.5 107.5h183l-406 -940h-65z" />
<glyph unicode="w" horiz-adv-x="1482" d="M47 940h182l228 -618l252 583h65l254 -583l223 618h185l-359 -940h-67l-269 580l-268 -580h-67z" />
<glyph unicode="x" horiz-adv-x="909" d="M29 0l323 481q-72 109 -151.5 229.5t-151.5 229.5h205l201 -315q20 29 37.5 58.5t35.5 57.5q31 49 62 99.5t63 99.5h207l-305 -459q37 -55 79 -116.5t84 -124t83 -124t78 -116.5h-207l-217 338l-219 -338h-207z" />
<glyph unicode="y" horiz-adv-x="948" d="M10 940h187l282 -670l279 670h178l-561 -1333h-176l190 459q-92 213 -189.5 437t-189.5 437z" />
<glyph unicode="z" horiz-adv-x="856" d="M47 0v55l506 736h-469v149h725v-53l-506 -737h500v-150h-756z" />
<glyph unicode="{" horiz-adv-x="559" d="M-4 420v147q72 0 119 58.5t47 150.5v363q0 106 65 180q68 78 158 78h139v-148h-90q-92 0 -92 -151v-332q0 -61 -17.5 -108.5t-41 -79t-48 -51t-38.5 -27.5l-19 -6q2 0 27.5 -14.5t56.5 -46.5t55.5 -84t24.5 -130v-325q0 -156 92 -156h90v-148h-139q-90 0 -158 78 q-66 74 -65 180v363q0 92 -47 150.5t-119 58.5z" />
<glyph unicode="|" horiz-adv-x="507" d="M170 -430v1925h166v-1925h-166z" />
<glyph unicode="}" horiz-adv-x="559" d="M35 -262h90q90 0 90 156v325q0 63 17.5 110.5t41 79t49 51t42.5 27.5l14 7q-2 0 -27.5 13t-56.5 44t-55.5 83t-24.5 132v332q0 152 -90 151h-90v148h139q88 0 156 -78q68 -80 67 -180v-363q0 -92 47.5 -150.5t118.5 -58.5v-147q-72 0 -119 -58.5t-47 -150.5v-363 q0 -100 -67 -180q-68 -78 -156 -78h-139v148z" />
<glyph unicode="~" horiz-adv-x="1157" d="M113 416v155q133 119 258 119q76 0 223 -69q145 -70 207 -70q96 0 243 129v-158q-137 -119 -251 -119q-76 0 -224 70q-145 70 -209 70q-39 0 -84 -18.5t-75 -41.5q-20 -16 -45 -33.5t-43 -33.5z" />
<glyph unicode="&#xa1;" horiz-adv-x="548" d="M170 772v207h207v-207h-207zM178 365l21 237h153l21 -237v-861h-195v861z" />
<glyph unicode="&#xa2;" d="M145 492q0 193 107 329q113 139 283 170h-5v183h127v-177q86 -8 145.5 -28.5t69.5 -30.5v-180q-45 35 -97 56.5t-118 25.5v-703q59 6 112.5 26.5t82.5 37.5l33 22v-170q-76 -61 -228 -69v-203h-127v207h5q-172 31 -283 168q-106 139 -107 336zM313 492 q0 -121 60.5 -215.5t156.5 -126.5v675q-47 -16 -87 -48t-68.5 -76t-45 -98t-16.5 -111z" />
<glyph unicode="&#xa3;" d="M113 0v174l75 2q10 4 25.5 18.5t38.5 53.5q31 45 31 102v275h-170v163h170v261q0 176 112 272q113 96 281 96q72 0 140.5 -14t98.5 -31l37 -14v-170q-133 63 -272 63q-94 0 -156.5 -46t-62.5 -144v-273h278v-163h-278v-256q0 -61 -21.5 -110.5t-40.5 -65.5 q-4 -4 -10 -9.5t-10 -9.5h618v-174h-884z" />
<glyph unicode="&#xa4;" d="M94 164l115 121h-2q-61 94 -62 217q0 115 62 219h2l-113 117l119 125l115 -119q51 31 99 47t101 16q115 0 207 -63l115 119l121 -127l-113 -119h2q57 -94 58 -215q0 -119 -58 -215h-2l117 -123l-121 -125l-117 123q-96 -63 -211 -64q-111 0 -200 60l-115 -119zM291 502 q0 -109 67 -178q74 -74 172 -74q100 0 175 74q69 69 69 178q0 111 -69 178q-74 74 -175 74q-98 0 -172 -74q-68 -68 -67 -178z" />
<glyph unicode="&#xa5;" d="M47 1397h189l299 -674l299 674h190l-328 -690h228v-160h-301v-127h301v-160h-301v-260h-179v260h-301v160h301v127h-301v160h228z" />
<glyph unicode="&#xa6;" horiz-adv-x="507" d="M170 322h166v-732h-166v732zM170 666v731h166v-731h-166z" />
<glyph unicode="&#xa7;" d="M113 543q0 76 43 147q20 35 43.5 60.5t48.5 44.5l41 34q-2 0 -25.5 14.5t-51.5 45.5t-51.5 80t-23.5 123q0 135 125 231q59 45 136 69.5t169 24.5q70 0 125.5 -8t96 -18.5t66.5 -20.5t36 -14v-166q-147 61 -316 61q-121 0 -189.5 -44t-68.5 -130q0 -41 25 -73.5t67 -58 t95 -48.5t110 -43l113 -43q94 -37 161.5 -110.5t67.5 -178.5q0 -51 -18 -95t-45 -80t-53.5 -61.5t-42.5 -39.5l-21 -13q6 -2 30.5 -17t52.5 -46t49.5 -79t21.5 -118q0 -135 -125 -231q-59 -45 -137 -69.5t-168 -24.5q-70 0 -125.5 7t-96 17.5t-66.5 20.5t-36 14v168 q147 -61 316 -61q121 0 190.5 44t69.5 130q0 43 -27 75.5t-72 59.5t-101 48.5t-114 43.5l-98 37q-96 39 -161.5 112.5t-65.5 178.5zM283 575q8 -57 40.5 -99t90.5 -77l86 -43q25 -10 54.5 -22t53.5 -23l58 -22q25 20 45 45.5t36.5 52.5t25.5 51.5t9 42.5q0 39 -13 69t-48 58 q-16 14 -29.5 25.5t-30 23t-38 22.5t-52.5 23q-31 14 -53 23.5t-39 15.5q-2 0 -4 2t-4 2l-96 35q-39 -35 -65.5 -92t-26.5 -113zM373 782l2 -2l2 2h-4z" />
<glyph unicode="&#xa8;" horiz-adv-x="495" d="M-4 1180v176h176v-176h-176zM326 1180v176h174v-176h-174z" />
<glyph unicode="&#xa9;" horiz-adv-x="1560" d="M92 698q0 291 203 506q203 213 485 213q281 0 484 -213q203 -215 202 -506q0 -293 -202 -508q-203 -211 -484 -210q-283 0 -485 210q-203 215 -203 508zM238 698q0 -238 157 -405q160 -168 385 -168q223 0 383 168q160 170 160 405q0 236 -160 406t-383 170 q-225 0 -385 -170q-158 -168 -157 -406zM428 696q0 170 111 293q106 119 274 119q55 0 101.5 -10.5t62.5 -20.5l18 -12v-147q-74 57 -182 57q-51 0 -95 -21.5t-76 -58.5t-50.5 -88t-18.5 -111q0 -59 17.5 -110t48.5 -89t75 -59.5t97 -21.5q49 0 97 13t71 26l27 18v-141 q-27 -23 -77 -36t-128 -13q-164 0 -269 118q-104 119 -104 295z" />
<glyph unicode="&#xaa;" horiz-adv-x="698" d="M53 1096q0 129 78 219q80 90 199 90q47 0 87 -16.5t56 -32.5l12 -10l4 49h136v-598h-133l-5 55q-8 -8 -23 -18.5t-44 -26.5q-41 -23 -90 -23q-119 0 -199 90q-78 90 -78 222zM104 526v136h521v-136h-521zM188 1096q0 -74 46.5 -130.5t113.5 -56.5q35 0 68 16.5t49 32.5 l18 19h-2v237q-57 68 -131 68q-72 0 -117 -55.5t-45 -130.5z" />
<glyph unicode="&#xab;" horiz-adv-x="974" d="M74 481l272 439h180l-272 -439l272 -438h-180zM449 481l270 439h182l-274 -439q66 -109 137.5 -219t136.5 -219h-182z" />
<glyph unicode="&#xac;" d="M113 690v160h843v-477h-159v317h-684z" />
<glyph unicode="&#xad;" horiz-adv-x="704" d="M113 473v160h479v-160h-479z" />
<glyph unicode="&#xae;" horiz-adv-x="1560" d="M92 698q0 291 203 506q203 213 485 213q281 0 484 -213q203 -215 202 -506q0 -293 -202 -508q-203 -211 -484 -210q-283 0 -485 210q-203 215 -203 508zM238 698q0 -240 157 -407q160 -168 385 -168q223 0 383 170q160 169 160 405t-162 404q-160 172 -381 172 q-223 0 -383 -170t-159 -406zM530 291v807h234q143 0 221 -63.5t78 -182.5q0 -170 -168 -227h2l182 -334h-166l-159 315h-86v-315h-138zM666 723h120q57 0 98.5 35t41.5 90q0 127 -154 127h-106v-252z" />
<glyph unicode="&#xaf;" horiz-adv-x="417" d="M-4 1194v143h426v-143h-426z" />
<glyph unicode="&#xb0;" horiz-adv-x="661" d="M53 1188q0 115 82 203q80 84 195 84q117 0 196 -84q80 -86 80 -203t-80 -203q-79 -82 -196 -82t-197 82q-80 86 -80 203zM186 1188q0 -33 9.5 -61.5t29.5 -51.5q23 -23 50.5 -34t56.5 -11q59 0 102 45q43 47 43 113q0 63 -43 110t-102 48q-59 0 -107 -48 q-39 -41 -39 -110z" />
<glyph unicode="&#xb1;" d="M113 111v161h843v-161h-843zM113 690v160h342v319h159v-319h342v-160h-342v-317h-159v317h-342z" />
<glyph unicode="&#xb2;" horiz-adv-x="679" d="M74 930l162 227q37 51 62.5 88t39.5 60q31 43 59 108q29 68 29 115t-29.5 77.5t-77.5 30.5q-35 0 -85 -20.5t-80 -40.5l-35 -25v162q98 68 209 68q113 0 184.5 -69t71.5 -181q0 -94 -56 -193q-25 -45 -76 -118.5t-108 -145.5h262v-143h-532z" />
<glyph unicode="&#xb3;" horiz-adv-x="612" d="M53 979v166q119 -84 209 -84q51 0 86 30.5t35 82.5q0 53 -42 84.5t-124 31.5v140q76 0 113 30.5t37 79.5q0 39 -26 65.5t-65 26.5q-37 0 -86 -15t-79 -30l-33 -18v149q96 57 207 58q104 0 169.5 -63.5t65.5 -162.5q0 -41 -21.5 -87t-45.5 -70l-21 -23q106 -78 107 -196 q0 -55 -20.5 -101.5t-57.5 -80.5t-87 -53t-110 -19q-53 0 -105.5 15t-76.5 30z" />
<glyph unicode="&#xb4;" horiz-adv-x="407" d="M-4 1219l336 211l80 -156l-373 -158z" />
<glyph unicode="&#x2ca;" horiz-adv-x="407" d="M-4 1219l336 211l80 -156l-373 -158z" />
<glyph unicode="&#xb5;" horiz-adv-x="1136" d="M141 -410v1389h183v-582q0 -129 60 -193.5t165 -64.5q51 0 94 15.5t75 38t52.5 46t30.5 40.5l10 14v686h184v-979h-172l-10 98q-14 -14 -36.5 -32.5t-88.5 -49.5q-70 -35 -137 -34q-78 0 -136.5 24.5t-80.5 50.5l-10 15v-482h-183z" />
<glyph unicode="&#xb6;" horiz-adv-x="1087" d="M53 1042q0 166 104.5 260.5t280.5 94.5h576v-168h-105v-1581h-170v1581h-123v-1581h-172v1048q-176 0 -282 99q-109 102 -109 247z" />
<glyph unicode="&#xb7;" horiz-adv-x="471" d="M131 446v207h207v-207h-207z" />
<glyph unicode="&#xb8;" horiz-adv-x="317" d="M-4 -236q20 -10 43.5 -13t48.5 -3q29 0 50.5 16.5t21.5 42.5q0 29 -25.5 43.5t-52.5 18.5q-6 0 -15.5 1t-15.5 1l37 131h127l-16 -70q4 0 23.5 -5t42 -19t40 -40t17.5 -67t-17.5 -71.5t-46.5 -52t-66.5 -33t-78.5 -11.5q-35 0 -62.5 4.5t-40.5 8.5q-4 0 -7 2t-7 2v114z " />
<glyph unicode="&#xb9;" horiz-adv-x="454" d="M35 1509v154l176 98h131v-831h-149v665z" />
<glyph unicode="&#xba;" horiz-adv-x="692" d="M53 1098q0 125 84 219q82 88 207 88q123 0 209 -90q86 -92 86 -217q0 -129 -86 -221q-82 -88 -209 -89q-125 0 -207 89q-84 94 -84 221zM111 526v136h475v-136h-475zM190 1098q0 -74 43 -128.5t111 -54.5q70 0 114 54.5t44 128.5q0 76 -44 128t-114 52q-68 0 -111 -52 t-43 -128z" />
<glyph unicode="&#xbb;" horiz-adv-x="974" d="M74 43l274 438q-66 109 -137.5 219.5t-136.5 219.5h182l270 -439l-270 -438h-182zM449 43l272 438l-272 439h180l272 -439l-272 -438h-180z" />
<glyph unicode="&#xbc;" horiz-adv-x="1458" d="M92 1143v153l178 99h131v-832h-151v666zM242 -20l751 1435h156l-754 -1435h-153zM776 197l297 634h166l-231 -497h129v135h147v-135h82v-137h-82v-197h-147v197h-361z" />
<glyph unicode="&#xbd;" horiz-adv-x="1497" d="M92 1143v153l178 99h131v-832h-151v666zM242 -20l751 1435h156l-754 -1435h-153zM870 0l117 160l25 37l20 28l51 70l43 63l41 66q20 41 40 90t16 84q0 47 -30 78t-77 31q-35 0 -84 -20.5t-80 -41.5l-37 -24v161q100 68 209 68q111 0 179.5 -68.5t68.5 -181.5 q0 -94 -53 -197q-25 -47 -73 -117.5t-103 -142.5h262v-143h-535z" />
<glyph unicode="&#xbe;" horiz-adv-x="1593" d="M92 612v166q119 -84 209 -84q51 0 86 31t35 82q0 53 -42 85t-124 32v139q76 0 113 30.5t37 80.5q0 39 -26 65.5t-65 26.5q-41 0 -89 -14.5t-76 -30.5l-33 -19v150q96 57 207 57q104 0 169.5 -63.5t65.5 -161.5q0 -41 -22.5 -87t-44.5 -69h2l-21 -24h-2q106 -76 107 -197 q0 -55 -20.5 -101.5t-57.5 -80t-87.5 -53t-109.5 -19.5q-53 0 -105.5 14.5t-76.5 30.5zM373 -20l753 1435h154l-752 -1435h-155zM909 197l299 634h166l-231 -497h127v135h149v-135h82v-137h-82v-197h-149v197h-361z" />
<glyph unicode="&#xbf;" horiz-adv-x="774" d="M53 -158q0 68 18.5 124.5t46 104.5t62.5 90t68 79q39 43 70.5 86t43.5 86q4 27 7.5 73.5t3.5 81.5l2 35h178q0 -31 1 -55.5t1 -42.5q0 -20 1 -33.5t1 -21.5q0 -98 -52 -174t-114 -144q-55 -63 -100 -125.5t-45 -144.5q0 -201 205 -201q55 0 121.5 18.5t103.5 38.5l45 21 v-176q-141 -74 -281 -74q-186 0 -286.5 97.5t-100.5 256.5zM362 772v207h205v-207h-205z" />
<glyph unicode="&#xc0;" horiz-adv-x="1196" d="M25 0l542 1397h64l540 -1397h-194l-100 283h-555l-105 -283h-192zM379 444h440q-53 147 -109.5 296t-109.5 296zM389 1671l80 156l336 -213l-41 -101z" />
<glyph unicode="&#xc1;" horiz-adv-x="1196" d="M25 0l542 1397h64l540 -1397h-194l-107 299h-540l-113 -299h-192zM387 461h424q-53 145 -105.5 288.5t-105.5 288.5zM391 1616l336 211l80 -156l-373 -158z" />
<glyph unicode="&#xc2;" horiz-adv-x="1196" d="M25 0l542 1397h64l540 -1397h-194l-100 283h-555l-105 -283h-192zM330 1616l268 208l268 -208l-45 -97l-223 119l-223 -119zM379 444h440q-53 147 -109.5 296t-109.5 296z" />
<glyph unicode="&#xc3;" horiz-adv-x="1196" d="M25 0l542 1397h64l540 -1397h-194l-107 299h-540l-113 -299h-192zM342 1602q0 31 11.5 60.5t30.5 52t46 36.5t59 14q57 0 111 -32q53 -33 84 -33q23 0 42 14.5t30 30.5l18 22l82 -43q0 -61 -40.5 -111t-106.5 -50q-53 0 -109 32q-59 33 -86 33q-23 0 -42 -14.5t-30 -30.5 l-18 -22zM387 461h424q-53 145 -105.5 288.5t-105.5 288.5z" />
<glyph unicode="&#xc4;" horiz-adv-x="1196" d="M25 0l542 1397h64l540 -1397h-194l-107 299h-540l-113 -299h-192zM346 1577v176h176v-176h-176zM387 461h424q-53 145 -105.5 288.5t-105.5 288.5zM676 1577v176h174v-176h-174z" />
<glyph unicode="&#xc5;" horiz-adv-x="1196" d="M25 0l542 1397h64l540 -1397h-194l-100 283h-555l-105 -283h-192zM379 444h440q-53 147 -109.5 296t-109.5 296zM383 1681q0 90 63 154q63 63 152 63q86 0 154 -63q63 -63 63 -154q0 -90 -63 -156q-66 -61 -154 -61q-91 0 -152 61q-63 66 -63 156zM502 1681q0 -49 26 -76 q14 -16 33 -23t37 -7q41 0 72 30q27 31 26 76q0 45 -26 76q-31 31 -72 31q-18 0 -37 -7.5t-33 -23.5q-14 -14 -20 -33.5t-6 -42.5z" />
<glyph unicode="&#xc6;" horiz-adv-x="1853" d="M6 0l950 1397h828v-164h-635v-442h547v-166h-547v-461h651v-164h-827v297h-561l-197 -297h-209zM520 457h453v155.5t1 185t1 185.5v156q-115 -170 -227.5 -341t-227.5 -341z" />
<glyph unicode="&#xc7;" horiz-adv-x="1155" d="M84 700q0 145 51 274.5t148 233.5q96 98 217 153.5t258 55.5q82 0 158.5 -14t113.5 -27l37 -14v-188q-139 80 -303 79q-205 0 -354 -161q-147 -160 -148 -390q0 -248 148 -401q147 -156 348 -156q86 0 167 26t124 52l45 31v-195q-68 -37 -141.5 -56t-159.5 -21 q-2 -12 -5.5 -24.5t-5.5 -25.5q4 0 23.5 -5t42 -19t40 -40t17.5 -67t-17.5 -71.5t-46 -52t-66.5 -33t-79 -11.5q-35 0 -62.5 4.5t-39.5 8.5q-4 0 -7 2t-7 2v114q20 -10 43.5 -13t48.5 -3q29 0 50 16.5t21 42.5q0 29 -25.5 43.5t-51.5 18.5q-6 0 -15.5 1t-15.5 1l31 115 q-252 31 -418 231q-164 197 -164 483z" />
<glyph unicode="&#xc8;" horiz-adv-x="1081" d="M162 0v1397h835v-164h-657v-442h625v-166h-625v-461h674v-164h-852zM385 1671l80 156l336 -213l-41 -101z" />
<glyph unicode="&#xc9;" horiz-adv-x="1081" d="M162 0v1397h850v-164h-672v-442h567v-166h-567v-461h688v-164h-866zM391 1616l336 211l80 -156l-373 -158z" />
<glyph unicode="&#xca;" horiz-adv-x="1081" d="M162 0v1397h835v-164h-657v-442h625v-166h-625v-461h674v-164h-852zM330 1616l268 208l268 -208l-45 -97l-223 119l-223 -119z" />
<glyph unicode="&#xcb;" horiz-adv-x="1081" d="M162 0v1397h850v-164h-672v-442h567v-166h-567v-461h688v-164h-866zM342 1577v176h176v-176h-176zM672 1577v176h174v-176h-174z" />
<glyph unicode="&#xcc;" horiz-adv-x="503" d="M45 1671l80 156l336 -213l-41 -101zM162 0v1397h180v-1397h-180z" />
<glyph unicode="&#xcd;" horiz-adv-x="503" d="M47 1616l336 211l80 -156l-373 -158zM162 0v1397h180v-1397h-180z" />
<glyph unicode="&#xce;" horiz-adv-x="503" d="M-14 1616l268 209l270 -209l-45 -96l-225 116q-53 -29 -111.5 -58.5t-111.5 -57.5zM162 0v1397h180v-1397h-180z" />
<glyph unicode="&#xcf;" horiz-adv-x="503" d="M2 1577v176h176v-176h-176zM162 0v1397h180v-1397h-180zM330 1577v176h176v-176h-176z" />
<glyph unicode="&#xd0;" horiz-adv-x="1308" d="M63 625v166h119v606h340q330 0 514 -193q190 -197 191 -506q0 -307 -191 -503q-184 -195 -514 -195h-340v625h-119zM365 166h163q242 0 383 147q63 72 98 170.5t35 214.5q0 121 -34.5 219.5t-100 168t-162 107.5t-219.5 38h-163v-440h256v-166h-256v-459z" />
<glyph unicode="&#xd1;" horiz-adv-x="1380" d="M162 0v1397h61l819 -985v985h179v-1397h-64l-819 985v-985h-176zM434 1622q0 61 41 112.5t107 51.5q55 0 108 -33t86 -33q23 0 43.5 16.5t32.5 32.5l12 19l84 -43q0 -61 -41.5 -111.5t-107.5 -50.5q-55 0 -109 33q-53 33 -86 33q-23 0 -43 -16.5t-33 -33.5l-10 -18z" />
<glyph unicode="&#xd2;" horiz-adv-x="1558" d="M84 700q0 291 205 508q198 211 489 211q293 0 492 -211q205 -211 205 -508t-205 -510q-201 -209 -492 -208q-291 0 -489 211q-205 213 -205 507zM258 702q0 -231 152 -393q157 -164 368 -164q215 0 369 164q152 158 151 393q0 236 -151 394q-154 164 -369 164 q-211 0 -368 -164q-152 -162 -152 -394zM569 1692l80 155l338 -211l-43 -102z" />
<glyph unicode="&#xd3;" horiz-adv-x="1558" d="M84 700q0 291 205 508q198 211 489 211q293 0 492 -211q205 -211 205 -508t-205 -510q-201 -209 -492 -208q-291 0 -489 211q-205 213 -205 507zM258 702q0 -231 152 -393q157 -164 368 -164q215 0 369 164q152 158 151 393q0 236 -151 394q-154 164 -369 164 q-211 0 -368 -164q-152 -162 -152 -394zM569 1636l338 211l80 -155l-375 -158z" />
<glyph unicode="&#xd4;" horiz-adv-x="1558" d="M84 700q0 147 55.5 278.5t149.5 229t221 154.5t268 57q143 0 269.5 -56t221.5 -154.5t150.5 -229.5t55.5 -279q0 -147 -54.5 -278t-148.5 -228.5t-221 -154.5t-273 -57q-141 0 -268 57t-221 154.5t-149.5 228.5t-55.5 278zM258 702q0 -115 41 -216t111.5 -177t166 -120 t201.5 -44t201.5 44t166.5 120t111.5 177.5t40.5 215.5q0 113 -40.5 214.5t-111.5 178t-166 121t-202 44.5q-106 0 -201.5 -44.5t-166 -120t-111.5 -177t-41 -216.5zM510 1637l268 208l268 -208l-45 -97l-223 119l-223 -119z" />
<glyph unicode="&#xd5;" horiz-adv-x="1558" d="M84 700q0 291 205 508q198 211 489 211q293 0 492 -211q205 -211 205 -508t-205 -510q-201 -209 -492 -208q-291 0 -489 211q-205 213 -205 507zM258 702q0 -231 152 -393q157 -164 368 -164q215 0 369 164q152 158 151 393q0 236 -151 394q-154 164 -369 164 q-211 0 -368 -164q-152 -162 -152 -394zM520 1622q0 31 11.5 60.5t31 52t47 37t60.5 14.5q55 0 108 -33t86 -33q23 0 43.5 16.5t30.5 32.5l12 19l84 -43q0 -61 -40.5 -111.5t-106.5 -50.5q-55 0 -109 33q-53 33 -86 33q-23 0 -41 -13.5t-28 -29.5l-21 -25z" />
<glyph unicode="&#xd6;" horiz-adv-x="1558" d="M84 700q0 291 205 508q198 211 489 211q293 0 492 -211q205 -211 205 -508t-205 -510q-201 -209 -492 -208q-291 0 -489 211q-205 213 -205 507zM258 702q0 -231 152 -393q157 -164 368 -164q215 0 369 164q152 158 151 393q0 236 -151 394q-154 164 -369 164 q-211 0 -368 -164q-152 -162 -152 -394zM526 1597v177h176v-177h-176zM856 1597v177h176v-177h-176z" />
<glyph unicode="&#xd7;" horiz-adv-x="958" d="M94 379l273 285l-273 286l113 115l272 -285l275 291l110 -117l-276 -290l272 -287l-108 -117l-273 287l-272 -285z" />
<glyph unicode="&#xd8;" horiz-adv-x="1558" d="M84 700q0 291 205 508q199 211 489 211q203 0 373 -114q29 35 55.5 73.5t55.5 73.5l98 -82l-109 -141h-2q225 -213 226 -529q0 -297 -205 -510q-201 -209 -492 -208q-207 0 -375 112q-29 -35 -55 -73.5t-55 -73.5l-96 82l108 143h2q-223 211 -223 528zM258 702 q0 -117 39 -214t111 -175l643 856h2q-127 84 -275 84q-213 0 -368 -161q-152 -159 -152 -390zM506 233q121 -82 272 -81q215 0 369 159q151 158 151 391q0 227 -149 388q-160 -217 -320.5 -428t-320.5 -429h-2z" />
<glyph unicode="&#xd9;" horiz-adv-x="1314" d="M141 500v897h178v-893q0 -82 27 -148.5t73 -113.5t107.5 -73t130.5 -26q72 0 133.5 27t107.5 75t71.5 113.5t25.5 145.5v893h179v-897q0 -113 -41 -208t-112 -164t-165 -107.5t-199 -38.5q-104 0 -198 37.5t-165 106.5t-112 164t-41 210zM451 1671l80 156l336 -213 l-41 -101z" />
<glyph unicode="&#xda;" horiz-adv-x="1314" d="M141 500v897h178v-893q0 -162 97 -262q104 -98 241 -99q141 0 240 99q98 98 98 262v893h179v-897q0 -225 -154 -373q-152 -145 -363 -145q-209 0 -364 145q-152 145 -152 373zM451 1616l337 211l80 -156l-374 -158z" />
<glyph unicode="&#xdb;" horiz-adv-x="1314" d="M141 500v897h178v-893q0 -82 27 -148.5t73 -113.5t107.5 -73t130.5 -26q72 0 133.5 27t107.5 75t71.5 113.5t25.5 145.5v893h179v-897q0 -113 -41 -208t-112 -164t-165 -107.5t-199 -38.5q-104 0 -198 37.5t-165 106.5t-112 164t-41 210zM391 1616l268 208l268 -208 l-45 -97l-223 119l-223 -119z" />
<glyph unicode="&#xdc;" horiz-adv-x="1314" d="M141 500v897h178v-893q0 -162 97 -262q104 -98 241 -99q141 0 240 99q98 98 98 262v893h179v-897q0 -225 -154 -373q-152 -145 -363 -145q-209 0 -364 145q-152 145 -152 373zM406 1577v176h176v-176h-176zM735 1577v176h176v-176h-176z" />
<glyph unicode="&#xdd;" horiz-adv-x="1122" d="M14 1397h191l358 -676l355 676h190l-459 -836v-561h-176v561q-111 205 -229.5 418t-229.5 418zM352 1616l336 211l80 -156l-373 -158z" />
<glyph unicode="&#xde;" horiz-adv-x="1114" d="M162 0v1397h178v-199h301q184 0 301 -125q119 -125 119 -299q0 -176 -119 -303q-117 -123 -301 -123h-303v-348h-176zM338 510h305q104 0 176 78q70 72 70 184q0 113 -70 184q-72 80 -176 80h-305v-526z" />
<glyph unicode="&#xdf;" horiz-adv-x="1021" d="M43 770v152h104v143q0 53 16.5 115.5t56.5 115t108.5 87t173.5 34.5q63 0 121.5 -24.5t105.5 -65.5q100 -92 100 -233q0 -76 -32.5 -132.5t-69.5 -87.5q-39 -29 -69.5 -63.5t-30.5 -75.5q0 -49 41 -84t94 -71q37 -27 78 -54.5t73.5 -62.5t54 -81t21.5 -112 q0 -119 -96 -204q-92 -86 -277 -86q-57 0 -107 9t-75 19l-22 8v156q88 -41 204 -41q74 0 140 37q57 37 57 102q0 55 -44 91t-99 71q-37 25 -75 51.5t-67.5 62.5t-49 81t-19.5 106q0 72 38 121t78 90q35 35 64 70t29 84q0 37 -13.5 68.5t-36 55t-52 37t-64.5 13.5 q-96 0 -139.5 -56.5t-43.5 -138.5v-1077h-172v770h-104z" />
<glyph unicode="&#xe0;" horiz-adv-x="1036" d="M154 272q0 76 33 133.5t86 97.5t123.5 60.5t146.5 20.5q59 0 117.5 -12.5t89.5 -24.5v69q0 98 -61.5 141.5t-161.5 43.5q-88 0 -163 -28t-114 -60v176q35 23 118 47.5t179 24.5q82 0 151.5 -20.5t121 -60.5t79 -101.5t27.5 -141.5v-637h-61l-95 72q-70 -47 -142.5 -69.5 t-164.5 -22.5q-66 0 -122 19t-98 57t-65.5 92.5t-23.5 123.5zM330 272q0 -78 54.5 -113.5t138.5 -35.5q55 0 117.5 25.5t109.5 68.5v176q-18 10 -59 26.5t-109 16.5q-51 0 -96 -10t-80 -30.5t-55.5 -51.5t-20.5 -72zM365 1274l80 156l336 -213l-41 -101z" />
<glyph unicode="&#xe1;" horiz-adv-x="966" d="M84 272q0 76 33 133.5t86 97.5t123.5 60.5t146.5 20.5q59 0 117.5 -12.5t89.5 -24.5v69q0 98 -61.5 141.5t-161.5 43.5q-88 0 -163 -28t-114 -60v176q35 23 118 47.5t179 24.5q82 0 151.5 -20.5t121 -60.5t79 -101.5t27.5 -141.5v-637h-61l-95 72q-70 -47 -142.5 -69.5 t-164.5 -22.5q-66 0 -122 19t-98 57t-65.5 92.5t-23.5 123.5zM260 272q0 -78 54.5 -113.5t138.5 -35.5q55 0 117.5 25.5t109.5 68.5v176q-18 10 -59 26.5t-109 16.5q-51 0 -96 -10t-80 -30.5t-55.5 -51.5t-20.5 -72zM295 1219l336 211l80 -156l-373 -158z" />
<glyph unicode="&#xe2;" horiz-adv-x="1036" d="M154 272q0 76 33 133.5t86 97.5t123.5 60.5t146.5 20.5q59 0 117.5 -12.5t89.5 -24.5v69q0 98 -61.5 141.5t-161.5 43.5q-88 0 -163 -28t-114 -60v176q35 23 118 47.5t179 24.5q82 0 151.5 -20.5t121 -60.5t79 -101.5t27.5 -141.5v-637h-61l-95 72q-70 -47 -142.5 -69.5 t-164.5 -22.5q-66 0 -122 19t-98 57t-65.5 92.5t-23.5 123.5zM303 1219l268 208l268 -208l-45 -97l-223 119l-223 -119zM330 272q0 -78 54.5 -113.5t138.5 -35.5q55 0 117.5 25.5t109.5 68.5v176q-18 10 -59 26.5t-109 16.5q-51 0 -96 -10t-80 -30.5t-55.5 -51.5t-20.5 -72z " />
<glyph unicode="&#xe3;" horiz-adv-x="966" d="M84 272q0 76 33 133.5t86 97.5t123.5 60.5t146.5 20.5q59 0 117.5 -12.5t89.5 -24.5v69q0 98 -61.5 141.5t-161.5 43.5q-88 0 -163 -28t-114 -60v176q35 23 118 47.5t179 24.5q82 0 151.5 -20.5t121 -60.5t79 -101.5t27.5 -141.5v-637h-61l-95 72q-70 -47 -142.5 -69.5 t-164.5 -22.5q-66 0 -122 19t-98 57t-65.5 92.5t-23.5 123.5zM248 1204q0 61 41 112.5t106 51.5q53 0 109 -33q59 -33 86 -32q23 0 44.5 16t31.5 33l12 18l84 -43q0 -61 -40.5 -111.5t-106.5 -50.5q-57 0 -111 33q-53 33 -84 33q-23 0 -44.5 -16.5t-31.5 -32.5l-12 -19z M260 272q0 -78 54.5 -113.5t138.5 -35.5q55 0 117.5 25.5t109.5 68.5v176q-18 10 -59 26.5t-109 16.5q-51 0 -96 -10t-80 -30.5t-55.5 -51.5t-20.5 -72z" />
<glyph unicode="&#xe4;" horiz-adv-x="966" d="M84 272q0 76 33 133.5t86 97.5t123.5 60.5t146.5 20.5q59 0 117.5 -12.5t89.5 -24.5v69q0 98 -61.5 141.5t-161.5 43.5q-88 0 -163 -28t-114 -60v176q35 23 118 47.5t179 24.5q82 0 151.5 -20.5t121 -60.5t79 -101.5t27.5 -141.5v-637h-61l-95 72q-70 -47 -142.5 -69.5 t-164.5 -22.5q-66 0 -122 19t-98 57t-65.5 92.5t-23.5 123.5zM250 1180v176h176v-176h-176zM260 272q0 -78 54.5 -113.5t138.5 -35.5q55 0 117.5 25.5t109.5 68.5v176q-18 10 -59 26.5t-109 16.5q-51 0 -96 -10t-80 -30.5t-55.5 -51.5t-20.5 -72zM580 1180v176h174v-176 h-174z" />
<glyph unicode="&#xe5;" horiz-adv-x="1036" d="M154 272q0 76 33 133.5t86 97.5t123.5 60.5t146.5 20.5q59 0 117.5 -12.5t89.5 -24.5v69q0 98 -61.5 141.5t-161.5 43.5q-88 0 -163 -28t-114 -60v176q35 23 118 47.5t179 24.5q82 0 151.5 -20.5t121 -60.5t79 -101.5t27.5 -141.5v-637h-61l-95 72q-70 -47 -142.5 -69.5 t-164.5 -22.5q-66 0 -122 19t-98 57t-65.5 92.5t-23.5 123.5zM330 272q0 -78 54.5 -113.5t138.5 -35.5q55 0 117.5 25.5t109.5 68.5v176q-18 10 -59 26.5t-109 16.5q-51 0 -96 -10t-80 -30.5t-55.5 -51.5t-20.5 -72zM356 1284q0 90 63 154q63 63 152 63q86 0 154 -63 q63 -63 63 -154q0 -90 -63 -156q-66 -61 -154 -61q-91 0 -152 61q-63 66 -63 156zM475 1284q0 -49 26 -76q14 -16 33 -23t37 -7q41 0 72 30q27 31 26 76q0 45 -26 76q-31 31 -72 31q-18 0 -37 -7.5t-33 -23.5q-14 -14 -20 -33.5t-6 -42.5z" />
<glyph unicode="&#xe6;" horiz-adv-x="1560" d="M84 272q0 76 33 133.5t86 97.5t123.5 60.5t146.5 20.5q59 0 117.5 -12.5t89.5 -24.5v69q0 98 -61.5 141.5t-161.5 43.5q-88 0 -163 -28t-114 -60v176q35 23 118 47.5t179 24.5q102 0 183 -31t131 -92q59 57 139 88.5t172 31.5q102 0 179 -39.5t128 -103t76.5 -143.5 t25.5 -160q0 -74 -10 -115h-645v-110q37 -68 104.5 -112t153.5 -44q70 0 158 24.5t160 65.5v-162q-59 -41 -143.5 -59t-182.5 -18q-102 0 -186 36.5t-146 100.5q-57 -47 -107.5 -75t-97.5 -42t-90 -18t-86 -4q-66 0 -122 19t-98 57t-65.5 92.5t-23.5 123.5zM260 272 q0 -78 54.5 -113.5t138.5 -35.5q55 0 117.5 25.5t109.5 68.5v176q-18 10 -59 26.5t-109 16.5q-51 0 -96 -10t-80 -30.5t-55.5 -51.5t-20.5 -72zM856 545h490q-2 49 -19.5 97t-48.5 86t-76 61.5t-102 23.5q-90 0 -149.5 -48t-94.5 -118v-10v-92z" />
<glyph unicode="&#xe7;" horiz-adv-x="925" d="M74 492q0 106 35.5 198t101 161t160 108.5t211.5 39.5q63 0 133.5 -14t130.5 -39v-182q-47 27 -115.5 52.5t-146.5 25.5q-63 0 -125 -24.5t-109 -70t-76.5 -110t-29.5 -145.5q0 -80 27.5 -144.5t74.5 -112t108.5 -73t129.5 -25.5q66 0 139.5 23.5t134.5 60.5v-178 q-106 -59 -264 -63q-2 -10 -5 -23.5t-5 -24.5q4 0 23.5 -5t42 -19t40 -40t17.5 -67t-17.5 -71.5t-46.5 -52t-66.5 -33t-78.5 -11.5q-35 0 -62.5 4.5t-40.5 8.5q-4 0 -7 2t-7 2v114q20 -10 44 -13t48 -3q29 0 50.5 16.5t21.5 42.5q0 29 -25.5 43.5t-52.5 18.5q-6 0 -15.5 1 t-15.5 1l33 117h4q-98 14 -173 60t-125 113.5t-75.5 151.5t-25.5 179z" />
<glyph unicode="&#xe8;" horiz-adv-x="985" d="M68 471q0 104 34.5 193.5t96 155t145.5 102t182 36.5q102 0 179 -39.5t128.5 -103t77 -143.5t25.5 -160q0 -74 -10 -115h-680q4 -53 28.5 -101t64.5 -85t91 -58.5t109 -21.5q70 0 157.5 24.5t159.5 65.5v-162q-59 -41 -143 -59t-183 -18q-102 0 -187 37.5t-146.5 103 t-95 156t-33.5 192.5zM246 545h524q-2 49 -19.5 97t-48 86t-76 61.5t-102.5 23.5q-61 0 -108 -22.5t-81 -60.5t-56.5 -86t-32.5 -99zM340 1274l80 156l336 -213l-41 -101z" />
<glyph unicode="&#xe9;" horiz-adv-x="985" d="M68 471q0 104 34.5 193.5t96 155t145.5 102t182 36.5q102 0 179 -39.5t128.5 -103t77 -143.5t25.5 -160q0 -74 -10 -115h-680q4 -53 28.5 -101t64.5 -85t91 -58.5t109 -21.5q70 0 157.5 24.5t159.5 65.5v-162q-59 -41 -143 -59t-183 -18q-102 0 -187 37.5t-146.5 103 t-95 156t-33.5 192.5zM246 545h524q-2 49 -19.5 97t-48 86t-76 61.5t-102.5 23.5q-61 0 -108 -22.5t-81 -60.5t-56.5 -86t-32.5 -99zM352 1219l336 211l80 -156l-373 -158z" />
<glyph unicode="&#xea;" horiz-adv-x="985" d="M68 471q0 104 34.5 193.5t96 155t145.5 102t182 36.5q102 0 179 -39.5t128.5 -103t77 -143.5t25.5 -160q0 -74 -10 -115h-680q4 -53 28.5 -101t64.5 -85t91 -58.5t109 -21.5q70 0 157.5 24.5t159.5 65.5v-162q-59 -41 -143 -59t-183 -18q-102 0 -187 37.5t-146.5 103 t-95 156t-33.5 192.5zM246 545h524q-2 49 -19.5 97t-48 86t-76 61.5t-102.5 23.5q-61 0 -108 -22.5t-81 -60.5t-56.5 -86t-32.5 -99zM275 1219l268 208l268 -208l-45 -97l-223 119l-223 -119z" />
<glyph unicode="&#xeb;" horiz-adv-x="985" d="M68 471q0 104 34.5 193.5t96 155t145.5 102t182 36.5q102 0 179 -39.5t128.5 -103t77 -143.5t25.5 -160q0 -74 -10 -115h-680q4 -53 28.5 -101t64.5 -85t91 -58.5t109 -21.5q70 0 157.5 24.5t159.5 65.5v-162q-59 -41 -143 -59t-183 -18q-102 0 -187 37.5t-146.5 103 t-95 156t-33.5 192.5zM246 545h524q-2 49 -19.5 97t-48 86t-76 61.5t-102.5 23.5q-61 0 -108 -22.5t-81 -60.5t-56.5 -86t-32.5 -99zM289 1180v176h176v-176h-176zM619 1180v176h174v-176h-174z" />
<glyph unicode="&#xec;" horiz-adv-x="497" d="M41 1274l80 156l336 -213l-41 -101zM156 0v979h186v-979h-186z" />
<glyph unicode="&#xed;" horiz-adv-x="497" d="M41 1219l336 211l80 -156l-373 -158zM156 0v979h186v-979h-186z" />
<glyph unicode="&#xee;" horiz-adv-x="497" d="M-20 1219l270 208l268 -208l-45 -97l-223 119l-225 -119zM156 0v979h186v-979h-186z" />
<glyph unicode="&#xef;" horiz-adv-x="497" d="M-2 1180v176h176v-176h-176zM156 0v979h186v-979h-186zM326 1180v176h176v-176h-176z" />
<glyph unicode="&#xf0;" horiz-adv-x="1087" d="M74 459q0 195 133 338q63 66 141 102.5t168 36.5q86 0 154.5 -27.5t97.5 -56.5l23 -23q-39 188 -152 314l-123 -115l-100 117l100 94q-117 63 -262 64l-6 167q219 0 393 -114l127 119l98 -117l-106 -103q117 -129 176 -309t59 -409q0 -264 -133 -412q-133 -145 -338 -145 q-92 0 -173 35.5t-144 101.5q-133 143 -133 342zM242 459q0 -135 84 -226q82 -92 198 -92q66 0 122 26t96 74t62.5 117.5t22.5 155.5q0 31 -3 65.5t-7 53.5l-4 18h2l-16 15q-10 12 -30.5 29.5t-82.5 45.5q-74 35 -154 35q-115 0 -204 -96q-86 -92 -86 -221z" />
<glyph unicode="&#xf1;" horiz-adv-x="1097" d="M131 0v940h66l88 -80q47 35 125.5 66.5t183.5 31.5q80 0 144.5 -28.5t108.5 -78.5t68.5 -117.5t24.5 -145.5v-588h-180v565q0 117 -52.5 180.5t-142.5 63.5q-72 0 -137.5 -33t-118.5 -92h2v-684h-180zM291 1204q0 61 41 112.5t106 51.5q53 0 109 -33q59 -33 86 -32 q23 0 44.5 16t31.5 33l12 18l84 -43q0 -61 -40.5 -111.5t-106.5 -50.5q-57 0 -111 33q-53 33 -84 33q-23 0 -44.5 -16.5t-31.5 -32.5l-12 -19z" />
<glyph unicode="&#xf2;" horiz-adv-x="1126" d="M68 469q0 104 37.5 193.5t102 156t150.5 103t183 36.5q98 0 184 -37.5t150.5 -104t101.5 -156t37 -191.5q0 -100 -37 -189.5t-101.5 -156t-150.5 -105t-184 -38.5t-185.5 38.5t-151 104t-100 155t-36.5 191.5zM236 469q0 -68 23.5 -130.5t64.5 -108.5t96 -73.5t121 -27.5 q63 0 119.5 27.5t97.5 75t64.5 108.5t23.5 129t-23.5 130.5t-65.5 108.5t-97.5 73.5t-118.5 27.5t-118.5 -27.5t-97.5 -73.5t-65.5 -107.5t-23.5 -131.5zM326 1274l80 156l336 -213l-41 -101z" />
<glyph unicode="&#xf3;" horiz-adv-x="1126" d="M68 469q0 104 37.5 193.5t102 156t150.5 103t183 36.5q98 0 184 -37.5t150.5 -104t101.5 -156t37 -191.5q0 -100 -37 -189.5t-101.5 -156t-150.5 -105t-184 -38.5t-185.5 38.5t-151 104t-100 155t-36.5 191.5zM236 469q0 -68 23.5 -130.5t64.5 -108.5t96 -73.5t121 -27.5 q63 0 119.5 27.5t97.5 75t64.5 108.5t23.5 129t-23.5 130.5t-65.5 108.5t-97.5 73.5t-118.5 27.5t-118.5 -27.5t-97.5 -73.5t-65.5 -107.5t-23.5 -131.5zM354 1219l336 211l80 -156l-373 -158z" />
<glyph unicode="&#xf4;" horiz-adv-x="1126" d="M68 469q0 104 37.5 193.5t102 156t150.5 103t183 36.5q98 0 184 -37.5t150.5 -104t101.5 -156t37 -191.5q0 -100 -37 -189.5t-101.5 -156t-150.5 -105t-184 -38.5t-185.5 38.5t-151 104t-100 155t-36.5 191.5zM236 469q0 -68 23.5 -130.5t64.5 -108.5t96 -73.5t121 -27.5 q63 0 119.5 27.5t97.5 75t64.5 108.5t23.5 129t-23.5 130.5t-65.5 108.5t-97.5 73.5t-118.5 27.5t-118.5 -27.5t-97.5 -73.5t-65.5 -107.5t-23.5 -131.5zM293 1219l268 208l268 -208l-45 -97l-223 119l-223 -119z" />
<glyph unicode="&#xf5;" horiz-adv-x="1126" d="M68 469q0 104 37.5 193.5t102 156t150.5 103t183 36.5q98 0 184 -37.5t150.5 -104t101.5 -156t37 -191.5q0 -100 -37 -189.5t-101.5 -156t-150.5 -105t-184 -38.5t-185.5 38.5t-151 104t-100 155t-36.5 191.5zM236 469q0 -68 23.5 -130.5t64.5 -108.5t96 -73.5t121 -27.5 q63 0 119.5 27.5t97.5 75t64.5 108.5t23.5 129t-23.5 130.5t-65.5 108.5t-97.5 73.5t-118.5 27.5t-118.5 -27.5t-97.5 -73.5t-65.5 -107.5t-23.5 -131.5zM305 1204q0 61 41 112.5t106 51.5q53 0 109 -33q59 -33 86 -32q23 0 44.5 16t31.5 33l12 18l84 -43 q0 -61 -40.5 -111.5t-106.5 -50.5q-57 0 -111 33q-53 33 -84 33q-23 0 -44.5 -16.5t-31.5 -32.5l-12 -19z" />
<glyph unicode="&#xf6;" horiz-adv-x="1126" d="M68 469q0 104 37.5 193.5t102 156t150.5 103t183 36.5q98 0 184 -37.5t150.5 -104t101.5 -156t37 -191.5q0 -100 -37 -189.5t-101.5 -156t-150.5 -105t-184 -38.5t-185.5 38.5t-151 104t-100 155t-36.5 191.5zM236 469q0 -68 23.5 -130.5t64.5 -108.5t96 -73.5t121 -27.5 q63 0 119.5 27.5t97.5 75t64.5 108.5t23.5 129t-23.5 130.5t-65.5 108.5t-97.5 73.5t-118.5 27.5t-118.5 -27.5t-97.5 -73.5t-65.5 -107.5t-23.5 -131.5zM311 1180v176h176v-176h-176zM641 1180v176h174v-176h-174z" />
<glyph unicode="&#xf7;" horiz-adv-x="1028" d="M113 586v162h843v-162h-843zM434 252v201h199v-201h-199zM434 881v202h199v-202h-199z" />
<glyph unicode="&#xf8;" horiz-adv-x="1081" d="M72 469q0 104 36.5 193.5t101 156t149.5 103t182 36.5q33 0 66.5 -5t64.5 -15q10 25 24.5 54.5t24.5 56.5h147l-69 -170h-2q96 -66 154.5 -173.5t58.5 -236.5q0 -100 -37 -189.5t-100.5 -156t-148.5 -105t-183 -38.5q-29 0 -58.5 4t-58.5 10q-12 -31 -28.5 -64.5 t-26.5 -64.5h-148l76 182h2q-104 66 -165.5 176.5t-61.5 245.5zM231 469q0 -86 35 -157.5t94 -116.5l254 602q-34 12 -73 12q-63 0 -119.5 -27.5t-98.5 -73.5t-67 -107.5t-25 -131.5zM477 135q33 -6 64 -6q66 0 122 27.5t98 75t65.5 108.5t23.5 129q0 78 -32 146.5 t-85 115.5l-252 -596h-4z" />
<glyph unicode="&#xf9;" horiz-adv-x="1060" d="M121 352v588h176v-565q0 -117 54 -180.5t142 -63.5q72 0 138.5 33t119.5 92h-2v684h179v-940h-64l-92 80q-43 -35 -122 -67.5t-183 -32.5q-80 0 -144.5 28.5t-109.5 78.5t-68.5 118.5t-23.5 146.5zM346 1274l80 156l336 -213l-41 -101z" />
<glyph unicode="&#xfa;" horiz-adv-x="1054" d="M115 352v588h176v-565q0 -117 54 -180.5t142 -63.5q72 0 138.5 33t119.5 92h-2v684h179v-940h-64l-92 80q-43 -35 -122 -67.5t-183 -32.5q-80 0 -144.5 28.5t-109.5 78.5t-68.5 118.5t-23.5 146.5zM340 1219l336 211l80 -156l-373 -158z" />
<glyph unicode="&#xfb;" horiz-adv-x="1054" d="M115 352v588h176v-565q0 -117 54 -180.5t142 -63.5q72 0 138.5 33t119.5 92h-2v684h179v-940h-64l-92 80q-43 -35 -122 -67.5t-183 -32.5q-80 0 -144.5 28.5t-109.5 78.5t-68.5 118.5t-23.5 146.5zM281 1219l268 208l268 -208l-45 -97l-223 119l-223 -119z" />
<glyph unicode="&#xfc;" horiz-adv-x="1054" d="M115 352v588h176v-565q0 -117 54 -180.5t142 -63.5q72 0 138.5 33t119.5 92h-2v684h179v-940h-64l-92 80q-43 -35 -122 -67.5t-183 -32.5q-80 0 -144.5 28.5t-109.5 78.5t-68.5 118.5t-23.5 146.5zM295 1180v176h176v-176h-176zM625 1180v176h174v-176h-174z" />
<glyph unicode="&#xfd;" horiz-adv-x="987" d="M10 940h187l282 -670l279 670h178l-561 -1333h-176l190 459q-92 213 -189.5 437t-189.5 437zM293 1219l336 211l80 -156l-373 -158z" />
<glyph unicode="&#xfe;" horiz-adv-x="1128" d="M141 -410v1885h183v-609q10 12 32.5 34t63.5 48q35 20 85 35.5t109 15.5q186 0 314 -147q127 -150 127 -363t-127 -362q-127 -147 -314 -147q-61 0 -110 14t-85 33.5t-59.5 40t-33.5 34.5l-2 4v-516h-183zM324 297q0 -2 25.5 -37t68.5 -67q29 -20 75 -38t93 -18 q129 0 213 103q84 98 84 249q0 150 -84 248q-80 104 -211 105q-41 0 -78 -11.5t-68.5 -29t-55.5 -39t-36 -41.5l-26 -39v-385z" />
<glyph unicode="&#xff;" horiz-adv-x="987" d="M10 940h187l282 -670l279 670h178l-561 -1333h-176l190 459q-92 213 -189.5 437t-189.5 437zM242 1180v176h176v-176h-176zM572 1180v176h174v-176h-174z" />
<glyph unicode="&#x100;" horiz-adv-x="1196" d="M25 0l542 1397h64l540 -1397h-194l-107 299h-540l-113 -299h-192zM387 461h424q-53 145 -105.5 288.5t-105.5 288.5zM387 1591v144h426v-144h-426z" />
<glyph unicode="&#x101;" horiz-adv-x="966" d="M84 272q0 76 33 133.5t86 97.5t123.5 60.5t146.5 20.5q59 0 117.5 -12.5t89.5 -24.5v69q0 98 -61.5 141.5t-161.5 43.5q-88 0 -163 -28t-114 -60v176q35 23 118 47.5t179 24.5q82 0 151.5 -20.5t121 -60.5t79 -101.5t27.5 -141.5v-637h-61l-95 72q-70 -47 -142.5 -69.5 t-164.5 -22.5q-66 0 -122 19t-98 57t-65.5 92.5t-23.5 123.5zM260 272q0 -78 54.5 -113.5t138.5 -35.5q55 0 117.5 25.5t109.5 68.5v176q-18 10 -59 26.5t-109 16.5q-51 0 -96 -10t-80 -30.5t-55.5 -51.5t-20.5 -72zM289 1194v143h426v-143h-426z" />
<glyph unicode="&#x102;" horiz-adv-x="1196" d="M25 0l542 1397h64l540 -1397h-194l-107 299h-540l-113 -299h-192zM336 1710l74 78q8 -16 27.5 -37.5t60.5 -54.5q49 -33 104 -33q51 0 97 30.5t69 59.5l25 35l73 -78l-4 -6q-4 -8 -11 -21.5t-24 -33.5q-10 -14 -22 -27.5t-29 -28.5q-29 -25 -75 -44t-99 -19t-95 18.5 t-75 44t-54.5 53t-31.5 48.5zM387 461h424q-53 145 -105.5 288.5t-105.5 288.5z" />
<glyph unicode="&#x103;" horiz-adv-x="966" d="M84 272q0 76 33 133.5t86 97.5t123.5 60.5t146.5 20.5q59 0 117.5 -12.5t89.5 -24.5v69q0 98 -61.5 141.5t-161.5 43.5q-88 0 -163 -28t-114 -60v176q35 23 118 47.5t179 24.5q82 0 151.5 -20.5t121 -60.5t79 -101.5t27.5 -141.5v-637h-61l-95 72q-70 -47 -142.5 -69.5 t-164.5 -22.5q-66 0 -122 19t-98 57t-65.5 92.5t-23.5 123.5zM240 1313l74 78q8 -16 27.5 -38t60.5 -55q49 -33 102 -32q25 0 50.5 8t48 21.5t40 29.5t29.5 31l23 35l75 -78l-4 -6q-4 -8 -11 -21.5t-24 -34.5q-8 -10 -23 -26.5t-28 -28.5q-29 -25 -76 -44t-100 -19 q-55 0 -99 19t-76 45t-52.5 53.5t-28.5 45.5zM260 272q0 -78 54.5 -113.5t138.5 -35.5q55 0 117.5 25.5t109.5 68.5v176q-18 10 -59 26.5t-109 16.5q-51 0 -96 -10t-80 -30.5t-55.5 -51.5t-20.5 -72z" />
<glyph unicode="&#x104;" horiz-adv-x="1196" d="M25 0l546 1397h56l544 -1397q-23 -8 -57.5 -27.5t-81.5 -56.5q-23 -20 -36 -43t-13 -45q0 -57 76 -57q12 0 30.5 5t34.5 9q4 0 5 1t6 1l18 8v-127q-47 -33 -125 -33q-92 0 -146.5 46.5t-54.5 115.5q0 27 10.5 54.5t28 51t38 43t38.5 31.5l37 23h-2l-107 299h-540 l-113 -299h-192zM387 461h424q-53 145 -105.5 288.5t-105.5 288.5z" />
<glyph unicode="&#x105;" horiz-adv-x="966" d="M84 272q0 76 33 133.5t86 97.5t123.5 60.5t146.5 20.5q59 0 117.5 -12.5t89.5 -24.5v69q0 98 -61.5 141.5t-161.5 43.5q-88 0 -163 -28t-114 -60v176q35 23 118 47.5t179 24.5q82 0 151.5 -20.5t121 -60.5t79 -101.5t27.5 -141.5v-637q-23 -8 -56.5 -27.5t-80.5 -56.5 q-23 -20 -37 -43t-14 -45q0 -57 75 -57q16 0 39 6t35 10l23 8v-127q-47 -33 -127 -33q-92 0 -146.5 46.5t-54.5 115.5q0 72 60.5 130.5t172.5 109.5l-45 35q-70 -47 -142.5 -69.5t-164.5 -22.5q-66 0 -122 19t-98 57t-65.5 92.5t-23.5 123.5zM260 272q0 -78 54.5 -113.5 t138.5 -35.5q55 0 117.5 25.5t109.5 68.5v176q-18 10 -59 26.5t-109 16.5q-51 0 -96 -10t-80 -30.5t-55.5 -51.5t-20.5 -72z" />
<glyph unicode="&#x106;" horiz-adv-x="1155" d="M72 700q0 156 55.5 287t149.5 226.5t218 149.5t263 54q88 0 178 -15.5t152 -39.5v-188q-139 80 -322 79q-102 0 -195.5 -39.5t-165 -112.5t-113.5 -174.5t-42 -224.5q0 -129 42 -232t112.5 -176t163 -111t192.5 -38q84 0 178 30t166 79v-195q-70 -41 -160 -60t-192 -19 q-141 0 -265 53t-216.5 148t-145.5 227.5t-53 291.5zM547 1616l336 211l80 -156l-373 -158z" />
<glyph unicode="&#x107;" horiz-adv-x="894" d="M68 471q0 102 34.5 191.5t98 155t154.5 103t204 37.5q61 0 130 -13t126 -36v-172q-45 27 -112.5 49.5t-141.5 22.5q-61 0 -118.5 -23.5t-103.5 -67.5t-73.5 -106.5t-27.5 -140.5q0 -76 26.5 -138.5t70.5 -107.5t102.5 -69.5t123.5 -24.5q61 0 133 20.5t133 57.5v-166 q-53 -35 -122.5 -49t-155.5 -14q-117 0 -207 38.5t-150.5 105t-92 156t-31.5 191.5zM326 1219l336 211l80 -156l-373 -158z" />
<glyph unicode="&#x108;" horiz-adv-x="1155" d="M72 700q0 156 55.5 287t149.5 226.5t218 149.5t263 54q88 0 178 -15.5t152 -39.5v-188q-139 80 -322 79q-102 0 -195.5 -39.5t-165 -112.5t-113.5 -174.5t-42 -224.5q0 -129 42 -232t112.5 -176t163 -111t192.5 -38q84 0 178 30t166 79v-195q-70 -41 -160 -60t-192 -19 q-141 0 -265 53t-216.5 148t-145.5 227.5t-53 291.5zM485 1616l268 208l268 -208l-45 -97l-223 119l-223 -119z" />
<glyph unicode="&#x109;" horiz-adv-x="897" d="M68 471q0 102 34.5 191.5t98 155t154.5 103t204 37.5q61 0 130 -13t126 -36v-172q-45 27 -112.5 49.5t-141.5 22.5q-61 0 -118.5 -23.5t-103.5 -67.5t-73.5 -106.5t-27.5 -140.5q0 -76 26.5 -138.5t70.5 -107.5t102.5 -69.5t123.5 -24.5q61 0 133 20.5t133 57.5v-166 q-53 -35 -122.5 -49t-155.5 -14q-117 0 -207 38.5t-150.5 105t-92 156t-31.5 191.5zM293 1219l268 208l268 -208l-45 -97l-223 119l-223 -119z" />
<glyph unicode="&#x10a;" horiz-adv-x="1155" d="M72 700q0 156 55.5 287t149.5 226.5t218 149.5t263 54q88 0 178 -15.5t152 -39.5v-188q-139 80 -322 79q-102 0 -195.5 -39.5t-165 -112.5t-113.5 -174.5t-42 -224.5q0 -129 42 -232t112.5 -176t163 -111t192.5 -38q84 0 178 30t166 79v-195q-70 -41 -160 -60t-192 -19 q-141 0 -265 53t-216.5 148t-145.5 227.5t-53 291.5zM629 1659q0 57 39 96t94 39t94 -39t39 -96q0 -23 -8 -45.5t-25 -38.5h-206q-27 33 -27 84z" />
<glyph unicode="&#x10b;" horiz-adv-x="894" d="M68 471q0 102 34.5 191.5t98 155t154.5 103t204 37.5q61 0 130 -13t126 -36v-172q-45 27 -112.5 49.5t-141.5 22.5q-61 0 -118.5 -23.5t-103.5 -67.5t-73.5 -106.5t-27.5 -140.5q0 -76 26.5 -138.5t70.5 -107.5t102.5 -69.5t123.5 -24.5q61 0 133 20.5t133 57.5v-166 q-53 -35 -122.5 -49t-155.5 -14q-117 0 -207 38.5t-150.5 105t-92 156t-31.5 191.5zM406 1262q0 57 39 96t94 39t94 -39t39 -96q0 -23 -8 -45.5t-25 -38.5h-206q-27 33 -27 84z" />
<glyph unicode="&#x10c;" horiz-adv-x="1155" d="M72 700q0 156 55.5 287t149.5 226.5t218 149.5t263 54q88 0 178 -15.5t152 -39.5v-188q-139 80 -322 79q-102 0 -195.5 -39.5t-165 -112.5t-113.5 -174.5t-42 -224.5q0 -129 42 -232t112.5 -176t163 -111t192.5 -38q84 0 178 30t166 79v-195q-70 -41 -160 -60t-192 -19 q-141 0 -265 53t-216.5 148t-145.5 227.5t-53 291.5zM494 1728l45 96l223 -118l223 118l45 -96l-268 -209z" />
<glyph unicode="&#x10d;" horiz-adv-x="897" d="M68 471q0 102 34.5 191.5t98 155t154.5 103t204 37.5q61 0 130 -13t126 -36v-172q-45 27 -112.5 49.5t-141.5 22.5q-61 0 -118.5 -23.5t-103.5 -67.5t-73.5 -106.5t-27.5 -140.5q0 -76 26.5 -138.5t70.5 -107.5t102.5 -69.5t123.5 -24.5q61 0 133 20.5t133 57.5v-166 q-53 -35 -122.5 -49t-155.5 -14q-117 0 -207 38.5t-150.5 105t-92 156t-31.5 191.5zM293 1331l45 96l223 -118l223 118l45 -96l-268 -209z" />
<glyph unicode="&#x10e;" horiz-adv-x="1290" d="M164 0v1397h338q330 0 516 -193q188 -195 188 -506q0 -309 -188 -503q-188 -195 -516 -195h-338zM293 1729l45 96l225 -117q53 29 111.5 58.5t111.5 58.5l45 -96l-268 -209zM344 166h166q242 0 381 147q135 143 135 385q0 121 -35 219.5t-101.5 168t-161.5 107.5t-218 38 h-166v-1065z" />
<glyph unicode="&#x10f;" horiz-adv-x="1304" d="M72 489q0 106 35.5 198.5t99 161.5t149.5 108.5t187 39.5q78 0 143.5 -27.5t122.5 -78.5v506h178v-1397h-61l-90 84q-55 -47 -135 -75.5t-158 -28.5q-102 0 -188.5 39.5t-149 109.5t-98 163t-35.5 197zM240 489q0 -70 24.5 -134t67.5 -113t102.5 -78t128.5 -29 q74 0 138.5 37t107.5 94v436q-45 59 -109.5 99.5t-136.5 40.5q-68 0 -127 -29t-103 -77t-68.5 -112.5t-24.5 -134.5zM1128 827v557q16 16 41 24.5t50 8.5q53 0 90 -32t37 -91q0 -27 -9.5 -59.5t-19.5 -58.5l-141 -349h-48z" />
<glyph unicode="&#x110;" horiz-adv-x="1308" d="M63 625v166h119v606h340q330 0 514 -193q190 -197 191 -506q0 -307 -191 -503q-184 -195 -514 -195h-340v625h-119zM365 166h163q242 0 383 147q63 72 98 170.5t35 214.5q0 121 -34.5 219.5t-100 168t-162 107.5t-219.5 38h-163v-440h256v-166h-256v-459z" />
<glyph unicode="&#x111;" horiz-adv-x="1142" d="M72 489q0 106 35.5 198.5t99 161.5t149.5 108.5t187 39.5q78 0 143.5 -27.5t122.5 -78.5v246h-238v153h238v107h178v-107h100v-153h-100v-1137h-61l-90 84q-55 -47 -135 -75.5t-158 -28.5q-102 0 -188.5 39.5t-149 109.5t-98 163t-35.5 197zM240 489q0 -70 24.5 -134 t67.5 -113t102.5 -78t128.5 -29q74 0 138.5 37t107.5 94v436q-45 59 -109.5 99.5t-136.5 40.5q-68 0 -127 -29t-103 -77t-68.5 -112.5t-24.5 -134.5z" />
<glyph unicode="&#x112;" horiz-adv-x="1081" d="M162 0v1397h850v-164h-672v-442h567v-166h-567v-461h688v-164h-866zM385 1591v144h426v-144h-426z" />
<glyph unicode="&#x113;" horiz-adv-x="985" d="M68 471q0 104 34.5 193.5t96 155t145.5 102t182 36.5q102 0 179 -39.5t128.5 -103t77 -143.5t25.5 -160q0 -74 -10 -115h-680q4 -53 28.5 -101t64.5 -85t91 -58.5t109 -21.5q70 0 157.5 24.5t159.5 65.5v-162q-59 -41 -143 -59t-183 -18q-102 0 -187 37.5t-146.5 103 t-95 156t-33.5 192.5zM246 545h524q-2 49 -19.5 97t-48 86t-76 61.5t-102.5 23.5q-61 0 -108 -22.5t-81 -60.5t-56.5 -86t-32.5 -99zM328 1194v143h426v-143h-426z" />
<glyph unicode="&#x114;" horiz-adv-x="1081" d="M162 0v1397h850v-164h-672v-442h567v-166h-567v-461h688v-164h-866zM332 1710l76 78q6 -16 24.5 -36.5t61.5 -55.5q23 -16 51 -24.5t53 -8.5q51 0 97 30.5t69 59.5l24 35l74 -78l-4 -6q-4 -8 -11 -21.5t-24 -33.5q-10 -14 -22.5 -27.5t-28.5 -28.5q-29 -25 -75 -44 t-99 -19q-55 0 -99 19.5t-77 45t-52.5 53t-27.5 46.5z" />
<glyph unicode="&#x115;" horiz-adv-x="985" d="M68 471q0 104 34.5 193.5t96 155t145.5 102t182 36.5q102 0 179 -39.5t128.5 -103t77 -143.5t25.5 -160q0 -74 -10 -115h-680q4 -53 28.5 -101t64.5 -85t91 -58.5t109 -21.5q70 0 157.5 24.5t159.5 65.5v-162q-59 -41 -143 -59t-183 -18q-102 0 -187 37.5t-146.5 103 t-95 156t-33.5 192.5zM246 545h524q-2 49 -19.5 97t-48 86t-76 61.5t-102.5 23.5q-61 0 -108 -22.5t-81 -60.5t-56.5 -86t-32.5 -99zM287 1313l74 78q8 -16 27.5 -38t60.5 -55q49 -33 102 -32q25 0 50.5 8t48 21.5t40 29.5t29.5 31l23 35l75 -78l-4 -6q-4 -8 -11 -21.5 t-24 -34.5q-8 -10 -23 -26.5t-28 -28.5q-29 -25 -76 -44t-100 -19q-55 0 -99 19t-76 45t-52.5 53.5t-28.5 45.5z" />
<glyph unicode="&#x116;" horiz-adv-x="1081" d="M162 0v1397h835v-164h-657v-442h625v-166h-625v-461h674v-164h-852zM463 1659q0 57 39 96t94 39t94 -39t39 -96q0 -23 -8 -45.5t-25 -38.5h-206q-27 33 -27 84z" />
<glyph unicode="&#x117;" horiz-adv-x="985" d="M68 471q0 104 34.5 193.5t96 155t145.5 102t182 36.5q102 0 179 -39.5t128.5 -103t77 -143.5t25.5 -160q0 -74 -10 -115h-680q4 -53 28.5 -101t64.5 -85t91 -58.5t109 -21.5q70 0 157.5 24.5t159.5 65.5v-162q-59 -41 -143 -59t-183 -18q-102 0 -187 37.5t-146.5 103 t-95 156t-33.5 192.5zM246 545h524q-2 49 -19.5 97t-48 86t-76 61.5t-102.5 23.5q-61 0 -108 -22.5t-81 -60.5t-56.5 -86t-32.5 -99zM414 1262q0 57 39 96t94 39t94 -39t39 -96q0 -23 -8 -45.5t-25 -38.5h-206q-27 33 -27 84z" />
<glyph unicode="&#x118;" horiz-adv-x="1081" d="M162 0v1397h850v-164h-672v-442h567v-166h-567v-461h688v-164q-23 -8 -57.5 -27.5t-81.5 -56.5q-23 -20 -36 -43t-13 -45q0 -57 73 -57q16 0 38 6t38 10l21 8v-127q-47 -33 -127 -33q-92 0 -146.5 46.5t-54.5 115.5q0 27 11.5 54.5t29.5 52t39.5 43t40.5 30.5l39 23h-680 z" />
<glyph unicode="&#x119;" horiz-adv-x="1019" d="M74 492q0 106 35.5 199t99 162t150.5 107.5t190 38.5q104 0 184 -40.5t132.5 -107.5t79 -151t26.5 -168q0 -74 -10 -118h-709q4 -55 29.5 -105.5t67.5 -88.5t96.5 -60.5t115.5 -22.5q74 0 164 28t162 68v-174q-18 -14 -33 -20q-45 -23 -84 -48.5t-68.5 -53t-47 -55 t-17.5 -54.5q0 -57 76 -57q16 0 37.5 6t35.5 10l21 8v-127q-47 -33 -127 -33q-90 0 -144.5 46.5t-54.5 115.5q0 33 15.5 62.5t37 53.5t45 41t42.5 30q-16 -2 -34 -2h-34q-106 0 -194.5 38.5t-152 108.5t-98 162t-34.5 201zM252 559h555q-2 51 -21.5 103.5t-53.5 93.5 t-81 66.5t-104 25.5q-61 0 -110.5 -24.5t-87.5 -65.5t-62.5 -92.5t-34.5 -106.5z" />
<glyph unicode="&#x11a;" horiz-adv-x="1081" d="M162 0v1397h835v-164h-657v-442h625v-166h-625v-461h674v-164h-852zM324 1728l45 96l223 -118l223 118l45 -96l-268 -209z" />
<glyph unicode="&#x11b;" horiz-adv-x="985" d="M68 471q0 104 34.5 193.5t96 155t145.5 102t182 36.5q102 0 179 -39.5t128.5 -103t77 -143.5t25.5 -160q0 -74 -10 -115h-680q4 -53 28.5 -101t64.5 -85t91 -58.5t109 -21.5q70 0 157.5 24.5t159.5 65.5v-162q-59 -41 -143 -59t-183 -18q-102 0 -187 37.5t-146.5 103 t-95 156t-33.5 192.5zM246 545h524q-2 49 -19.5 97t-48 86t-76 61.5t-102.5 23.5q-61 0 -108 -22.5t-81 -60.5t-56.5 -86t-32.5 -99zM283 1331l45 96l223 -118l223 118l45 -96l-268 -209z" />
<glyph unicode="&#x11c;" horiz-adv-x="1384" d="M84 700q0 150 54.5 281t149.5 228.5t226 152.5t283 55q100 0 204.5 -23.5t176.5 -62.5v-176h-2q-4 2 -32 17.5t-77 34t-117.5 32.5t-152.5 14q-113 0 -210.5 -42t-169 -115.5t-112.5 -175t-41 -220.5q0 -125 42 -227t111.5 -174t161 -112t189.5 -40t172 30t139 79h-2v311 h-411v166h587v-549q-51 -57 -123 -102q-61 -39 -153 -69.5t-219 -30.5q-133 0 -255 53t-215 148.5t-148.5 227.5t-55.5 289zM500 1616l268 208l268 -208l-45 -97l-223 119l-223 -119z" />
<glyph unicode="&#x11d;" horiz-adv-x="1085" d="M68 500q0 100 34.5 184t95 145.5t143.5 95t181 33.5q76 0 153 -26.5t130 -69.5l84 78h65v-883q0 -98 -27.5 -186t-85 -155.5t-143.5 -106.5t-202 -39q-104 0 -192.5 18.5t-153.5 46.5v181q84 -45 171 -66.5t168 -21.5q76 0 130.5 23.5t88 63.5t50 89t16.5 102v113 q-51 -41 -115.5 -68.5t-136.5 -27.5q-96 0 -179 35.5t-144.5 100t-96 151.5t-34.5 190zM236 500q0 -68 23.5 -127.5t65.5 -104.5t97.5 -70.5t118.5 -25.5q68 0 129 39t104 94v379q-41 53 -102.5 90t-130.5 37q-66 0 -121 -23.5t-96 -65.5t-64.5 -98.5t-23.5 -123.5z M295 1219l268 208l268 -208l-45 -97l-223 119l-223 -119z" />
<glyph unicode="&#x11e;" horiz-adv-x="1384" d="M84 700q0 150 54.5 281t149.5 228.5t226 152.5t283 55q100 0 204.5 -23.5t176.5 -62.5v-176h-2q-4 2 -32 17.5t-77 34t-117.5 32.5t-152.5 14q-113 0 -210.5 -42t-169 -115.5t-112.5 -175t-41 -220.5q0 -125 42 -227t111.5 -174t161 -112t189.5 -40t172 30t139 79h-2v311 h-411v166h587v-549q-51 -57 -123 -102q-61 -39 -153 -69.5t-219 -30.5q-133 0 -255 53t-215 148.5t-148.5 227.5t-55.5 289zM514 1710l74 78q8 -16 27.5 -38t60.5 -55q49 -33 102 -32q25 0 50.5 8t48 21.5t40 29.5t29.5 31l23 35l75 -78l-4 -6q-4 -8 -11 -21.5t-24 -34.5 q-8 -10 -23 -26.5t-28 -28.5q-29 -25 -76 -44t-100 -19q-55 0 -99 19t-76 45t-52.5 53.5t-28.5 45.5z" />
<glyph unicode="&#x11f;" horiz-adv-x="1085" d="M68 500q0 100 34.5 184t95 145.5t143.5 95t181 33.5q76 0 153 -26.5t130 -69.5l84 78h65v-883q0 -98 -27.5 -186t-85 -155.5t-143.5 -106.5t-202 -39q-104 0 -192.5 18.5t-153.5 46.5v181q84 -45 171 -66.5t168 -21.5q76 0 130.5 23.5t88 63.5t50 89t16.5 102v113 q-51 -41 -115.5 -68.5t-136.5 -27.5q-96 0 -179 35.5t-144.5 100t-96 151.5t-34.5 190zM236 500q0 -68 23.5 -127.5t65.5 -104.5t97.5 -70.5t118.5 -25.5q68 0 129 39t104 94v379q-41 53 -102.5 90t-130.5 37q-66 0 -121 -23.5t-96 -65.5t-64.5 -98.5t-23.5 -123.5z M299 1313l74 78q8 -16 27.5 -38t60.5 -55q49 -33 102 -32q25 0 50.5 8t48 21.5t40 29.5t29.5 31l23 35l75 -78l-4 -6q-4 -8 -11 -21.5t-24 -34.5q-8 -10 -23 -26.5t-28 -28.5q-29 -25 -76 -44t-100 -19q-55 0 -99 19t-76 45t-52.5 53.5t-28.5 45.5z" />
<glyph unicode="&#x120;" horiz-adv-x="1384" d="M84 700q0 150 54.5 281t149.5 228.5t226 152.5t283 55q100 0 204.5 -23.5t176.5 -62.5v-176h-2q-4 2 -32 17.5t-77 34t-117.5 32.5t-152.5 14q-113 0 -210.5 -42t-169 -115.5t-112.5 -175t-41 -220.5q0 -125 42 -227t111.5 -174t161 -112t189.5 -40t172 30t139 79h-2v311 h-411v166h587v-549q-51 -57 -123 -102q-61 -39 -153 -69.5t-219 -30.5q-133 0 -255 53t-215 148.5t-148.5 227.5t-55.5 289zM633 1659q0 57 39 96t94 39t94 -39t39 -96q0 -23 -8 -45.5t-25 -38.5h-206q-27 33 -27 84z" />
<glyph unicode="&#x121;" horiz-adv-x="1085" d="M68 500q0 100 34.5 184t95 145.5t143.5 95t181 33.5q76 0 153 -26.5t130 -69.5l84 78h65v-883q0 -98 -27.5 -186t-85 -155.5t-143.5 -106.5t-202 -39q-104 0 -192.5 18.5t-153.5 46.5v181q84 -45 171 -66.5t168 -21.5q76 0 130.5 23.5t88 63.5t50 89t16.5 102v113 q-51 -41 -115.5 -68.5t-136.5 -27.5q-96 0 -179 35.5t-144.5 100t-96 151.5t-34.5 190zM236 500q0 -68 23.5 -127.5t65.5 -104.5t97.5 -70.5t118.5 -25.5q68 0 129 39t104 94v379q-41 53 -102.5 90t-130.5 37q-66 0 -121 -23.5t-96 -65.5t-64.5 -98.5t-23.5 -123.5z M418 1262q0 57 39 96t94 39t94 -39t39 -96q0 -23 -8 -45.5t-25 -38.5h-206q-27 33 -27 84z" />
<glyph unicode="&#x122;" horiz-adv-x="1384" d="M84 700q0 150 54.5 281t149.5 228.5t226 152.5t283 55q100 0 204.5 -23.5t176.5 -62.5v-176h-2q-4 2 -32 17.5t-77 34t-117.5 32.5t-152.5 14q-113 0 -210.5 -42t-169 -115.5t-112.5 -175t-41 -220.5q0 -125 42 -227t111.5 -174t161 -112t189.5 -40t172 30t139 79h-2v311 h-411v166h587v-549q-51 -57 -123 -102q-61 -39 -153 -69.5t-219 -30.5q-133 0 -255 53t-215 148.5t-148.5 227.5t-55.5 289zM664 -189q16 16 41.5 24.5t48.5 8.5q53 0 91 -32t38 -91q0 -27 -10.5 -59.5t-20.5 -58.5l-141 -349h-47v557z" />
<glyph unicode="&#x123;" horiz-adv-x="1110" d="M80 500q0 104 35 195t96 159t146 106.5t186 38.5q78 0 156.5 -27.5t136.5 -80.5l94 88h49v-924q0 -102 -27.5 -190t-85 -153.5t-145.5 -103.5t-207 -38q-104 0 -192.5 18.5t-157.5 49.5h2v194q78 -41 163 -63.5t173 -22.5q82 0 141 26.5t98 68.5t57.5 95.5t18.5 106.5v78 q-59 -55 -127.5 -87t-146.5 -32q-98 0 -183.5 38t-147.5 104.5t-97 157.5t-35 198zM231 500q0 -72 26 -133.5t71 -108.5t105 -73.5t130 -26.5q78 0 143.5 39t110.5 100v416q-43 59 -109.5 95t-144.5 36q-72 0 -132 -28t-104 -75t-70 -109.5t-26 -131.5zM438 1243 q0 25 10.5 60.5t22.5 58.5l129 229h47v-434q-16 -16 -40.5 -24.5t-47.5 -8.5q-53 0 -87 30t-34 89z" />
<glyph unicode="&#x124;" horiz-adv-x="1361" d="M162 0v1397h176v-606h686v606h176v-1397h-176v625h-686v-625h-176zM412 1637l268 208l268 -208l-45 -97l-223 119l-223 -119z" />
<glyph unicode="&#x125;" horiz-adv-x="1097" d="M-37 1569l268 208l268 -208l-45 -97l-223 119l-223 -119zM131 0v1395h180v-537q45 35 116 67.5t177 32.5q80 0 143.5 -28.5t108.5 -78.5t69.5 -117.5t24.5 -145.5v-588h-180v565q0 117 -53 180.5t-142 63.5q-74 0 -143.5 -38t-120.5 -97v-674h-180z" />
<glyph unicode="&#x126;" horiz-adv-x="1341" d="M35 999v156h127v242h176v-242h663v242h179v-242h127v-156h-127v-999h-179v625h-663v-625h-176v999h-127zM338 791h663v208h-663v-208z" />
<glyph unicode="&#x127;" horiz-adv-x="1097" d="M53 1128v144h88v125h178v-125h162v-144h-162v-241q45 37 119 74.5t191 37.5q82 0 148.5 -29.5t112.5 -81.5t70.5 -123t24.5 -153v-612h-178v588q0 123 -57.5 188.5t-149.5 65.5q-78 0 -151.5 -40t-131.5 -100h2v-702h-178v1128h-88z" />
<glyph unicode="&#x128;" horiz-adv-x="503" d="M-2 1602q0 61 41 112t106 51q53 0 109 -32q59 -33 86 -33q23 0 44.5 16.5t31.5 32.5l12 18l84 -43q0 -61 -40.5 -111t-106.5 -50q-57 0 -111 32q-53 33 -84 33q-23 0 -44.5 -16.5t-31.5 -32.5l-12 -18zM162 0v1397h180v-1397h-180z" />
<glyph unicode="&#x129;" horiz-adv-x="497" d="M-6 1204q0 31 11 60.5t30.5 52t46.5 37t59 14.5q57 0 111 -33q53 -33 84 -32q23 0 44 16t32 33l12 18l84 -43q0 -61 -41 -111.5t-107 -50.5q-53 0 -110 33q-53 33 -84 33q-23 0 -44.5 -16.5t-31.5 -32.5l-12 -19zM156 0v979h186v-979h-186z" />
<glyph unicode="&#x12a;" horiz-adv-x="503" d="M43 1591v144h426v-144h-426zM162 0v1397h180v-1397h-180z" />
<glyph unicode="&#x12b;" horiz-adv-x="497" d="M35 1194v143h426v-143h-426zM156 0v979h186v-979h-186z" />
<glyph unicode="&#x12c;" horiz-adv-x="503" d="M-10 1710l73 78q8 -16 28 -37.5t61 -54.5q49 -33 102 -33q51 0 98 30.5t70 59.5l22 35l76 -78l-4 -6q-4 -8 -11 -21.5t-24 -33.5q-10 -14 -22.5 -27.5t-28.5 -28.5q-29 -25 -75 -44t-101 -19t-99 19.5t-76 45t-52.5 53t-26.5 46.5zM162 0v1397h180v-1397h-180z" />
<glyph unicode="&#x12d;" horiz-adv-x="493" d="M-18 1313l75 78q6 -16 24.5 -37t61.5 -56q23 -16 51.5 -24t53.5 -8q51 0 97 30.5t69 59.5l24 35l74 -78l-4 -6q-4 -8 -11.5 -21.5t-23.5 -34.5q-10 -14 -22.5 -27.5t-28.5 -27.5q-29 -25 -75 -44t-99 -19q-55 0 -99.5 19t-77 45t-52 53.5t-27.5 45.5zM154 0v979h186v-979 h-186z" />
<glyph unicode="&#x12e;" horiz-adv-x="503" d="M4 -203q0 37 16.5 69t40 56.5t47 42t37.5 27.5l19 8h-2v1397h180v-1397q-23 -8 -54.5 -25.5t-78.5 -58.5q-20 -20 -34.5 -43t-14.5 -45q0 -57 76 -57q16 0 37.5 6t35.5 10l23 8v-127q-51 -33 -127 -33q-92 0 -146.5 46.5t-54.5 115.5z" />
<glyph unicode="&#x12f;" horiz-adv-x="512" d="M8 -203q0 37 16.5 69t40 56.5t51 44t52.5 33.5h-2v979h176v-979q-20 -8 -50 -24.5t-58.5 -39t-49 -50t-20.5 -58.5q0 -57 76 -57q16 0 37.5 6t35.5 10l21 8v-127q-47 -33 -125 -33q-92 0 -146.5 46.5t-54.5 115.5zM123 1262q0 57 39 96t92 39q57 0 96 -39t39 -96 q0 -23 -9 -45.5t-24 -38.5h-204q-16 16 -22.5 38.5t-6.5 45.5z" />
<glyph unicode="&#x130;" horiz-adv-x="503" d="M121 1629q0 57 39 96t94 39t94 -39t39 -96q0 -23 -8 -45.5t-25 -38.5h-206q-27 33 -27 84zM162 0v1397h180v-1397h-180z" />
<glyph unicode="&#x131;" horiz-adv-x="497" d="M156 0v979h186v-979h-186z" />
<glyph unicode="&#x132;" d="M162 0v1397h180v-1397h-180zM575 0v160h27q61 0 100 45t39 131v1061h177v-1078q0 -141 -76 -230t-211 -89h-56z" />
<glyph unicode="&#x133;" horiz-adv-x="1015" d="M115 1231q0 55 37.5 93t91.5 38q57 0 95 -38t38 -93q0 -43 -31 -80h-203q-16 18 -22 39.5t-6 40.5zM156 0v934h176v-934h-176zM483 -276q96 0 136 50t40 126v1036h177v-1030q0 -47 -16.5 -105.5t-56.5 -109.5t-107.5 -86t-172.5 -35v154zM618 1231q0 55 39 93t93 38 q55 0 94 -38t39 -93q0 -18 -8.5 -40t-26.5 -40h-205q-25 35 -25 80z" />
<glyph unicode="&#x134;" horiz-adv-x="548" d="M39 1616l268 208l268 -208l-45 -97l-223 119l-223 -119zM53 0v160h29q61 0 99 45t38 131v1061h178v-1078q0 -141 -76.5 -230t-211.5 -89h-56z" />
<glyph unicode="&#x135;" horiz-adv-x="491" d="M-25 -268q98 0 139.5 52t41.5 130v1065h180v-1059q0 -49 -16.5 -109.5t-58.5 -113.5t-111.5 -89t-174.5 -36v160zM-20 1219l268 208l268 -208l-45 -97l-223 119l-223 -119z" />
<glyph unicode="&#x136;" horiz-adv-x="1150" d="M162 0v1397h178v-602l516 602h221l-499 -580l569 -817h-232l-452 682q-31 -35 -62.5 -67.5t-60.5 -67.5v-547h-178zM471 -121q16 16 41 24.5t49 8.5q53 0 87 -30t34 -89q0 -25 -11 -60.5t-24 -58.5l-129 -229h-47v434z" />
<glyph unicode="&#x137;" horiz-adv-x="978" d="M131 0v1395h180v-830l353 371h219l-359 -373l404 -563h-226l-305 432l-86 -94v-338h-180zM383 -121q16 16 41 24.5t49 8.5q53 0 87 -30t34 -89q0 -25 -11 -60.5t-24 -58.5l-129 -229h-47v434z" />
<glyph unicode="&#x138;" horiz-adv-x="983" d="M141 0v979h183v-424l370 424h228l-377 -414h2l401 -565h-229l-299 440l-98 -102h2v-338h-183z" />
<glyph unicode="&#x139;" horiz-adv-x="1007" d="M162 0v1397h178v-1231h633v-166h-811zM297 1616l336 211l80 -156l-373 -158z" />
<glyph unicode="&#x13a;" horiz-adv-x="460" d="M21 1586l336 211l80 -156l-373 -158zM131 0v1395h180v-1395h-180z" />
<glyph unicode="&#x13b;" horiz-adv-x="1007" d="M162 0v1397h178v-1231h633v-166h-811zM486 -189q16 16 41.5 24.5t48.5 8.5q53 0 91 -32t38 -91q0 -27 -10.5 -59.5t-20.5 -58.5l-141 -349h-47v557z" />
<glyph unicode="&#x13c;" horiz-adv-x="460" d="M125 -121q16 16 41 24.5t49 8.5q53 0 87 -30t34 -89q0 -25 -11 -60.5t-24 -58.5l-129 -229h-47v434zM131 0v1395h180v-1395h-180z" />
<glyph unicode="&#x13d;" horiz-adv-x="1007" d="M162 0v1397h178v-1231h633v-166h-811zM629 987l92 184v19h-64v207h207v-226l-151 -231z" />
<glyph unicode="&#x13e;" horiz-adv-x="563" d="M131 0v1395h180v-1395h-180zM434 950v434q16 16 41 24.5t49 8.5q53 0 87 -30t34 -89q0 -25 -11 -60.5t-24 -58.5l-129 -229h-47z" />
<glyph unicode="&#x13f;" horiz-adv-x="1007" d="M162 0v1397h178v-1231h633v-166h-811zM624 536q0 59 41 99t99 40q59 0 99 -39.5t40 -99.5q0 -27 -8 -49.5t-21 -40.5h-221q-12 18 -20.5 40.5t-8.5 49.5z" />
<glyph unicode="&#x140;" horiz-adv-x="677" d="M141 0v1397h183v-1397h-183zM463 446v203h199v-203h-199z" />
<glyph unicode="&#x141;" horiz-adv-x="1034" d="M35 588l153 90h-2v719h181v-613l278 168l78 -139l-358 -213h2v-434h632v-166h-813v492q-16 -10 -37.5 -21.5t-37.5 -21.5z" />
<glyph unicode="&#x142;" horiz-adv-x="595" d="M14 637l183 108h-2v652h180v-545l166 102l77 -139l-245 -147h2v-668h-180v559q-25 -14 -51.5 -30.5t-51.5 -30.5z" />
<glyph unicode="&#x143;" horiz-adv-x="1361" d="M162 0v1397h61l819 -985v985h179v-1397h-64l-819 985v-985h-176zM475 1616l336 211l80 -156l-373 -158z" />
<glyph unicode="&#x144;" horiz-adv-x="1097" d="M131 0v940h66l88 -80q47 35 125.5 66.5t183.5 31.5q80 0 144.5 -28.5t108.5 -78.5t68.5 -117.5t24.5 -145.5v-588h-180v565q0 117 -52.5 180.5t-142.5 63.5q-72 0 -137.5 -33t-118.5 -92h2v-684h-180zM340 1219l336 211l80 -156l-373 -158z" />
<glyph unicode="&#x145;" horiz-adv-x="1361" d="M162 0v1397h61l819 -985v985h179v-1397h-64l-819 985v-985h-176zM602 -189q16 16 41.5 24.5t48.5 8.5q53 0 91 -32t38 -91q0 -27 -10.5 -59.5t-20.5 -58.5l-141 -349h-47v557z" />
<glyph unicode="&#x146;" horiz-adv-x="1097" d="M131 0v940h66l88 -80q47 35 125.5 66.5t183.5 31.5q80 0 144.5 -28.5t108.5 -78.5t68.5 -117.5t24.5 -145.5v-588h-180v565q0 117 -52.5 180.5t-142.5 63.5q-72 0 -137.5 -33t-118.5 -92h2v-684h-180zM444 -121q16 16 41 24.5t49 8.5q53 0 87 -30t34 -89q0 -25 -11 -60.5 t-24 -58.5l-129 -229h-47v434z" />
<glyph unicode="&#x147;" horiz-adv-x="1361" d="M162 0v1397h61l819 -985v985h179v-1397h-64l-819 985v-985h-176zM414 1728l45 96l223 -118l223 118l45 -96l-268 -209z" />
<glyph unicode="&#x148;" horiz-adv-x="1097" d="M131 0v940h66l88 -80q47 35 125.5 66.5t183.5 31.5q80 0 144.5 -28.5t108.5 -78.5t68.5 -117.5t24.5 -145.5v-588h-180v565q0 117 -52.5 180.5t-142.5 63.5q-72 0 -137.5 -33t-118.5 -92h2v-684h-180zM281 1331l45 96l223 -118l223 118l45 -96l-268 -209z" />
<glyph unicode="&#x149;" horiz-adv-x="1097" d="M-121 950v434q16 16 41 24.5t49 8.5q53 0 87 -30t34 -89q0 -25 -11 -60.5t-24 -58.5l-129 -229h-47zM131 0v940h66l88 -80q47 35 125.5 66.5t183.5 31.5q80 0 144.5 -28.5t108.5 -78.5t68.5 -117.5t24.5 -145.5v-588h-180v565q0 117 -52.5 180.5t-142.5 63.5 q-72 0 -137.5 -33t-118.5 -92h2v-684h-180z" />
<glyph unicode="&#x14a;" horiz-adv-x="1361" d="M162 0v1444l862 -1129v1082h176v-1487q0 -141 -75.5 -230.5t-211.5 -89.5h-55v160h27q61 0 100 45t39 131v92l-686 897v-915h-176z" />
<glyph unicode="&#x14b;" horiz-adv-x="1116" d="M141 0v979h172l9 -98q12 14 41.5 33.5t97.5 48.5q43 16 85 25t89 9q168 0 264 -112q45 -55 70.5 -125t25.5 -150v-671q0 -49 -16 -109.5t-58 -114t-112 -89.5t-174 -36v160q98 0 138 52.5t40 129.5v654q0 123 -57.5 188.5t-151.5 65.5q-37 0 -74.5 -9.5t-71.5 -24.5 t-60.5 -33.5t-41.5 -37.5l-32 -35h2v-700h-185z" />
<glyph unicode="&#x14c;" horiz-adv-x="1558" d="M84 700q0 291 205 508q198 211 489 211q293 0 492 -211q205 -211 205 -508t-205 -510q-201 -209 -492 -208q-291 0 -489 211q-205 213 -205 507zM258 702q0 -231 152 -393q157 -164 368 -164q215 0 369 164q152 158 151 393q0 236 -151 394q-154 164 -369 164 q-211 0 -368 -164q-152 -162 -152 -394zM565 1612v143h428v-143h-428z" />
<glyph unicode="&#x14d;" horiz-adv-x="1126" d="M68 469q0 104 37.5 193.5t102 156t150.5 103t183 36.5q98 0 184 -37.5t150.5 -104t101.5 -156t37 -191.5q0 -100 -37 -189.5t-101.5 -156t-150.5 -105t-184 -38.5t-185.5 38.5t-151 104t-100 155t-36.5 191.5zM236 469q0 -68 23.5 -130.5t64.5 -108.5t96 -73.5t121 -27.5 q63 0 119.5 27.5t97.5 75t64.5 108.5t23.5 129t-23.5 130.5t-65.5 108.5t-97.5 73.5t-118.5 27.5t-118.5 -27.5t-97.5 -73.5t-65.5 -107.5t-23.5 -131.5zM350 1194v143h426v-143h-426z" />
<glyph unicode="&#x14e;" horiz-adv-x="1558" d="M84 700q0 147 55.5 278.5t149.5 229t221 154.5t268 57q143 0 269.5 -56t221.5 -154.5t150.5 -229.5t55.5 -279q0 -147 -54.5 -278t-148.5 -228.5t-221 -154.5t-273 -57q-141 0 -268 57t-221 154.5t-149.5 228.5t-55.5 278zM258 702q0 -115 41 -216t111.5 -177t166 -120 t201.5 -44t201.5 44t166.5 120t111.5 177.5t40.5 215.5q0 113 -40.5 214.5t-111.5 178t-166 121t-202 44.5q-106 0 -201.5 -44.5t-166 -120t-111.5 -177t-41 -216.5zM514 1731l74 78q8 -16 27.5 -38t60.5 -55q49 -33 102 -32q25 0 50.5 8t48 21.5t40 29.5t29.5 31l23 35 l75 -78l-4 -6q-4 -8 -11 -21.5t-24 -34.5q-8 -10 -23 -26.5t-28 -28.5q-29 -25 -76 -44t-100 -19q-55 0 -99 19t-76 45t-52.5 53.5t-28.5 45.5z" />
<glyph unicode="&#x14f;" horiz-adv-x="1126" d="M68 469q0 104 37.5 193.5t102 156t150.5 103t183 36.5q98 0 184 -37.5t150.5 -104t101.5 -156t37 -191.5q0 -100 -37 -189.5t-101.5 -156t-150.5 -105t-184 -38.5t-185.5 38.5t-151 104t-100 155t-36.5 191.5zM236 469q0 -68 23.5 -130.5t64.5 -108.5t96 -73.5t121 -27.5 q63 0 119.5 27.5t97.5 75t64.5 108.5t23.5 129t-23.5 130.5t-65.5 108.5t-97.5 73.5t-118.5 27.5t-118.5 -27.5t-97.5 -73.5t-65.5 -107.5t-23.5 -131.5zM297 1313l74 78q8 -16 27.5 -38t60.5 -55q49 -33 102 -32q25 0 50.5 8t48 21.5t40 29.5t29.5 31l23 35l75 -78l-4 -6 q-4 -8 -11 -21.5t-24 -34.5q-8 -10 -23 -26.5t-28 -28.5q-29 -25 -76 -44t-100 -19q-55 0 -99 19t-76 45t-52.5 53.5t-28.5 45.5z" />
<glyph unicode="&#x150;" horiz-adv-x="1558" d="M84 700q0 147 55.5 278.5t149.5 229t221 154.5t268 57q143 0 269.5 -56t221.5 -154.5t150.5 -229.5t55.5 -279q0 -147 -54.5 -278t-148.5 -228.5t-221 -154.5t-273 -57q-141 0 -268 57t-221 154.5t-149.5 228.5t-55.5 278zM258 702q0 -115 41 -216t111.5 -177t166 -120 t201.5 -44t201.5 44t166.5 120t111.5 177.5t40.5 215.5q0 113 -40.5 214.5t-111.5 178t-166 121t-202 44.5q-106 0 -201.5 -44.5t-166 -120t-111.5 -177t-41 -216.5zM541 1604l242 268l102 -115l-268 -233zM860 1604l242 268l103 -115l-269 -233z" />
<glyph unicode="&#x151;" horiz-adv-x="1126" d="M68 469q0 104 37.5 193.5t102 156t150.5 103t183 36.5q98 0 184 -37.5t150.5 -104t101.5 -156t37 -191.5q0 -100 -37 -189.5t-101.5 -156t-150.5 -105t-184 -38.5t-185.5 38.5t-151 104t-100 155t-36.5 191.5zM236 469q0 -68 23.5 -130.5t64.5 -108.5t96 -73.5t121 -27.5 q63 0 119.5 27.5t97.5 75t64.5 108.5t23.5 129t-23.5 130.5t-65.5 108.5t-97.5 73.5t-118.5 27.5t-118.5 -27.5t-97.5 -73.5t-65.5 -107.5t-23.5 -131.5zM289 1186l242 268l102 -115l-268 -233zM608 1186l242 268l103 -115l-269 -233z" />
<glyph unicode="&#x152;" horiz-adv-x="1966" d="M74 700q0 305 196 510q197 209 478 209q39 0 78.5 -5t75.5 -14t65.5 -19.5t50.5 -18.5l31 -16v51h845v-164h-667v-442h563v-166h-563v-461h686v-164h-864v53q-137 -72 -308 -71q-281 0 -475 206q-193 211 -192 512zM256 702q0 -240 141 -395q144 -160 361 -160 q39 0 77.5 7.5t73.5 17.5t62.5 23.5t46.5 25.5q8 6 17 12.5t16 12.5h-2v911h2q-2 0 -3 2t-4 2q-12 10 -37.5 26.5t-95.5 39.5q-74 27 -153 26q-215 0 -359 -159q-143 -152 -143 -392z" />
<glyph unicode="&#x153;" horiz-adv-x="2152" d="M74 489q0 109 39 202t105.5 161t155.5 106.5t189 38.5q115 0 214.5 -49t166.5 -137q63 88 159.5 138t215.5 50q104 0 184 -40.5t132.5 -107.5t79 -151t26.5 -168q0 -37 -2 -67.5t-6 -50.5h-711q4 -55 29.5 -105.5t67.5 -88.5t96.5 -60.5t115.5 -22.5q74 0 164 28t162 68 v-174q-59 -41 -145.5 -59t-188.5 -18q-123 0 -219 49t-160 137q-68 -88 -166 -138t-215 -50q-102 0 -191 39.5t-155.5 108.5t-104.5 162t-38 199zM242 489q0 -72 24.5 -136t67.5 -112t102.5 -77t126.5 -29q100 0 180 63.5t117 155.5q-16 70 -16 138q0 35 4 67.5t12 65.5 q-39 92 -119 154.5t-178 62.5q-66 0 -124 -29t-102 -77t-69.5 -111.5t-25.5 -135.5zM1022 559h555q-2 51 -21.5 103.5t-53.5 93.5t-81 66.5t-104 25.5q-61 0 -110.5 -24.5t-87.5 -65.5t-62.5 -92.5t-34.5 -106.5z" />
<glyph unicode="&#x154;" horiz-adv-x="1173" d="M162 0v1397h452q98 0 180.5 -29t141.5 -82t92 -127t33 -164q0 -152 -89 -255t-237 -136h4l428 -604h-229l-408 592h-192v-592h-176zM338 754h274q121 0 199 60t78 179t-78 180.5t-199 61.5h-274v-481zM397 1616l336 211l80 -156l-373 -158z" />
<glyph unicode="&#x155;" horiz-adv-x="714" d="M131 0v940h66l102 -100q25 39 57.5 62.5t68.5 36.5t69.5 17.5t62.5 4.5q18 0 46 -2.5t54 -6.5v-184q-20 4 -39.5 5t-44.5 1q-121 0 -191.5 -65.5t-70.5 -190.5v-518h-180zM197 1219l336 211l80 -156l-373 -158z" />
<glyph unicode="&#x156;" horiz-adv-x="1173" d="M162 0v1397h452q98 0 180.5 -29t141.5 -82t92 -127t33 -164q0 -152 -89 -255t-237 -136h4l428 -604h-229l-408 592h-192v-592h-176zM338 754h274q121 0 199 60t78 179t-78 180.5t-199 61.5h-274v-481zM510 -189q16 16 41.5 24.5t48.5 8.5q53 0 91 -32t38 -91 q0 -27 -10.5 -59.5t-20.5 -58.5l-141 -349h-47v557z" />
<glyph unicode="&#x157;" horiz-adv-x="714" d="M131 0v940h66l102 -100q25 39 57.5 62.5t68.5 36.5t69.5 17.5t62.5 4.5q18 0 46 -2.5t54 -6.5v-184q-20 4 -39.5 5t-44.5 1q-121 0 -191.5 -65.5t-70.5 -190.5v-518h-180zM135 -121q16 16 41 24.5t49 8.5q53 0 87 -30t34 -89q0 -25 -11 -60.5t-24 -58.5l-129 -229h-47 v434z" />
<glyph unicode="&#x158;" horiz-adv-x="1173" d="M162 0v1397h452q98 0 180.5 -29t141.5 -82t92 -127t33 -164q0 -152 -89 -255t-237 -136h4l428 -604h-229l-408 592h-192v-592h-176zM309 1728l45 96l223 -118l223 118l45 -96l-268 -209zM338 754h274q121 0 199 60t78 179t-78 180.5t-199 61.5h-274v-481z" />
<glyph unicode="&#x159;" horiz-adv-x="714" d="M107 1331l45 96l223 -118l223 118l45 -96l-268 -209zM131 0v940h66l102 -100q25 39 57.5 62.5t68.5 36.5t69.5 17.5t62.5 4.5q18 0 46 -2.5t54 -6.5v-184q-20 4 -39.5 5t-44.5 1q-121 0 -191.5 -65.5t-70.5 -190.5v-518h-180z" />
<glyph unicode="&#x15a;" horiz-adv-x="1030" d="M109 86v186q27 -20 69.5 -41.5t94 -40t108.5 -29.5t115 -11q147 0 232 68.5t85 170.5q0 51 -20.5 89t-54 66.5t-79 51t-94.5 41.5l-155 55q-59 20 -113.5 50t-96.5 73t-66.5 101.5t-24.5 138.5q0 74 31.5 140.5t90 116.5t139.5 78.5t179 28.5q49 0 98 -8t94 -20.5 t84 -27.5t66 -30v-192q-53 39 -141 74.5t-187 35.5q-61 0 -111.5 -15t-86 -43t-55 -64.5t-19.5 -79.5q0 -84 58.5 -125t148.5 -72l184 -64q53 -18 108.5 -50.5t99.5 -82t72.5 -113t28.5 -143.5q0 -96 -36.5 -172.5t-102.5 -132t-156 -85t-198 -29.5q-119 0 -224.5 31.5 t-164.5 74.5zM320 1616l336 211l80 -156l-373 -158z" />
<glyph unicode="&#x15b;" horiz-adv-x="868" d="M117 700q0 115 85 185.5t218 70.5q92 0 164.5 -20.5t105.5 -42.5v-164q-39 31 -108.5 53.5t-132.5 22.5q-70 0 -115 -26.5t-45 -69.5q0 -47 32.5 -72t73.5 -41l172 -76q33 -14 67 -36.5t61.5 -55.5t46 -75t18.5 -97q0 -127 -95.5 -201.5t-254.5 -74.5q-86 0 -167 22.5 t-122 48.5v172q16 -12 50 -27.5t74 -28.5t81 -22.5t73 -9.5q82 0 134.5 31t52.5 86q0 47 -36 76.5t-77 48.5l-145 63q-31 12 -67 34t-68.5 53.5t-54 74.5t-21.5 98zM225 1219l336 211l80 -156l-373 -158z" />
<glyph unicode="&#x15c;" horiz-adv-x="1030" d="M109 86v186q27 -20 69.5 -41.5t94 -40t108.5 -29.5t115 -11q147 0 232 68.5t85 170.5q0 51 -20.5 89t-54 66.5t-79 51t-94.5 41.5l-155 55q-59 20 -113.5 50t-96.5 73t-66.5 101.5t-24.5 138.5q0 74 31.5 140.5t90 116.5t139.5 78.5t179 28.5q49 0 98 -8t94 -20.5 t84 -27.5t66 -30v-192q-53 39 -141 74.5t-187 35.5q-61 0 -111.5 -15t-86 -43t-55 -64.5t-19.5 -79.5q0 -84 58.5 -125t148.5 -72l184 -64q53 -18 108.5 -50.5t99.5 -82t72.5 -113t28.5 -143.5q0 -96 -36.5 -172.5t-102.5 -132t-156 -85t-198 -29.5q-119 0 -224.5 31.5 t-164.5 74.5zM258 1616l268 208l268 -208l-45 -97l-223 119l-223 -119z" />
<glyph unicode="&#x15d;" horiz-adv-x="868" d="M117 700q0 115 85 185.5t218 70.5q92 0 164.5 -20.5t105.5 -42.5v-164q-39 31 -108.5 53.5t-132.5 22.5q-70 0 -115 -26.5t-45 -69.5q0 -47 32.5 -72t73.5 -41l172 -76q33 -14 67 -36.5t61.5 -55.5t46 -75t18.5 -97q0 -127 -95.5 -201.5t-254.5 -74.5q-86 0 -167 22.5 t-122 48.5v172q16 -12 50 -27.5t74 -28.5t81 -22.5t73 -9.5q82 0 134.5 31t52.5 86q0 47 -36 76.5t-77 48.5l-145 63q-31 12 -67 34t-68.5 53.5t-54 74.5t-21.5 98zM166 1219l268 208l268 -208l-45 -97l-223 119l-223 -119z" />
<glyph unicode="&#x15e;" horiz-adv-x="1030" d="M92 82v190q23 -16 64 -37.5t135 -56.5q104 -35 186 -35q72 0 135.5 19.5t114.5 75.5h-2q51 61 51 141q0 55 -29.5 97t-77.5 76t-109.5 62.5t-123.5 53.5l-98 41q-98 45 -170 131t-72 209q0 178 125 272q127 96 311 96q90 0 171 -14t116 -31l35 -14l-2 -170 q-72 33 -153 48t-167 15q-111 0 -183.5 -46t-72.5 -144q-2 -49 25 -87t70 -69t98 -55.5t115 -48.5q35 -14 67.5 -27.5t63.5 -30.5q100 -45 170.5 -136t70.5 -218q0 -152 -106 -270q-104 -115 -291 -135l-12 -52q4 0 23.5 -5t42 -19t40 -40t17.5 -67t-17.5 -71.5t-46 -52 t-66.5 -33t-79 -11.5q-35 0 -62.5 4.5t-40.5 8.5q-4 0 -7 2t-7 2v114q20 -10 44 -13t48 -3q29 0 50.5 16.5t21.5 42.5q0 29 -25.5 43.5t-52.5 18.5q-6 0 -15 1t-16 1l31 111q-45 2 -89 11t-83 19.5t-71.5 22.5t-53.5 24z" />
<glyph unicode="&#x15f;" horiz-adv-x="868" d="M92 66v180q66 -49 148 -79t168 -30q27 0 61.5 6.5t65 21.5t52 40.5t21.5 64.5q0 31 -19.5 54.5t-52 43t-73.5 36t-86 32.5l-98 37q-78 31 -130.5 93.5t-52.5 148.5q0 129 103 209q96 76 247 75q84 0 154 -15t119 -38v-168q-127 68 -279 68q-63 0 -111 -34t-48 -89 q0 -27 18 -48.5t48 -39t69 -33.5t82 -31q27 -10 56.5 -20t55.5 -23q76 -35 130.5 -98t54.5 -151q0 -121 -101 -213q-37 -35 -91 -55.5t-118 -26.5l-12 -52q4 0 23.5 -5t42 -19t40 -40t17.5 -67t-17.5 -71.5t-46 -52t-66.5 -33t-79 -11.5q-35 0 -62.5 4.5t-39.5 8.5 q-4 0 -7.5 2t-7.5 2v114q20 -10 44 -13t48 -3q29 0 50.5 16.5t21.5 42.5q0 29 -25.5 43.5t-52.5 18.5q-6 0 -15 1t-15 1l30 111q-68 6 -136 27.5t-128 56.5z" />
<glyph unicode="&#x160;" horiz-adv-x="1030" d="M109 86v186q27 -20 69.5 -41.5t94 -40t108.5 -29.5t115 -11q147 0 232 68.5t85 170.5q0 51 -20.5 89t-54 66.5t-79 51t-94.5 41.5l-155 55q-59 20 -113.5 50t-96.5 73t-66.5 101.5t-24.5 138.5q0 74 31.5 140.5t90 116.5t139.5 78.5t179 28.5q49 0 98 -8t94 -20.5 t84 -27.5t66 -30v-192q-53 39 -141 74.5t-187 35.5q-61 0 -111.5 -15t-86 -43t-55 -64.5t-19.5 -79.5q0 -84 58.5 -125t148.5 -72l184 -64q53 -18 108.5 -50.5t99.5 -82t72.5 -113t28.5 -143.5q0 -96 -36.5 -172.5t-102.5 -132t-156 -85t-198 -29.5q-119 0 -224.5 31.5 t-164.5 74.5zM262 1728l45 96l223 -118l223 118l45 -96l-268 -209z" />
<glyph unicode="&#x161;" horiz-adv-x="868" d="M117 700q0 115 85 185.5t218 70.5q92 0 164.5 -20.5t105.5 -42.5v-164q-39 31 -108.5 53.5t-132.5 22.5q-70 0 -115 -26.5t-45 -69.5q0 -47 32.5 -72t73.5 -41l172 -76q33 -14 67 -36.5t61.5 -55.5t46 -75t18.5 -97q0 -127 -95.5 -201.5t-254.5 -74.5q-86 0 -167 22.5 t-122 48.5v172q16 -12 50 -27.5t74 -28.5t81 -22.5t73 -9.5q82 0 134.5 31t52.5 86q0 47 -36 76.5t-77 48.5l-145 63q-31 12 -67 34t-68.5 53.5t-54 74.5t-21.5 98zM166 1331l45 96l223 -118l223 118l45 -96l-268 -209z" />
<glyph unicode="&#x162;" horiz-adv-x="987" d="M35 1231v166h917v-166h-370v-1231h-179v1231h-368zM402 -189q16 16 41.5 24.5t48.5 8.5q53 0 91 -32t38 -91q0 -27 -10.5 -59.5t-20.5 -58.5l-141 -349h-47v557z" />
<glyph unicode="&#x163;" horiz-adv-x="679" d="M39 791v149h127v207l178 100v-307h240v-149h-240v-478q0 -92 41 -134t119 -42q29 0 47 2t35 6v-145q-35 -6 -111 -6q-66 0 -123 19.5t-98 57.5t-64.5 95t-23.5 135v490h-127zM280 -121q16 16 41 24.5t49 8.5q53 0 87 -30t34 -89q0 -25 -11 -60.5t-24 -58.5l-129 -229h-47 v434z" />
<glyph unicode="&#x164;" horiz-adv-x="987" d="M35 1231v166h917v-166h-370v-1231h-179v1231h-368zM225 1729l45 96l224 -119l225 119l43 -96l-268 -209z" />
<glyph unicode="&#x165;" horiz-adv-x="802" d="M39 791v149h127v207l178 100v-307h240v-149h-240v-478q0 -92 41 -134t119 -42q29 0 47 2t35 6v-145q-35 -6 -111 -6q-66 0 -123 19.5t-98 57.5t-64.5 95t-23.5 135v490h-127zM659 952v434q16 16 41 24.5t49 8.5q53 0 87 -30t34 -89q0 -25 -11 -60.5t-24 -58.5l-129 -229 h-47z" />
<glyph unicode="&#x166;" horiz-adv-x="987" d="M35 1231v166h917v-166h-370v-443h295v-163h-295v-625h-179v625h-286v163h286v443h-368z" />
<glyph unicode="&#x167;" horiz-adv-x="679" d="M45 823v156h131v217l178 98v-315h250v-156h-250v-170h199v-143h-199v-184q0 -96 44 -139.5t126 -43.5q27 0 46.5 2t35.5 7v-152q-18 -4 -43.5 -5t-66.5 -1q-68 0 -126.5 19.5t-101.5 59.5t-67.5 100t-24.5 140v197h-108v143h108v170h-131z" />
<glyph unicode="&#x168;" horiz-adv-x="1314" d="M141 500v897h178v-893q0 -162 97 -262q104 -98 241 -99q141 0 240 99q98 98 98 262v893h179v-897q0 -225 -154 -373q-152 -145 -363 -145q-209 0 -364 145q-152 145 -152 373zM403 1602q0 61 41 112t107 51q55 0 108 -32q53 -33 86 -33q23 0 43.5 16.5t32.5 32.5l13 18 l84 -43q0 -61 -42 -111t-108 -50q-55 0 -109 32q-53 33 -86 33q-23 0 -43 -16.5t-32 -32.5l-11 -18z" />
<glyph unicode="&#x169;" horiz-adv-x="1054" d="M115 352v588h176v-565q0 -117 54 -180.5t142 -63.5q72 0 138.5 33t119.5 92h-2v684h179v-940h-64l-92 80q-43 -35 -122 -67.5t-183 -32.5q-80 0 -144.5 28.5t-109.5 78.5t-68.5 118.5t-23.5 146.5zM291 1204q0 61 41 112.5t106 51.5q53 0 109 -33q59 -33 86 -32 q23 0 44.5 16t31.5 33l12 18l84 -43q0 -61 -40.5 -111.5t-106.5 -50.5q-57 0 -111 33q-53 33 -84 33q-23 0 -44.5 -16.5t-31.5 -32.5l-12 -19z" />
<glyph unicode="&#x16a;" horiz-adv-x="1314" d="M141 500v897h178v-893q0 -162 97 -262q104 -98 241 -99q141 0 240 99q98 98 98 262v893h179v-897q0 -225 -154 -373q-152 -145 -363 -145q-209 0 -364 145q-152 145 -152 373zM444 1591v144h428v-144h-428z" />
<glyph unicode="&#x16b;" horiz-adv-x="1054" d="M115 352v588h176v-565q0 -117 54 -180.5t142 -63.5q72 0 138.5 33t119.5 92h-2v684h179v-940h-64l-92 80q-43 -35 -122 -67.5t-183 -32.5q-80 0 -144.5 28.5t-109.5 78.5t-68.5 118.5t-23.5 146.5zM334 1194v143h426v-143h-426z" />
<glyph unicode="&#x16c;" horiz-adv-x="1314" d="M141 500v897h178v-893q0 -82 27 -148.5t73 -113.5t107.5 -73t130.5 -26q72 0 133.5 27t107.5 75t71.5 113.5t25.5 145.5v893h179v-897q0 -113 -41 -208t-112 -164t-165 -107.5t-199 -38.5q-104 0 -198 37.5t-165 106.5t-112 164t-41 210zM397 1710l74 78q8 -16 27.5 -38 t60.5 -55q49 -33 102 -32q25 0 50.5 8t48 21.5t40 29.5t29.5 31l23 35l75 -78l-4 -6q-4 -8 -11 -21.5t-24 -34.5q-8 -10 -23 -26.5t-28 -28.5q-29 -25 -76 -44t-100 -19q-55 0 -99 19t-76 45t-52.5 53.5t-28.5 45.5z" />
<glyph unicode="&#x16d;" horiz-adv-x="1054" d="M115 352v588h176v-565q0 -117 54 -180.5t142 -63.5q72 0 138.5 33t119.5 92h-2v684h179v-940h-64l-92 80q-43 -35 -122 -67.5t-183 -32.5q-80 0 -144.5 28.5t-109.5 78.5t-68.5 118.5t-23.5 146.5zM285 1313l74 78q8 -16 27.5 -38t60.5 -55q49 -33 102 -32q25 0 50.5 8 t48 21.5t40 29.5t29.5 31l23 35l75 -78l-4 -6q-4 -8 -11 -21.5t-24 -34.5q-8 -10 -23 -26.5t-28 -28.5q-29 -25 -76 -44t-100 -19q-55 0 -99 19t-76 45t-52.5 53.5t-28.5 45.5z" />
<glyph unicode="&#x16e;" horiz-adv-x="1314" d="M141 500v897h178v-893q0 -162 97 -262q104 -98 241 -99q141 0 240 99q98 98 98 262v893h179v-897q0 -225 -154 -373q-152 -145 -363 -145q-209 0 -364 145q-152 145 -152 373zM442 1681q0 88 66 154q63 63 151 63q84 0 152 -63q66 -66 66 -154q0 -84 -66 -155 q-66 -61 -152 -62q-41 0 -80.5 15.5t-70.5 46.5q-66 72 -66 155zM563 1681q0 -49 27 -75q14 -16 32.5 -23.5t36.5 -7.5q39 0 70 31q27 31 27 75q0 45 -27 76q-31 31 -70 31q-18 0 -36.5 -7.5t-32.5 -23.5q-14 -14 -20.5 -33.5t-6.5 -42.5z" />
<glyph unicode="&#x16f;" horiz-adv-x="1054" d="M115 352v588h176v-565q0 -117 54 -180.5t142 -63.5q72 0 138.5 33t119.5 92h-2v684h179v-940h-64l-92 80q-43 -35 -122 -67.5t-183 -32.5q-80 0 -144.5 28.5t-109.5 78.5t-68.5 118.5t-23.5 146.5zM332 1284q0 90 63 154q63 63 152 63q86 0 154 -63q63 -63 63 -154 q0 -90 -63 -156q-66 -61 -154 -61q-91 0 -152 61q-63 66 -63 156zM451 1284q0 -49 26 -76q14 -16 33 -23t37 -7q41 0 72 30q27 31 26 76q0 45 -26 76q-31 31 -72 31q-18 0 -37 -7.5t-33 -23.5q-14 -14 -20 -33.5t-6 -42.5z" />
<glyph unicode="&#x170;" horiz-adv-x="1314" d="M141 500v897h178v-893q0 -82 27 -148.5t73 -113.5t107.5 -73t130.5 -26q72 0 133.5 27t107.5 75t71.5 113.5t25.5 145.5v893h179v-897q0 -113 -41 -208t-112 -164t-165 -107.5t-199 -38.5q-104 0 -198 37.5t-165 106.5t-112 164t-41 210zM412 1583l242 268l102 -115 l-268 -233zM731 1583l242 268l103 -115l-269 -233z" />
<glyph unicode="&#x171;" horiz-adv-x="1110" d="M115 352v588h176v-565q0 -117 54 -180.5t142 -63.5q72 0 138.5 33t119.5 92h-2v684h179v-940h-64l-92 80q-43 -35 -122 -67.5t-183 -32.5q-80 0 -144.5 28.5t-109.5 78.5t-68.5 118.5t-23.5 146.5zM313 1186l242 268l102 -115l-268 -233zM632 1186l242 268l103 -115 l-269 -233z" />
<glyph unicode="&#x172;" horiz-adv-x="1314" d="M141 500v897h178v-893q0 -162 97 -262q104 -98 241 -99q141 0 240 99q98 98 98 262v893h179v-897q0 -135 -58.5 -247t-161.5 -181q-29 -20 -58.5 -48t-61.5 -63q-63 -70 -64 -133q0 -57 76 -57q16 0 38.5 6t35.5 10l22 8v-127q-47 -33 -127 -33q-92 0 -146.5 46.5 t-54.5 115.5q0 111 142 195q-29 -4 -52.5 -7t-46.5 -3q-209 0 -364 145q-152 145 -152 373z" />
<glyph unicode="&#x173;" horiz-adv-x="1114" d="M123 367v612h176v-588q0 -123 57.5 -188.5t151.5 -65.5q78 0 146.5 35t125.5 94h-2v713h178v-997q-20 -10 -43.5 -26.5t-52.5 -39.5q-23 -20 -37 -43t-14 -45q0 -57 76 -57q16 0 38.5 6t34.5 10l23 8v-127q-47 -33 -127 -33q-92 0 -146.5 46.5t-54.5 115.5q0 37 17.5 69 t47.5 60.5t66.5 54t75.5 50.5l-61 55q-47 -35 -128 -70.5t-192 -35.5q-84 0 -149.5 29.5t-111.5 81.5t-70.5 123t-24.5 153z" />
<glyph unicode="&#x174;" horiz-adv-x="1861" d="M53 1397h191l297 -1000q92 238 179 472.5t179 471.5h62l360 -944q76 252 148.5 500t148.5 500h190l-438 -1397h-63l-375 973l-377 -973h-63zM662 1616l268 208l268 -208l-45 -97l-223 119l-223 -119z" />
<glyph unicode="&#x175;" horiz-adv-x="1544" d="M47 940h182l228 -618l252 583h65l254 -583l223 618h185l-359 -940h-67l-269 580l-268 -580h-67zM504 1219l268 208l268 -208l-45 -97l-223 119l-223 -119z" />
<glyph unicode="&#x176;" horiz-adv-x="1122" d="M14 1397h191l358 -676l355 676h190l-459 -836v-561h-176v561q-111 205 -229.5 418t-229.5 418zM291 1616l268 208l268 -208l-45 -97l-223 119l-223 -119z" />
<glyph unicode="&#x177;" horiz-adv-x="987" d="M10 940h187l282 -670l279 670h178l-561 -1333h-176l190 459q-92 213 -189.5 437t-189.5 437zM223 1219l268 208l268 -208l-45 -97l-223 119l-223 -119z" />
<glyph unicode="&#x178;" horiz-adv-x="1122" d="M14 1397h191l358 -676l355 676h190l-459 -836v-561h-176v561q-111 205 -229.5 418t-229.5 418zM309 1577v176h176v-176h-176zM639 1577v176h174v-176h-174z" />
<glyph unicode="&#x179;" horiz-adv-x="1075" d="M88 0v66l662 1167h-631v164h885v-66l-662 -1167h658v-164h-912zM344 1616l336 211l80 -156l-373 -158z" />
<glyph unicode="&#x17a;" horiz-adv-x="890" d="M47 0v55l506 736h-469v149h725v-53l-506 -737h500v-150h-756zM256 1219l336 211l80 -156l-373 -158z" />
<glyph unicode="&#x17b;" horiz-adv-x="1075" d="M88 0v66l662 1167h-631v164h885v-66l-662 -1167h658v-164h-912zM416 1659q0 57 39 96t94 39t94 -39t39 -96q0 -23 -8 -45.5t-25 -38.5h-206q-27 33 -27 84z" />
<glyph unicode="&#x17c;" horiz-adv-x="890" d="M47 0v55l506 736h-469v149h725v-53l-506 -737h500v-150h-756zM309 1262q0 57 39 96t94 39t94 -39t39 -96q0 -23 -8 -45.5t-25 -38.5h-206q-27 33 -27 84z" />
<glyph unicode="&#x17d;" horiz-adv-x="1075" d="M88 0v66l662 1167h-631v164h885v-66l-662 -1167h658v-164h-912zM283 1728l45 96l223 -118l223 118l45 -96l-268 -209z" />
<glyph unicode="&#x17e;" horiz-adv-x="890" d="M47 0v55l506 736h-469v149h725v-53l-506 -737h500v-150h-756zM176 1331l45 96l223 -118l223 118l45 -96l-268 -209z" />
<glyph unicode="&#x192;" d="M90 621v155h326v307q0 135 84 226q82 88 196 88h189v-168h-152q-57 0 -95 -39t-38 -111v-303h379v-155h-383v-141.5t1 -169.5t1 -169v-139q0 -63 -20.5 -120.5t-55.5 -104.5q-37 -47 -90 -73t-119 -26h-161v166h145q51 0 85 48.5t34 125.5v603h-326z" />
<glyph unicode="&#x1fc;" horiz-adv-x="1853" d="M6 0l950 1397h828v-164h-635v-442h547v-166h-547v-461h651v-164h-827v297h-561l-197 -297h-209zM520 457h453v155.5t1 185t1 185.5v156q-115 -170 -227.5 -341t-227.5 -341zM922 1616l336 211l80 -156l-373 -158z" />
<glyph unicode="&#x1fd;" horiz-adv-x="1560" d="M84 272q0 76 33 133.5t86 97.5t123.5 60.5t146.5 20.5q59 0 117.5 -12.5t89.5 -24.5v69q0 98 -61.5 141.5t-161.5 43.5q-88 0 -163 -28t-114 -60v176q35 23 118 47.5t179 24.5q102 0 183 -31t131 -92q59 57 139 88.5t172 31.5q102 0 179 -39.5t128 -103t76.5 -143.5 t25.5 -160q0 -74 -10 -115h-645v-110q37 -68 104.5 -112t153.5 -44q70 0 158 24.5t160 65.5v-162q-59 -41 -143.5 -59t-182.5 -18q-102 0 -186 36.5t-146 100.5q-57 -47 -107.5 -75t-97.5 -42t-90 -18t-86 -4q-66 0 -122 19t-98 57t-65.5 92.5t-23.5 123.5zM260 272 q0 -78 54.5 -113.5t138.5 -35.5q55 0 117.5 25.5t109.5 68.5v176q-18 10 -59 26.5t-109 16.5q-51 0 -96 -10t-80 -30.5t-55.5 -51.5t-20.5 -72zM621 1219l336 211l80 -156l-373 -158zM856 545h490q-2 49 -19.5 97t-48.5 86t-76 61.5t-102 23.5q-90 0 -149.5 -48t-94.5 -118 v-10v-92z" />
<glyph unicode="&#x1fe;" horiz-adv-x="1558" d="M84 700q0 291 205 508q199 211 489 211q203 0 373 -114q29 35 55.5 73.5t55.5 73.5l98 -82l-109 -141h-2q225 -213 226 -529q0 -297 -205 -510q-201 -209 -492 -208q-207 0 -375 112q-29 -35 -55 -73.5t-55 -73.5l-96 82l108 143h2q-223 211 -223 528zM258 702 q0 -117 39 -214t111 -175l643 856h2q-127 84 -275 84q-213 0 -368 -161q-152 -159 -152 -390zM506 233q121 -82 272 -81q215 0 369 159q151 158 151 391q0 227 -149 388q-160 -217 -320.5 -428t-320.5 -429h-2zM565 1616l336 211l80 -156l-373 -158z" />
<glyph unicode="&#x1ff;" horiz-adv-x="1081" d="M72 469q0 104 36.5 193.5t101 156t149.5 103t182 36.5q33 0 66.5 -5t64.5 -15q10 25 24.5 54.5t24.5 56.5h147l-69 -170h-2q96 -66 154.5 -173.5t58.5 -236.5q0 -100 -37 -189.5t-100.5 -156t-148.5 -105t-183 -38.5q-29 0 -58.5 4t-58.5 10q-12 -31 -28.5 -64.5 t-26.5 -64.5h-148l76 182h2q-104 66 -165.5 176.5t-61.5 245.5zM231 469q0 -86 35 -157.5t94 -116.5l254 602q-34 12 -73 12q-63 0 -119.5 -27.5t-98.5 -73.5t-67 -107.5t-25 -131.5zM340 1219l336 211l80 -156l-373 -158zM477 135q33 -6 64 -6q66 0 122 27.5t98 75 t65.5 108.5t23.5 129q0 78 -32 146.5t-85 115.5l-252 -596h-4z" />
<glyph unicode="&#x218;" horiz-adv-x="1030" d="M109 86v186q27 -20 69.5 -41.5t94 -40t108.5 -29.5t115 -11q147 0 232 68.5t85 170.5q0 51 -20.5 89t-54 66.5t-79 51t-94.5 41.5l-155 55q-59 20 -113.5 50t-96.5 73t-66.5 101.5t-24.5 138.5q0 74 31.5 140.5t90 116.5t139.5 78.5t179 28.5q49 0 98 -8t94 -20.5 t84 -27.5t66 -30v-192q-53 39 -141 74.5t-187 35.5q-61 0 -111.5 -15t-86 -43t-55 -64.5t-19.5 -79.5q0 -84 58.5 -125t148.5 -72l184 -64q53 -18 108.5 -50.5t99.5 -82t72.5 -113t28.5 -143.5q0 -96 -36.5 -172.5t-102.5 -132t-156 -85t-198 -29.5q-119 0 -224.5 31.5 t-164.5 74.5zM402 -189q16 16 41.5 24.5t48.5 8.5q53 0 91 -32t38 -91q0 -27 -10.5 -59.5t-20.5 -58.5l-141 -349h-47v557z" />
<glyph unicode="&#x219;" horiz-adv-x="868" d="M117 700q0 115 85 185.5t218 70.5q92 0 164.5 -20.5t105.5 -42.5v-164q-39 31 -108.5 53.5t-132.5 22.5q-70 0 -115 -26.5t-45 -69.5q0 -47 32.5 -72t73.5 -41l172 -76q33 -14 67 -36.5t61.5 -55.5t46 -75t18.5 -97q0 -127 -95.5 -201.5t-254.5 -74.5q-86 0 -167 22.5 t-122 48.5v172q16 -12 50 -27.5t74 -28.5t81 -22.5t73 -9.5q82 0 134.5 31t52.5 86q0 47 -36 76.5t-77 48.5l-145 63q-31 12 -67 34t-68.5 53.5t-54 74.5t-21.5 98zM330 -121q16 16 41 24.5t49 8.5q53 0 87 -30t34 -89q0 -25 -11 -60.5t-24 -58.5l-129 -229h-47v434z" />
<glyph unicode="&#x2c6;" horiz-adv-x="528" d="M-4 1219l268 208l268 -208l-45 -97l-223 119l-223 -119z" />
<glyph unicode="&#x2c7;" horiz-adv-x="528" d="M-4 1331l45 96l223 -118l223 118l45 -96l-268 -209z" />
<glyph unicode="&#x2d8;" horiz-adv-x="522" d="M-4 1313l74 78q8 -16 27.5 -38t60.5 -55q49 -33 102 -32q25 0 50.5 8t48 21.5t40 29.5t29.5 31l23 35l75 -78l-4 -6q-4 -8 -11 -21.5t-24 -34.5q-8 -10 -23 -26.5t-28 -28.5q-29 -25 -76 -44t-100 -19q-55 0 -99 19t-76 45t-52.5 53.5t-28.5 45.5z" />
<glyph unicode="&#x2d9;" horiz-adv-x="186" d="M-43 1262q0 57 39 96t94 39t94 -39t39 -96q0 -23 -8 -45.5t-25 -38.5h-206q-27 33 -27 84z" />
<glyph unicode="&#x2da;" horiz-adv-x="423" d="M-4 1284q0 90 63 154q63 63 152 63q86 0 154 -63q63 -63 63 -154q0 -90 -63 -156q-66 -61 -154 -61q-91 0 -152 61q-63 66 -63 156zM115 1284q0 -49 26 -76q14 -16 33 -23t37 -7q41 0 72 30q27 31 26 76q0 45 -26 76q-31 31 -72 31q-18 0 -37 -7.5t-33 -23.5 q-14 -14 -20 -33.5t-6 -42.5z" />
<glyph unicode="&#x2db;" horiz-adv-x="319" d="M-4 -203q0 37 16.5 69t40 56.5t47 42t37.5 27.5l19 8h184q-23 -8 -56.5 -27.5t-80.5 -56.5q-23 -20 -37 -43t-14 -45q0 -57 75 -57q16 0 39 6t35 10l23 8v-127q-47 -33 -127 -33q-92 0 -146.5 46.5t-54.5 115.5z" />
<glyph unicode="&#x2dc;" horiz-adv-x="507" d="M-2 1204q0 61 41 112.5t106 51.5q53 0 109 -33q59 -33 86 -32q23 0 44.5 16t31.5 33l12 18l84 -43q0 -61 -40.5 -111.5t-106.5 -50.5q-57 0 -111 33q-53 33 -84 33q-23 0 -44.5 -16.5t-31.5 -32.5l-12 -19z" />
<glyph unicode="&#x2dd;" horiz-adv-x="659" d="M-2 1186l242 268l102 -115l-268 -233zM317 1186l242 268l103 -115l-269 -233z" />
<glyph unicode="&#x304;" horiz-adv-x="491" d="M35 1194v143h426v-143h-426z" />
<glyph unicode="&#x326;" horiz-adv-x="196" d="M4 -121q16 16 41 24.5t49 8.5q53 0 87 -30t34 -89q0 -25 -11 -60.5t-24 -58.5l-129 -229h-47v434z" />
<glyph unicode="&#x3c0;" horiz-adv-x="497" d="M156 0v979h186v-979h-186zM156 0v979h186v-979h-186z" />
<glyph unicode="&#x1e80;" horiz-adv-x="1861" d="M53 1397h191l297 -1000q92 238 179 472.5t179 471.5h62l360 -944q76 252 148.5 500t148.5 500h190l-438 -1397h-63l-375 973l-377 -973h-63zM721 1671l80 156l336 -213l-41 -101z" />
<glyph unicode="&#x1e81;" horiz-adv-x="1544" d="M47 940h182l228 -618l252 583h65l254 -583l223 618h185l-359 -940h-67l-269 580l-268 -580h-67zM563 1274l80 156l336 -213l-41 -101z" />
<glyph unicode="&#x1e82;" horiz-adv-x="1861" d="M53 1397h191l297 -1000q92 238 179 472.5t179 471.5h62l360 -944q76 252 148.5 500t148.5 500h190l-438 -1397h-63l-375 973l-377 -973h-63zM721 1616l336 211l80 -156l-373 -158z" />
<glyph unicode="&#x1e83;" horiz-adv-x="1544" d="M47 940h182l228 -618l252 583h65l254 -583l223 618h185l-359 -940h-67l-269 580l-268 -580h-67zM563 1219l336 211l80 -156l-373 -158z" />
<glyph unicode="&#x1e84;" horiz-adv-x="1861" d="M53 1397h191l297 -1000q92 238 179 472.5t179 471.5h62l360 -944q76 252 148.5 500t148.5 500h190l-438 -1397h-63l-375 973l-377 -973h-63zM678 1577v176h176v-176h-176zM1008 1577v176h174v-176h-174z" />
<glyph unicode="&#x1e85;" horiz-adv-x="1544" d="M47 940h182l228 -618l252 583h65l254 -583l223 618h185l-359 -940h-67l-269 580l-268 -580h-67zM520 1180v176h176v-176h-176zM850 1180v176h174v-176h-174z" />
<glyph unicode="&#x1ef2;" horiz-adv-x="1122" d="M14 1397h191l358 -676l355 676h190l-459 -836v-561h-176v561q-111 205 -229.5 418t-229.5 418zM352 1671l80 156l336 -213l-41 -101z" />
<glyph unicode="&#x1ef3;" horiz-adv-x="987" d="M14 979h187l299 -707l295 707h176l-584 -1389h-176l199 478zM293 1274l80 156l338 -211l-43 -103z" />
<glyph unicode="&#x2000;" horiz-adv-x="961" />
<glyph unicode="&#x2001;" horiz-adv-x="1923" />
<glyph unicode="&#x2002;" horiz-adv-x="961" />
<glyph unicode="&#x2003;" horiz-adv-x="1923" />
<glyph unicode="&#x2004;" horiz-adv-x="641" />
<glyph unicode="&#x2005;" horiz-adv-x="480" />
<glyph unicode="&#x2006;" horiz-adv-x="320" />
<glyph unicode="&#x2007;" horiz-adv-x="320" />
<glyph unicode="&#x2008;" horiz-adv-x="240" />
<glyph unicode="&#x2009;" horiz-adv-x="384" />
<glyph unicode="&#x200a;" horiz-adv-x="106" />
<glyph unicode="&#x2010;" horiz-adv-x="704" d="M113 473v160h479v-160h-479z" />
<glyph unicode="&#x2011;" horiz-adv-x="704" d="M113 473v160h479v-160h-479z" />
<glyph unicode="&#x2012;" horiz-adv-x="704" d="M113 473v160h479v-160h-479z" />
<glyph unicode="&#x2013;" horiz-adv-x="921" d="M-4 475v158h930v-158h-930z" />
<glyph unicode="&#x2014;" horiz-adv-x="1845" d="M-4 475v158h1853v-158h-1853z" />
<glyph unicode="&#x2018;" horiz-adv-x="413" d="M84 950q0 27 9 59.5t20 59.5l141 348h47v-557q-16 -16 -40.5 -24.5t-47.5 -8.5q-53 0 -91 32t-38 91z" />
<glyph unicode="&#x2019;" horiz-adv-x="413" d="M113 827v557q16 16 41.5 24.5t48.5 8.5q53 0 91 -32t38 -91q0 -27 -10.5 -59.5t-20.5 -58.5l-141 -349h-47z" />
<glyph unicode="&#x201a;" horiz-adv-x="442" d="M84 -203l92 185v18h-63v207h206v-225l-151 -232z" />
<glyph unicode="&#x201c;" horiz-adv-x="749" d="M84 950q0 27 9 59.5t20 59.5l141 348h47v-557q-16 -16 -40.5 -24.5t-47.5 -8.5q-53 0 -91 32t-38 91zM418 950q0 27 9 59.5t19 59.5l144 348h47v-557q-39 -33 -90 -33q-53 0 -91 32t-38 91z" />
<glyph unicode="&#x201d;" horiz-adv-x="749" d="M113 827v557q16 16 41.5 24.5t48.5 8.5q53 0 91 -32t38 -91q0 -27 -10.5 -59.5t-20.5 -58.5l-141 -349h-47zM446 827v557q39 33 91 33q53 0 91 -32t38 -91q0 -27 -9.5 -59.5t-19.5 -58.5l-143 -349h-48z" />
<glyph unicode="&#x201e;" horiz-adv-x="776" d="M84 -203l92 185v18h-63v207h206v-225l-151 -232zM418 -203l94 185v18h-66v207h207v-225l-151 -232z" />
<glyph unicode="&#x2020;" horiz-adv-x="1028" d="M74 762v186l389 -49l-47 498h196l-45 -498l387 49v-186l-387 45l45 -1143h-196l47 1143z" />
<glyph unicode="&#x2021;" horiz-adv-x="1030" d="M74 762v186l389 -49l-47 498h196l-45 -498l387 49v-186l-387 45l21 -266l-21 -267l389 45v-186l-389 49l45 -497h-196l47 497l-387 -49v186l387 -45l-21 267l21 266z" />
<glyph unicode="&#x2022;" horiz-adv-x="817" d="M113 696q0 127 86 215q84 90 209 90q123 0 206 -90q91 -90 91 -215q0 -127 -89 -217q-84 -90 -208 -90q-127 0 -209 88q-86 88 -86 219z" />
<glyph unicode="&#x2023;" horiz-adv-x="1353" d="M190 66v1273l1049 -641z" />
<glyph unicode="&#x2026;" horiz-adv-x="1413" d="M131 0v207h207v-207h-207zM602 0v207h207v-207h-207zM1073 0v207h207v-207h-207z" />
<glyph unicode="&#x202f;" horiz-adv-x="384" />
<glyph unicode="&#x2030;" horiz-adv-x="2142" d="M92 1094q0 131 92 229q92 94 219 94q61 0 116.5 -24.5t101.5 -69.5q43 -47 68.5 -106.5t25.5 -122.5q0 -129 -92 -228q-88 -94 -220 -94q-129 0 -221 94q-90 101 -90 228zM231 0l848 1397h160l-848 -1397h-160zM244 1094q0 -37 13 -69t34.5 -55.5t50.5 -36.5t61 -13 q66 0 113 51t47 123q0 74 -46 125t-114 51t-113.5 -51.5t-45.5 -124.5zM756 301q0 131 92 229q92 94 219 95q129 0 217 -95q94 -100 94 -229t-92 -227q-88 -94 -219 -94q-129 0 -221 94q-90 100 -90 227zM907 301q0 -37 13.5 -68.5t35 -55t50 -37t61.5 -13.5q66 0 113 51 t47 123q0 74 -46 125t-114 51t-114 -51t-46 -125zM1448 301q0 133 90 229q92 94 219 95q63 0 117.5 -25t99.5 -70q43 -47 68.5 -106t25.5 -123q0 -61 -23.5 -120.5t-68.5 -106.5q-45 -45 -99 -69.5t-120 -24.5q-129 0 -221 94q-88 96 -88 227zM1597 301q0 -37 13.5 -68.5 t35 -55t50 -37t61.5 -13.5q66 0 114 51t48 123q0 74 -47 125t-115 51t-114 -51t-46 -125z" />
<glyph unicode="&#x2039;" horiz-adv-x="600" d="M74 481l272 439h180l-272 -439l272 -438h-180z" />
<glyph unicode="&#x203a;" horiz-adv-x="600" d="M74 43l272 438l-272 439h180l272 -439l-272 -438h-180z" />
<glyph unicode="&#x2044;" horiz-adv-x="466" d="M-219 -20l754 1435h153l-751 -1435h-156z" />
<glyph unicode="&#x205f;" horiz-adv-x="480" />
<glyph unicode="&#x2070;" horiz-adv-x="702" d="M74 1348q0 190 76 309q80 119 200 119q121 0 201 -119q78 -117 78 -309q0 -193 -78 -310q-80 -119 -201 -118q-121 0 -200 118q-76 119 -76 310zM221 1348q0 -135 36 -211t93 -76t93 76t36 211q0 131 -35.5 207.5t-93.5 76.5q-57 0 -93 -76.5t-36 -207.5z" />
<glyph unicode="&#x2074;" horiz-adv-x="669" d="M35 1126l297 635h166l-232 -497h129v135h148v-135h82v-138h-82v-196h-148v196h-360z" />
<glyph unicode="&#x2075;" horiz-adv-x="634" d="M74 979v160q123 -82 198 -82q63 0 100.5 36.5t37.5 92.5q0 55 -45.5 96t-116.5 43l-150 -18l49 448h375v-139h-241q-4 -37 -8.5 -78t-8.5 -78h15q63 0 115 -20.5t89 -57t57.5 -87t20.5 -107.5q0 -113 -82 -195q-82 -78 -196 -78q-53 0 -105.5 15.5t-79.5 32.5z" />
<glyph unicode="&#x2076;" horiz-adv-x="659" d="M74 1221q0 154 85 302t244 261l89 -113q-84 -53 -141.5 -119.5t-90.5 -138.5q23 6 48.5 10t43.5 4q49 0 92 -18t75 -52t49.5 -80t17.5 -101q0 -106 -74 -183q-74 -74 -182 -73q-117 0 -186.5 81.5t-69.5 219.5zM219 1210q0 -70 33 -110.5t80 -40.5t75.5 32.5t28.5 86.5 q0 47 -30.5 79.5t-75.5 32.5q-63 0 -109 -39h2q-4 -16 -4 -41z" />
<glyph unicode="&#x2077;" horiz-adv-x="610" d="M53 1620v141h543l-354 -831h-166l297 690h-320z" />
<glyph unicode="&#x2078;" horiz-adv-x="684" d="M74 1163q0 55 26.5 105.5t49.5 70.5l24 19q-10 8 -23.5 22.5t-35.5 55.5q-23 49 -23 94q0 100 74 174q70 70 176 70t176 -70q74 -74 74 -174q0 -47 -20.5 -91t-41.5 -65l-18 -18q12 -6 28.5 -22.5t43.5 -63.5q26 -48 26 -107q0 -53 -20.5 -98t-55 -77t-85 -50t-107.5 -18 t-106.5 18t-85 51t-56 77t-20.5 97zM223 1169q0 -25 7.5 -46t23.5 -36q16 -16 40.5 -23t47.5 -7q51 -1 86 30q16 14 23.5 36t7.5 46q0 51 -31 80q-37 33 -86 33q-51 0 -88 -33q-31 -29 -31 -80zM242 1528q-4 -47 29.5 -76t74.5 -29q18 0 32.5 4.5t22.5 14.5q23 23 32 44 t9 44q0 41 -26.5 72.5t-73.5 31.5q-43 0 -71.5 -30.5t-28.5 -75.5z" />
<glyph unicode="&#x2079;" horiz-adv-x="659" d="M74 1518q0 106 73 182q74 76 183 76q117 0 186.5 -83t69.5 -220q0 -154 -86 -302.5t-246 -261.5l-86 113q84 51 141.5 116.5t87.5 141.5q-45 -14 -90 -14q-49 0 -92 18.5t-74.5 52t-49 79.5t-17.5 102zM221 1516q0 -47 31 -79t78 -32q57 0 106 37h-2q6 25 6 41 q0 70 -32.5 110.5t-79.5 40.5t-77 -32.5t-30 -85.5z" />
<glyph unicode="&#x207d;" horiz-adv-x="434" d="M92 1346q0 289 203 577l104 -65q-158 -264 -157 -512q0 -250 157 -517l-106 -63q-201 291 -201 580z" />
<glyph unicode="&#x207e;" horiz-adv-x="434" d="M35 829q78 135 118 262.5t40 254.5t-40 251.5t-118 260.5l102 65q203 -285 203 -577q0 -293 -201 -580z" />
<glyph unicode="&#x2080;" horiz-adv-x="702" d="M74 113q0 190 76 309q80 119 200 119q121 0 201 -119q78 -117 78 -309q0 -193 -78 -310q-80 -119 -201 -118q-121 0 -200 118q-76 119 -76 310zM221 113q0 -135 36 -211t93 -76t93 76t36 211q0 131 -35.5 207.5t-93.5 76.5q-57 0 -93 -76.5t-36 -207.5z" />
<glyph unicode="&#x2081;" horiz-adv-x="454" d="M35 274v154l176 98h131v-831h-149v665z" />
<glyph unicode="&#x2082;" horiz-adv-x="679" d="M74 -305l162 227q37 51 62.5 88t39.5 60q31 43 59 108q29 68 29 115t-29.5 77.5t-77.5 30.5q-35 0 -85 -20.5t-80 -40.5l-35 -25v162q98 68 209 68q113 0 184.5 -68.5t71.5 -181.5q0 -94 -56 -193q-25 -45 -76 -118.5t-108 -145.5h262v-143h-532z" />
<glyph unicode="&#x2083;" horiz-adv-x="612" d="M53 -90q119 -84 209 -84q51 0 86 30.5t35 82.5q0 53 -42 84.5t-124 31.5v140q76 0 113 30.5t37 79.5q0 39 -26 65.5t-65 26.5q-41 0 -89 -14t-76 -31l-33 -18v149q96 57 207 58q104 0 169.5 -63.5t65.5 -162.5q0 -41 -22.5 -87t-44.5 -68h2l-21 -25h-2q106 -76 107 -196 q0 -55 -20.5 -101.5t-57.5 -80t-87 -53t-110 -19.5q-53 0 -105.5 14t-76.5 31l-29 14v166z" />
<glyph unicode="&#x2084;" horiz-adv-x="669" d="M35 -109l297 635h166l-232 -497h129v135h148v-135h82v-138h-82v-196h-148v196h-360z" />
<glyph unicode="&#x2085;" horiz-adv-x="634" d="M74 -96q123 -82 198 -82q63 0 100.5 37t37.5 92t-45.5 96t-116.5 43l-150 -18l49 448h375v-139h-241q-4 -37 -8.5 -78t-8.5 -78h15q63 0 115 -20.5t89 -57t57.5 -87t20.5 -107.5q0 -113 -82 -195q-82 -78 -196 -77q-53 0 -105.5 15t-79.5 30l-24 18v160z" />
<glyph unicode="&#x2086;" horiz-adv-x="659" d="M74 -14q0 154 85 302t244 261l89 -113q-84 -53 -141.5 -119.5t-90.5 -138.5q23 6 48.5 10.5t43.5 4.5q49 0 92 -18.5t75 -52.5t49.5 -80t17.5 -101q0 -106 -74 -183q-74 -74 -182 -73q-117 0 -186.5 81.5t-69.5 219.5zM219 -25q0 -70 33 -110.5t80 -40.5t75.5 32.5 t28.5 86.5q0 47 -30.5 79.5t-75.5 32.5q-63 0 -109 -39h2q-4 -16 -4 -41z" />
<glyph unicode="&#x2087;" horiz-adv-x="610" d="M53 385v141h543l-354 -831h-166l297 690h-320z" />
<glyph unicode="&#x2088;" horiz-adv-x="684" d="M74 -72q0 55 26.5 105.5t49.5 68.5l24 21q-10 8 -23.5 22.5t-35.5 55.5q-23 49 -23 94q0 100 74 174q70 70 176 70t176 -70q74 -74 74 -174q0 -47 -20.5 -91t-41.5 -65l-18 -18q12 -6 28.5 -22.5t43.5 -63.5q26 -48 26 -107q0 -53 -20.5 -98t-55 -77t-85 -50t-107.5 -18 t-106.5 18t-85 51t-56 77t-20.5 97zM223 -66q0 -53 31 -79q16 -16 40.5 -24.5t47.5 -8.5t46.5 8.5t39.5 24.5q31 27 31 79q0 51 -31 80q-37 33 -86 33q-51 0 -88 -33q-31 -29 -31 -80zM242 293q-4 -47 29.5 -76t74.5 -29q18 0 32.5 4.5t22.5 14.5q23 23 32 44t9 44 q0 41 -26.5 72.5t-73.5 31.5q-43 0 -71.5 -30.5t-28.5 -75.5z" />
<glyph unicode="&#x2089;" horiz-adv-x="659" d="M74 283q0 106 73 182q74 76 183 76q117 0 186.5 -83t69.5 -220q0 -154 -86 -302.5t-246 -261.5l-86 113q84 51 141.5 116.5t87.5 141.5q-45 -14 -90 -14q-49 0 -92 18.5t-74.5 52t-49 79.5t-17.5 102zM221 281q0 -47 31 -79t78 -32q57 0 106 37h-2q6 25 6 41 q0 70 -32.5 110.5t-79.5 40.5t-77 -32.5t-30 -85.5z" />
<glyph unicode="&#x208d;" horiz-adv-x="434" d="M92 111q0 289 203 577l104 -65q-158 -264 -157 -512q0 -250 157 -517l-106 -63q-201 291 -201 580z" />
<glyph unicode="&#x208e;" horiz-adv-x="434" d="M35 -406q78 135 118 262.5t40 254.5t-40 251.5t-118 260.5l102 65q203 -285 203 -577q0 -293 -201 -580z" />
<glyph unicode="&#x20ac;" d="M-6 485l47 160h80q-2 10 -2 24.5v30.5v42.5t2 31.5h-127l47 160h109q31 106 90 194.5t139 153t176 100t203 35.5q70 0 128 -7t81 -17q6 -4 14 -7.5t14 -5.5v-176q-51 25 -110.5 36t-126.5 11q-70 0 -133.5 -23.5t-116.5 -66.5t-97 -101.5t-73 -125.5h438v-160h-475 q-2 -12 -2 -31.5v-40.5v-32.5t2 -24.5h383v-160h-350q27 -74 69.5 -136t97 -107t119 -71t134.5 -26q78 0 143.5 19.5t93.5 30.5l15 6l14 4v-178q-104 -47 -266 -47q-111 0 -209.5 38.5t-177 106.5t-136 160t-88.5 200h-149z" />
<glyph unicode="&#x2113;" horiz-adv-x="901" d="M35 371q10 10 14 12q47 35 86 64.5t70 58.5h-2v500q0 227 86 337.5t225 110.5q127 0 195.5 -84t68.5 -231q0 -178 -101.5 -345t-305.5 -360h2v-28q2 -145 41 -205t110 -60q27 0 69 11.5t66 23.5l29 17v-170q-59 -43 -186 -43q-143 0 -211 86t-84 245v13l-107 -76z M373 635q127 135 187.5 253t60.5 249q0 176 -117 176q-57 0 -94 -65.5t-37 -209.5v-403z" />
<glyph unicode="&#x2116;" horiz-adv-x="2004" d="M162 0v1444l862 -1016v969h176v-1444l-862 1014v-967h-176zM1368 1098q0 129 84 219q80 88 205 88t209 -90q86 -88 86 -217q0 -133 -86 -221q-82 -88 -209 -89q-125 0 -205 89q-84 90 -84 221zM1423 526v136h475v-136h-475zM1503 1098q0 -74 44 -128.5t110 -54.5 q70 0 114 54.5t44 128.5q0 76 -44.5 128t-113.5 52q-66 0 -110 -52t-44 -128z" />
<glyph unicode="&#x2122;" horiz-adv-x="1574" d="M113 1264v131h520v-131h-193v-611h-137v611h-190zM729 653v742h135l205 -281q51 70 100.5 140.5t100.5 140.5h135v-742h-135v527l-201 -279l-207 279v-527h-133z" />
<glyph unicode="&#x2126;" horiz-adv-x="1619" />
<glyph unicode="&#x212e;" horiz-adv-x="1589" d="M92 715q0 301 207 518q205 215 498 215q291 0 493 -215q207 -217 207 -518v-25.5t-2 -19.5h-1122v-422h-2q186 -182 426 -182q225 0 415 172l64 -62q-203 -197 -479 -196q-293 0 -498 215q-207 219 -207 520zM371 1180h2v-420h848v418h2q-190 184 -426 184 q-238 0 -426 -182z" />
<glyph unicode="&#x2153;" horiz-adv-x="1488" d="M92 1143v153l178 99h131v-832h-151v666zM242 -20l751 1435h156l-754 -1435h-153zM909 49v166q119 -84 209 -84q51 0 86 31t35 82q0 53 -42 84.5t-124 31.5v140q76 0 113 30.5t37 79.5q0 39 -26 65.5t-64 26.5q-37 0 -86.5 -15t-79.5 -30l-33 -18v149q96 57 207 58 q104 0 169.5 -63.5t65.5 -161.5q0 -41 -21.5 -87.5t-45.5 -70.5l-21 -23q106 -78 107 -196q0 -55 -20.5 -101.5t-57.5 -80t-87 -53t-110 -19.5q-53 0 -105 15t-77 30z" />
<glyph unicode="&#x2154;" horiz-adv-x="1699" d="M92 563l162 228q74 100 104 147q16 23 30.5 49.5t27.5 59.5q29 59 28 114q0 47 -29.5 78t-76.5 31q-35 0 -84 -20.5t-80 -41.5l-37 -24v162q100 68 209 67q113 0 185.5 -68.5t72.5 -181.5q0 -92 -55 -192q-25 -45 -77 -118t-107 -146h262v-144h-535zM451 -20l753 1435 h154l-752 -1435h-155zM1122 49v166q113 -84 209 -84q51 0 86 31t35 82q0 53 -42 84.5t-124 31.5v140q74 0 112 30.5t38 79.5q0 39 -27 65.5t-66 26.5t-86 -15t-75 -30l-37 -16v147q100 57 207 58q106 0 170.5 -63.5t64.5 -161.5q0 -41 -21.5 -86.5t-43.5 -71.5l-23 -23 q109 -74 109 -196q0 -55 -20.5 -101.5t-57.5 -80t-87 -53t-110 -19.5q-53 0 -105 15t-79 30z" />
<glyph unicode="&#x215b;" horiz-adv-x="1536" d="M92 1143v153l178 99h131v-832h-151v666zM242 -20l751 1435h156l-754 -1435h-153zM905 223q0 55 25.5 105.5t50.5 68.5l25 21q-12 8 -24.5 22.5t-35.5 55.5q-23 49 -22 94q0 51 18.5 94t52.5 80q72 70 179 70q47 0 94 -19.5t80 -50.5q35 -35 55 -79t20 -95 q0 -47 -21.5 -92t-39.5 -64l-19 -18q12 -6 29 -22.5t43 -63.5q27 -54 27 -107t-20.5 -98t-55.5 -77t-85 -50t-107 -18t-106.5 18t-85.5 51t-56.5 77t-20.5 97zM1053 229q0 -49 32 -82q16 -16 41 -23t48 -7q51 -1 86 30q31 31 30 82q0 49 -30 80q-37 33 -86 33q-51 0 -89 -33 q-33 -33 -32 -80zM1073 588q-4 -47 29 -76t74 -29q18 0 35.5 7.5t31.5 23.5q31 33 31 76q0 41 -26.5 72.5t-73.5 31.5q-45 0 -73 -30.5t-28 -75.5z" />
<glyph unicode="&#x215c;" horiz-adv-x="1669" d="M92 612v166q119 -84 209 -84q51 0 86 31t35 82q0 53 -42 85t-124 32v139q76 0 113 30.5t37 80.5q0 39 -26 65.5t-65 26.5q-41 0 -89 -14.5t-76 -30.5l-33 -19v150q96 57 207 57q104 0 169.5 -63.5t65.5 -161.5q0 -41 -22.5 -87t-44.5 -69h2l-21 -24h-2q106 -76 107 -197 q0 -55 -20.5 -101.5t-57.5 -80t-87.5 -53t-109.5 -19.5q-53 0 -105.5 14.5t-76.5 30.5zM373 -20l753 1435h154l-752 -1435h-155zM1038 223q0 55 27 105.5t49 68.5l27 21q-12 6 -25.5 20.5t-36.5 57.5q-20 43 -20 94q0 102 71 174q72 70 177 70q106 0 176 -70q74 -72 73 -174 q0 -47 -20 -92t-39 -64l-20 -18q14 -6 29.5 -21.5t41.5 -64.5q29 -52 29 -107q0 -53 -20.5 -98t-56.5 -77t-86 -50t-107 -18t-106.5 18t-85.5 51t-56.5 77t-20.5 97zM1188 229q0 -47 33 -79q16 -16 39.5 -24.5t46.5 -8.5t46.5 8.5t39.5 24.5q31 27 30 79q0 51 -30 80 q-37 33 -86 33t-86 -33q-33 -33 -33 -80zM1206 588q-4 -47 30 -76t75 -29q18 0 32.5 4.5t22.5 14.5q23 23 32 44t9 44q0 41 -26.5 72.5t-73.5 31.5q-43 0 -72 -30.5t-29 -75.5z" />
<glyph unicode="&#x215d;" horiz-adv-x="1667" d="M92 610v162q127 -82 199 -82q63 0 101 37t38 92t-46 96t-118 43l-147 -18l49 449h373v-140h-242l-14 -155h12q129 0 206 -78t77 -195t-82 -194q-78 -78 -197 -78q-53 0 -105.5 15.5t-76.5 29.5zM371 -20l753 1435h154l-752 -1435h-155zM1036 223q0 55 25.5 105.5 t50.5 68.5l27 21q-12 6 -25.5 20.5t-36.5 57.5q-10 23 -15 46t-5 48q0 102 71 174q72 70 177 70q106 0 176 -70q74 -72 73 -174q0 -47 -20.5 -92t-38.5 -64l-20 -18q14 -6 29.5 -21.5t41.5 -64.5q29 -52 29 -107q0 -53 -20.5 -98t-56.5 -77t-86 -50t-107 -18t-106.5 18 t-85.5 51t-56.5 77t-20.5 97zM1186 229q0 -49 33 -82q16 -16 39.5 -23t46.5 -7q51 -1 86 30q16 14 23 36t7 46q0 51 -30 80q-37 33 -86 33t-86 -33q-33 -33 -33 -80zM1204 588q-4 -47 30 -76t75 -29q18 0 35.5 7.5t31.5 23.5q31 33 31 74t-27.5 73.5t-74.5 32.5 q-43 0 -72 -30.5t-29 -75.5z" />
<glyph unicode="&#x215e;" horiz-adv-x="1497" d="M92 1253v142h543l-354 -832h-166l297 690h-320zM203 -20l751 1435h156l-754 -1435h-153zM868 223q0 55 26 105.5t50 68.5l25 21q-12 8 -24.5 22.5t-35.5 55.5q-23 49 -22 94q0 102 71 174q72 70 179 70q106 0 174 -70q74 -72 73 -174q0 -47 -20.5 -92t-38.5 -64l-20 -18 q14 -6 29.5 -22.5t43.5 -63.5q27 -54 27 -107t-20.5 -98t-55.5 -77t-85 -50t-107 -18t-106.5 18t-85.5 51t-56.5 77t-20.5 97zM1016 229q0 -47 33 -79q16 -16 40.5 -24.5t47.5 -8.5t46.5 8.5t39.5 24.5q31 31 30 79q0 49 -30 80q-37 33 -86 33q-51 0 -88 -33 q-33 -33 -33 -80zM1034 588q-2 -23 7.5 -42.5t23.5 -33.5t33.5 -21.5t40.5 -7.5q18 0 35.5 7.5t31.5 23.5q31 33 31 76q0 41 -26.5 72.5t-73.5 31.5q-45 0 -74 -30.5t-29 -75.5z" />
<glyph unicode="&#x2190;" horiz-adv-x="1626" d="M115 696l452 478h238l-385 -390h1093v-176h-1093l385 -389h-238z" />
<glyph unicode="&#x2191;" horiz-adv-x="1140" d="M113 737v250l456 481l459 -481v-250l-371 406v-1143h-176v1143z" />
<glyph unicode="&#x2192;" horiz-adv-x="1626" d="M113 608v176h1093l-385 390h238l452 -478l-452 -477h-238l385 389h-1093z" />
<glyph unicode="&#x2193;" horiz-adv-x="1140" d="M113 410v249l368 -403v1141h176v-1143l371 405v-249l-459 -482z" />
<glyph unicode="&#x2194;" horiz-adv-x="1697" d="M115 694l350 369h233l-284 -281h870l-285 281h234l350 -369l-350 -368h-234l285 280h-870l284 -280h-233z" />
<glyph unicode="&#x2195;" horiz-adv-x="1089" d="M190 295v246l267 -299v907l-267 -299v246l355 372l354 -372v-246l-266 299v-907l266 299v-246l-354 -373z" />
<glyph unicode="&#x2196;" horiz-adv-x="1355" d="M190 543v671h648l163 -174l-532 13l772 -813l-121 -127l-768 809l13 -562z" />
<glyph unicode="&#x2197;" horiz-adv-x="1355" d="M115 240l772 813l-533 -13l166 174h645v-671l-174 -183l13 562l-768 -809z" />
<glyph unicode="&#x2198;" horiz-adv-x="1355" d="M115 1090l121 127l768 -809l-13 561l174 -183v-671h-645l-166 174l533 -13z" />
<glyph unicode="&#x2199;" horiz-adv-x="1355" d="M190 115v671l175 183l-13 -561l768 809l121 -127l-772 -814l532 13l-163 -174h-648z" />
<glyph unicode="&#x2202;" horiz-adv-x="1146" d="M92 412q0 217 152 370q147 154 344 154q86 0 152.5 -27.5t93.5 -56.5l18 -21q-23 215 -150 340t-337 132l8 167q281 0 465 -186q92 -96 144 -251.5t52 -360.5q0 -160 -38 -289t-107 -221q-72 -90 -169 -136t-218 -46q-174 0 -291 122q-119 125 -119 310zM262 424 q0 -117 74 -203h-2q75 -80 184 -80q150 0 244 125q98 125 98 314l-4 71l-4 6q-10 14 -30.5 35t-80.5 49q-70 35 -151 35q-127 0 -228 -106q-100 -100 -100 -246z" />
<glyph unicode="&#x2206;" horiz-adv-x="1220" d="M35 0l575 1466l576 -1466h-1151zM289 168h641l-320 876z" />
<glyph unicode="&#x220f;" horiz-adv-x="1302" d="M162 -354v1890h979v-1890h-174v1736h-633v-1736h-172z" />
<glyph unicode="&#x2211;" horiz-adv-x="1021" d="M53 -352l418 962q-92 225 -189.5 463t-189.5 463h875v-166h-619l307 -760l-338 -796h650v-166h-914z" />
<glyph unicode="&#x2212;" d="M113 586v162h843v-162h-843z" />
<glyph unicode="&#x2215;" horiz-adv-x="466" d="M-219 -20l754 1435h153l-751 -1435h-156z" />
<glyph unicode="&#x2219;" horiz-adv-x="471" d="M131 506v207h207v-207h-207z" />
<glyph unicode="&#x221a;" horiz-adv-x="1179" d="M14 438v162h285l190 -627q123 440 244 873.5t244 873.5h176l-653 -2248l-334 966h-152z" />
<glyph unicode="&#x221e;" d="M35 672q0 100 67 178q72 78 177 78q47 0 99 -29t83 -57q20 -16 37.5 -32.5t36.5 -37.5q41 45 72.5 72.5t84.5 54.5q57 29 109 29q104 0 168.5 -73t64.5 -183q0 -98 -69 -178q-68 -76 -174 -76q-74 0 -133.5 42t-125.5 115l-8 -8q-16 -18 -34.5 -37.5t-30.5 -29.5 q-14 -12 -36 -27.5t-48 -28.5q-53 -27 -109 -26q-49 0 -92 19.5t-73.5 53t-48 79.5t-17.5 102zM178 672q0 -49 28.5 -85t69.5 -36q61 0 168 119h-2q-111 125 -161 125q-45 0 -74 -38t-29 -85zM625 674l32 -33h-2q23 -25 38.5 -40t37.5 -32q16 -8 31.5 -13t25.5 -5 q43 0 73 38t30 83q0 49 -28.5 86t-69.5 37q-29 0 -72 -32t-96 -89z" />
<glyph unicode="&#x222b;" horiz-adv-x="718" d="M92 -203h84q41 0 69.5 34t28.5 75v1558q0 100 68 178t168 78h117v-149h-84q-41 0 -70 -33t-29 -76v-1558q0 -51 -18 -95.5t-51 -82.5q-68 -78 -164 -78h-119v149z" />
<glyph unicode="&#x2248;" d="M113 344v178q121 119 239 119q68 0 199 -70q133 -70 188 -69q84 0 217 129v-178q-119 -119 -227 -119q-68 0 -201 69q-66 35 -112.5 52.5t-75.5 17.5q-86 0 -227 -129zM113 713v178q121 119 239 119q68 0 199 -70q133 -70 188 -70q84 0 217 129v-178q-119 -119 -227 -119 q-68 0 -201 70q-66 35 -112.5 52.5t-75.5 17.5q-86 0 -227 -129z" />
<glyph unicode="&#x2260;" horiz-adv-x="1081" d="M113 385v164h284l105 246h-389v163h456l90 213h164l-90 -213h223v-163h-290l-105 -246h395v-164h-464q-23 -51 -43.5 -105.5t-42.5 -105.5h-164l86 211h-215z" />
<glyph unicode="&#x2264;" d="M113 111v161h843v-161h-843zM113 707v143l843 354v-180l-630 -246l630 -246v-180z" />
<glyph unicode="&#x2265;" d="M113 111v161h843v-161h-843zM113 352v180l632 246q-154 59 -316.5 123t-315.5 123v180l843 -354v-143z" />
<glyph unicode="&#x22c6;" horiz-adv-x="1732" d="M115 881h567q43 145 93 302.5t93 303.5l185 -606h565l-457 -353h2q45 -147 92.5 -294.5t92.5 -294.5l-480 364q-117 -88 -239.5 -182t-239.5 -182l180 587h2z" />
<glyph unicode="&#x25a0;" horiz-adv-x="1441" d="M190 143v1108h1061v-1108h-1061z" />
<glyph unicode="&#x25b2;" horiz-adv-x="1568" d="M156 150l675 1228l668 -1228h-1343z" />
<glyph unicode="&#x25b6;" horiz-adv-x="1353" d="M190 66v1273l1049 -641z" />
<glyph unicode="&#x25bc;" horiz-adv-x="1568" d="M113 1247h1343l-668 -1229z" />
<glyph unicode="&#x25c0;" horiz-adv-x="1353" d="M115 698l1048 641v-1273z" />
<glyph unicode="&#x25ca;" horiz-adv-x="1009" d="M74 700l432 844l430 -844l-430 -843zM256 700l250 -499q63 125 123.5 249.5t124.5 249.5l-248 500z" />
<glyph unicode="&#x25cb;" horiz-adv-x="1423" d="M113 696q0 123 48 238t128 205q86 84 194.5 134t229.5 50q123 0 229.5 -48t192.5 -136q80 -90 128 -205t48 -238q0 -125 -46 -238.5t-130 -205.5q-86 -86 -192.5 -134t-229.5 -48q-248 0 -424 182q-176 184 -176 444z" />
<glyph unicode="&#x25fc;" horiz-adv-x="942" d="M0 0v942h942v-942h-942z" />
<glyph unicode="&#x2666;" horiz-adv-x="1507" d="M115 696l641 672l637 -672l-637 -673z" />
<glyph unicode="&#xe01a;" horiz-adv-x="534" d="M57 1692l80 155l338 -211l-43 -102z" />
<glyph unicode="&#xe01b;" horiz-adv-x="534" d="M57 1636l338 211l80 -155l-375 -158z" />
<glyph unicode="&#xe01c;" horiz-adv-x="534" d="M-2 1636l268 209l269 -209l-46 -96l-223 119l-223 -119z" />
<glyph unicode="&#xe01d;" horiz-adv-x="534" d="M-2 1749l45 96l223 -119l223 119l46 -96l-269 -209z" />
<glyph unicode="&#xe01e;" horiz-adv-x="1619" />
<glyph unicode="&#xe01f;" horiz-adv-x="534" d="M10 1622q0 61 41 112.5t107 51.5q55 0 108 -33t86 -33q23 0 43.5 16.5t32.5 32.5l12 19l84 -43q0 -61 -41.5 -111.5t-107.5 -50.5q-55 0 -109 33q-53 33 -86 33q-23 0 -43 -16.5t-33 -33.5l-10 -18z" />
<glyph unicode="&#xe020;" horiz-adv-x="534" d="M14 1597v177h176v-177h-176zM344 1597v177h176v-177h-176z" />
<glyph unicode="&#xe021;" horiz-adv-x="534" d="M53 1612v143h428v-143h-428z" />
<glyph unicode="&#xe022;" horiz-adv-x="534" d="M2 1731l74 77q8 -16 26.5 -37.5t61.5 -54.5q49 -33 102 -33q25 0 50.5 8.5t48 21.5t40 29.5t29.5 31.5l25 36l69 -81q-4 -6 -12 -21.5t-24 -38.5q-8 -10 -22.5 -26.5t-27.5 -28.5q-29 -25 -76 -44.5t-100 -19.5q-55 0 -99 19.5t-76 45t-52.5 53.5t-28.5 46z" />
<glyph unicode="&#xe023;" horiz-adv-x="534" d="M51 1702q0 90 64 153q63 63 151 64q84 0 152 -64q66 -66 65 -153q0 -84 -65 -156q-66 -61 -152 -61q-41 0 -80.5 15t-70.5 46q-63 66 -64 156zM170 1702q0 -49 27 -76q14 -16 32.5 -23.5t36.5 -7.5q39 0 70 31q27 31 26 76q0 45 -26 76q-31 31 -70 30q-18 0 -36.5 -7 t-32.5 -23q-14 -14 -20.5 -34t-6.5 -42z" />
<glyph unicode="&#xe024;" horiz-adv-x="534" d="M-63 1604l239 268l105 -115l-269 -233zM254 1604l242 268l104 -115l-270 -233z" />
<glyph unicode="&#xe025;" horiz-adv-x="534" d="M131 1671q0 57 40 96t93 39q55 0 95 -38.5t40 -96.5q0 -23 -9 -45t-23 -39h-205q-31 37 -31 84z" />
<glyph unicode="&#xe027;" horiz-adv-x="704" d="M113 618v160h479v-160h-479z" />
<glyph unicode="&#xe028;" horiz-adv-x="548" d="M170 1190v207h207v-207h-207zM178 -78v860l21 238h153l21 -238v-860h-195z" />
<glyph unicode="&#xe029;" horiz-adv-x="774" d="M53 260q0 68 18.5 124t46 104.5t62.5 90.5t68 78q39 43 70.5 86t43.5 86q4 27 7.5 74t3.5 82l2 35h178q0 -31 1 -55.5t1 -42.5q0 -20 1 -34t1 -22q0 -98 -52 -174t-114 -143q-55 -63 -100 -126t-45 -144q0 -201 205 -201q55 0 121.5 18.5t103.5 38.5l45 21v-176 q-141 -74 -281 -74q-186 0 -286.5 97t-100.5 257zM362 1190v207h205v-207h-205z" />
<glyph unicode="&#xe02a;" horiz-adv-x="600" d="M74 696l272 439h180l-272 -439l272 -438h-180z" />
<glyph unicode="&#xe02b;" horiz-adv-x="600" d="M74 258l272 438l-272 439h180l272 -439l-272 -438h-180z" />
<glyph unicode="&#xe02c;" horiz-adv-x="974" d="M74 696l272 439h180l-272 -439l272 -438h-180zM449 696l270 439h182l-274 -439q66 -109 137.5 -219t136.5 -219h-182z" />
<glyph unicode="&#xe02d;" horiz-adv-x="974" d="M74 258l274 438q-66 109 -137.5 219.5t-136.5 219.5h182l270 -439l-270 -438h-182zM449 258l272 438l-272 439h180l272 -439l-272 -438h-180z" />
<glyph unicode="&#xe02e;" horiz-adv-x="921" d="M-4 621v157h930v-157h-930z" />
<glyph unicode="&#xe02f;" horiz-adv-x="1845" d="M-4 621v157h1853v-157h-1853z" />
<glyph unicode="&#xe031;" horiz-adv-x="471" d="M131 592v207h207v-207h-207z" />
<glyph unicode="&#xe032;" horiz-adv-x="587" d="M113 700q0 125 18.5 246t58 240t103 238.5t153.5 246.5l125 -78q-268 -446 -268 -893q0 -211 59 -426q57 -211 209 -469l-125 -79q-334 471 -333 974z" />
<glyph unicode="&#xe033;" horiz-adv-x="587" d="M14 -195q152 256 211 469q59 215 60 426q0 446 -271 893l125 78q90 -127 154.5 -246.5t104.5 -238.5t58.5 -240t18.5 -246q0 -504 -336 -974z" />
<glyph unicode="&#xe034;" horiz-adv-x="559" d="M162 -205v1807h362v-148h-180v-1515h180v-144h-362z" />
<glyph unicode="&#xe035;" horiz-adv-x="559" d="M35 -61h178v1515h-178v148h362v-1807h-362v144z" />
<glyph unicode="&#xe036;" horiz-adv-x="559" d="M-4 625v147q72 0 119 58.5t47 150.5v362q0 106 65 181q68 78 158 78h139v-148h-90q-92 0 -92 -151v-332q0 -61 -17.5 -108.5t-41 -79t-48 -51t-38.5 -27.5l-19 -7q2 0 27.5 -14t56.5 -46t55.5 -84t24.5 -130v-326q0 -156 92 -155h90v-148h-139q-90 0 -158 78 q-66 74 -65 180v363q0 92 -47 150.5t-119 58.5z" />
<glyph unicode="&#xe037;" horiz-adv-x="559" d="M35 -57h90q90 0 90 155v326q0 63 17.5 110.5t41 79t49 51t42.5 27.5l14 6q-2 0 -27.5 13.5t-56.5 44t-55.5 83t-24.5 132.5v332q0 152 -90 151h-90v148h139q88 0 156 -78q68 -80 67 -181v-362q0 -92 47.5 -150.5t118.5 -58.5v-147q-72 0 -119 -58.5t-47 -150.5v-363 q0 -100 -67 -180q-68 -78 -156 -78h-139v148z" />
<glyph unicode="&#xe03a;" d="M84 700q0 158 33 290t94 227.5t150.5 148.5t201.5 53q113 0 202 -52t150.5 -147.5t94 -227.5t32.5 -292t-32.5 -293t-94 -228t-150.5 -147t-202 -52t-202 52t-150 147t-94 228.5t-33 292.5zM262 700q0 -119 19 -213l487 631q-39 55 -93 93t-112 38q-68 0 -124 -37.5 t-95 -109.5t-60.5 -173.5t-21.5 -228.5zM336 313q41 -78 98.5 -120.5t128.5 -42.5q68 0 123 38.5t95 110.5t61.5 173t21.5 228q0 68 -8 134.5t-22 119.5z" />
<glyph unicode="&#xe086;" horiz-adv-x="1058" d="M53 821v158h135v168q0 49 16.5 109.5t58.5 113.5t111.5 89t174.5 36v-160q-98 0 -138 -52t-40 -130v-174h530v-1059q0 -49 -16.5 -109.5t-58.5 -113.5t-111.5 -89t-173.5 -36v160q98 0 138 52t40 130v907h-348v-821h-183v821h-135zM713 1169v197h194v-197h-194z" />
<glyph unicode="&#xe087;" horiz-adv-x="1622" d="M53 821v158h135v168q0 49 16.5 109.5t58.5 113.5t111.5 89t174.5 36v-160q-98 0 -138 -52t-40 -130v-174h383v168q0 49 16 109.5t58 113.5t111 89t173 36v-160q-98 0 -138 -52t-40 -130v-174h530v-1059q0 -49 -16 -109.5t-58 -113.5t-112 -89t-174 -36v160q98 0 139 52 t41 130v907h-350v-821h-180v821h-383v-821h-183v821h-135zM1276 1169v197h194v-197h-194z" />
<glyph unicode="&#xe08c;" horiz-adv-x="1419" d="M74 492q0 104 35.5 196t101.5 164q131 143 332 147q-35 57 -35 140q0 137 100 231q104 98 248 98q147 0 248 -100q102 -102 102 -256v-133h199v-158h-199v-821h-180v1104q0 92 -48 152.5t-126 60.5t-131 -55.5t-53 -139.5q0 -55 25.5 -98t49.5 -57l27 -17v-176 q-86 68 -221 68q-131 0 -219 -105q-88 -96 -88 -245q0 -147 88 -250q86 -104 215 -105q61 0 119.5 16.5t87.5 32.5l32 19v-168q-66 -55 -252 -55q-201 0 -329 147q-129 147 -129 363z" />
<glyph unicode="&#xe094;" horiz-adv-x="1955" d="M92 61l4 179q18 -14 49 -29.5t107 -44.5q82 -29 158 -29q74 0 139 35q63 33 63 102q0 31 -20.5 54.5t-54 43t-76.5 37t-88 33.5q-23 8 -46.5 16.5t-43.5 18.5q-76 33 -129.5 94.5t-53.5 147.5q0 133 103 207q102 74 248 73h26q-16 29 -25.5 64t-9.5 76q0 135 103 231 q100 98 248 98q147 0 245 -100q102 -102 103 -256v-242q8 12 29.5 33t57.5 42.5t87 37.5t117 16q186 0 313 -149q59 -72 93 -164t34 -197q0 -213 -127 -362q-127 -147 -315 -147q-61 0 -110.5 14t-85.5 33.5t-58.5 40t-32.5 34.5l-2 4v-516h-183v1514q0 98 -48 155.5 t-124 57.5q-39 0 -71.5 -14.5t-57 -40t-39 -60.5t-14.5 -74q0 -66 27.5 -109.5t54.5 -57.5l33 -15v-168q-127 68 -275 68q-63 0 -111 -32t-48 -87q0 -27 18.5 -48.5t48 -38.5t68.5 -33.5t82 -31.5q27 -10 56.5 -20t55.5 -23q76 -35 130.5 -98t54.5 -151q0 -121 -105 -213 q-102 -90 -284 -90q-39 0 -79 6t-77 15t-68.5 19.5t-52.5 20.5zM1141 297q0 -2 25.5 -37t68.5 -67q29 -20 75 -38t93 -18q129 0 213 103q84 98 84 249q0 145 -86 248q-84 104 -209 105q-41 0 -78 -11.5t-68.5 -29t-55 -39t-36.5 -41.5l-26 -39v-385z" />
<glyph unicode="&#xe0aa;" horiz-adv-x="1122" d="M143 0v1397h777l2 -238q0 -78 -33 -134t-74 -91q-35 -31 -68.5 -70t-33.5 -80q0 -51 42 -86.5t97 -74.5q39 -29 81 -60t76.5 -70.5t56 -91t21.5 -118.5q0 -123 -98 -215q-96 -88 -287 -88q-59 0 -112 9t-78 19h2l-29 8v164q94 -43 217 -43q76 0 142 37q63 39 63 109 q0 57 -46 100t-103 80q-39 25 -79 54.5t-72 67.5t-52 86t-20 111q0 74 39.5 127.5t82.5 94.5q37 35 67 70.5t30 88.5v70h-428v-1233h-183z" />
<glyph unicode="&#xe153;" horiz-adv-x="1161" d="M92 426q0 78 19.5 142.5t49 113.5t62.5 84t58 53q-6 6 -22.5 29.5t-35 59.5t-32 82t-13.5 97q0 72 27.5 132.5t77 104.5t118 68.5t148.5 24.5q61 0 130 -15.5t112 -37.5v-172q-47 23 -104.5 39t-123.5 16q-86 0 -145.5 -43t-59.5 -125q0 -45 16.5 -88t41 -83t52.5 -73.5 t50 -58.5h-2l31 -35l311 -383q18 41 30.5 84t16.5 82h170q-2 -70 -28.5 -147.5t-73.5 -153.5l139 -162l-68 -67h-96l-86 102q-135 -117 -323 -116q-98 0 -181.5 36.5t-141.5 99t-91 143.5t-33 167zM266 446q0 -59 19.5 -113t55.5 -96t87 -67t117 -25q129 0 215 74h-2 l-387 469q-8 -6 -25.5 -24.5t-35 -48t-31 -71.5t-13.5 -98z" />
<glyph unicode="&#xe169;" horiz-adv-x="317" d="M-4 -236q20 -10 43.5 -13t48.5 -3q29 0 50.5 16.5t21.5 42.5q0 29 -25.5 43.5t-52.5 18.5q-6 0 -15.5 1t-15.5 1l37 131h127l-16 -70q4 0 23.5 -5t42 -19t40 -40t17.5 -67t-17.5 -71.5t-46.5 -52t-66.5 -33t-78.5 -11.5q-35 0 -62.5 4.5t-40.5 8.5q-4 0 -7 2t-7 2v114z " />
<glyph unicode="&#xe422;" horiz-adv-x="317" d="M-4 -236q20 -10 43.5 -13t48.5 -3q29 0 50.5 16.5t21.5 42.5q0 29 -25.5 43.5t-52.5 18.5q-6 0 -15.5 1t-15.5 1l37 131h127l-16 -70q4 0 23.5 -5t42 -19t40 -40t17.5 -67t-17.5 -71.5t-46.5 -52t-66.5 -33t-78.5 -11.5q-35 0 -62.5 4.5t-40.5 8.5q-4 0 -7 2t-7 2v114z " />
<glyph unicode="&#xe423;" horiz-adv-x="196" d="M4 -121q16 16 41 24.5t49 8.5q53 0 87 -30t34 -89q0 -25 -11 -60.5t-24 -58.5l-129 -229h-47v434z" />
<glyph unicode="&#xe424;" horiz-adv-x="0" />
<glyph unicode="&#xe430;" horiz-adv-x="319" d="M-4 -203q0 37 16.5 69t40 56.5t47 42t37.5 27.5l19 8h184q-23 -8 -56.5 -27.5t-80.5 -56.5q-23 -20 -37 -43t-14 -45q0 -57 75 -57q16 0 39 6t35 10l23 8v-127q-47 -33 -127 -33q-92 0 -146.5 46.5t-54.5 115.5z" />
<glyph unicode="&#xe438;" horiz-adv-x="0" />
<glyph unicode="&#xf629;" horiz-adv-x="739" d="M74 418q0 72 23.5 141.5t64.5 124.5q43 55 99 94t126 56h-4v100h121v-100q41 -2 80 -13.5t61 -21.5l25 -11v-147q-90 55 -166 57v-565q47 2 89 20.5t64 34.5l27 25v-160q-43 -25 -87 -38t-93 -17v-123h-121v123h4q-141 31 -227 147q-86 117 -86 273zM217 418 q0 -94 47 -169t119 -108v551q-74 -33 -120 -107.5t-46 -166.5z" />
<glyph unicode="&#xf62a;" horiz-adv-x="753" d="M92 600q0 92 61.5 149.5t153.5 71.5h-4v113h121v-105q41 -4 86 -15t63 -21h-2q6 -2 14.5 -6.5t14.5 -6.5v-135q-86 41 -176 47v-205h-4q8 -4 12 -4q43 -16 77 -31.5t69 -39.5q82 -51 81 -162q0 -86 -64.5 -156.5t-174.5 -89.5h4v-129h-121v125q-47 8 -98 22.5t-78 26.5 l-33 14v154q94 -74 209 -82v246h2q-96 35 -154.5 85t-58.5 134zM236 606q0 -33 19 -55.5t48 -28.5v170q-25 -10 -46 -32.5t-21 -53.5zM424 137q35 8 63.5 37t28.5 70q0 59 -92 96v-203z" />
<glyph unicode="&#xf62b;" horiz-adv-x="495" d="M92 354v129h311v-129h-311z" />
<glyph unicode="&#xf62c;" horiz-adv-x="434" d="M92 416q0 289 203 577l104 -65q-158 -264 -157 -512q0 -250 157 -516l-106 -64q-201 291 -201 580z" />
<glyph unicode="&#xf62d;" horiz-adv-x="434" d="M35 -100q78 135 118 262t40 254t-40 252t-118 260l102 65q203 -285 203 -577q0 -293 -201 -580z" />
<glyph unicode="&#xf62e;" horiz-adv-x="739" d="M74 981q0 72 23.5 141.5t64.5 124.5q43 55 99 94t126 56h-4v100h121v-100q41 -2 80 -13.5t61 -21.5l25 -10v-148q-90 55 -166 58v-566q47 2 89 20.5t64 37.5l27 20v-158q-43 -25 -87 -38t-93 -17v-123h-121v123h4q-141 31 -227 148t-86 272zM217 981q0 -94 47 -169 t119 -107v550q-74 -33 -120 -107.5t-46 -166.5z" />
<glyph unicode="&#xf62f;" horiz-adv-x="753" d="M92 1163q0 92 61.5 149.5t153.5 71.5h-4v113h121v-104q41 -4 86 -15.5t63 -21.5h-2q6 -2 14.5 -6t14.5 -7v-135q-86 41 -176 47v-204h-4q8 -4 12 -4q43 -16 77 -32t69 -40q82 -51 81 -162q0 -86 -64.5 -156.5t-174.5 -89.5h4v-129h-121v125q-47 8 -98 23.5t-78 27.5 l-33 13v153q94 -74 209 -82v246h2q-96 35 -154.5 85t-58.5 134zM236 1169q0 -33 19 -55t48 -29v170q-25 -10 -46 -32.5t-21 -53.5zM424 700q35 8 63.5 37t28.5 70q0 59 -92 96v-203z" />
<glyph unicode="&#xf630;" horiz-adv-x="495" d="M92 918v129h311v-129h-311z" />
<glyph unicode="&#xf631;" horiz-adv-x="434" d="M92 979q0 289 203 577l104 -65q-158 -264 -157 -512q0 -250 157 -516l-106 -64q-201 291 -201 580z" />
<glyph unicode="&#xf632;" horiz-adv-x="434" d="M35 463q78 135 118 262t40 254t-40 252t-118 260l102 65q203 -285 203 -577q0 -293 -201 -580z" />
<glyph unicode="&#xf639;" horiz-adv-x="1165" d="M131 700q0 317 127 519q127 201 324 200q201 0 325 -198q127 -201 127 -521q0 -322 -127 -522q-124 -198 -325 -198q-199 0 -324 198q-127 201 -127 522zM311 700q0 -258 74 -404t197 -146q61 0 111 38.5t86 110.5t55.5 173t19.5 228t-19.5 228.5t-55.5 173.5t-86 109.5 t-111 37.5t-110.5 -37.5t-85.5 -109.5t-55.5 -173.5t-19.5 -228.5z" />
<glyph unicode="&#xf63a;" horiz-adv-x="991" d="M53 0l269 354l147 201q23 33 46.5 72t51.5 84q57 92 77 160.5t20 142.5q0 104 -64.5 169.5t-169.5 65.5q-72 0 -147.5 -26.5t-116.5 -53.5l-49 -30v184q16 12 48 27.5t109 42.5q80 27 170 26q90 0 163 -28.5t125 -81t81 -126t29 -165.5q0 -84 -27 -174t-74 -178 q-25 -43 -60.5 -98.5t-81.5 -120t-99.5 -134t-110.5 -143.5h510v-170h-846z" />
<glyph unicode="&#xf63b;" horiz-adv-x="1017" d="M113 66v190q16 -14 49 -31.5t114 -46.5q86 -29 164 -28q55 0 102.5 17t82 49t55 76t20.5 99q0 113 -74.5 182.5t-222.5 69.5v164q135 0 203 63.5t68 173.5q0 43 -16.5 80t-44 65t-65.5 44t-81 16q-76 0 -150.5 -20.5t-115.5 -40.5l-43 -23v170q143 84 325 84 q164 0 265 -100q104 -104 104 -256q0 -78 -20.5 -133.5t-48 -93t-56.5 -59t-47 -32.5l-21 -8q2 0 3.5 -1t3.5 -1q10 -4 23 -11t48 -32q20 -16 39 -31.5t31 -31.5q29 -35 53.5 -99.5t24.5 -138.5q0 -176 -125 -295q-121 -117 -314 -116q-43 0 -87 6t-82.5 15t-70.5 21.5 t-52 22.5z" />
<glyph unicode="&#xf63c;" horiz-adv-x="1071" d="M35 348l493 1049h197l-412 -885h340v238h181v-238h145v-164h-145v-348h-181v348h-618z" />
<glyph unicode="&#xf63d;" horiz-adv-x="1028" d="M123 70v186q18 -14 50 -31.5t112 -46.5q82 -29 151 -28q66 0 119 20t90 57t57.5 87.5t20.5 107.5q0 61 -22.5 113.5t-64.5 90.5t-103.5 60.5t-139.5 22.5q-45 0 -97 -4.5t-83 -8.5l-37 -6l76 705h586v-168h-426l-39 -359q29 2 47 2h26q209 0 332 -127q127 -127 127 -317 q0 -193 -133 -320t-323 -126q-43 0 -86.5 6t-81 16t-69.5 22.5t-50 22.5q-8 4 -19.5 11.5t-19.5 11.5z" />
<glyph unicode="&#xf63e;" d="M131 477q0 264 137 512q137 250 400 432l104 -135q-147 -94 -260 -244q-115 -150 -160 -305q96 66 232 66q80 0 146.5 -31t119.5 -86q51 -59 78.5 -131t27.5 -158q0 -170 -118 -295q-117 -123 -291 -122q-190 0 -303 135q-113 137 -113 362zM309 459q0 -147 70 -230.5 t174 -83.5q98 0 161.5 71t63.5 183q0 49 -17.5 93.5t-49 77t-74.5 51t-92 18.5q-61 0 -119.5 -22.5t-83.5 -43.5l-25 -22h2q-10 -51 -10 -92z" />
<glyph unicode="&#xf63f;" horiz-adv-x="987" d="M74 1231v166h858l-596 -1397h-199l533 1231h-596z" />
</font>
</defs>
</svg>
