<?xml version="1.0" standalone="no"?>
<!DOCTYPE svg PUBLIC "-//W3C//DTD SVG 1.1//EN" "http://www.w3.org/Graphics/SVG/1.1/DTD/svg11.dtd" >
<svg xmlns="http://www.w3.org/2000/svg">
<metadata></metadata>
<defs>
<font id="ggiconsregular" horiz-adv-x="1024" >
<font-face units-per-em="2048" ascent="1536" descent="-512" />
<missing-glyph horiz-adv-x="500" />
<glyph horiz-adv-x="0" />
<glyph unicode="&#xd;" />
<glyph horiz-adv-x="0" />
<glyph horiz-adv-x="0" />
<glyph unicode=" " />
<glyph unicode="A" horiz-adv-x="13056" d="M131 100v1205q0 43 27 69q29 27 69 27q49 0 76 -27q27 -31 27 -69v-1108h565q41 0 72 -27q29 -29 28 -70q0 -45 -28 -69q-29 -29 -72 -29h-668q-37 0 -67 25q-29 23 -29 73zM1145 350v246q0 76 31 143q31 66 84 117q55 51 124 78q35 16 73 22.5t79 6.5q84 0 154 -29 q72 -29 125 -78q51 -47 83 -117q33 -66 33 -143v-86q0 -49 -33 -74q-30 -24 -64 -24h-3h-488v-62q0 -18 5.5 -34.5t13.5 -32.5q20 -33 47 -58q14 -10 30.5 -19t35.5 -20q37 -14 79 -14q45 0 95 18q25 8 43 20.5t30 29.5q29 31 72 34q8 1 16 1q30 0 56 -17q31 -25 37 -59 q2 -8 2 -15q0 -29 -25 -59q-35 -43 -80 -72q-23 -14 -47 -25.5t-55 -21.5q-29 -12 -66 -17t-78 -5q-78 0 -151 28q-74 31 -133 78q-29 27 -51.5 54.5t-38.5 62.5q-35 66 -35 143zM1343 598h386q0 41 -17 68q-14 31 -41 57q-23 27 -59 41q-31 14 -76 14q-39 0 -74 -14 q-16 -8 -31.5 -17.5t-27.5 -23.5q-16 -12 -25.5 -26.5t-19.5 -30.5q-6 -16 -10.5 -33t-4.5 -35zM2109 186q6 41 31 66q12 14 29.5 19t36.5 8h8q38 0 65 -35q31 -33 72 -51q37 -23 88 -23q31 0 62 6q16 2 30.5 7t26.5 12q25 8 43 30q16 23 16 54q0 25 -14 47q-10 10 -18.5 17 t-22.5 13q-25 14 -51 25q-16 4 -32.5 9t-33.5 9q-31 10 -61.5 19.5t-59.5 17.5q-61 23 -104 51q-47 29 -76 78q-28 49 -28 114q0 70 30 124q27 51 76 88q43 35 105 53q61 18 124 19q88 0 172 -33q80 -33 134 -107q22 -34 22 -64q0 -9 -2 -18q-6 -18 -14 -32.5t-25 -24.5 q-28 -18 -62 -18h-7q-41 2 -68 43q-16 16 -31.5 28.5t-34.5 22.5q-37 18 -84 18q-27 0 -48 -5t-44 -15q-41 -23 -41 -68t45 -65q23 -10 54.5 -21.5t72.5 -25.5q31 -8 59.5 -16.5t57.5 -18.5q57 -18 105 -49q49 -31 75 -82q29 -51 29 -127q0 -78 -33 -131q-31 -53 -84 -95 q-29 -18 -58.5 -32.5t-64.5 -24.5q-68 -18 -137 -18q-18 0 -38.5 2t-43.5 6q-45 10 -82 24q-18 8 -37.5 17.5t-35.5 23.5q-33 19 -64 54q-29 35 -29 75zM3496 113l434 1220q20 68 90 68q39 0 60 -21q20 -16 32 -53l435 -1214q7 -20 7 -38q0 -23 -12 -40q-18 -35 -55 -47 q-14 -3 -28 -3q-21 0 -44 7q-39 16 -53 59l-94 252h-498l-90 -252q-14 -45 -51 -59q-23 -7 -45 -7q-14 0 -27 3q-39 12 -57 47q-11 17 -11 39q0 18 7 39zM3842 498h356l-178 501zM4694 350v246q0 76 31 143q16 35 35.5 63.5t48.5 53.5q49 49 123 78q35 16 72.5 22.5 t78.5 6.5q82 0 143 -23q59 -20 103 -47q49 -37 80 -70q25 -26 25 -55q0 -10 -3 -20q-6 -33 -37 -58q-22 -19 -56 -19q-7 0 -15 1q-45 4 -72 37q-25 31 -74 49q-47 18 -94 18q-43 0 -74 -14q-16 -8 -31.5 -17.5t-27.5 -23.5q-29 -23 -43 -55q-16 -37 -16 -70v-246 q0 -33 16 -69q14 -29 43 -58q23 -20 59 -37q31 -14 74 -14q47 0 94 18q25 8 43.5 20.5t30.5 29.5q29 31 72 34q8 1 16 1q29 0 55 -17q31 -25 37 -59q2 -9 2 -18q0 -29 -24 -56q-35 -43 -80 -72q-41 -29 -103 -47q-29 -12 -65.5 -17t-77.5 -5q-78 0 -151 28q-74 33 -123 78 q-29 27 -48.5 54.5t-35.5 62.5q-31 63 -31 143zM5628 350v246q0 72 33 143q31 70 82 117q53 51 122 78q66 29 154 29q80 0 141 -23q33 -10 56.5 -22.5t46.5 -24.5q49 -33 82 -70q24 -29 24 -58q0 -8 -2 -17q-8 -37 -39 -58q-22 -19 -56 -19q-7 0 -15 1q-41 4 -72 37 q-25 31 -72 49q-49 18 -94 18q-43 0 -74 -14q-37 -16 -61 -41q-14 -10 -23.5 -24.5t-19.5 -30.5q-14 -31 -14 -70v-246q0 -39 14 -69q10 -16 19.5 -29.5t23.5 -28.5q27 -23 61 -37q31 -14 74 -14q45 0 94 18q45 14 72 50q31 31 72 34q8 1 16 1q29 0 55 -17q29 -20 39 -59 q2 -8 2 -16q0 -29 -24 -58q-37 -43 -82 -72q-23 -14 -46.5 -25.5t-56.5 -21.5q-29 -12 -64.5 -17t-76.5 -5q-80 0 -154 28q-68 31 -122 78q-53 53 -82 117q-16 33 -24.5 67.5t-8.5 75.5zM6562 350v246q0 72 33 143q33 70 84 117q55 51 124 78q35 16 73 22.5t79 6.5t79 -6.5 t73 -22.5q37 -14 67.5 -33.5t59.5 -44.5q53 -51 84 -117q33 -66 32 -143v-86q0 -49 -32 -74q-30 -24 -65 -24h-3h-488v-62q0 -37 19 -67q18 -31 45 -58q16 -10 32.5 -19t35.5 -20q37 -14 79 -14q41 0 95 18q25 8 43 20.5t30 29.5q29 31 70 34q9 1 18 1q31 0 54 -17 q29 -20 39 -59q2 -7 2 -14q0 -30 -27 -60q-31 -41 -78 -72q-45 -29 -102 -47q-58 -22 -144 -22q-78 0 -153 28q-76 31 -131 78q-29 27 -51.5 54.5t-38.5 62.5q-37 63 -37 143zM6762 598h386q0 35 -17 68q-14 31 -41 57q-12 14 -27.5 23.5t-31.5 17.5q-35 14 -76 14 q-43 0 -74 -14q-37 -16 -61 -41q-29 -25 -43 -57q-6 -16 -10.5 -33t-4.5 -35zM7528 186q6 41 31 66q12 14 28.5 19t37.5 8h4q37 0 69 -35q29 -33 70 -51q23 -12 44.5 -17.5t43.5 -5.5q33 0 64 6q16 2 30.5 7t26.5 12q14 4 23.5 12t19.5 18q14 20 14 54q0 29 -12 47 q-20 20 -41 30q-18 10 -53 25q-16 4 -32.5 9t-33.5 9q-29 10 -59.5 19.5t-61.5 17.5q-29 10 -54 22.5t-48 28.5q-47 29 -76 78q-28 49 -28 114q1 71 30 124q27 51 76 88q43 35 105 53q61 18 122 19q92 0 172 -33t136 -107q22 -34 22 -64q0 -9 -2 -18q-14 -41 -39 -57 q-28 -18 -62 -18h-7q-41 2 -68 43q-16 16 -31.5 28.5t-34.5 22.5q-37 18 -86 18q-27 0 -48 -5t-42 -15q-41 -23 -41 -68t45 -65q23 -10 54.5 -21.5t72.5 -25.5q31 -8 59.5 -16.5t57.5 -18.5t54.5 -21.5t50.5 -27.5q45 -31 75 -82q27 -47 27 -127t-31 -131q-31 -55 -86 -95 q-55 -39 -121 -57q-68 -18 -139 -18q-16 0 -36.5 2t-43.5 6q-41 8 -82 24q-20 8 -38.5 17.5t-34.5 23.5q-39 23 -64 54q-31 39 -29 75zM8403 186q6 41 31 66q12 14 28.5 19t36.5 8h4q39 0 72 -35q27 -33 70 -51q39 -23 88 -23q31 0 61 6q16 2 30.5 7t26.5 12q27 8 41 30 q18 20 19 54q0 27 -17 47q-10 16 -36 30q-25 12 -56 25q-16 4 -31.5 9t-31.5 9q-31 10 -61.5 19.5t-59.5 17.5q-29 10 -55.5 22.5t-48.5 28.5q-47 29 -76 78q-29 51 -29 119q0 66 31 119q27 51 76 88q43 35 104 53q57 18 125 19q88 0 172 -33q80 -33 133 -107q23 -31 23 -62 q0 -10 -2 -20q-10 -41 -39 -57q-25 -19 -56 -19q-7 0 -14 1q-39 4 -70 43q-27 33 -63 51q-37 18 -84 18q-27 0 -48.5 -5t-43.5 -15q-43 -27 -43 -68q0 -43 47 -65q23 -10 54.5 -21.5t72.5 -25.5q29 -8 58.5 -16.5t58.5 -18.5q57 -18 104 -49q45 -31 76 -82q29 -45 29 -127 q0 -78 -33 -131q-33 -59 -86 -95q-27 -18 -56.5 -32.5t-64.5 -24.5q-72 -18 -137 -18q-20 0 -39 2t-41 6q-45 10 -84 24q-43 16 -76 41q-18 10 -32.5 24t-28.5 30q-31 39 -29 75zM9341 1262v28q0 29 10 48.5t29 35.5q35 27 78 27q45 0 77 -27q37 -31 37 -84v-28 q0 -55 -37 -82q-35 -29 -77 -29q-39 0 -78 29t-39 82zM9355 82v784q0 51 33 72q31 25 70 25q37 0 67 -25q29 -21 29 -72v-784q0 -53 -29 -74q-30 -24 -64 -24h-3q-39 0 -70 24q-33 20 -33 74zM9853 82v784q0 43 29 70q27 27 71 27q35 0 60 -19q27 -18 37 -49q49 39 88 53 q37 15 82 15q63 0 129 -25q31 -10 60.5 -31.5t59.5 -50.5q53 49 115 76q33 16 66.5 23.5t70.5 7.5q78 0 140 -27q31 -12 59.5 -29.5t52.5 -40.5q49 -45 76 -106q29 -63 29 -131v-547q0 -43 -29 -72q-26 -26 -69 -26h-3q-51 0 -78 26q-25 27 -24 72v547q0 57 -45 100 q-41 41 -109 41q-72 0 -110 -41q-45 -43 -45 -100v-547q0 -43 -29 -72q-26 -26 -71 -26h-3q-45 0 -71 26q-27 31 -27 72v547q0 57 -45 100q-47 41 -111 41q-70 0 -114 -43q-45 -45 -45 -102v-543q0 -43 -29 -72q-28 -26 -67 -26h-3q-45 0 -71 26q-27 25 -27 72zM11311 350 v246q0 39 7 74t24 69q33 70 84 117q53 49 125 78q35 16 72.5 22.5t78.5 6.5q84 0 154 -29q70 -27 125 -78q55 -49 86 -117t31 -143v-86q0 -49 -31 -74q-30 -24 -67 -24h-3h-487v-62q0 -37 18 -67q14 -27 47 -58q25 -18 68 -39q35 -14 78 -14q45 0 92 18q25 8 43 20.5 t33 29.5q29 31 69 34q9 1 17 1q31 0 55 -17q31 -23 39 -59q1 -7 1 -13q0 -32 -24 -61q-31 -39 -82 -72q-43 -31 -102 -47q-53 -22 -141 -22q-78 0 -154 28q-70 29 -131 78q-29 27 -52.5 54.5t-39.5 62.5q-33 63 -33 143zM11510 598h385q0 35 -17 68q-14 31 -41 57 q-23 25 -61 41q-31 14 -74 14t-73 -14q-35 -14 -62 -41q-31 -27 -41 -57q-16 -27 -16 -68zM12278 186q4 43 28 66q14 14 29.5 19t38.5 8h4q37 0 70 -35q31 -35 69 -51q37 -23 88 -23q27 0 62 6q16 2 30.5 7t26.5 12q12 4 22.5 12t20.5 18q14 20 15 54q0 31 -15 47 q-16 18 -37 30q-14 6 -26.5 12.5t-28.5 12.5q-16 4 -31.5 9t-31.5 9q-33 10 -63 19.5t-58 17.5q-31 10 -56.5 22.5t-50.5 28.5q-45 33 -76 78q-24 47 -24 114v5q0 68 27 119q31 51 75 88q25 16 50.5 29.5t56.5 23.5q61 18 123 19q92 0 172 -33q82 -33 133 -107 q16 -23 21 -42t1 -40q-10 -39 -41 -57q-24 -19 -54 -19q-6 0 -13 1q-39 2 -70 43q-12 16 -27.5 28.5t-35.5 22.5q-37 18 -86 18q-45 0 -92 -20q-39 -25 -39 -68q0 -45 45 -65q23 -10 55.5 -21.5t73.5 -25.5q29 -8 57.5 -16.5t56.5 -18.5q29 -10 54.5 -21.5t48.5 -27.5 q47 -29 78 -82q28 -49 28 -122v-5q0 -72 -32 -131q-37 -59 -87 -95q-29 -18 -57.5 -32.5t-62.5 -24.5q-68 -18 -138 -18q-20 0 -39.5 2t-41.5 6q-45 10 -82 24q-43 16 -76 41q-35 23 -60 54q-29 31 -29 62q0 7 1 13z" />
<glyph unicode="B" horiz-adv-x="18067" d="M162 0v1395h176v-1229h633v-166h-809zM1075 469q0 109 33 193q18 47 43 84.5t53 72.5q66 68 148 101q76 38 175 38h5q104 0 178 -43q76 -37 127 -100q53 -61 78 -145q12 -39 19.5 -79t7.5 -79q0 -70 -11 -115h-678q2 -29 9.5 -53.5t17.5 -48.5q27 -51 66 -86 q37 -35 90 -57q49 -20 106 -21q70 0 160 25q45 12 84 28.5t76 36.5v-162q-59 -39 -146 -59q-84 -18 -182 -18q-96 0 -184 38q-82 35 -148 101q-29 35 -53.5 72.5t-42.5 85.5q-31 88 -31 190zM1253 545h523q0 23 -5.5 48t-15.5 50q-10 23 -20.5 44.5t-26.5 39.5 q-31 37 -78 61q-41 25 -100 25q-63 0 -109 -25q-49 -23 -80 -57q-16 -20 -31.5 -41.5t-27.5 -46.5q-18 -49 -29 -98zM2107 700q0 115 84 185q81 69 215 69h4q94 0 164 -20q35 -10 62.5 -20.5t44.5 -20.5v-164q-41 28 -109 53q-37 10 -69.5 16.5t-65.5 6.5q-68 0 -113 -29 q-47 -25 -47 -69q0 -47 33 -70q35 -27 76 -43l170 -74q16 -8 32.5 -17t34.5 -22q35 -23 60 -53q14 -16 26.5 -35.5t22.5 -38.5q18 -47 18 -98q0 -125 -96 -203q-95 -73 -252 -73h-4q-84 0 -164 22q-43 12 -72.5 23.5t-50.5 25.5v170q8 -4 20.5 -11t29.5 -13 q16 -10 34.5 -16.5t38.5 -14.5q41 -14 82 -23q41 -10 74 -10q78 0 133 33q51 31 51 86q0 47 -34 78q-18 14 -37 25.5t-41 21.5l-144 63q-16 6 -33.5 14.5t-33.5 18.5t-33.5 23.5t-34.5 29.5q-18 16 -31.5 35t-23.5 39q-20 43 -21 100zM3518 0v1395h459q211 0 328 -99 q115 -98 115 -260q0 -29 -5.5 -57.5t-15.5 -52.5q-10 -23 -22.5 -45.5t-26.5 -42.5q-14 -16 -30.5 -34t-33.5 -30q-16 -14 -29.5 -25.5t-27.5 -17.5q51 -23 92 -58.5t76 -80.5q66 -90 66 -213q0 -174 -115 -277q-115 -102 -299 -102h-531zM3701 164h303q274 0 274 227 q0 113 -67 172q-70 63 -213 64h-297v-463zM3701 788h274q115 0 189 56q72 59 71 172q0 221 -250 221h-284v-449zM4614 469q0 109 33 193q16 47 40.5 84.5t55.5 72.5q63 68 146 101q78 38 177 38h5q100 0 178 -43q76 -37 127 -100q53 -61 78 -145q12 -39 19 -79t7 -79 q0 -70 -10 -115h-680q6 -57 29 -102q10 -23 27.5 -45.5t37.5 -40.5q37 -35 91 -57q47 -20 106 -21q37 0 75 6t85 19q45 12 84 28.5t76 36.5v-162q-57 -37 -146 -59q-84 -18 -182 -18q-96 0 -184 38q-45 18 -81 44t-69 57q-29 35 -52.5 72.5t-41.5 85.5q-31 88 -31 190z M4790 545h525q-2 23 -6.5 48t-14.5 50q-10 23 -20.5 44.5t-26.5 39.5q-31 37 -78 61q-41 25 -100 25q-63 0 -109 -25q-25 -10 -45 -25t-37 -32q-16 -20 -30.5 -41.5t-26.5 -46.5q-10 -23 -18.5 -48.5t-12.5 -49.5zM5659 0v1393h182v-1393h-182zM6101 0v1393h182v-1393h-182z M6480 469q0 111 35 193q16 47 40.5 84.5t53.5 72.5q33 33 68.5 58.5t76.5 42.5q82 38 178 38h5q102 0 180 -43q39 -18 69.5 -43.5t59.5 -56.5q49 -63 76 -145q14 -39 19 -79t5 -79q0 -37 -2 -65.5t-8 -49.5h-678q2 -55 27 -102q14 -23 29.5 -45.5t37.5 -40.5q39 -37 88 -57 t109 -21q72 0 158 25q84 23 161 65v-162q-57 -37 -145 -59q-80 -18 -180 -18q-53 0 -99.5 10t-91.5 28q-78 35 -143 101q-31 35 -55.5 72.5t-40.5 85.5q-33 86 -33 190zM6658 545h524q-2 23 -6 48t-14 50q-8 23 -20.5 44.5t-28.5 39.5q-29 37 -76 61q-43 25 -102 25 q-61 0 -107 -25q-45 -20 -80 -57q-35 -39 -57 -88q-12 -23 -20.5 -48.5t-12.5 -49.5zM7512 700q0 111 86 185q81 69 213 69h4q96 0 166 -20q35 -10 61.5 -20.5t40.5 -20.5v-164q-40 30 -106 53q-74 23 -133 23q-68 0 -115 -29q-45 -25 -45 -69q0 -47 35 -70q27 -25 72 -43 l172 -74q33 -14 65 -39q16 -10 32.5 -23.5t29.5 -29.5q27 -33 47 -74q18 -47 18 -98q0 -125 -94 -203q-97 -73 -250 -73h-4q-84 0 -170 22q-39 12 -68.5 23.5t-52.5 25.5v170q10 -4 21.5 -11t27.5 -13q18 -10 37 -16.5t37 -14.5q20 -6 40.5 -12.5t43.5 -10.5q41 -10 72 -10 q80 0 133 33q55 33 55 86q0 45 -39 78q-18 14 -35.5 25.5t-40.5 21.5l-143 63q-16 6 -33.5 14.5t-36.5 18.5q-16 10 -33.5 23.5t-33.5 29.5t-29.5 35t-23.5 39q-10 23 -16.5 47.5t-6.5 52.5zM8925 0v1395h451q102 0 180 -29q80 -25 141 -82q57 -49 90 -125q18 -39 26.5 -80 t8.5 -84q0 -150 -90 -258q-90 -102 -235 -133h2l430 -604h-230l-407 592h-193v-592h-174zM9099 752h275q121 0 198 63q78 53 78 178q0 117 -78 181q-41 29 -89 45t-109 16h-275v-483zM9947 469q0 106 37 193q16 47 41 84.5t53 72.5q63 68 146 101q82 38 177 38h5 q102 0 180 -43q74 -35 129 -100q23 -33 42.5 -68.5t31.5 -76.5q16 -39 21 -79t5 -79q0 -37 -2 -65.5t-6 -49.5h-682q2 -29 10.5 -53.5t18.5 -48.5q14 -23 29.5 -45.5t36.5 -40.5q43 -37 90 -57q49 -20 108 -21q72 0 158 25t160 65v-162q-29 -20 -66 -34.5t-78 -24.5 q-80 -18 -180 -18q-53 0 -99 10t-91 28q-84 37 -144 101q-63 68 -94 158q-37 88 -37 190zM10125 545h525q-2 23 -5.5 48t-13.5 50q-8 23 -20.5 44.5t-28.5 39.5t-33.5 33.5t-42.5 27.5q-47 25 -100 25q-61 0 -111 -25q-45 -23 -80 -57q-35 -41 -55 -88q-12 -23 -20.5 -48.5 t-14.5 -49.5zM10228 1219l336 211l79 -156l-372 -158zM10981 700q0 113 86 185q81 69 213 69h4q96 0 164 -20q78 -23 105 -41v-164q-18 14 -45 27.5t-64 25.5q-68 23 -131 23q-68 0 -115 -29q-43 -23 -43 -69q0 -49 31 -70q29 -23 76 -43l170 -74q16 -8 32.5 -17t32.5 -22 q31 -20 62 -53q27 -33 47 -74q16 -41 16 -98q0 -127 -92 -203q-97 -73 -252 -73h-4q-82 0 -168 22q-39 12 -69.5 23.5t-51.5 25.5v170q10 -4 21.5 -11t28.5 -13q18 -10 36.5 -16.5t38.5 -14.5q39 -14 80 -23q45 -10 74 -10q78 0 133 33q53 31 53 86q0 47 -36 78 q-35 29 -76 47l-146 63q-14 6 -31.5 14.5t-35.5 18.5q-31 18 -68 53q-35 33 -55 74q-10 23 -15.5 47.5t-5.5 52.5zM11811 1229q0 57 39 94q37 37 92 37q59 0 94 -37q37 -37 37 -94q0 -43 -31 -80h-200q-18 18 -25 41q-2 10 -4 19.5t-2 19.5zM11854 0v932h176v-932h-176z M12253 467q0 100 35 192q35 88 96 156q66 68 144 105q88 38 176 38h4q37 0 70.5 -7t66.5 -19q31 -14 59.5 -31.5t55.5 -40.5v533h182v-1393h-68l-81 78q-29 -23 -61 -40.5t-73 -29.5q-73 -28 -144 -28h-5q-94 0 -182 40q-84 37 -144 103q-59 63 -96 156q-35 92 -35 188z M12421 467q0 -70 25 -127q10 -33 26.5 -59.5t34.5 -49.5q23 -23 47.5 -41t50.5 -34q29 -14 59 -21.5t64 -7.5q70 0 129 39q66 39 103 90v418q-41 53 -105 94t-127 41t-121 -29q-27 -14 -51 -32.5t-47 -40.5q-18 -23 -35.5 -49.5t-27.5 -59.5q-25 -66 -25 -131zM13339 469 q0 111 34 193q33 90 97 157q59 66 145 101q76 38 175 38h5q102 0 181 -43q37 -18 69.5 -43.5t54.5 -56.5q55 -66 80 -145q10 -39 17.5 -79t7.5 -79q0 -70 -10 -115h-680q6 -53 30 -102q12 -23 27.5 -45.5t36.5 -40.5q43 -37 90 -57q53 -20 111 -21q70 0 155 25q86 25 160 65 v-162q-29 -20 -65.5 -34.5t-77.5 -24.5q-86 -18 -183 -18q-98 0 -186 38q-82 37 -145 101q-31 35 -55.5 72.5t-41.5 85.5q-32 83 -32 184v6zM13515 545h524q-2 23 -6 48t-14 50q-10 23 -20.5 44.5t-27.5 39.5q-29 35 -75 61q-44 25 -103 25t-108 -25q-43 -20 -80 -57 q-35 -41 -55 -88q-23 -47 -35 -98zM14383 0v940h68l90 -82q45 37 127 68q76 32 176 32h6q39 0 75 -8t68 -22q33 -14 59.5 -34t49.5 -44q23 -25 40 -54.5t30 -64.5q10 -33 17 -68.5t7 -74.5v-588h-182v563q0 119 -49 180q-55 66 -146 66q-66 0 -135 -33q-68 -33 -119 -94h2 v-682h-184zM15374 469q0 102 37 193q16 45 41 82.5t58 72.5q63 66 153 103q92 38 198 38h5q31 0 63.5 -4t67.5 -10q35 -8 65.5 -16t59.5 -19v-174q-23 14 -51.5 26.5t-61.5 24.5q-72 23 -141 23q-61 0 -117 -25q-29 -10 -55.5 -27.5t-48.5 -39.5q-25 -23 -42.5 -49.5 t-31.5 -57.5q-14 -33 -21.5 -66.5t-7.5 -74.5q0 -70 29 -137q27 -66 70 -107q45 -45 102 -69q55 -25 123 -25q66 0 133 21q76 23 133 57v-166q-57 -35 -123 -49t-153 -14q-119 0 -207 40q-92 37 -152 103q-61 68 -92 156q-33 86 -33 190zM16269 469q0 53 8.5 101t28.5 92 q16 47 40 84.5t52 72.5q33 33 69 58.5t79 42.5q78 38 175 38h5q102 0 180 -43q76 -37 127 -100q27 -33 46.5 -68.5t29.5 -76.5q14 -39 20.5 -79t6.5 -79q0 -37 -2 -65.5t-9 -49.5h-678q2 -51 29 -102q12 -23 27.5 -45.5t36.5 -40.5q23 -16 44 -31.5t48 -25.5q47 -20 108 -21 q70 0 156 25q92 25 160 65v-162q-57 -37 -142 -59q-86 -18 -182 -18q-53 0 -99 10t-89 28t-79 44t-67 57q-31 35 -54 72.5t-40 85.5q-35 84 -35 190zM16447 545h525q-2 23 -6 48t-15 50q-10 23 -21 44.5t-28 39.5q-14 18 -32.5 33.5t-41.5 27.5q-47 25 -102 25 q-63 0 -109 -25q-45 -20 -79 -57q-18 -20 -33 -41.5t-25 -46.5q-10 -23 -19 -48.5t-14 -49.5zM17302 700q0 113 86 185q83 69 213 69h4q96 0 165 -20q35 -10 62 -20.5t43 -20.5v-164q-41 28 -109 53q-72 23 -133 23q-72 0 -112 -29q-47 -25 -47 -69q0 -49 32 -70 q16 -12 34 -22.5t40 -20.5l172 -74q16 -8 32.5 -17t33.5 -22q31 -20 61 -53q27 -33 47 -74q18 -47 19 -98q0 -125 -97 -203q-95 -73 -250 -73h-4q-82 0 -166 22q-41 12 -70.5 23.5t-51.5 25.5v170q10 -4 22 -11t29 -13q16 -10 34.5 -16.5t39.5 -14.5q20 -6 38.5 -12.5 t40.5 -10.5q23 -4 40.5 -7t33.5 -3q76 0 135 33q51 33 51 86q0 47 -36 78q-35 29 -76 47l-144 63q-16 6 -33.5 14.5t-33.5 18.5q-18 10 -35.5 23.5t-34.5 29.5q-16 16 -29.5 35t-23.5 39q-10 23 -16 47.5t-6 52.5z" />
<glyph unicode="C" horiz-adv-x="13012" d="M145 2v41h203v1493h-203v45h734v-45h-215v-1534h-519zM901 2h428v496h-41q-4 -61 -22.5 -140t-62.5 -154t-116.5 -131.5t-185.5 -70.5zM1464 217q0 88 46 144.5t115 92t148.5 53t145.5 25.5q-98 -27 -147.5 -86t-49.5 -161q0 -53 12.5 -100.5t40 -76t72.5 -33.5 q6 -1 12 -1q41 0 97 30q-53 -61 -112.5 -94t-131.5 -33q-109 0 -178.5 68t-69.5 172zM1524 715q0 92 83 155.5t224 79.5q-41 -16 -76 -51t-35 -68q0 -10 8.5 -19t17.5 -21.5t17.5 -28.5t8.5 -41q0 -53 -36 -88t-89 -35t-88 32t-35 85zM1925 950q172 0 264 -58t92 -157v-598 q0 -39 14.5 -51t34 -10t39 15t29.5 26l23 -25q-29 -53 -85.5 -82.5t-121.5 -29.5q-57 0 -96 23.5t-62.5 60t-34 83t-10.5 93.5v518q0 63 -21.5 116.5t-64.5 75.5zM3222 791q0 190 55 332.5t142 240.5t195 153.5t210 73.5q-51 -23 -95.5 -74t-76 -145t-50 -236.5 t-18.5 -344.5q0 -201 18.5 -343.5t50 -236.5t75.5 -146.5t96 -72.5q-102 18 -210 72.5t-195 151.5t-142 239.5t-55 335.5zM3967 -8q92 14 168 80.5t134 155.5t98 186.5t61 173.5h45v-596h-45l-78 123q-57 -37 -105.5 -60.5t-93.5 -38t-90 -19.5t-94 -5zM3967 1591 q47 0 89 -5t85 -17.5t89 -35t99 -54.5l76 112h45v-540h-41q-16 76 -54 165t-94 168.5t-131 137t-163 69.5zM4653 475q0 98 30.5 182t86 148.5t130.5 107t163 54.5q-49 -23 -75 -76t-38 -121t-14 -145.5t-2 -149.5t2 -148.5t14 -145t38 -121t75 -76.5q-88 12 -163 54 t-130.5 106.5t-86 148.5t-30.5 182zM5212 -16q47 25 74 77t39 120.5t14 145t2 148.5t-2 149.5t-14 145.5t-39 121t-74 76q88 -12 163 -54.5t130 -107t86 -148.5t31 -182t-31 -182t-86 -148.5t-130 -106.5t-163 -54zM5755 2v45h147v1489h-147v45h418v-1534h157v-45h-575z M6433 2v45h145v1489h-145v45h418v-1534h157v-45h-575zM7131 465q0 111 32 199t87 150.5t130 100t161 48.5q-59 -25 -93 -97.5t-34 -193.5v-197q0 -106 9 -191t34.5 -143.5t69.5 -89.5t114 -31q119 0 208 72t120 193l43 -13q-35 -135 -135.5 -216t-235.5 -81q-92 0 -184 32 t-164 94.5t-117 153.5t-45 210zM7483 543l441 75l-23 -75h-418zM7670 965q82 -10 150.5 -43t118.5 -88.5t78 -129t28 -161.5h-281v143q0 233 -94 279zM8210 475q0 98 31 182t86 148.5t130 106.5t163 55q-47 -23 -72.5 -76t-38 -121t-14.5 -145.5t-2 -149.5q0 -106 9 -191 t35 -143.5t70 -89.5t113 -31q119 0 208 72t118 193l43 -13q-35 -135 -134 -216t-235 -81q-94 0 -185 33t-164 96.5t-117 156.5t-44 214zM8696 973q68 0 132 -16.5t114.5 -49.5t81 -82.5t30.5 -117.5q0 -57 -37 -94.5t-96 -37.5q-61 0 -102 38t-41 94q0 25 10 58.5t68 80.5 q0 23 -15.5 45t-39 40.5t-52.5 30t-53 11.5zM9212 893v45l158 80l202 315h45v-395h203v-45h-203v-688q0 -59 28 -97t75 -38q41 0 72.5 38.5t66.5 112.5l43 -16q-23 -63 -51.5 -106.5t-66.5 -70t-87 -37.5t-112 -11q-119 0 -178.5 66.5t-59.5 170.5v676h-135zM9935 2v45h145 v846h-145v45h416v-891h157v-45h-573zM10037 1354q0 -70 48.5 -119t119.5 -49q72 0 121 49t49 119q0 72 -49 121t-121 49t-120 -49t-48 -121zM10633 475q0 98 31 182t86 148.5t130 107t163 54.5q-47 -23 -72.5 -76t-38 -121t-14.5 -145.5t-2 -149.5t2 -148.5t14.5 -145 t38 -121t72.5 -76.5q-88 12 -163 54t-130 106.5t-86 148.5t-31 182zM11192 -16q47 25 74 77t39 120.5t14 145t2 148.5t-2 149.5t-14 145.5t-39 121t-74 76q88 -12 163 -54.5t130 -107t86 -148.5t31 -182t-31 -182t-86 -148.5t-130 -106.5t-163 -54zM11737 2v45h145v846h-145 v45h416v-891h135v-45h-551zM12278 864q47 53 103 75t122 22q129 0 206 -73t77 -196v-645h145v-45h-563v45h147v643q0 84 -30.5 143.5t-106.5 59.5q-20 0 -46 -6t-54 -23z" />
<glyph unicode="D" horiz-adv-x="1916" d="M104 807q4 14 15 20l819 588q10 7 20 7t21 -7l819 -588q10 -6 14 -20v-6q0 -11 -6 -21q-8 -10 -22.5 -13t-24.5 5l-151 109v-846q0 -16 -10.5 -25.5t-24.5 -9.5h-436q-14 0 -24.5 9t-10.5 26v483h-287v-483q0 -35 -35 -35h-436q-14 0 -24.5 9t-10.5 26v846l-151 -109 q-10 -8 -24.5 -5t-22.5 13q-8 12 -7 27zM375 920l4 -21v-831h369v485q0 33 32 33h357q14 0 24 -9.5t10 -23.5v-485h369v829l6 29l-588 420l-569 -408z" />
<glyph unicode="E" horiz-adv-x="2314" d="M109 780q-6 11 -6 21q0 15 14 28l735 527l-4 -88l-473 -336l2 -862h368v483q0 14 9.5 24.5t25.5 10.5h355q14 0 24 -10.5t10 -24.5v-483h369v497l68 2v-534q0 -14 -9.5 -24.5t-25.5 -10.5h-436q-14 0 -23.5 10t-9.5 25v483h-289v-483q0 -14 -9 -24.5t-24 -10.5h-438 q-14 0 -23.5 10t-9.5 25v846l-153 -107q-10 -10 -24.5 -7t-22.5 13zM911 1278q-2 16 -2 32q0 44 13 79l-9 -146q0 10 -1 17.5t-1 17.5zM913 1243l9 146q16 43 60 72.5t136 51.5q63 12 139 13q117 0 224.5 -29t185.5 -82q76 -53 134.5 -122.5t94.5 -150.5q38 -81 52 -171 q8 -49 7 -99q0 -41 -5 -84l-2 -16l14 -8q72 -39 152 -41h9q76 0 144 33q12 4 25.5 0t17.5 -17q3 -6 3 -12t-3 -12q-2 -12 -16 -19q-79 -37 -166 -37q-10 1 -20 1q-98 4 -183 51l-12 8l-12 -8q-80 -43 -166 -66l-60 -8v2l-176 -4q-160 18 -289 106q-123 84 -201.5 219.5 t-95.5 282.5zM980 1245q9 -78 44 -162t91 -161.5t130 -126.5q74 -51 159 -77t175 -26q119 0 236 47l38 19l-528 358q-12 8 -12 21q-2 10 4 24q18 23 45 8l528 -358l2 43v17q0 144 -64 271q-68 134 -198 220q-66 45 -164 70.5t-209 25.5q-18 0 -56 -2t-78 -10t-77 -25.5 t-55 -46.5q-14 -35 -14 -83q0 -22 3 -46zM1499 635l176 4v-2l-16 -2l-135 -2q-6 0 -12.5 1t-12.5 1z" />
<glyph unicode="F" horiz-adv-x="1114" d="M102 979q0 90 35 170t94.5 139.5t139.5 94t172 34.5q90 0 170 -34.5t139 -94t94 -139.5t35 -170q0 -86 -16.5 -176t-49.5 -193q-27 -80 -61.5 -161.5t-79.5 -163.5q-66 -123 -125 -208t-78 -112q-10 -14 -30 -14q-16 0 -27 14q-18 27 -78.5 112t-126.5 210 q-43 80 -78.5 161.5t-62.5 159.5q-33 104 -49.5 194.5t-16.5 176.5zM172 979q0 -96 20.5 -192.5t51 -183.5t65.5 -159.5t64 -121.5q39 -78 80 -143.5t69 -106.5l21 -29l18 29q47 66 84 128t68 122q98 184 148 350t50 307q0 76 -28.5 143.5t-78.5 117.5t-118 79t-143 29 q-76 0 -143.5 -29t-118 -79t-80 -117.5t-29.5 -143.5zM324 979q0 45 17 85t47 68.5t70 46t85 17.5q92 0 154.5 -62.5t62.5 -154.5q0 -45 -17.5 -85t-46 -69.5t-68.5 -47t-85 -17.5t-85 17.5t-70 47t-47 69.5t-17 85zM393 979q0 -63 43 -107.5t107 -44.5q61 0 105 44.5 t44 107.5q0 61 -44 104t-105 43q-63 0 -106.5 -43t-43.5 -104z" />
<glyph unicode="G" horiz-adv-x="1511" d="M102 475q0 16 14.5 31.5t37.5 15.5h145l-6 39q-6 31 -8 62.5t-2 72.5l-2 21v38t4 31l6 41h-137q-51 0 -52 47q0 18 14.5 31t37.5 13h159l9 22q35 113 98 203t147 154.5t186.5 99.5t215.5 35q111 0 218 -37t202 -105q20 -14 20 -41q0 -18 -15.5 -31.5t-35.5 -13.5 q-8 0 -15.5 2t-11.5 4q-84 59 -176 91t-186 32q-86 0 -167 -25.5t-149.5 -72.5t-124 -114.5t-90.5 -153.5l-22 -49h557q18 0 32.5 -13.5t14.5 -30.5q0 -20 -14.5 -33.5t-32.5 -13.5h-586l-4 -30q-4 -27 -4 -54.5v-46.5q0 -78 16 -147l6 -27h465q16 0 30.5 -15t14.5 -32 q0 -20 -13 -33.5t-32 -13.5h-434l25 -51q39 -74 93 -133.5t120.5 -100.5t142.5 -63.5t156 -22.5q94 0 187 33t171 88q29 18 55.5 5t26.5 -44q0 -20 -20 -35q-94 -70 -202 -106.5t-218 -36.5q-106 0 -202.5 31t-179.5 89t-147.5 140t-105.5 185l-8 22h-172q-52 0 -52 47z" />
<glyph unicode="H" horiz-adv-x="1916" d="M184 37v1175q0 14 10.5 23.5t26.5 9.5h248v84q0 16 10 26.5t25 10.5q16 0 26.5 -10t10.5 -27v-84h843v84q0 16 10.5 26.5t26.5 10.5t25.5 -10t9.5 -27v-84h240q37 0 37 -33v-1175q0 -16 -10.5 -26.5t-26.5 -10.5h-1475q-16 0 -26.5 10t-10.5 27zM256 74h1405v710h-1405 v-710zM256 844h1405v332h-205v-84q0 -16 -9 -26.5t-26 -10.5q-16 0 -26.5 10t-10.5 27v84h-843v-84q0 -16 -10.5 -26.5t-26.5 -10.5q-14 0 -24.5 10t-10.5 27v84h-213v-332zM418 279v137h139v-137h-139zM418 500v139h139v-139h-139zM659 279v137h140v-137h-140zM659 500v139 h140v-139h-140zM901 279v137h139v-137h-139zM901 500v139h139v-139h-139zM1141 279v137h141v-137h-141zM1141 500v139h141v-139h-141zM1382 279v137h142v-137h-142zM1382 500v139h142v-139h-142z" />
<glyph unicode="I" horiz-adv-x="1574" d="M102 1204q0 14 10.5 24.5t26.5 10.5h279q14 0 25.5 -10t11.5 -25v-141l39 20q74 41 148.5 73t123.5 79l4 8q20 33 39.5 76t34 83t22.5 69.5t11 39.5q6 31 34 48q18 12 41 14q15 1 29 1h13q20 -1 34 -5t16 -4q16 -4 32 -19.5t28 -38.5q12 -25 16 -71q2 -26 2 -54 q0 -20 -1 -44q-3 -54 -12 -108t-26 -97l-20 -48l-19 -32q-4 -12 -7 -21.5t-7 -19.5l-8 -23l20 -18q25 -18 89.5 -48t171.5 -63l28 -8q39 -12 69 -36.5t48 -57.5t22 -72q1 -10 1 -20q0 -29 -9 -58q-10 -29 -25.5 -54.5t-43.5 -43.5l-13 -10v-15q-2 -12 -4 -21t-6 -20 q-20 -59 -86 -92l-12 -10l-4 -12q-35 -84 -121 -107l-14 -2l-7 -14q-6 0 -6 -8q-18 -25 -41.5 -41.5t-50.5 -25.5q-28 -9 -52 -11q-6 -1 -11 -1q-17 0 -31 5q-27 6 -47 20l-170 68l-101 43q-41 16 -73.5 25.5t-61.5 17.5l-26 6v-135q0 -16 -11.5 -25.5t-25.5 -9.5h-271 q-6 0 -13 9.5t-12 21.5t-8 24.5t-3 20.5q0 16 11 6t25 -10h232v958h-240q-37 0 -37 39zM455 377l14 -2q70 -14 176 -56l100 -40q53 -23 97.5 -39.5t72.5 -30.5q10 -6 19.5 -9t19.5 -7q8 -2 16 -2.5t16 2.5q16 4 29 11t23.5 16t16.5 13l8 9q4 4 9 11t9 13q4 16 29 23 q29 2 53.5 19.5t34.5 43.5q6 6 6 13.5t2 13.5q0 10 8.5 17t18.5 12q53 12 72 61q10 25 4 47q0 10 5 20.5t15 14.5q23 14 41.5 34.5t26.5 43.5q6 19 6 38q-1 29 -15 56q-24 45 -77 61l-29 11q-47 14 -98 32.5t-96.5 40t-80 44t-46.5 46.5q-4 14 -6.5 28.5t1.5 27.5 q4 12 10.5 29.5t14.5 33.5q6 10 9 17.5l7 17.5l4 4q4 12 8.5 21.5t8.5 19.5q18 51 26.5 104.5t8.5 99.5t-5.5 79t-11.5 43l-6 14l-14 4q-10 0 -19.5 1t-21.5 -1l-27 4l-6 -26q-4 -16 -14 -50t-25.5 -75t-36 -83t-41.5 -75q0 -2 -2 -2t-2 -2q-29 -29 -70.5 -55.5t-90 -52 t-99.5 -49t-98 -44.5l-8 -4v-610z" />
<glyph unicode="J" horiz-adv-x="2314" d="M102 1325q0 14 10.5 24.5t26.5 10.5h279q14 0 25.5 -10.5t11.5 -24.5v-104h569q20 23 33.5 38t19.5 19q10 14 27 14h504q10 0 16 -6l236 -131v170q0 14 11 24.5t27 10.5h269q14 0 25.5 -10.5t11.5 -24.5q0 -16 -11.5 -27.5t-25.5 -11.5h-232v-897h240q37 0 37 -37 q0 -35 -37 -35h-277q-27 0 -36 27v70h-154q14 -33 22.5 -56.5t6.5 -35.5q-6 -47 -40 -87t-75 -63q-14 -10 -32.5 -17.5t-41.5 -7.5q-16 0 -28 7h-2q-14 -12 -27.5 -23.5t-30.5 -19.5q-14 -10 -33.5 -17.5t-40.5 -7.5v2q-6 -2 -24 -2q-16 0 -35.5 2t-38.5 10 q-27 -27 -62.5 -42t-68.5 -23q-6 0 -11 -1t-13 -1q-2 0 -3.5 -1t-3.5 -1h-4q-12 0 -32 4q-29 2 -62 22q-8 6 -22 23q-53 -43 -115 -53q-4 0 -8 -1t-9 -1q-4 -2 -10 -3h-14q-8 2 -15.5 2.5t-13.5 2.5q-14 4 -28.5 9t-24.5 17q-6 6 -29.5 44t-56.5 94.5t-73 124t-77 132.5h-77 v-94q0 -16 -11.5 -25.5t-25.5 -9.5h-271q-14 0 -25 9.5t-11 25.5t11 26.5t25 10.5h232v897h-240q-37 0 -37 39zM455 520h100q23 0 33 -18q31 -55 68.5 -121t72.5 -126t61.5 -103t32.5 -52q2 -2 11.5 -3t21.5 -3q10 0 35 6q47 12 74 39q-16 29 -35 63t-35 64q-6 14 -2 29.5 t20 21.5q12 6 26.5 2t21.5 -20q14 -29 31.5 -59.5t32.5 -56t26.5 -44t17.5 -24.5q10 -4 27.5 -7.5t27.5 -3.5q6 2 14.5 2t18.5 5q45 10 72 36q-18 27 -42 67t-45.5 82t-38 76t-22.5 48q-8 16 -3 29.5t20 21.5q14 6 27.5 1t21.5 -19q18 -37 39.5 -81t43 -84t40 -70t28.5 -40 q20 -18 52 -18t47 2q0 2 4 2q8 2 15 7t18 11q18 8 30 25q-31 39 -65.5 95t-64 108.5t-50 91.5t-22.5 45q-4 16 3 28.5t23 16.5t28.5 -3t16.5 -20q6 -16 36 -69.5t64.5 -112.5t68.5 -108.5t48 -59.5q2 2 14.5 5.5t30.5 19.5q29 16 46.5 41.5t21.5 44.5q0 16 -34 81.5 t-85 153.5t-110.5 185.5t-110.5 177.5h-131q-14 -18 -41 -52t-58.5 -70t-64.5 -68.5t-59 -47.5q-23 -14 -62 -14q-45 0 -92 21.5t-76 50.5q-37 37 -37 64q0 28 11 44q8 14 32.5 46t59.5 73t75 86t76 86h-501v-627zM776 819q0 -2 10.5 -14t38.5 -29q29 -18 61 -24.5t48 2.5 q20 12 50 41.5t60.5 65.5t57 70t43.5 54q10 16 26 16h293q16 0 27.5 -11t11.5 -25q0 -16 -11 -26.5t-28 -10.5h-53q27 -43 60.5 -98.5t68.5 -114t68.5 -117.5t62.5 -111h189v586l-263 144h-477q-47 -51 -104.5 -114t-107.5 -120t-87 -102t-45 -62z" />
<glyph unicode="K" horiz-adv-x="1599" d="M53 -15.5q0 13.5 10 23.5l713 715l2 2q8 8 25 8q14 0 24 -8q10 -10 10.5 -24.5t-10.5 -24.5l-716 -715q-10 -10 -23.5 -10t-24.5 10q-10 10 -10 23.5zM463 840q-1 3 -1 6q0 14 15 26l279 197l-4 342q0 20 18 31q8 4 16 4q10 0 21 -6l272 -205l324 108q23 8 35 -8 q16 -12 8 -35l-109 -323l205 -272q6 -10 6 -20q0 -8 -4 -17q-4 -10 -15 -14.5t-16 -4.5l-342 4l-196 -278q-10 -14 -29 -15h-4q-23 4 -29 25l-65 215l26 27q10 10 15.5 20t9.5 21l59 -197l168 238q10 14 29 14l291 -4l-174 233q-10 12 -6 31l94 274l-275 -92q-16 -6 -32 4 l-232 174l4 -290q0 -18 -14 -29l-238 -168l197 -61q-10 -4 -20.5 -8.5t-20.5 -14.5l-27 -27l-215 68q-20 4 -24 27z" />
<glyph unicode="L" horiz-adv-x="1792" d="M102 614v103q0 47 34 82t81 37l21 2l8 18q49 109 151 197l13 10v121q0 20 16 26q39 21 82 21q10 0 18 -1q52 -5 92 -36l15 -12l16 6q16 4 33.5 8t36.5 8l37 8l-13 37q-18 55 -18 111q0 70 26.5 132t72.5 108.5t107.5 73t131.5 26.5t131 -26.5t107.5 -73t73 -108.5 t26.5 -132q0 -121 -76 -215l-25 -29l31 -20q61 -41 110.5 -92.5t80.5 -110.5l69 -125l-4 143q0 23 17 29q20 10 36 -6q49 -49 50 -123q0 -47 -25 -89t-66 -65l-16 -10l-2 -16q-16 -186 -164 -326l-10 -10v-176q0 -49 -35 -84t-84 -35h-102q-41 0 -74 26.5t-41 67.5l-8 31 l-31 -4q-62 -10 -124 -11h-13q-56 0 -111 7l-30 4l-9 -31q-10 -41 -41.5 -65.5t-72.5 -24.5h-103q-49 0 -83.5 35t-34.5 84v151l-13 11q-100 82 -151 196l-8 19h-21q-47 4 -81 37.5t-34 80.5zM166 614q0 -23 16.5 -39t38.5 -16h39q20 0 29 -22q43 -129 170 -228 q12 -10 12 -24v-166q0 -25 17.5 -41.5t39.5 -16.5h103q23 0 40 16.5t17 41.5v41q0 16 10 22q12 10 27 6q81 -16 164 -16h19q93 2 184 25q14 4 26 -7q12 -12 12 -24v-47q0 -25 16.5 -41.5t39.5 -16.5h102q25 0 41.5 16.5t16.5 41.5v190q0 12 10 23q80 70 123 155.5t43 178.5 q0 12 6 24l18 27l-24 18q-6 4 -11 19q-20 86 -74.5 159.5t-140.5 130.5l-112 74q66 35 107.5 99.5t41.5 142.5q0 55 -21.5 104t-58 86t-86 58.5t-104.5 21.5t-104.5 -21.5t-86 -58.5t-58 -86t-21.5 -104t21.5 -104.5t58 -86t86 -58t104.5 -21.5q29 0 57.5 7t53.5 17l75 -117 q10 -16 2 -30q-14 -27 -43 -13q-76 41 -164 62.5t-182 21.5h-31.5t-33.5 -2q-29 0 -29 29q-2 8 1 13t7 9l80 80l-111 -20q-61 -12 -112 -31q-20 -6 -35 10q-16 20 -39.5 31.5t-48.5 11.5l-39 -2v-120q0 -16 -12 -25q-125 -94 -170 -227q-6 -20 -29 -21h-39q-23 0 -39 -16.5 t-16 -40.5v-103zM471 805q0 27 17.5 44t43.5 17q27 0 44.5 -17.5t17.5 -43.5q0 -27 -17.5 -44.5t-44.5 -17.5t-44 17.5t-17 44.5z" />
<glyph unicode="M" horiz-adv-x="1767" d="M184 31v1337q0 31 31 31h1337q31 0 31 -31v-1337q0 -31 -31 -31h-1337q-31 0 -31 31zM246 61h1276v1276h-1276v-1276zM350 440v80q0 35 31 51v256q-31 16 -31 52v77q0 37 31 54v161q0 12 9 21.5t22 9.5h944q12 0 21 -9t9 -22v-944q0 -12 -9 -21t-21 -9h-944 q-12 0 -21.5 9t-9.5 21v162q-31 16 -31 51zM444 260h879v879h-879v-129q29 -18 29 -54v-77q0 -33 -29 -52v-256q29 -18 29 -51v-80q0 -33 -29 -51v-129zM625 698q0 14 9 23.5t21 9.5h45q6 41 31 78l-31 29q-20 25 0 45t45 0l29 -31q33 25 78 31v45q0 12 9 21t22 9 q14 0 23 -9t9 -21v-45q43 -6 76 -31l31 31q25 20 45 0t0 -45l-31 -31q25 -33 31 -76h45q12 0 21.5 -9t9.5 -24q0 -12 -9.5 -21t-21.5 -9h-45q-6 -41 -31 -78l31 -29q20 -25 0 -45q-10 -10 -23 -10q-12 0 -22 10l-31 31q-33 -25 -76 -31v-45q0 -12 -9 -21.5t-23 -9.5 q-12 0 -21.5 9.5t-9.5 21.5v45q-45 6 -78 31l-29 -31q-10 -10 -22 -10q-16 0 -23 10q-20 20 0 45l31 29q-25 37 -31 78h-45q-12 0 -21 9t-9 21zM760 696q0 -47 33 -84q2 0 2 -2q2 0 2 -2q37 -33 84 -33h2h4q47 0 84 33q0 2 2 2v2q35 35 35 86q0 53 -36 90t-89 37 q-51 0 -87 -35.5t-36 -87.5v-4v-2z" />
<glyph unicode="N" horiz-adv-x="1923" d="M184 109v931q0 47 32 79t79 32h358v141q0 47 32 79t79 32h395q47 0 79 -32t32 -79v-141h358q47 0 79 -32t32 -79v-931q0 -45 -32 -77t-79 -32h-1333q-47 0 -79 31.5t-32 77.5zM252 109q0 -16 12 -28.5t31 -12.5h1333q16 0 28.5 12t12.5 29v522h-555v-209h-305v209h-557 v-522zM252 688h557v133h305v-133h555v352q0 16 -12 28.5t-29 12.5h-1333q-18 0 -30.5 -12t-12.5 -29v-352zM721 1151h479v141q0 16 -12 28.5t-29 12.5h-395q-18 0 -30.5 -12t-12.5 -29v-141zM866 481h191v283h-191v-283z" />
<glyph unicode="O" horiz-adv-x="1810" d="M154 35v481q2 2 2 6l2 8q0 2 6 13l276 282q8 12 25 13q12 0 22 -11q10 -10 11 -24q0 -16 -9 -25l-221 -227h365q33 0 33 -33v-131h479v131q0 33 33 33h364l-221 227q-8 8 -8 25q0 14 10 24t23.5 9.5t23.5 -11.5l275 -280l4 -8l4 -7q2 -2 2 -10q0 -2 1 -4t1 0v-481 q0 -14 -10.5 -24.5t-24.5 -10.5h-1434q-14 0 -24 10t-10 25zM223 68h1364v415h-375v-61q0 -43 -29.5 -73t-72.5 -30h-410q-43 0 -72.5 30t-29.5 73v61h-375v-415zM506 1034v6q0 11 6 21q10 14 27 14q10 0 20 -6l311 -227v665q0 16 10.5 25.5t24.5 9.5t24.5 -9t10.5 -26v-665 l311 227q10 8 24.5 5t22.5 -13q7 -11 7 -24q0 -15 -13 -23l-366 -266l-8 -7q-8 -2 -12.5 -2t-12.5 4l-375 271q-12 8 -12 20z" />
<glyph unicode="P" horiz-adv-x="2056" d="M102 682l4 12v4l267 637h-146q-35 0 -34 33q0 14 9 24.5t25 10.5h1604q14 0 24.5 -10.5t10.5 -24.5t-10.5 -23.5t-24.5 -9.5h-145l266 -645l2 -6q0 -66 -25.5 -124t-68.5 -101t-101.5 -67.5t-124.5 -24.5t-123 24.5t-101 67.5t-69.5 100t-25.5 123l-29 -2l29 8q0 6 2 10 l266 637h-520v-1265h338q14 0 24.5 -9.5t10.5 -23.5t-10.5 -24.5t-24.5 -10.5h-744q-16 0 -25 10.5t-9 24.5q0 33 34 33h338v1265h-522l268 -639q2 -2 2 -12q0 -66 -25.5 -124t-68.5 -101t-101.5 -68.5t-123.5 -25.5q-66 0 -123 24.5t-101 67.5t-70 101t-28 124zM170 651 l12 -39q12 -39 36 -71.5t55.5 -56t70.5 -37t80 -13.5q84 0 150.5 50.5t91.5 127.5l10 39h-506zM188 721h471l-235 559zM1382 651l11 -39q25 -78 91 -128t150 -50q82 0 149.5 50.5t90.5 127.5l12 39h-504zM1401 721h469l-236 559z" />
<glyph unicode="Q" horiz-adv-x="1914" d="M102 35v287q0 14 10.5 23t24.5 9h365q14 0 24.5 -9t10.5 -23v-287q0 -14 -10.5 -24.5t-24.5 -10.5h-365q-14 0 -24.5 10t-10.5 25zM172 70h295v217h-295v-217zM303 659q37 190 131 352.5t231.5 283t309.5 193.5t364 85l76 4l-205 205q-25 25 0 49q10 10 25 10 q12 0 22 -10l265 -264q10 -11 10 -25t-10 -24l-265 -265q-10 -10 -23 -10t-24 10q-25 25 0 50l209 208l-92 -6q-178 -12 -337 -82.5t-285.5 -184.5t-214 -264.5t-121.5 -326.5q-4 -29 -33 -29l-6 3q-14 2 -23 14q-5 7 -5 15q0 4 1 9zM700 35v627q0 14 10.5 23t24.5 9h365 q33 0 33 -32v-627q0 -14 -9.5 -24.5t-23.5 -10.5h-365q-14 0 -24.5 10t-10.5 25zM768 70h297v557h-297v-557zM1298 35v1093q0 35 35 35h363q35 0 35 -35v-1093q0 -14 -9.5 -24.5t-25.5 -10.5h-363q-16 0 -25.5 10t-9.5 25zM1366 70h297v1026h-297v-1026z" />
<glyph unicode="R" horiz-adv-x="2441" d="M184 37v1180q0 14 10.5 24t24.5 10h250v86q0 14 10 24.5t25 10.5q16 0 26.5 -10t10.5 -25v-86h628q92 117 225.5 184.5t291.5 67.5q135 0 253.5 -51t207.5 -140t140.5 -208t51.5 -254q0 -129 -46 -242.5t-128 -202t-191.5 -142.5t-234.5 -64v-162q0 -16 -10.5 -26.5 t-26.5 -10.5h-1483q-14 0 -24.5 10t-10.5 27zM256 72h1411v125q-109 4 -206 39.5t-175 97.5v-55h-141v139h51q-68 76 -110 169t-52 197h-778v-712zM256 846h774v4q0 92 24.5 175t65.5 155h-579v-84q0 -16 -10.5 -26.5t-26.5 -10.5q-14 0 -24.5 10t-10.5 27v84h-213v-334z M418 279v139h139v-139h-139zM418 504v139h139v-139h-139zM659 279v139h142v-139h-142zM659 504v139h142v-139h-142zM903 279v139h139v-139h-139zM903 504v139h139v-139h-139zM1102 850q0 -121 46 -227.5t125 -185.5t185.5 -125t227.5 -46t226 46t184 125t125 185.5t46 227.5 t-46 227.5t-125 185t-184.5 125t-225.5 46.5q-121 0 -227.5 -46.5t-185.5 -125t-125 -185t-46 -227.5zM1341 811q0 14 11 25q10 10 24 10q16 0 27 -10l147 -156l361 440q7 10 23 12q3 0 6 1q12 0 20 -9q12 -12 12 -29q0 -11 -8 -20l-385 -471q-10 -12 -27 -12h-2 q-14 0 -24 10l-174 184q-10 8 -11 25z" />
<glyph unicode="S" horiz-adv-x="2443" d="M184 37v1180q0 16 10.5 25t26.5 9h250v86q0 14 10.5 24.5t24.5 10.5q16 0 26.5 -10t10.5 -25v-86h633q92 113 224 179.5t288 66.5q135 0 253.5 -51t207.5 -140t140.5 -208t51.5 -254q0 -129 -46 -243t-128 -202t-191.5 -142t-234.5 -64v-156q0 -16 -10.5 -26.5 t-26.5 -10.5h-1483q-16 0 -26.5 10t-10.5 27zM258 72h1409v118q-109 4 -205 39t-176 99v-49h-139v139h43q-66 76 -106 169t-50 197h-776v-712zM258 846h774q0 92 24.5 176t69.5 158h-583v-84q0 -16 -10.5 -26.5t-26.5 -10.5q-14 0 -24.5 10t-10.5 27v84h-213v-334zM420 279 v139h139v-139h-139zM420 504v139h139v-139h-139zM662 279v139h139v-139h-139zM662 504v139h139v-139h-139zM903 279v139h141v-139h-141zM903 504v139h141v-139h-141zM1104 844q0 -121 46 -227.5t125 -185.5t185.5 -125t227.5 -46t226 46t184 125t125 185.5t46 227.5 t-46 227.5t-125 185t-184.5 124.5t-225.5 46q-121 0 -227.5 -46t-185.5 -124.5t-125 -185t-46 -227.5zM1346 1014q0 14 8 22l147 148q8 8 23 8q14 0 22 -8q8 -12 8 -23q0 -10 -8 -22l-94 -92h485q14 0 23.5 -9.5t9.5 -21.5q0 -31 -33 -31l-485 -2l94 -94q8 -8 8 -21 q0 -10 -8 -22q-10 -10 -22.5 -10t-22.5 10l-147 147q-8 8 -8 21zM1403 662q0 31 33 30l485 2l-94 92q-8 8 -8 23q0 14 8 22q11 11 23 11h1q12 0 21 -11l147 -147q8 -12 9 -22q0 -8 -9 -21l-147 -147q-10 -10 -22 -10q-1 0 -2 -1q-12 0 -21 11q-8 8 -8 22t8 23l94 92h-485 q-14 0 -23.5 9t-9.5 22z" />
<glyph unicode="T" horiz-adv-x="1843" d="M184 35v1274q0 16 10.5 26.5t26.5 10.5h1401q16 0 26.5 -10.5t10.5 -26.5v-1274q0 -16 -10.5 -26.5t-26.5 -10.5h-1401q-16 0 -26.5 10t-10.5 27zM256 70h1305l24 2v989h-1327zM459 299.5q0 19.5 14 34.5l410 407h-271q-20 0 -34.5 13.5t-16.5 31.5q-4 20 12 37 q16 16 35 17h391q20 0 34 -14.5t14 -34.5v-390q0 -20 -13.5 -34.5t-34.5 -14.5q-20 0 -34.5 14.5t-14.5 34.5v273l-407 -410q-14 -14 -35 -14t-35 14q-14 16 -14 35.5z" />
<glyph unicode="U" horiz-adv-x="1841" d="M184 41v1274q0 16 10.5 26.5t26.5 10.5h1399q16 0 26.5 -10.5t10.5 -26.5v-1274q0 -16 -10.5 -26.5t-24.5 -10.5h-1401q-16 0 -26.5 10.5t-10.5 26.5zM256 76h1303l26 2v880h-1327z" />
<glyph unicode="V" horiz-adv-x="2045" d="M154 668.5q0 27.5 14 44.5l405 573q16 20 46 35.5t55 15.5h1136q23 0 37.5 -14t14.5 -37v-1237q0 -20 -14.5 -34.5t-37.5 -14.5h-1136q-25 0 -54.5 14.5t-46.5 34.5l-405 574q-14 18 -14 45.5zM242 668l411 -586h1129v1173h-1129zM870 365q0 19 15 32l252 273l-252 266 q-15 14 -15 34v2q0 20 13 34q12 12 30 12q16 0 33 -12l256 -271l256 271q12 12 32 13h2q18 0 30 -13q12 -14 12 -34t-14 -34l-254 -270l254 -269q14 -14 14 -33.5t-14 -33.5q-8 -14 -29 -15q-20 0 -33 15l-256 270l-256 -270q-14 -14 -32.5 -14t-30.5 12q-13 15 -13 35z" />
<glyph unicode="W" horiz-adv-x="1970" d="M109 1307q-5 29 -5 59q0 50 15 98q24 78 82 138q47 47 109.5 72.5t129.5 25.5h28.5t29.5 -4q14 -2 24 -17q8 -10 8 -28q-4 -16 -17 -25.5t-28 -7.5q-25 5 -49 5q-38 1 -74 -11q-60 -18 -106 -66q-46 -44 -64 -104q-12 -39 -11 -79q0 -22 3 -44q4 -16 -5 -28.5t-25 -16.5 q-37 -6 -45 33zM223 838q0 158 59.5 296t163 241.5t242.5 163.5t297 60t296 -60t241.5 -163.5t164 -242t60.5 -295.5q0 -166 -68.5 -314.5t-193.5 -259.5l-27 -24l166 -168q12 -10 12 -26.5t-12 -29.5q-10 -10 -26.5 -10t-26.5 10l-178 179l-23 -15q-88 -53 -185.5 -78.5 t-199.5 -25.5q-104 0 -201.5 25.5t-185.5 78.5l-23 15l-176 -179q-10 -10 -27.5 -10t-27.5 10q-12 12 -12 28.5t12 27.5l168 168l-29 24q-125 111 -192.5 259.5t-67.5 314.5zM301 838q0 -141 53.5 -266.5t146.5 -217.5t218 -146t266 -54t266 54t217.5 146t146.5 217t54 267 q0 141 -54 266t-146.5 217t-217.5 146.5t-266 54.5t-266 -54.5t-218 -146.5t-146.5 -217t-53.5 -266zM741 637q0 16 13 27l192 192v471q0 16 11.5 27.5t27.5 11.5t27.5 -11.5t11.5 -27.5v-489q0 -23 -20 -33l-195 -195q-12 -12 -28.5 -12t-26.5 12q-12 8 -13 27zM1440 1651 q-1 5 -1 10q0 11 6 19q9 12 25 16q29 5 58 5q51 1 101 -15q79 -24 138 -84t84 -138q16 -50 17 -100q0 -28 -6 -57q-4 -17 -16 -27q-9 -8 -20 -7q-4 0 -9 1q-16 4 -26.5 16.5t-6.5 28.5q4 22 4 44q0 41 -12 79q-18 60 -64 104q-76 76 -182 76h-22.5t-22.5 -4q-16 -2 -28.5 7 t-16.5 26z" />
<glyph unicode="X" horiz-adv-x="1916" d="M184 113v784q0 47 33 80t80 33h149v182q0 104 40 197.5t110 163t163 109.5t199 40q104 0 197.5 -40t163.5 -109.5t109.5 -163t39.5 -197.5v-182h152q47 0 80 -33t33 -80v-784q0 -47 -33 -80t-80 -33h-1323q-47 0 -80 33t-33 80zM262 78h1393v854h-1393v-854zM526 1010 h865v182q0 88 -34 167t-93.5 138t-138 93t-167.5 34q-90 0 -168.5 -34t-137 -93t-92.5 -138t-34 -167v-182zM821 602q0 57 40 97t97 40q55 0 95.5 -40t40.5 -97q0 -37 -18.5 -68.5t-51.5 -50.5l-10 -4v-166h-113v166l-8 4q-33 18 -52.5 50t-19.5 69z" />
<glyph unicode="Y" horiz-adv-x="1763" d="M102 938q0 143 55.5 271t149.5 222.5t221 149.5t273 55q143 0 271 -55t222.5 -149.5t149.5 -222.5t55 -271q0 -127 -44 -243.5t-126 -213.5l-22 -24l395 -394q10 -14 10 -26q0 -15 -10 -29q-10 -10 -27.5 -10t-27.5 10l-396 395l-24 -18q-94 -72 -201.5 -108.5 t-224.5 -36.5q-145 0 -272.5 55t-221.5 149.5t-149.5 221.5t-55.5 272zM180 938q0 -129 49.5 -241.5t133 -196.5t196.5 -133.5t242 -49.5t241.5 49.5t196.5 133.5t133 196.5t49 241.5t-49 241.5t-133 196.5t-196.5 133.5t-241.5 49.5t-242 -49.5t-196.5 -133.5t-133 -196.5 t-49.5 -241.5z" />
<glyph unicode="Z" horiz-adv-x="2086" d="M184 203v1093q0 61 44 104.5t104 43.5h71v127q0 61 44.5 104t103.5 43h1204q61 0 104.5 -43t43.5 -104v-1368q0 -86 -58.5 -144.5t-144.5 -58.5h-1313q-41 0 -78 15.5t-64.5 43t-44 64.5t-16.5 80zM260 203q0 -53 37 -90t90 -37h1313q53 0 90 37t37 90v1368 q0 29 -20.5 50t-51.5 21h-1204q-29 0 -50.5 -21.5t-21.5 -49.5v-1315q0 -16 -10 -26.5t-27 -10.5q-16 0 -27.5 10.5t-11.5 26.5v1112h-71q-29 0 -50.5 -20.5t-21.5 -51.5v-1093zM610 229q0 23 23 23h438q23 0 23 -23q0 -22 -21 -22h-2h-438q-23 0 -23 22zM610 393 q0 23 23 23h438q23 0 23 -23t-23 -22h-438q-23 0 -23 22zM610 557q0 23 23 23h438q23 0 23 -23t-23 -22h-438q-23 0 -23 22zM610 721q0 25 23 24h1040q23 0 23 -24q0 -23 -23 -23h-1040q-23 0 -23 23zM610 887q0 23 23 22h1040q23 0 23 -22q0 -25 -23 -25h-1040 q-23 0 -23 25zM623 1077v383q0 39 39 39h382q16 0 26.5 -11t10.5 -28v-383q0 -16 -10 -26.5t-27 -10.5h-382q-16 0 -27.5 10.5t-11.5 26.5zM698 1116h308v307h-308v-307zM1212 229q0 23 23 23h438q23 0 23 -23q0 -22 -21 -22h-2h-438q-23 0 -23 22zM1212 393q0 23 23 23h438 q23 0 23 -23q0 -22 -21 -22h-2h-438q-23 0 -23 22zM1212 557q0 23 23 23h438q23 0 23 -23q0 -22 -21 -22h-2h-438q-23 0 -23 22zM1212 1051q0 23 23 22h438q23 0 23 -22q0 -23 -23 -23h-438q-23 0 -23 23zM1212 1214q0 23 23 23h438q23 0 23 -23q0 -22 -21 -22h-2h-438 q-23 0 -23 22zM1212 1378q0 10 6.5 17.5t16.5 7.5h438q10 0 16.5 -7t6.5 -18q0 -22 -21 -22h-2h-438q-23 0 -23 22z" />
<glyph unicode="a" horiz-adv-x="1380" d="M102 694q0 16 11.5 27.5t27.5 11.5h1016l-428 449q-29 29 0 53q9 9 24 9h3q16 -1 26 -11l484 -514q10 -10 10 -27.5t-10 -29.5l-484 -515q-10 -10 -26 -11h-3q-14 0 -24 9q-12 10 -12 26.5t12 27.5l432 454h-1020q-16 0 -27.5 11.5t-11.5 29.5z" />
<glyph unicode="b" horiz-adv-x="1378" d="M102 697q0 17 13 26l483 514q12 12 29 12q14 0 24 -10q25 -25 0 -53l-432 -453h1018q16 0 27.5 -12t11.5 -29q0 -39 -39 -39h-1014l428 -450q10 -10 10 -26.5t-10 -26.5t-25 -10h-2q-16 0 -26 12l-483 514q-13 13 -13 31z" />
<glyph unicode="c" horiz-adv-x="1957" d="M102 699q0 17 13 26l483 514q10 10 26 11h3q14 0 24 -9q25 -25 0 -53l-432 -453h1516l-428 449q-25 29 0 53q10 10 26.5 9t26.5 -11l483 -514q12 -10 12 -27.5t-12 -29.5l-483 -514q-16 -12 -29 -13q-14 0 -24 10t-10.5 26.5t10.5 27.5l432 454h-1516l428 -450 q10 -10 10.5 -26.5t-10.5 -26.5q-10 -10 -26.5 -9.5t-26.5 11.5l-483 514q-13 13 -13 31z" />
<glyph unicode="d" horiz-adv-x="1472" d="M102 297v795q0 39 39 38q16 0 27.5 -11t11.5 -27v-267v-92h1067l-426 453q-10 12 -10 28.5t10 26.5q8 8 21 8h6q16 -2 26 -12l484 -510q12 -12 12 -29.5t-12 -29.5l-484 -514q-10 -10 -26 -12q-3 0 -6 -1q-12 0 -21 9q-10 10 -10 26.5t10 28.5l336 356l86 92h-1063v-356 q0 -16 -11 -27.5t-28 -11.5q-39 0 -39 39z" />
<glyph unicode="e" horiz-adv-x="1472" d="M102 690q0 17 13 29l483 514q12 12 29 12q16 0 24 -8q10 -10 10.5 -26.5t-10.5 -28.5l-336 -357l-86 -92h1063v357q0 16 11.5 27t27.5 11q39 0 39 -38v-795q0 -39 -39 -39q-16 0 -27.5 11.5t-11.5 27.5v266v92h-1067l426 -452q10 -12 10.5 -27.5t-10.5 -26.5 q-9 -9 -24 -9h-3q-16 1 -26 12l-483 509q-13 12 -13 31z" />
<glyph unicode="f" horiz-adv-x="1904" d="M102 954q0 63 24 118.5t64.5 95.5t97 62.5t122.5 22.5h118q16 0 26.5 -12t10.5 -29q0 -16 -9 -28.5t-28 -12.5h-114q-49 0 -90 -16t-71 -45t-47.5 -69t-17.5 -85q0 -49 19.5 -90t52.5 -70.5t73 -45t81 -15.5h1272l-433 453q-10 12 -10 28.5t10 26.5t26.5 8t27.5 -12 l483 -512q10 -12 10 -29.5t-10 -29.5l-483 -512q-10 -10 -27 -12q-3 -1 -5 -1q-13 0 -22 9q-10 10 -10 26.5t10 28.5l428 448h-1267q-63 0 -119.5 23.5t-99.5 64.5t-68 95.5t-25 115.5z" />
<glyph unicode="g" horiz-adv-x="1904" d="M104 699q0 17 11 28l483 512q12 12 29 12q16 0 24 -8q10 -10 10.5 -26.5t-10.5 -28.5l-432 -453h1272q41 0 81 15.5t72.5 45t52 70.5t19.5 90q0 45 -17.5 85t-47 69t-70.5 45t-90 16h-115q-18 0 -27.5 13.5t-9.5 29.5t10.5 27.5t26.5 11.5h119q66 0 122 -22.5t97 -62.5 t64.5 -95t23.5 -119q0 -61 -24.5 -115.5t-67.5 -95.5t-99.5 -64.5t-119.5 -23.5h-1268l428 -448q10 -12 10.5 -28.5t-10.5 -26.5q-9 -9 -22 -9q-2 0 -5 1q-16 1 -26 12l-483 512q-11 13 -11 31z" />
<glyph unicode="h" horiz-adv-x="1093" d="M102 272q0 18 11 27l747 745h-602q-16 0 -26.5 10.5t-10.5 26.5t10.5 26.5t26.5 10.5h694q16 0 27.5 -11t11.5 -28v-694q0 -16 -9 -27.5t-26 -11.5q-14 0 -24 11.5t-10 27.5v608l-750 -749q-12 -12 -28 -12q-1 0 -2 -1q-16 0 -25 11l-4 4q-10 10 -11 26z" />
<glyph unicode="i" horiz-adv-x="1093" d="M104 1054q0 16 11 27l4 2q11 11 27 11h1q16 0 25 -11l746 -747v602q0 16 10 27.5t26 11.5t26.5 -11.5t10.5 -27.5v-694q0 -16 -11 -27.5t-28 -11.5h-694q-16 0 -27.5 10t-11.5 25q0 16 11.5 26t27.5 10l608 -2l-751 752q-11 11 -11 28z" />
<glyph unicode="j" horiz-adv-x="1314" d="M102 834q0 16 13 26l512 486q12 10 29.5 10t29.5 -10l512 -486q12 -10 12 -26q2 -12 -8 -27q-10 -10 -26.5 -10t-26.5 10l-455 434v-1096q0 -16 -11 -26t-28 -10h-2q-16 0 -27.5 10t-11.5 26v1090l-448 -428q-10 -10 -26.5 -10t-26.5 10t-11 27z" />
<glyph unicode="k" horiz-adv-x="1314" d="M102 631q0 14 11 24q8 12 26 13q16 0 27 -13l455 -432v1094q0 39 41 39q16 0 26 -11.5t10 -27.5v-1090l451 428q10 10 26.5 10.5t26.5 -10.5q10 -10 10 -24q0 -12 -12 -29l-514 -483q-10 -10 -28.5 -10t-28.5 10l-514 483q-12 16 -13 29z" />
<glyph unicode="l" horiz-adv-x="1032" d="M104 300q0 16 13 28l344 364l-342 363q-12 10 -12.5 27.5t10.5 29.5q10 10 25.5 10t25.5 -10l346 -364l352 364q10 10 25.5 10t26.5 -10q10 -12 10 -29.5t-10 -27.5l-347 -365l347 -362q12 -14 12 -29t-12 -29q-9 -9 -23 -9h-3q-16 1 -26 11l-352 365l-348 -365 q-10 -10 -26 -11h-2q-14 0 -23 9q-11 13 -11 30z" />
<glyph unicode="m" horiz-adv-x="1257" d="M102 692q2 16 13.5 27.5t27.5 11.5l449 4l-2 426q0 12 10 27q10 10 27 10q16 -2 27.5 -14.5t11.5 -28.5l4 -424l448 2q16 0 27 -10q10 -14 10 -27q-2 -16 -13.5 -27.5t-27.5 -11.5l-448 -4l2 -415q-1 -15 -11 -25q-8 -10 -24 -10v-27l-2 27q-16 0 -27.5 12t-11.5 29 l-4 411h-449q-16 0 -26 11q-10 10 -11 26z" />
<glyph unicode="n" horiz-adv-x="1755" d="M207 137v1073q0 55 40 95.5t95 40.5h1073q55 0 95 -40t40 -96v-1073q0 -55 -40 -95t-95 -40h-280v520h174l22 201h-196v129q0 47 18 73.5t84 26.5h102v183q-14 0 -56 4t-99 4q-117 0 -188.5 -68.5t-71.5 -197.5v-154h-174v-201h174v-520h-582q-55 0 -95 40t-40 95z" />
<glyph unicode="o" horiz-adv-x="1705" d="M207 137v1073q0 55 40 95.5t95 40.5h1073q55 0 95 -40t40 -96v-1073q0 -55 -40 -95t-95 -40h-1073q-55 0 -95 40t-40 95zM477 399q59 -35 127 -61q59 -22 135 -22q12 0 25 1q111 6 201 47.5t154.5 111t101.5 165.5t39 213q27 20 49 42t26 44q-20 -10 -44.5 -14t-51.5 -11 q27 18 46.5 42t29.5 59q-27 -10 -53.5 -22.5t-61.5 -18.5q-38 49 -98 56q-13 2 -26 2q-46 1 -86 -19q-52 -24 -84 -77q-20 -33 -20 -72q0 -24 7 -50q-133 10 -218 63.5t-153 125.5q-16 -31 -18 -68v-15q0 -29 6 -57q8 -35 26.5 -63.5t41.5 -40.5q-43 0 -74 20 q4 -80 42 -119.5t97 -60.5q-16 0 -33.5 -2t-40.5 2q23 -57 63 -90t105 -37q-45 -41 -119 -63q-51 -15 -98 -14q-22 0 -43 3z" />
<glyph unicode="p" horiz-adv-x="1705" d="M207 137v1073q0 55 40 95.5t95 40.5h1073q55 0 95 -40t40 -96v-1073q0 -55 -40 -95t-95 -40h-1073q-55 0 -95 40t-40 95zM455 1073q0 -43 31.5 -72.5t84.5 -29.5t84 29.5t31 72.5q-4 45 -33 76t-82 31t-84.5 -31t-31.5 -76zM469 276h203v611h-203v-611zM784 276h199v342 q0 27 8 48q10 29 36 51t67 22q55 0 78.5 -37.5t23.5 -97.5v-328h203v353q0 139 -67 205.5t-165 66.5q-41 0 -71.5 -10t-52 -25.5t-36 -33t-24.5 -33.5v88h-199v-611z" />
<glyph unicode="q" horiz-adv-x="1705" d="M207 137v1071q0 57 40 97.5t97 40.5h1067q59 0 100 -40t41 -98v-1071q0 -57 -41 -97t-100 -40h-1067q-57 0 -97 40t-40 97zM385 272q6 -59 51 -101t105 -46q169 -7 338.5 -7t339.5 7q55 4 100 46t53 101q6 90 6 180t-6 181q-8 59 -53 101t-100 46q-170 7 -339.5 7 t-338.5 -7q-59 -4 -104.5 -46t-51.5 -101q-4 -90 -4 -180.5t4 -180.5zM475 612v68h195v-68h-64v-360h-67v360h-64zM553 1231l72 -248v-174h57v174l61 248h-49q-10 -49 -21 -94t-20 -78l-53 172h-47zM682 293v59v226h61v-207q0 -29 2.5 -37t2.5 -12q4 -16 20 -17q18 0 23 17 v53v203h65v-328h-65v18l-19 6q-4 -6 -9 -12t-9 -10q-8 -8 -25 -8q-18 0 -27 8q-12 8 -12 16q-4 8 -5 14.5t-3 10.5zM754 930q0 -20 1 -38t5 -28q0 -10 4 -18t8 -17q4 -6 11.5 -11l13.5 -9q18 -6 47 -6q27 0 41 8q18 10 28 27q10 16 15 36q4 10 4 28v40v57v29.5t-4 24.5 q-2 6 -5 14t-8 16q-4 8 -12 14.5t-16 10.5q-10 4 -20.5 8t-26.5 4q-31 0 -52 -14q-20 -16 -26 -41q-8 -25 -8 -76v-59zM819 895v133q0 18 1 26.5t1 12.5q6 16 23 16q14 0 18 -16q4 -6 4 -39v-135q0 -35 -4 -37q-4 -16 -18 -16q-16 0 -23 16q0 4 -1 12.5t-1 26.5zM905 252 v428h64v-156l22 29q4 6 9.5 12t9.5 8q6 8 20 9q20 0 27 -9q10 -4 14 -14q6 -10 6 -22q4 -27 4 -40.5t0 -9.5v-172q-2 -4 -2 -10q-2 -6 -2 -20q-2 -12 -18 -29q-12 -12 -29 -12q-12 0 -20 8q-4 4 -9.5 10t-9.5 12l-16 23l-4 -25l-6 -20h-60zM971 326q12 -16 22 -17 q16 0 23 19v43v82v29.5t-4 11.5q0 18 -19 18q-16 0 -22 -16v-43v-84v-43zM981 852q4 -6 4 -11t2 -14q4 -4 8 -9t9 -9q8 -6 26 -6q16 0 27 6l9 9t9 16l19 -11v-14h65v309h-65v-203v-45q-4 -4 -7.5 -11t-15.5 -7q-10 0 -15 6t-5 10q-4 4 -4 8.5v34.5v207h-66v-203v-63z M1128 330.5v21.5v101q0 59 9 77q4 12 10 21.5t18 13.5q18 12 43 13q35 0 54 -13q23 -14 28 -41q4 -12 7 -36.5t3 -47.5v-37h-110v-71q0 -16 2 -23.5t2 -11.5q4 -12 20 -12q18 0 23 14q4 10 4 39v37h59v-17v-27.5t-4 -19.5q-4 -6 -6 -14t-6 -18q-8 -8 -13 -14.5t-16 -12.5 q-6 -4 -17 -6t-24 -2q-27 0 -43 8q-18 14 -24 22q-8 10 -10 17.5t-7 17.5q-2 10 -2 21.5zM1190 440h47v47q0 18 -1 19.5t-1 5.5q-6 16 -21 16q-16 0 -20 -16q0 -4 -2 -5t-2 -20v-36v-11z" />
<glyph unicode="&#xa0;" />
<glyph unicode="&#x2000;" horiz-adv-x="920" />
<glyph unicode="&#x2001;" horiz-adv-x="1841" />
<glyph unicode="&#x2002;" horiz-adv-x="920" />
<glyph unicode="&#x2003;" horiz-adv-x="1841" />
<glyph unicode="&#x2004;" horiz-adv-x="613" />
<glyph unicode="&#x2005;" horiz-adv-x="460" />
<glyph unicode="&#x2006;" horiz-adv-x="306" />
<glyph unicode="&#x2007;" horiz-adv-x="306" />
<glyph unicode="&#x2008;" horiz-adv-x="230" />
<glyph unicode="&#x2009;" horiz-adv-x="368" />
<glyph unicode="&#x200a;" horiz-adv-x="102" />
<glyph unicode="&#x202f;" horiz-adv-x="368" />
<glyph unicode="&#x205f;" horiz-adv-x="460" />
<glyph unicode="&#x25fc;" d="M0 0z" />
</font>
</defs>
</svg>
