<?xml version="1.0" encoding="utf-8"?>
<!-- Generator: Adobe Illustrator 19.0.0, SVG Export Plug-In . SVG Version: 6.00 Build 0)  -->
<svg version="1.1" id="Calque_1" xmlns="http://www.w3.org/2000/svg" xmlns:xlink="http://www.w3.org/1999/xlink" x="0px" y="0px"
	 viewBox="0 0 651.1 450.6" style="enable-background:new 0 0 651.1 450.6;" xml:space="preserve">
<style type="text/css">
	.st0{fill:#00A984;}
	.st1{fill:#1D1D1B;}
</style>
<g>
	<path class="st0" d="M292.9,287.4c0,13.1-10.6,23.6-23.6,23.6c-13.1,0-23.6-10.6-23.6-23.6c0-13.1,10.6-23.6,23.6-23.6
		C282.3,263.7,292.9,274.3,292.9,287.4"/>
	<path class="st0" d="M473.8,198.4c0,13.1-10.6,23.6-23.6,23.6c-13.1,0-23.6-10.6-23.6-23.6c0-13.1,10.6-23.6,23.6-23.6
		C463.2,174.8,473.8,185.4,473.8,198.4"/>
	<path class="st1" d="M190.8,74.9c-4.2,12.6-15.4,20.9-29.2,20.9c-17.8,0-31.3-14.4-31.3-32.5c0-18.3,13.3-32.7,31.3-32.7
		c13.6,0,24.8,8.2,29.1,20.6l-11.7,3.6c-2.7-8-9.2-12.8-17.4-12.8c-10.8,0-19,8.9-19,21.4c0,12,8.2,21.1,19,21.1
		c8.1,0,14.8-5.1,17.4-12.8L190.8,74.9z"/>
	<path class="st1" d="M227.2,67.8c-0.2-4.3-3.4-8.2-9.9-8.2c-5.8,0-9.7,4.3-9.9,8.2H227.2z M235.1,76.1h-28c0.3,5.8,5.2,10,11.2,10
		c5.7,0,8.7-2.8,10.2-6.7l10,2.9c-2.3,7.4-9.3,13.7-20.3,13.7c-12.2,0-22.9-8.6-22.9-23.2c0-13.8,10.5-22.9,21.9-22.9
		c13.7,0,22,8.5,22,22.4L235.1,76.1z"/>
	<path class="st1" d="M258.6,94.7h-11.2V51.4h9l1.2,3.9c3.3-3.6,7.2-5,12.1-5c10.3,0,16.7,6,16.7,17.6v26.8h-11.2V69.5
		c0-6.6-3.3-8.5-7.4-8.5c-3.5,0-6.6,2.6-9.2,6.3V94.7z"/>
	<path class="st1" d="M311,79.9c0,4.4,2.7,5,5.4,5c1.9,0,3-0.3,3.6-0.4v10.3c-1,0.4-3.3,0.9-5.8,0.9c-9.5,0-14.7-5.1-14.7-14.7V61.7
		h-6.9v-8.1l7-2.2c0.4-3.5,1.2-7.8,1.7-11.2h9.7v11.1h8.6v10.4H311V79.9z"/>
	<path class="st1" d="M338,51.3l1.9,5.3c2.5-4.3,6.9-6.4,13.5-6.4v12.6c-8.7-0.4-13,4-13,11.9v20h-11.4V51.3H338z"/>
	<path class="st1" d="M388.6,67.8c-0.2-4.3-3.4-8.2-9.9-8.2c-5.8,0-9.7,4.3-9.9,8.2H388.6z M396.5,76.1h-28c0.3,5.8,5.2,10,11.2,10
		c5.7,0,8.7-2.8,10.2-6.7l10,2.9c-2.3,7.4-9.3,13.7-20.3,13.7c-12.2,0-23-8.6-23-23.2c0-13.8,10.5-22.9,21.9-22.9
		c13.7,0,22,8.5,22,22.4L396.5,76.1z"/>
	<path class="st1" d="M161.3,184.6v-16.1c-2.1-2.8-5.5-4.3-9.2-4.3c-6.5,0-11.1,5.2-11.1,12.3c0,7.2,4.6,12.3,11.1,12.3
		C155.7,188.7,159,187.2,161.3,184.6 M161.3,157.3v-22h11.3v62.8h-9.4l-0.7-2.5c-3.4,2.4-7.4,3.5-11.6,3.5
		c-13.2,0-21.5-10.4-21.5-22.8c0-12.3,7.4-22.8,20.6-22.8C154.3,153.6,158.2,154.8,161.3,157.3"/>
</g>
<polygon class="st1" points="183.1,132.3 195.8,132.3 187.2,155.2 177.4,155.2 "/>
<g>
	<path class="st1" d="M251.9,166.7c0-12.4-9.2-21.3-20.5-21.3s-20.6,8.9-20.6,21.3c0,12,9.5,21,20.6,21
		C242.5,187.7,251.9,178.7,251.9,166.7 M198.5,166.7c0-18.2,14.2-32.6,33-32.6c18.5,0,32.8,14.3,32.8,32.6
		c0,18.1-14.3,32.4-32.8,32.4C212.8,199.2,198.5,184.7,198.5,166.7"/>
	<path class="st1" d="M284.7,198.1h-11.2v-43.3h9l1.2,3.9c3.3-3.6,7.2-5,12.1-5c10.3,0,16.7,6,16.7,17.6v26.8h-11.2v-25.3
		c0-6.6-3.3-8.5-7.4-8.5c-3.5,0-6.6,2.6-9.2,6.3V198.1z"/>
	<path class="st1" d="M353.5,169.8c-1.9-3.4-5.1-5.7-9.7-5.7c-7.1,0-12,5.3-12,12.2c0,6.9,4.9,12.4,12,12.4c5,0,8.6-2.7,10.2-6.9
		l10.1,4.7c-3.5,7.5-11,12.7-20.4,12.7c-13.4,0-23.3-10.5-23.3-22.9c0-12.4,9.8-22.6,23.3-22.6c9.4,0,16.7,5,20.3,12.3L353.5,169.8z
		"/>
	<path class="st1" d="M404,176.3c0-6.9-5.1-12.2-12.1-12.2c-7.1,0-12.2,5.3-12.2,12.2c0,6.9,5.1,12.4,12.2,12.4
		C398.9,188.7,404,183.3,404,176.3 M368.3,176.2c0-12.4,10.1-22.6,23.6-22.6c13.4,0,23.5,10.1,23.5,22.6c0,12.7-10.2,23-23.5,23
		C378.5,199.2,368.3,188.7,368.3,176.2"/>
</g>
<rect x="423.8" y="135.3" class="st1" width="11.4" height="62.8"/>
<g>
	<path class="st1" d="M479.3,176.3c0-6.9-5.1-12.2-12.1-12.2c-7.1,0-12.2,5.3-12.2,12.2c0,6.9,5.1,12.4,12.2,12.4
		C474.2,188.7,479.3,183.3,479.3,176.3 M443.6,176.2c0-12.4,10.1-22.6,23.6-22.6c13.4,0,23.5,10.1,23.5,22.6c0,12.7-10.2,23-23.5,23
		C453.8,199.2,443.6,188.7,443.6,176.2"/>
	<path class="st1" d="M508.6,175.6c0,7.1,4.6,11.4,11.1,11.4c3.7,0,7.1-1.5,9.2-4.3v-14.4c-2.2-2.7-5.6-4.2-9.2-4.2
		C513.2,164.2,508.6,168.4,508.6,175.6 M540.2,198.2c0,12.6-7.6,21.4-22.1,21.4c-8.2,0-16.3-4-21.3-11.5l9.4-6.7
		c2.9,5.1,7.5,7.9,11.8,7.9c7.3,0,10.8-4.3,10.8-11v-4.4c-3,2.5-6.9,3.6-11.3,3.6c-13.2,0-20.6-9.6-20.6-21.9
		c0-12.4,8.3-21.9,21.5-21.9c4.2,0,8.2,1.2,11.6,3.5l0.7-2.5h9.4V198.2z"/>
	<path class="st1" d="M551.6,154.7h11.4v43.4h-11.4V154.7z M549.9,140.8c0-4,3.4-7.3,7.5-7.3c4.1,0,7.4,3.3,7.4,7.3
		c0,3.9-3.4,7.3-7.4,7.3C553.3,148,549.9,144.7,549.9,140.8"/>
	<path class="st1" d="M604,171.2c-0.2-4.3-3.4-8.2-9.9-8.2c-5.8,0-9.7,4.3-9.9,8.2H604z M611.9,179.5h-28c0.3,5.8,5.2,10,11.2,10
		c5.7,0,8.7-2.8,10.2-6.7l10,2.9c-2.3,7.4-9.3,13.7-20.3,13.7c-12.2,0-22.9-8.6-22.9-23.2c0-13.8,10.5-22.9,21.9-22.9
		c13.7,0,22,8.5,22,22.4L611.9,179.5z"/>
	<path class="st1" d="M161.3,287.9v-16.1c-2.1-2.8-5.5-4.3-9.2-4.3c-6.5,0-11.1,5.2-11.1,12.3c0,7.2,4.6,12.3,11.1,12.3
		C155.7,292.1,159,290.6,161.3,287.9 M161.3,260.6v-22h11.3v62.8h-9.4l-0.7-2.5c-3.4,2.4-7.4,3.5-11.6,3.5
		c-13.2,0-21.5-10.4-21.5-22.8c0-12.3,7.4-22.8,20.6-22.8C154.3,257,158.2,258.2,161.3,260.6"/>
	<path class="st1" d="M211.5,258.2h11.3v43.3h-8.9l-1.2-3.5c-3.6,3.2-7.4,4.5-12.3,4.5c-10.3,0-16.7-6-16.7-17.6v-26.8h11.2v25.3
		c0,6.6,3.3,8.5,7.5,8.5c3.5,0,6.6-2.7,9.1-6.3V258.2z"/>
	<path class="st1" d="M294.7,258.2c0-4.7-2.8-8.7-9.7-8.7h-11.3v17.8h11.4C291.8,267.3,294.7,262.9,294.7,258.2 M306.7,258.2
		c0,12.8-9.5,20-20.6,20h-12.4v23.3h-12.1v-62.9h24.5C297.3,238.6,306.7,245.3,306.7,258.2"/>
	<path class="st1" d="M337.7,283c-2.7,0.2-5.7,0.2-8.4,0.6c-5.6,0.8-6.9,3.1-6.9,5.3c0,2.4,2,4.5,5.6,4.5c3.8,0,7.6-1.9,9.7-4.2V283
		z M337.7,272.1c0-3.1-2.4-5.7-7.4-5.7c-5.1,0-8,3.3-8.3,6.7l-10.5-2.2c0.7-6.8,7-14,18.7-14c13.8,0,19,7.8,19,16.6v28h-9.7l-1-3.3
		c-3.5,2.6-7.8,4.3-12.3,4.3c-9.1,0-15.6-5-15.6-13c0-7.7,6.6-12.5,15.8-13.8c3.9-0.6,7.9-0.7,11.3-0.9V272.1z"/>
	<path class="st1" d="M399.1,258.1l-24.4,62.2h-12l8.9-22.3c-5.4-12.6-11.6-27.4-17-39.9h12.5l10.1,25.1l9.9-25.1H399.1z"/>
	<path class="st1" d="M406.9,299.4c-3-2.3-4.8-4.9-5.3-7.8l9.9-3.6c1.3,3.5,3.8,5.1,7.4,5.1c2.8,0,4.6-1.5,4.6-3.5
		c0-1.7-1.2-3-3.5-3.8l-7.1-2.9c-6.6-2.7-10-6.6-10-12.2c0-4,1.4-7.3,4.3-9.8c2.9-2.6,6.6-3.8,11.3-3.8c4.5,0,8.2,1.3,10.9,3.7
		c2.8,2.5,4.5,5.1,5,8.2l-10,2.6c-0.4-2.6-2.5-4.7-5.9-4.7c-2.6,0-4.5,1.4-4.5,3.3c0,1.5,1.3,2.7,4.1,3.7l5.9,2.3
		c7.4,2.8,11.2,7.1,11.2,12.8c0,4.2-1.6,7.5-4.8,10.2c-3.1,2.6-7.1,3.9-11.8,3.9C413.9,302.8,410,301.7,406.9,299.4"/>
	<path class="st1" d="M165.7,385.4c0-4.6-2.8-7.9-10.5-7.9h-9.7v16.5h10.5C163.3,393.9,165.7,388.6,165.7,385.4 M156.2,366.6
		c5,0,7.8-2.9,7.8-7c0-4-2.8-6.7-7.6-6.7h-11v13.7H156.2z M177.6,385.7c0,11.7-8,19.1-21.1,19.1h-23.2v-62.9h23.5
		c9.6,0,19,5.2,19,17c0,6.3-3.7,10.6-7.4,12.3C173,373.7,177.6,377.6,177.6,385.7"/>
	<path class="st1" d="M210.9,386.3c-2.7,0.2-5.7,0.2-8.4,0.6c-5.6,0.8-6.9,3.1-6.9,5.3c0,2.4,2,4.5,5.6,4.5c3.8,0,7.6-1.9,9.7-4.2
		V386.3z M210.9,375.4c0-3.1-2.4-5.7-7.4-5.7c-5.1,0-8,3.3-8.3,6.7l-10.5-2.2c0.7-6.8,7-14,18.7-14c13.8,0,19,7.8,19,16.6v28h-9.7
		l-1-3.3c-3.5,2.6-7.8,4.3-12.3,4.3c-9.1,0-15.6-5-15.6-13c0-7.7,6.6-12.5,15.8-13.8c3.9-0.6,7.9-0.7,11.3-0.9V375.4z"/>
	<path class="st1" d="M235.2,402.7c-3-2.3-4.8-4.9-5.3-7.8l9.9-3.6c1.3,3.5,3.8,5.1,7.4,5.1c2.8,0,4.6-1.5,4.6-3.5
		c0-1.7-1.2-3-3.5-3.8l-7.1-2.9c-6.6-2.7-10-6.6-10-12.2c0-4,1.4-7.3,4.3-9.8c2.9-2.6,6.6-3.8,11.3-3.8c4.5,0,8.2,1.3,10.9,3.7
		c2.8,2.5,4.5,5.1,5,8.2l-10,2.6c-0.4-2.6-2.5-4.7-5.9-4.7c-2.6,0-4.5,1.4-4.5,3.3c0,1.5,1.3,2.7,4.1,3.7l5.9,2.3
		c7.4,2.8,11.2,7.1,11.2,12.8c0,4.2-1.6,7.5-4.8,10.2c-3.1,2.6-7.1,3.9-11.8,3.9C242.2,406.2,238.3,405,235.2,402.7"/>
	<path class="st1" d="M280.4,383.2c0,7.1,4.6,12.3,11.1,12.3c3.7,0,7.1-1.5,9.2-4.3v-16.1c-2.2-2.7-5.6-4.2-9.2-4.2
		C285,370.9,280.4,376,280.4,383.2 M268.8,383.2c0-12.4,8.3-22.8,21.5-22.8c4.2,0,8.2,1.2,11.6,3.5l0.7-2.5h9.4v63.7h-11.3v-22.9
		c-3,2.5-6.9,3.6-11.3,3.6C276.3,406,268.8,395.5,268.8,383.2"/>
	<path class="st1" d="M350.9,361.5h11.3v43.3h-8.9l-1.2-3.5c-3.6,3.2-7.4,4.5-12.3,4.5c-10.3,0-16.7-6-16.7-17.6v-26.8h11.2v25.3
		c0,6.6,3.3,8.5,7.5,8.5c3.5,0,6.6-2.7,9.1-6.3V361.5z"/>
	<path class="st1" d="M402.6,377.9c-0.2-4.3-3.4-8.2-9.9-8.2c-5.8,0-9.7,4.3-9.9,8.2H402.6z M410.5,386.2h-28
		c0.3,5.8,5.2,10,11.2,10c5.7,0,8.7-2.8,10.2-6.7l10,2.9c-2.3,7.4-9.3,13.7-20.3,13.7c-12.2,0-23-8.6-23-23.2
		c0-13.8,10.5-22.9,21.9-22.9c13.7,0,22,8.5,22,22.4L410.5,386.2z"/>
	<path class="st0" d="M161,49.1c0,13.1-10.6,23.6-23.6,23.6c-13.1,0-23.6-10.6-23.6-23.6c0-13.1,10.6-23.6,23.6-23.6
		C150.4,25.4,161,36,161,49.1"/>
	<path class="st0" d="M634.1,145.7c0,13.1-10.6,23.6-23.6,23.6c-13.1,0-23.6-10.6-23.6-23.6c0-13.1,10.6-23.6,23.6-23.6
		C623.5,122.1,634.1,132.7,634.1,145.7"/>
	<path class="st0" d="M584.5,342.9c0,13.1-10.6,23.6-23.6,23.6s-23.6-10.6-23.6-23.6c0-13.1,10.6-23.6,23.6-23.6
		S584.5,329.8,584.5,342.9"/>
	<path class="st0" d="M328.9,358.1c0,13.1-10.6,23.6-23.6,23.6s-23.6-10.6-23.6-23.6c0-13.1,10.6-23.6,23.6-23.6
		S328.9,345,328.9,358.1"/>
	<path class="st0" d="M64.3,222.1c0,13.1-10.6,23.6-23.6,23.6c-13.1,0-23.6-10.6-23.6-23.6c0-13.1,10.6-23.6,23.6-23.6
		C53.7,198.4,64.3,209,64.3,222.1"/>
</g>
</svg>
